<?xml version="1.0" encoding="utf-8" standalone="no"?>
<!DOCTYPE svg PUBLIC "-//W3C//DTD SVG 1.1//EN"
  "http://www.w3.org/Graphics/SVG/1.1/DTD/svg11.dtd">
<!-- Created with matplotlib (http://matplotlib.org/) -->
<svg height="345.6pt" version="1.1" viewBox="0 0 460.8 345.6" width="460.8pt" xmlns="http://www.w3.org/2000/svg" xmlns:xlink="http://www.w3.org/1999/xlink">
 <defs>
  <style type="text/css">
*{stroke-linecap:butt;stroke-linejoin:round;}
  </style>
 </defs>
 <g id="figure_1">
  <g id="patch_1">
   <path d="M 0 345.6 
L 460.8 345.6 
L 460.8 0 
L 0 0 
z
" style="fill:#ffffff;"/>
  </g>
  <g id="axes_1">
   <g id="patch_2">
    <path d="M 57.6 307.584 
L 414.72 307.584 
L 414.72 41.472 
L 57.6 41.472 
z
" style="fill:#ffffff;"/>
   </g>
   <g id="matplotlib.axis_1">
    <g id="xtick_1">
     <g id="line2d_1">
      <defs>
       <path d="M 0 0 
L 0 3.5 
" id="m8b18b0dd56" style="stroke:#000000;stroke-width:0.8;"/>
      </defs>
      <g>
       <use style="stroke:#000000;stroke-width:0.8;" x="73.832727" xlink:href="#m8b18b0dd56" y="307.584"/>
      </g>
     </g>
     <g id="text_1">
      <!-- 0 -->
      <defs>
       <path d="M 31.78125 66.40625 
Q 24.171875 66.40625 20.328125 58.90625 
Q 16.5 51.421875 16.5 36.375 
Q 16.5 21.390625 20.328125 13.890625 
Q 24.171875 6.390625 31.78125 6.390625 
Q 39.453125 6.390625 43.28125 13.890625 
Q 47.125 21.390625 47.125 36.375 
Q 47.125 51.421875 43.28125 58.90625 
Q 39.453125 66.40625 31.78125 66.40625 
z
M 31.78125 74.21875 
Q 44.046875 74.21875 50.515625 64.515625 
Q 56.984375 54.828125 56.984375 36.375 
Q 56.984375 17.96875 50.515625 8.265625 
Q 44.046875 -1.421875 31.78125 -1.421875 
Q 19.53125 -1.421875 13.0625 8.265625 
Q 6.59375 17.96875 6.59375 36.375 
Q 6.59375 54.828125 13.0625 64.515625 
Q 19.53125 74.21875 31.78125 74.21875 
z
" id="DejaVuSans-30"/>
      </defs>
      <g transform="translate(70.651477 322.182437)scale(0.1 -0.1)">
       <use xlink:href="#DejaVuSans-30"/>
      </g>
     </g>
    </g>
    <g id="xtick_2">
     <g id="line2d_2">
      <g>
       <use style="stroke:#000000;stroke-width:0.8;" x="128.122785" xlink:href="#m8b18b0dd56" y="307.584"/>
      </g>
     </g>
     <g id="text_2">
      <!-- 50 -->
      <defs>
       <path d="M 10.796875 72.90625 
L 49.515625 72.90625 
L 49.515625 64.59375 
L 19.828125 64.59375 
L 19.828125 46.734375 
Q 21.96875 47.46875 24.109375 47.828125 
Q 26.265625 48.1875 28.421875 48.1875 
Q 40.625 48.1875 47.75 41.5 
Q 54.890625 34.8125 54.890625 23.390625 
Q 54.890625 11.625 47.5625 5.09375 
Q 40.234375 -1.421875 26.90625 -1.421875 
Q 22.3125 -1.421875 17.546875 -0.640625 
Q 12.796875 0.140625 7.71875 1.703125 
L 7.71875 11.625 
Q 12.109375 9.234375 16.796875 8.0625 
Q 21.484375 6.890625 26.703125 6.890625 
Q 35.15625 6.890625 40.078125 11.328125 
Q 45.015625 15.765625 45.015625 23.390625 
Q 45.015625 31 40.078125 35.4375 
Q 35.15625 39.890625 26.703125 39.890625 
Q 22.75 39.890625 18.8125 39.015625 
Q 14.890625 38.140625 10.796875 36.28125 
z
" id="DejaVuSans-35"/>
      </defs>
      <g transform="translate(121.760285 322.182437)scale(0.1 -0.1)">
       <use xlink:href="#DejaVuSans-35"/>
       <use x="63.623047" xlink:href="#DejaVuSans-30"/>
      </g>
     </g>
    </g>
    <g id="xtick_3">
     <g id="line2d_3">
      <g>
       <use style="stroke:#000000;stroke-width:0.8;" x="182.412843" xlink:href="#m8b18b0dd56" y="307.584"/>
      </g>
     </g>
     <g id="text_3">
      <!-- 100 -->
      <defs>
       <path d="M 12.40625 8.296875 
L 28.515625 8.296875 
L 28.515625 63.921875 
L 10.984375 60.40625 
L 10.984375 69.390625 
L 28.421875 72.90625 
L 38.28125 72.90625 
L 38.28125 8.296875 
L 54.390625 8.296875 
L 54.390625 0 
L 12.40625 0 
z
" id="DejaVuSans-31"/>
      </defs>
      <g transform="translate(172.869093 322.182437)scale(0.1 -0.1)">
       <use xlink:href="#DejaVuSans-31"/>
       <use x="63.623047" xlink:href="#DejaVuSans-30"/>
       <use x="127.246094" xlink:href="#DejaVuSans-30"/>
      </g>
     </g>
    </g>
    <g id="xtick_4">
     <g id="line2d_4">
      <g>
       <use style="stroke:#000000;stroke-width:0.8;" x="236.702901" xlink:href="#m8b18b0dd56" y="307.584"/>
      </g>
     </g>
     <g id="text_4">
      <!-- 150 -->
      <g transform="translate(227.159151 322.182437)scale(0.1 -0.1)">
       <use xlink:href="#DejaVuSans-31"/>
       <use x="63.623047" xlink:href="#DejaVuSans-35"/>
       <use x="127.246094" xlink:href="#DejaVuSans-30"/>
      </g>
     </g>
    </g>
    <g id="xtick_5">
     <g id="line2d_5">
      <g>
       <use style="stroke:#000000;stroke-width:0.8;" x="290.992958" xlink:href="#m8b18b0dd56" y="307.584"/>
      </g>
     </g>
     <g id="text_5">
      <!-- 200 -->
      <defs>
       <path d="M 19.1875 8.296875 
L 53.609375 8.296875 
L 53.609375 0 
L 7.328125 0 
L 7.328125 8.296875 
Q 12.9375 14.109375 22.625 23.890625 
Q 32.328125 33.6875 34.8125 36.53125 
Q 39.546875 41.84375 41.421875 45.53125 
Q 43.3125 49.21875 43.3125 52.78125 
Q 43.3125 58.59375 39.234375 62.25 
Q 35.15625 65.921875 28.609375 65.921875 
Q 23.96875 65.921875 18.8125 64.3125 
Q 13.671875 62.703125 7.8125 59.421875 
L 7.8125 69.390625 
Q 13.765625 71.78125 18.9375 73 
Q 24.125 74.21875 28.421875 74.21875 
Q 39.75 74.21875 46.484375 68.546875 
Q 53.21875 62.890625 53.21875 53.421875 
Q 53.21875 48.921875 51.53125 44.890625 
Q 49.859375 40.875 45.40625 35.40625 
Q 44.1875 33.984375 37.640625 27.21875 
Q 31.109375 20.453125 19.1875 8.296875 
z
" id="DejaVuSans-32"/>
      </defs>
      <g transform="translate(281.449208 322.182437)scale(0.1 -0.1)">
       <use xlink:href="#DejaVuSans-32"/>
       <use x="63.623047" xlink:href="#DejaVuSans-30"/>
       <use x="127.246094" xlink:href="#DejaVuSans-30"/>
      </g>
     </g>
    </g>
    <g id="xtick_6">
     <g id="line2d_6">
      <g>
       <use style="stroke:#000000;stroke-width:0.8;" x="345.283016" xlink:href="#m8b18b0dd56" y="307.584"/>
      </g>
     </g>
     <g id="text_6">
      <!-- 250 -->
      <g transform="translate(335.739266 322.182437)scale(0.1 -0.1)">
       <use xlink:href="#DejaVuSans-32"/>
       <use x="63.623047" xlink:href="#DejaVuSans-35"/>
       <use x="127.246094" xlink:href="#DejaVuSans-30"/>
      </g>
     </g>
    </g>
    <g id="xtick_7">
     <g id="line2d_7">
      <g>
       <use style="stroke:#000000;stroke-width:0.8;" x="399.573074" xlink:href="#m8b18b0dd56" y="307.584"/>
      </g>
     </g>
    </g>
    <g id="text_7">
     <!-- Frame index -->
     <defs>
      <path d="M 9.8125 72.90625 
L 51.703125 72.90625 
L 51.703125 64.59375 
L 19.671875 64.59375 
L 19.671875 43.109375 
L 48.578125 43.109375 
L 48.578125 34.8125 
L 19.671875 34.8125 
L 19.671875 0 
L 9.8125 0 
z
" id="DejaVuSans-46"/>
      <path d="M 41.109375 46.296875 
Q 39.59375 47.171875 37.8125 47.578125 
Q 36.03125 48 33.890625 48 
Q 26.265625 48 22.1875 43.046875 
Q 18.109375 38.09375 18.109375 28.8125 
L 18.109375 0 
L 9.078125 0 
L 9.078125 54.6875 
L 18.109375 54.6875 
L 18.109375 46.1875 
Q 20.953125 51.171875 25.484375 53.578125 
Q 30.03125 56 36.53125 56 
Q 37.453125 56 38.578125 55.875 
Q 39.703125 55.765625 41.0625 55.515625 
z
" id="DejaVuSans-72"/>
      <path d="M 34.28125 27.484375 
Q 23.390625 27.484375 19.1875 25 
Q 14.984375 22.515625 14.984375 16.5 
Q 14.984375 11.71875 18.140625 8.90625 
Q 21.296875 6.109375 26.703125 6.109375 
Q 34.1875 6.109375 38.703125 11.40625 
Q 43.21875 16.703125 43.21875 25.484375 
L 43.21875 27.484375 
z
M 52.203125 31.203125 
L 52.203125 0 
L 43.21875 0 
L 43.21875 8.296875 
Q 40.140625 3.328125 35.546875 0.953125 
Q 30.953125 -1.421875 24.3125 -1.421875 
Q 15.921875 -1.421875 10.953125 3.296875 
Q 6 8.015625 6 15.921875 
Q 6 25.140625 12.171875 29.828125 
Q 18.359375 34.515625 30.609375 34.515625 
L 43.21875 34.515625 
L 43.21875 35.40625 
Q 43.21875 41.609375 39.140625 45 
Q 35.0625 48.390625 27.6875 48.390625 
Q 23 48.390625 18.546875 47.265625 
Q 14.109375 46.140625 10.015625 43.890625 
L 10.015625 52.203125 
Q 14.9375 54.109375 19.578125 55.046875 
Q 24.21875 56 28.609375 56 
Q 40.484375 56 46.34375 49.84375 
Q 52.203125 43.703125 52.203125 31.203125 
z
" id="DejaVuSans-61"/>
      <path d="M 52 44.1875 
Q 55.375 50.25 60.0625 53.125 
Q 64.75 56 71.09375 56 
Q 79.640625 56 84.28125 50.015625 
Q 88.921875 44.046875 88.921875 33.015625 
L 88.921875 0 
L 79.890625 0 
L 79.890625 32.71875 
Q 79.890625 40.578125 77.09375 44.375 
Q 74.3125 48.1875 68.609375 48.1875 
Q 61.625 48.1875 57.5625 43.546875 
Q 53.515625 38.921875 53.515625 30.90625 
L 53.515625 0 
L 44.484375 0 
L 44.484375 32.71875 
Q 44.484375 40.625 41.703125 44.40625 
Q 38.921875 48.1875 33.109375 48.1875 
Q 26.21875 48.1875 22.15625 43.53125 
Q 18.109375 38.875 18.109375 30.90625 
L 18.109375 0 
L 9.078125 0 
L 9.078125 54.6875 
L 18.109375 54.6875 
L 18.109375 46.1875 
Q 21.1875 51.21875 25.484375 53.609375 
Q 29.78125 56 35.6875 56 
Q 41.65625 56 45.828125 52.96875 
Q 50 49.953125 52 44.1875 
z
" id="DejaVuSans-6d"/>
      <path d="M 56.203125 29.59375 
L 56.203125 25.203125 
L 14.890625 25.203125 
Q 15.484375 15.921875 20.484375 11.0625 
Q 25.484375 6.203125 34.421875 6.203125 
Q 39.59375 6.203125 44.453125 7.46875 
Q 49.3125 8.734375 54.109375 11.28125 
L 54.109375 2.78125 
Q 49.265625 0.734375 44.1875 -0.34375 
Q 39.109375 -1.421875 33.890625 -1.421875 
Q 20.796875 -1.421875 13.15625 6.1875 
Q 5.515625 13.8125 5.515625 26.8125 
Q 5.515625 40.234375 12.765625 48.109375 
Q 20.015625 56 32.328125 56 
Q 43.359375 56 49.78125 48.890625 
Q 56.203125 41.796875 56.203125 29.59375 
z
M 47.21875 32.234375 
Q 47.125 39.59375 43.09375 43.984375 
Q 39.0625 48.390625 32.421875 48.390625 
Q 24.90625 48.390625 20.390625 44.140625 
Q 15.875 39.890625 15.1875 32.171875 
z
" id="DejaVuSans-65"/>
      <path id="DejaVuSans-20"/>
      <path d="M 9.421875 54.6875 
L 18.40625 54.6875 
L 18.40625 0 
L 9.421875 0 
z
M 9.421875 75.984375 
L 18.40625 75.984375 
L 18.40625 64.59375 
L 9.421875 64.59375 
z
" id="DejaVuSans-69"/>
      <path d="M 54.890625 33.015625 
L 54.890625 0 
L 45.90625 0 
L 45.90625 32.71875 
Q 45.90625 40.484375 42.875 44.328125 
Q 39.84375 48.1875 33.796875 48.1875 
Q 26.515625 48.1875 22.3125 43.546875 
Q 18.109375 38.921875 18.109375 30.90625 
L 18.109375 0 
L 9.078125 0 
L 9.078125 54.6875 
L 18.109375 54.6875 
L 18.109375 46.1875 
Q 21.34375 51.125 25.703125 53.5625 
Q 30.078125 56 35.796875 56 
Q 45.21875 56 50.046875 50.171875 
Q 54.890625 44.34375 54.890625 33.015625 
z
" id="DejaVuSans-6e"/>
      <path d="M 45.40625 46.390625 
L 45.40625 75.984375 
L 54.390625 75.984375 
L 54.390625 0 
L 45.40625 0 
L 45.40625 8.203125 
Q 42.578125 3.328125 38.25 0.953125 
Q 33.9375 -1.421875 27.875 -1.421875 
Q 17.96875 -1.421875 11.734375 6.484375 
Q 5.515625 14.40625 5.515625 27.296875 
Q 5.515625 40.1875 11.734375 48.09375 
Q 17.96875 56 27.875 56 
Q 33.9375 56 38.25 53.625 
Q 42.578125 51.265625 45.40625 46.390625 
z
M 14.796875 27.296875 
Q 14.796875 17.390625 18.875 11.75 
Q 22.953125 6.109375 30.078125 6.109375 
Q 37.203125 6.109375 41.296875 11.75 
Q 45.40625 17.390625 45.40625 27.296875 
Q 45.40625 37.203125 41.296875 42.84375 
Q 37.203125 48.484375 30.078125 48.484375 
Q 22.953125 48.484375 18.875 42.84375 
Q 14.796875 37.203125 14.796875 27.296875 
z
" id="DejaVuSans-64"/>
      <path d="M 54.890625 54.6875 
L 35.109375 28.078125 
L 55.90625 0 
L 45.3125 0 
L 29.390625 21.484375 
L 13.484375 0 
L 2.875 0 
L 24.125 28.609375 
L 4.6875 54.6875 
L 15.28125 54.6875 
L 29.78125 35.203125 
L 44.28125 54.6875 
z
" id="DejaVuSans-78"/>
     </defs>
     <g transform="translate(204.867031 335.860562)scale(0.1 -0.1)">
      <use xlink:href="#DejaVuSans-46"/>
      <use x="57.410156" xlink:href="#DejaVuSans-72"/>
      <use x="98.523438" xlink:href="#DejaVuSans-61"/>
      <use x="159.802734" xlink:href="#DejaVuSans-6d"/>
      <use x="257.214844" xlink:href="#DejaVuSans-65"/>
      <use x="318.738281" xlink:href="#DejaVuSans-20"/>
      <use x="350.525391" xlink:href="#DejaVuSans-69"/>
      <use x="378.308594" xlink:href="#DejaVuSans-6e"/>
      <use x="441.6875" xlink:href="#DejaVuSans-64"/>
      <use x="505.164062" xlink:href="#DejaVuSans-65"/>
      <use x="566.671875" xlink:href="#DejaVuSans-78"/>
     </g>
    </g>
   </g>
   <g id="matplotlib.axis_2">
    <g id="ytick_1">
     <g id="line2d_8">
      <defs>
       <path d="M 0 0 
L -3.5 0 
" id="m8d4b394415" style="stroke:#000000;stroke-width:0.8;"/>
      </defs>
      <g>
       <use style="stroke:#000000;stroke-width:0.8;" x="57.6" xlink:href="#m8d4b394415" y="302.421489"/>
      </g>
     </g>
     <g id="text_8">
      <!-- 1.75 -->
      <defs>
       <path d="M 10.6875 12.40625 
L 21 12.40625 
L 21 0 
L 10.6875 0 
z
" id="DejaVuSans-2e"/>
       <path d="M 8.203125 72.90625 
L 55.078125 72.90625 
L 55.078125 68.703125 
L 28.609375 0 
L 18.3125 0 
L 43.21875 64.59375 
L 8.203125 64.59375 
z
" id="DejaVuSans-37"/>
      </defs>
      <g transform="translate(28.334375 306.220708)scale(0.1 -0.1)">
       <use xlink:href="#DejaVuSans-31"/>
       <use x="63.623047" xlink:href="#DejaVuSans-2e"/>
       <use x="95.410156" xlink:href="#DejaVuSans-37"/>
       <use x="159.033203" xlink:href="#DejaVuSans-35"/>
      </g>
     </g>
    </g>
    <g id="ytick_2">
     <g id="line2d_9">
      <g>
       <use style="stroke:#000000;stroke-width:0.8;" x="57.6" xlink:href="#m8d4b394415" y="272.380887"/>
      </g>
     </g>
     <g id="text_9">
      <!-- 2.00 -->
      <g transform="translate(28.334375 276.180105)scale(0.1 -0.1)">
       <use xlink:href="#DejaVuSans-32"/>
       <use x="63.623047" xlink:href="#DejaVuSans-2e"/>
       <use x="95.410156" xlink:href="#DejaVuSans-30"/>
       <use x="159.033203" xlink:href="#DejaVuSans-30"/>
      </g>
     </g>
    </g>
    <g id="ytick_3">
     <g id="line2d_10">
      <g>
       <use style="stroke:#000000;stroke-width:0.8;" x="57.6" xlink:href="#m8d4b394415" y="242.340284"/>
      </g>
     </g>
     <g id="text_10">
      <!-- 2.25 -->
      <g transform="translate(28.334375 246.139503)scale(0.1 -0.1)">
       <use xlink:href="#DejaVuSans-32"/>
       <use x="63.623047" xlink:href="#DejaVuSans-2e"/>
       <use x="95.410156" xlink:href="#DejaVuSans-32"/>
       <use x="159.033203" xlink:href="#DejaVuSans-35"/>
      </g>
     </g>
    </g>
    <g id="ytick_4">
     <g id="line2d_11">
      <g>
       <use style="stroke:#000000;stroke-width:0.8;" x="57.6" xlink:href="#m8d4b394415" y="212.299682"/>
      </g>
     </g>
     <g id="text_11">
      <!-- 2.50 -->
      <g transform="translate(28.334375 216.0989)scale(0.1 -0.1)">
       <use xlink:href="#DejaVuSans-32"/>
       <use x="63.623047" xlink:href="#DejaVuSans-2e"/>
       <use x="95.410156" xlink:href="#DejaVuSans-35"/>
       <use x="159.033203" xlink:href="#DejaVuSans-30"/>
      </g>
     </g>
    </g>
    <g id="ytick_5">
     <g id="line2d_12">
      <g>
       <use style="stroke:#000000;stroke-width:0.8;" x="57.6" xlink:href="#m8d4b394415" y="182.259079"/>
      </g>
     </g>
     <g id="text_12">
      <!-- 2.75 -->
      <g transform="translate(28.334375 186.058298)scale(0.1 -0.1)">
       <use xlink:href="#DejaVuSans-32"/>
       <use x="63.623047" xlink:href="#DejaVuSans-2e"/>
       <use x="95.410156" xlink:href="#DejaVuSans-37"/>
       <use x="159.033203" xlink:href="#DejaVuSans-35"/>
      </g>
     </g>
    </g>
    <g id="ytick_6">
     <g id="line2d_13">
      <g>
       <use style="stroke:#000000;stroke-width:0.8;" x="57.6" xlink:href="#m8d4b394415" y="152.218477"/>
      </g>
     </g>
     <g id="text_13">
      <!-- 3.00 -->
      <defs>
       <path d="M 40.578125 39.3125 
Q 47.65625 37.796875 51.625 33 
Q 55.609375 28.21875 55.609375 21.1875 
Q 55.609375 10.40625 48.1875 4.484375 
Q 40.765625 -1.421875 27.09375 -1.421875 
Q 22.515625 -1.421875 17.65625 -0.515625 
Q 12.796875 0.390625 7.625 2.203125 
L 7.625 11.71875 
Q 11.71875 9.328125 16.59375 8.109375 
Q 21.484375 6.890625 26.8125 6.890625 
Q 36.078125 6.890625 40.9375 10.546875 
Q 45.796875 14.203125 45.796875 21.1875 
Q 45.796875 27.640625 41.28125 31.265625 
Q 36.765625 34.90625 28.71875 34.90625 
L 20.21875 34.90625 
L 20.21875 43.015625 
L 29.109375 43.015625 
Q 36.375 43.015625 40.234375 45.921875 
Q 44.09375 48.828125 44.09375 54.296875 
Q 44.09375 59.90625 40.109375 62.90625 
Q 36.140625 65.921875 28.71875 65.921875 
Q 24.65625 65.921875 20.015625 65.03125 
Q 15.375 64.15625 9.8125 62.3125 
L 9.8125 71.09375 
Q 15.4375 72.65625 20.34375 73.4375 
Q 25.25 74.21875 29.59375 74.21875 
Q 40.828125 74.21875 47.359375 69.109375 
Q 53.90625 64.015625 53.90625 55.328125 
Q 53.90625 49.265625 50.4375 45.09375 
Q 46.96875 40.921875 40.578125 39.3125 
z
" id="DejaVuSans-33"/>
      </defs>
      <g transform="translate(28.334375 156.017695)scale(0.1 -0.1)">
       <use xlink:href="#DejaVuSans-33"/>
       <use x="63.623047" xlink:href="#DejaVuSans-2e"/>
       <use x="95.410156" xlink:href="#DejaVuSans-30"/>
       <use x="159.033203" xlink:href="#DejaVuSans-30"/>
      </g>
     </g>
    </g>
    <g id="ytick_7">
     <g id="line2d_14">
      <g>
       <use style="stroke:#000000;stroke-width:0.8;" x="57.6" xlink:href="#m8d4b394415" y="122.177874"/>
      </g>
     </g>
     <g id="text_14">
      <!-- 3.25 -->
      <g transform="translate(28.334375 125.977093)scale(0.1 -0.1)">
       <use xlink:href="#DejaVuSans-33"/>
       <use x="63.623047" xlink:href="#DejaVuSans-2e"/>
       <use x="95.410156" xlink:href="#DejaVuSans-32"/>
       <use x="159.033203" xlink:href="#DejaVuSans-35"/>
      </g>
     </g>
    </g>
    <g id="ytick_8">
     <g id="line2d_15">
      <g>
       <use style="stroke:#000000;stroke-width:0.8;" x="57.6" xlink:href="#m8d4b394415" y="92.137272"/>
      </g>
     </g>
     <g id="text_15">
      <!-- 3.50 -->
      <g transform="translate(28.334375 95.93649)scale(0.1 -0.1)">
       <use xlink:href="#DejaVuSans-33"/>
       <use x="63.623047" xlink:href="#DejaVuSans-2e"/>
       <use x="95.410156" xlink:href="#DejaVuSans-35"/>
       <use x="159.033203" xlink:href="#DejaVuSans-30"/>
      </g>
     </g>
    </g>
    <g id="ytick_9">
     <g id="line2d_16">
      <g>
       <use style="stroke:#000000;stroke-width:0.8;" x="57.6" xlink:href="#m8d4b394415" y="62.096669"/>
      </g>
     </g>
     <g id="text_16">
      <!-- 3.75 -->
      <g transform="translate(28.334375 65.895888)scale(0.1 -0.1)">
       <use xlink:href="#DejaVuSans-33"/>
       <use x="63.623047" xlink:href="#DejaVuSans-2e"/>
       <use x="95.410156" xlink:href="#DejaVuSans-37"/>
       <use x="159.033203" xlink:href="#DejaVuSans-35"/>
      </g>
     </g>
    </g>
    <g id="text_17">
     <!-- RMSD -->
     <defs>
      <path d="M 44.390625 34.1875 
Q 47.5625 33.109375 50.5625 29.59375 
Q 53.5625 26.078125 56.59375 19.921875 
L 66.609375 0 
L 56 0 
L 46.6875 18.703125 
Q 43.0625 26.03125 39.671875 28.421875 
Q 36.28125 30.8125 30.421875 30.8125 
L 19.671875 30.8125 
L 19.671875 0 
L 9.8125 0 
L 9.8125 72.90625 
L 32.078125 72.90625 
Q 44.578125 72.90625 50.734375 67.671875 
Q 56.890625 62.453125 56.890625 51.90625 
Q 56.890625 45.015625 53.6875 40.46875 
Q 50.484375 35.9375 44.390625 34.1875 
z
M 19.671875 64.796875 
L 19.671875 38.921875 
L 32.078125 38.921875 
Q 39.203125 38.921875 42.84375 42.21875 
Q 46.484375 45.515625 46.484375 51.90625 
Q 46.484375 58.296875 42.84375 61.546875 
Q 39.203125 64.796875 32.078125 64.796875 
z
" id="DejaVuSans-52"/>
      <path d="M 9.8125 72.90625 
L 24.515625 72.90625 
L 43.109375 23.296875 
L 61.8125 72.90625 
L 76.515625 72.90625 
L 76.515625 0 
L 66.890625 0 
L 66.890625 64.015625 
L 48.09375 14.015625 
L 38.1875 14.015625 
L 19.390625 64.015625 
L 19.390625 0 
L 9.8125 0 
z
" id="DejaVuSans-4d"/>
      <path d="M 53.515625 70.515625 
L 53.515625 60.890625 
Q 47.90625 63.578125 42.921875 64.890625 
Q 37.9375 66.21875 33.296875 66.21875 
Q 25.25 66.21875 20.875 63.09375 
Q 16.5 59.96875 16.5 54.203125 
Q 16.5 49.359375 19.40625 46.890625 
Q 22.3125 44.4375 30.421875 42.921875 
L 36.375 41.703125 
Q 47.40625 39.59375 52.65625 34.296875 
Q 57.90625 29 57.90625 20.125 
Q 57.90625 9.515625 50.796875 4.046875 
Q 43.703125 -1.421875 29.984375 -1.421875 
Q 24.8125 -1.421875 18.96875 -0.25 
Q 13.140625 0.921875 6.890625 3.21875 
L 6.890625 13.375 
Q 12.890625 10.015625 18.65625 8.296875 
Q 24.421875 6.59375 29.984375 6.59375 
Q 38.421875 6.59375 43.015625 9.90625 
Q 47.609375 13.234375 47.609375 19.390625 
Q 47.609375 24.75 44.3125 27.78125 
Q 41.015625 30.8125 33.5 32.328125 
L 27.484375 33.5 
Q 16.453125 35.6875 11.515625 40.375 
Q 6.59375 45.0625 6.59375 53.421875 
Q 6.59375 63.09375 13.40625 68.65625 
Q 20.21875 74.21875 32.171875 74.21875 
Q 37.3125 74.21875 42.625 73.28125 
Q 47.953125 72.359375 53.515625 70.515625 
z
" id="DejaVuSans-53"/>
      <path d="M 19.671875 64.796875 
L 19.671875 8.109375 
L 31.59375 8.109375 
Q 46.6875 8.109375 53.6875 14.9375 
Q 60.6875 21.78125 60.6875 36.53125 
Q 60.6875 51.171875 53.6875 57.984375 
Q 46.6875 64.796875 31.59375 64.796875 
z
M 9.8125 72.90625 
L 30.078125 72.90625 
Q 51.265625 72.90625 61.171875 64.09375 
Q 71.09375 55.28125 71.09375 36.53125 
Q 71.09375 17.671875 61.125 8.828125 
Q 51.171875 0 30.078125 0 
L 9.8125 0 
z
" id="DejaVuSans-44"/>
     </defs>
     <g transform="translate(22.254687 189.3405)rotate(-90)scale(0.1 -0.1)">
      <use xlink:href="#DejaVuSans-52"/>
      <use x="69.482422" xlink:href="#DejaVuSans-4d"/>
      <use x="155.761719" xlink:href="#DejaVuSans-53"/>
      <use x="219.238281" xlink:href="#DejaVuSans-44"/>
     </g>
    </g>
   </g>
   <g id="line2d_17">
    <path clip-path="url(#p50fe60cab9)" d="M 73.832727 295.488 
L 74.918528 255.504401 
L 76.00433 253.716569 
L 77.090131 245.225915 
L 78.175932 248.88365 
L 79.261733 257.720719 
L 80.347534 251.332688 
L 81.433335 240.868784 
L 82.519137 227.335022 
L 83.604938 229.929684 
L 84.690739 228.414929 
L 85.77654 232.821398 
L 86.862341 216.172115 
L 87.948142 210.108852 
L 89.033943 200.508842 
L 90.119745 208.945258 
L 92.291347 203.03593 
L 93.377148 202.876929 
L 94.462949 190.822781 
L 95.54875 195.970583 
L 96.634552 201.840068 
L 97.720353 201.93386 
L 98.806154 206.194023 
L 99.891955 198.877175 
L 100.977756 181.289417 
L 102.063557 166.077422 
L 103.149358 171.254098 
L 104.23516 163.956526 
L 105.320961 173.509759 
L 106.406762 166.903171 
L 107.492563 168.142786 
L 108.578364 161.291785 
L 109.664165 171.018004 
L 110.749967 160.688495 
L 111.835768 163.132562 
L 112.921569 175.467233 
L 114.00737 172.987988 
L 115.093171 160.568734 
L 116.178972 152.006278 
L 117.264773 144.999567 
L 118.350575 163.542044 
L 119.436376 156.201238 
L 120.522177 175.903584 
L 121.607978 159.785669 
L 122.693779 165.779815 
L 123.77958 164.137775 
L 124.865382 131.623586 
L 125.951183 141.108594 
L 127.036984 143.913328 
L 128.122785 143.060005 
L 129.208586 136.393336 
L 130.294387 131.189343 
L 131.380189 128.474257 
L 132.46599 127.607468 
L 133.551791 136.015817 
L 134.637592 147.748186 
L 135.723393 134.805202 
L 137.894995 155.954826 
L 138.980797 161.093508 
L 140.066598 160.305852 
L 141.152399 144.83543 
L 142.2382 140.729581 
L 143.324001 118.738637 
L 144.409802 105.353992 
L 145.495604 103.247485 
L 146.581405 124.196301 
L 147.667206 113.189284 
L 148.753007 119.785452 
L 149.838808 117.467821 
L 150.924609 119.41072 
L 152.01041 113.315474 
L 153.096212 113.519758 
L 155.267814 130.180462 
L 156.353615 130.94485 
L 157.439416 120.587376 
L 158.525217 112.256008 
L 159.611019 104.892042 
L 160.69682 106.423951 
L 161.782621 101.749678 
L 162.868422 92.14752 
L 163.954223 95.553112 
L 165.040024 94.000476 
L 166.125825 88.605498 
L 167.211627 103.665696 
L 168.297428 97.573377 
L 169.383229 88.958089 
L 170.46903 93.532421 
L 171.554831 98.979537 
L 172.640632 86.154863 
L 173.726434 93.782895 
L 174.812235 82.62428 
L 175.898036 92.885106 
L 176.983837 105.251384 
L 178.069638 104.582844 
L 179.155439 107.816727 
L 180.24124 115.305739 
L 181.327042 111.898325 
L 182.412843 110.742145 
L 183.498644 102.477187 
L 184.584445 98.695261 
L 185.670246 111.168576 
L 186.756047 120.995068 
L 187.841849 107.240704 
L 188.92765 108.62696 
L 190.013451 96.553065 
L 192.185053 93.918122 
L 193.270854 93.715821 
L 194.356656 101.890937 
L 195.442457 103.741872 
L 196.528258 104.615312 
L 197.614059 102.108072 
L 198.69986 100.206417 
L 199.785661 97.538944 
L 200.871462 102.829893 
L 201.957264 97.872045 
L 203.043065 105.521837 
L 204.128866 99.180977 
L 205.214667 104.460385 
L 206.300468 101.71309 
L 207.386269 99.665345 
L 208.472071 98.111172 
L 209.557872 92.988847 
L 210.643673 102.995005 
L 211.729474 109.922872 
L 212.815275 108.3096 
L 213.901076 105.654291 
L 214.986877 99.996732 
L 216.072679 98.194672 
L 218.244281 92.276465 
L 219.330082 86.147839 
L 220.415883 93.217046 
L 221.501684 102.623456 
L 222.587486 91.239941 
L 223.673287 99.352976 
L 224.759088 103.200126 
L 225.844889 101.523226 
L 226.93069 111.295871 
L 228.016491 103.077655 
L 229.102292 110.389783 
L 230.188094 115.562031 
L 231.273895 108.526291 
L 232.359696 102.630468 
L 233.445497 102.187116 
L 234.531298 80.52238 
L 235.617099 88.45222 
L 236.702901 89.891157 
L 237.788702 92.254235 
L 238.874503 87.703612 
L 239.960304 87.539086 
L 241.046105 77.841669 
L 242.131906 62.664027 
L 243.217708 70.257968 
L 244.303509 97.925131 
L 245.38931 98.32818 
L 246.475111 95.586031 
L 247.560912 89.774462 
L 248.646713 64.50483 
L 249.732514 70.200875 
L 250.818316 61.856203 
L 251.904117 92.118976 
L 252.989918 97.331168 
L 254.075719 98.082567 
L 255.16152 94.201303 
L 256.247321 92.068587 
L 257.333123 83.929066 
L 258.418924 91.063442 
L 259.504725 101.226647 
L 260.590526 93.930109 
L 261.676327 94.247595 
L 262.762128 104.455794 
L 263.847929 106.023834 
L 264.933731 99.141251 
L 266.019532 90.112059 
L 267.105333 101.888235 
L 268.191134 89.260441 
L 269.276935 96.086881 
L 270.362736 87.765024 
L 271.448538 83.578202 
L 272.534339 83.392534 
L 273.62014 85.5127 
L 274.705941 96.634441 
L 275.791742 103.491784 
L 276.877543 101.096377 
L 277.963344 104.719073 
L 279.049146 103.212447 
L 280.134947 94.792359 
L 281.220748 95.253618 
L 282.306549 103.209666 
L 284.478151 95.178245 
L 285.563953 106.615158 
L 287.735555 86.129989 
L 288.821356 83.928135 
L 290.992958 81.39756 
L 292.07876 84.016831 
L 293.164561 69.596443 
L 294.250362 78.436476 
L 295.336163 97.953592 
L 296.421964 101.405733 
L 297.507765 111.085081 
L 298.593566 99.231416 
L 299.679368 93.533447 
L 300.765169 99.25379 
L 301.85097 98.778858 
L 302.936771 103.584335 
L 304.022572 95.740787 
L 305.108373 105.686227 
L 306.194175 105.700894 
L 307.279976 104.377294 
L 308.365777 109.251267 
L 309.451578 109.024997 
L 310.537379 108.614674 
L 311.62318 119.952305 
L 312.708981 117.73242 
L 313.794783 114.119657 
L 314.880584 109.2729 
L 315.966385 112.126385 
L 317.052186 105.810648 
L 318.137987 113.617878 
L 319.223788 101.764657 
L 320.30959 97.45184 
L 321.395391 100.025365 
L 322.481192 100.503328 
L 323.566993 113.532871 
L 324.652794 111.072541 
L 325.738595 118.702916 
L 326.824396 114.743214 
L 327.910198 118.476454 
L 328.995999 105.925669 
L 330.0818 106.656975 
L 331.167601 110.796822 
L 332.253402 102.947687 
L 333.339203 107.070802 
L 334.425005 113.459789 
L 335.510806 116.684791 
L 336.596607 107.950996 
L 337.682408 115.559662 
L 338.768209 112.567134 
L 339.85401 110.578378 
L 340.939811 100.059452 
L 342.025613 100.486073 
L 343.111414 101.182994 
L 344.197215 94.265529 
L 345.283016 92.10663 
L 346.368817 84.037637 
L 347.454618 84.977543 
L 348.54042 94.917077 
L 349.626221 85.742484 
L 350.712022 92.793102 
L 351.797823 102.264954 
L 352.883624 85.752937 
L 353.969425 98.195115 
L 355.055227 86.437875 
L 356.141028 91.64803 
L 357.226829 73.111982 
L 358.31263 75.364103 
L 359.398431 80.503836 
L 360.484232 80.434793 
L 361.570033 78.72988 
L 362.655835 68.954278 
L 363.741636 64.364269 
L 364.827437 53.568 
L 365.913238 67.523375 
L 366.999039 63.601191 
L 368.08484 68.33317 
L 369.170642 76.351508 
L 370.256443 64.408843 
L 371.342244 73.358349 
L 372.428045 78.858711 
L 373.513846 74.624917 
L 374.599647 79.289287 
L 375.685448 78.931654 
L 376.77125 80.621258 
L 377.857051 75.009566 
L 378.942852 90.590415 
L 380.028653 91.813883 
L 381.114454 78.161829 
L 382.200255 90.557738 
L 383.286057 82.384962 
L 384.371858 82.067697 
L 385.457659 92.203597 
L 386.54346 83.672927 
L 387.629261 82.406368 
L 388.715062 81.600145 
L 389.800863 97.646459 
L 390.886665 94.049118 
L 391.972466 96.958541 
L 393.058267 76.933388 
L 394.144068 88.094514 
L 395.229869 83.896231 
L 396.31567 91.454046 
L 397.401472 91.050355 
L 398.487273 72.495182 
L 398.487273 72.495182 
" style="fill:none;stroke:#666666;stroke-dasharray:1,1.65;stroke-dashoffset:0;"/>
    <defs>
     <path d="M 0 0.5 
C 0.132602 0.5 0.25979 0.447317 0.353553 0.353553 
C 0.447317 0.25979 0.5 0.132602 0.5 0 
C 0.5 -0.132602 0.447317 -0.25979 0.353553 -0.353553 
C 0.25979 -0.447317 0.132602 -0.5 0 -0.5 
C -0.132602 -0.5 -0.25979 -0.447317 -0.353553 -0.353553 
C -0.447317 -0.25979 -0.5 -0.132602 -0.5 0 
C -0.5 0.132602 -0.447317 0.25979 -0.353553 0.353553 
C -0.25979 0.447317 -0.132602 0.5 0 0.5 
z
" id="m8b5d36b240" style="stroke:#666666;"/>
    </defs>
    <g clip-path="url(#p50fe60cab9)">
     <use style="fill:#666666;stroke:#666666;" x="73.832727" xlink:href="#m8b5d36b240" y="295.488"/>
     <use style="fill:#666666;stroke:#666666;" x="74.918528" xlink:href="#m8b5d36b240" y="255.504401"/>
     <use style="fill:#666666;stroke:#666666;" x="76.00433" xlink:href="#m8b5d36b240" y="253.716569"/>
     <use style="fill:#666666;stroke:#666666;" x="77.090131" xlink:href="#m8b5d36b240" y="245.225915"/>
     <use style="fill:#666666;stroke:#666666;" x="78.175932" xlink:href="#m8b5d36b240" y="248.88365"/>
     <use style="fill:#666666;stroke:#666666;" x="79.261733" xlink:href="#m8b5d36b240" y="257.720719"/>
     <use style="fill:#666666;stroke:#666666;" x="80.347534" xlink:href="#m8b5d36b240" y="251.332688"/>
     <use style="fill:#666666;stroke:#666666;" x="81.433335" xlink:href="#m8b5d36b240" y="240.868784"/>
     <use style="fill:#666666;stroke:#666666;" x="82.519137" xlink:href="#m8b5d36b240" y="227.335022"/>
     <use style="fill:#666666;stroke:#666666;" x="83.604938" xlink:href="#m8b5d36b240" y="229.929684"/>
     <use style="fill:#666666;stroke:#666666;" x="84.690739" xlink:href="#m8b5d36b240" y="228.414929"/>
     <use style="fill:#666666;stroke:#666666;" x="85.77654" xlink:href="#m8b5d36b240" y="232.821398"/>
     <use style="fill:#666666;stroke:#666666;" x="86.862341" xlink:href="#m8b5d36b240" y="216.172115"/>
     <use style="fill:#666666;stroke:#666666;" x="87.948142" xlink:href="#m8b5d36b240" y="210.108852"/>
     <use style="fill:#666666;stroke:#666666;" x="89.033943" xlink:href="#m8b5d36b240" y="200.508842"/>
     <use style="fill:#666666;stroke:#666666;" x="90.119745" xlink:href="#m8b5d36b240" y="208.945258"/>
     <use style="fill:#666666;stroke:#666666;" x="91.205546" xlink:href="#m8b5d36b240" y="206.078847"/>
     <use style="fill:#666666;stroke:#666666;" x="92.291347" xlink:href="#m8b5d36b240" y="203.03593"/>
     <use style="fill:#666666;stroke:#666666;" x="93.377148" xlink:href="#m8b5d36b240" y="202.876929"/>
     <use style="fill:#666666;stroke:#666666;" x="94.462949" xlink:href="#m8b5d36b240" y="190.822781"/>
     <use style="fill:#666666;stroke:#666666;" x="95.54875" xlink:href="#m8b5d36b240" y="195.970583"/>
     <use style="fill:#666666;stroke:#666666;" x="96.634552" xlink:href="#m8b5d36b240" y="201.840068"/>
     <use style="fill:#666666;stroke:#666666;" x="97.720353" xlink:href="#m8b5d36b240" y="201.93386"/>
     <use style="fill:#666666;stroke:#666666;" x="98.806154" xlink:href="#m8b5d36b240" y="206.194023"/>
     <use style="fill:#666666;stroke:#666666;" x="99.891955" xlink:href="#m8b5d36b240" y="198.877175"/>
     <use style="fill:#666666;stroke:#666666;" x="100.977756" xlink:href="#m8b5d36b240" y="181.289417"/>
     <use style="fill:#666666;stroke:#666666;" x="102.063557" xlink:href="#m8b5d36b240" y="166.077422"/>
     <use style="fill:#666666;stroke:#666666;" x="103.149358" xlink:href="#m8b5d36b240" y="171.254098"/>
     <use style="fill:#666666;stroke:#666666;" x="104.23516" xlink:href="#m8b5d36b240" y="163.956526"/>
     <use style="fill:#666666;stroke:#666666;" x="105.320961" xlink:href="#m8b5d36b240" y="173.509759"/>
     <use style="fill:#666666;stroke:#666666;" x="106.406762" xlink:href="#m8b5d36b240" y="166.903171"/>
     <use style="fill:#666666;stroke:#666666;" x="107.492563" xlink:href="#m8b5d36b240" y="168.142786"/>
     <use style="fill:#666666;stroke:#666666;" x="108.578364" xlink:href="#m8b5d36b240" y="161.291785"/>
     <use style="fill:#666666;stroke:#666666;" x="109.664165" xlink:href="#m8b5d36b240" y="171.018004"/>
     <use style="fill:#666666;stroke:#666666;" x="110.749967" xlink:href="#m8b5d36b240" y="160.688495"/>
     <use style="fill:#666666;stroke:#666666;" x="111.835768" xlink:href="#m8b5d36b240" y="163.132562"/>
     <use style="fill:#666666;stroke:#666666;" x="112.921569" xlink:href="#m8b5d36b240" y="175.467233"/>
     <use style="fill:#666666;stroke:#666666;" x="114.00737" xlink:href="#m8b5d36b240" y="172.987988"/>
     <use style="fill:#666666;stroke:#666666;" x="115.093171" xlink:href="#m8b5d36b240" y="160.568734"/>
     <use style="fill:#666666;stroke:#666666;" x="116.178972" xlink:href="#m8b5d36b240" y="152.006278"/>
     <use style="fill:#666666;stroke:#666666;" x="117.264773" xlink:href="#m8b5d36b240" y="144.999567"/>
     <use style="fill:#666666;stroke:#666666;" x="118.350575" xlink:href="#m8b5d36b240" y="163.542044"/>
     <use style="fill:#666666;stroke:#666666;" x="119.436376" xlink:href="#m8b5d36b240" y="156.201238"/>
     <use style="fill:#666666;stroke:#666666;" x="120.522177" xlink:href="#m8b5d36b240" y="175.903584"/>
     <use style="fill:#666666;stroke:#666666;" x="121.607978" xlink:href="#m8b5d36b240" y="159.785669"/>
     <use style="fill:#666666;stroke:#666666;" x="122.693779" xlink:href="#m8b5d36b240" y="165.779815"/>
     <use style="fill:#666666;stroke:#666666;" x="123.77958" xlink:href="#m8b5d36b240" y="164.137775"/>
     <use style="fill:#666666;stroke:#666666;" x="124.865382" xlink:href="#m8b5d36b240" y="131.623586"/>
     <use style="fill:#666666;stroke:#666666;" x="125.951183" xlink:href="#m8b5d36b240" y="141.108594"/>
     <use style="fill:#666666;stroke:#666666;" x="127.036984" xlink:href="#m8b5d36b240" y="143.913328"/>
     <use style="fill:#666666;stroke:#666666;" x="128.122785" xlink:href="#m8b5d36b240" y="143.060005"/>
     <use style="fill:#666666;stroke:#666666;" x="129.208586" xlink:href="#m8b5d36b240" y="136.393336"/>
     <use style="fill:#666666;stroke:#666666;" x="130.294387" xlink:href="#m8b5d36b240" y="131.189343"/>
     <use style="fill:#666666;stroke:#666666;" x="131.380189" xlink:href="#m8b5d36b240" y="128.474257"/>
     <use style="fill:#666666;stroke:#666666;" x="132.46599" xlink:href="#m8b5d36b240" y="127.607468"/>
     <use style="fill:#666666;stroke:#666666;" x="133.551791" xlink:href="#m8b5d36b240" y="136.015817"/>
     <use style="fill:#666666;stroke:#666666;" x="134.637592" xlink:href="#m8b5d36b240" y="147.748186"/>
     <use style="fill:#666666;stroke:#666666;" x="135.723393" xlink:href="#m8b5d36b240" y="134.805202"/>
     <use style="fill:#666666;stroke:#666666;" x="136.809194" xlink:href="#m8b5d36b240" y="145.425322"/>
     <use style="fill:#666666;stroke:#666666;" x="137.894995" xlink:href="#m8b5d36b240" y="155.954826"/>
     <use style="fill:#666666;stroke:#666666;" x="138.980797" xlink:href="#m8b5d36b240" y="161.093508"/>
     <use style="fill:#666666;stroke:#666666;" x="140.066598" xlink:href="#m8b5d36b240" y="160.305852"/>
     <use style="fill:#666666;stroke:#666666;" x="141.152399" xlink:href="#m8b5d36b240" y="144.83543"/>
     <use style="fill:#666666;stroke:#666666;" x="142.2382" xlink:href="#m8b5d36b240" y="140.729581"/>
     <use style="fill:#666666;stroke:#666666;" x="143.324001" xlink:href="#m8b5d36b240" y="118.738637"/>
     <use style="fill:#666666;stroke:#666666;" x="144.409802" xlink:href="#m8b5d36b240" y="105.353992"/>
     <use style="fill:#666666;stroke:#666666;" x="145.495604" xlink:href="#m8b5d36b240" y="103.247485"/>
     <use style="fill:#666666;stroke:#666666;" x="146.581405" xlink:href="#m8b5d36b240" y="124.196301"/>
     <use style="fill:#666666;stroke:#666666;" x="147.667206" xlink:href="#m8b5d36b240" y="113.189284"/>
     <use style="fill:#666666;stroke:#666666;" x="148.753007" xlink:href="#m8b5d36b240" y="119.785452"/>
     <use style="fill:#666666;stroke:#666666;" x="149.838808" xlink:href="#m8b5d36b240" y="117.467821"/>
     <use style="fill:#666666;stroke:#666666;" x="150.924609" xlink:href="#m8b5d36b240" y="119.41072"/>
     <use style="fill:#666666;stroke:#666666;" x="152.01041" xlink:href="#m8b5d36b240" y="113.315474"/>
     <use style="fill:#666666;stroke:#666666;" x="153.096212" xlink:href="#m8b5d36b240" y="113.519758"/>
     <use style="fill:#666666;stroke:#666666;" x="154.182013" xlink:href="#m8b5d36b240" y="121.794782"/>
     <use style="fill:#666666;stroke:#666666;" x="155.267814" xlink:href="#m8b5d36b240" y="130.180462"/>
     <use style="fill:#666666;stroke:#666666;" x="156.353615" xlink:href="#m8b5d36b240" y="130.94485"/>
     <use style="fill:#666666;stroke:#666666;" x="157.439416" xlink:href="#m8b5d36b240" y="120.587376"/>
     <use style="fill:#666666;stroke:#666666;" x="158.525217" xlink:href="#m8b5d36b240" y="112.256008"/>
     <use style="fill:#666666;stroke:#666666;" x="159.611019" xlink:href="#m8b5d36b240" y="104.892042"/>
     <use style="fill:#666666;stroke:#666666;" x="160.69682" xlink:href="#m8b5d36b240" y="106.423951"/>
     <use style="fill:#666666;stroke:#666666;" x="161.782621" xlink:href="#m8b5d36b240" y="101.749678"/>
     <use style="fill:#666666;stroke:#666666;" x="162.868422" xlink:href="#m8b5d36b240" y="92.14752"/>
     <use style="fill:#666666;stroke:#666666;" x="163.954223" xlink:href="#m8b5d36b240" y="95.553112"/>
     <use style="fill:#666666;stroke:#666666;" x="165.040024" xlink:href="#m8b5d36b240" y="94.000476"/>
     <use style="fill:#666666;stroke:#666666;" x="166.125825" xlink:href="#m8b5d36b240" y="88.605498"/>
     <use style="fill:#666666;stroke:#666666;" x="167.211627" xlink:href="#m8b5d36b240" y="103.665696"/>
     <use style="fill:#666666;stroke:#666666;" x="168.297428" xlink:href="#m8b5d36b240" y="97.573377"/>
     <use style="fill:#666666;stroke:#666666;" x="169.383229" xlink:href="#m8b5d36b240" y="88.958089"/>
     <use style="fill:#666666;stroke:#666666;" x="170.46903" xlink:href="#m8b5d36b240" y="93.532421"/>
     <use style="fill:#666666;stroke:#666666;" x="171.554831" xlink:href="#m8b5d36b240" y="98.979537"/>
     <use style="fill:#666666;stroke:#666666;" x="172.640632" xlink:href="#m8b5d36b240" y="86.154863"/>
     <use style="fill:#666666;stroke:#666666;" x="173.726434" xlink:href="#m8b5d36b240" y="93.782895"/>
     <use style="fill:#666666;stroke:#666666;" x="174.812235" xlink:href="#m8b5d36b240" y="82.62428"/>
     <use style="fill:#666666;stroke:#666666;" x="175.898036" xlink:href="#m8b5d36b240" y="92.885106"/>
     <use style="fill:#666666;stroke:#666666;" x="176.983837" xlink:href="#m8b5d36b240" y="105.251384"/>
     <use style="fill:#666666;stroke:#666666;" x="178.069638" xlink:href="#m8b5d36b240" y="104.582844"/>
     <use style="fill:#666666;stroke:#666666;" x="179.155439" xlink:href="#m8b5d36b240" y="107.816727"/>
     <use style="fill:#666666;stroke:#666666;" x="180.24124" xlink:href="#m8b5d36b240" y="115.305739"/>
     <use style="fill:#666666;stroke:#666666;" x="181.327042" xlink:href="#m8b5d36b240" y="111.898325"/>
     <use style="fill:#666666;stroke:#666666;" x="182.412843" xlink:href="#m8b5d36b240" y="110.742145"/>
     <use style="fill:#666666;stroke:#666666;" x="183.498644" xlink:href="#m8b5d36b240" y="102.477187"/>
     <use style="fill:#666666;stroke:#666666;" x="184.584445" xlink:href="#m8b5d36b240" y="98.695261"/>
     <use style="fill:#666666;stroke:#666666;" x="185.670246" xlink:href="#m8b5d36b240" y="111.168576"/>
     <use style="fill:#666666;stroke:#666666;" x="186.756047" xlink:href="#m8b5d36b240" y="120.995068"/>
     <use style="fill:#666666;stroke:#666666;" x="187.841849" xlink:href="#m8b5d36b240" y="107.240704"/>
     <use style="fill:#666666;stroke:#666666;" x="188.92765" xlink:href="#m8b5d36b240" y="108.62696"/>
     <use style="fill:#666666;stroke:#666666;" x="190.013451" xlink:href="#m8b5d36b240" y="96.553065"/>
     <use style="fill:#666666;stroke:#666666;" x="191.099252" xlink:href="#m8b5d36b240" y="95.255704"/>
     <use style="fill:#666666;stroke:#666666;" x="192.185053" xlink:href="#m8b5d36b240" y="93.918122"/>
     <use style="fill:#666666;stroke:#666666;" x="193.270854" xlink:href="#m8b5d36b240" y="93.715821"/>
     <use style="fill:#666666;stroke:#666666;" x="194.356656" xlink:href="#m8b5d36b240" y="101.890937"/>
     <use style="fill:#666666;stroke:#666666;" x="195.442457" xlink:href="#m8b5d36b240" y="103.741872"/>
     <use style="fill:#666666;stroke:#666666;" x="196.528258" xlink:href="#m8b5d36b240" y="104.615312"/>
     <use style="fill:#666666;stroke:#666666;" x="197.614059" xlink:href="#m8b5d36b240" y="102.108072"/>
     <use style="fill:#666666;stroke:#666666;" x="198.69986" xlink:href="#m8b5d36b240" y="100.206417"/>
     <use style="fill:#666666;stroke:#666666;" x="199.785661" xlink:href="#m8b5d36b240" y="97.538944"/>
     <use style="fill:#666666;stroke:#666666;" x="200.871462" xlink:href="#m8b5d36b240" y="102.829893"/>
     <use style="fill:#666666;stroke:#666666;" x="201.957264" xlink:href="#m8b5d36b240" y="97.872045"/>
     <use style="fill:#666666;stroke:#666666;" x="203.043065" xlink:href="#m8b5d36b240" y="105.521837"/>
     <use style="fill:#666666;stroke:#666666;" x="204.128866" xlink:href="#m8b5d36b240" y="99.180977"/>
     <use style="fill:#666666;stroke:#666666;" x="205.214667" xlink:href="#m8b5d36b240" y="104.460385"/>
     <use style="fill:#666666;stroke:#666666;" x="206.300468" xlink:href="#m8b5d36b240" y="101.71309"/>
     <use style="fill:#666666;stroke:#666666;" x="207.386269" xlink:href="#m8b5d36b240" y="99.665345"/>
     <use style="fill:#666666;stroke:#666666;" x="208.472071" xlink:href="#m8b5d36b240" y="98.111172"/>
     <use style="fill:#666666;stroke:#666666;" x="209.557872" xlink:href="#m8b5d36b240" y="92.988847"/>
     <use style="fill:#666666;stroke:#666666;" x="210.643673" xlink:href="#m8b5d36b240" y="102.995005"/>
     <use style="fill:#666666;stroke:#666666;" x="211.729474" xlink:href="#m8b5d36b240" y="109.922872"/>
     <use style="fill:#666666;stroke:#666666;" x="212.815275" xlink:href="#m8b5d36b240" y="108.3096"/>
     <use style="fill:#666666;stroke:#666666;" x="213.901076" xlink:href="#m8b5d36b240" y="105.654291"/>
     <use style="fill:#666666;stroke:#666666;" x="214.986877" xlink:href="#m8b5d36b240" y="99.996732"/>
     <use style="fill:#666666;stroke:#666666;" x="216.072679" xlink:href="#m8b5d36b240" y="98.194672"/>
     <use style="fill:#666666;stroke:#666666;" x="217.15848" xlink:href="#m8b5d36b240" y="95.30475"/>
     <use style="fill:#666666;stroke:#666666;" x="218.244281" xlink:href="#m8b5d36b240" y="92.276465"/>
     <use style="fill:#666666;stroke:#666666;" x="219.330082" xlink:href="#m8b5d36b240" y="86.147839"/>
     <use style="fill:#666666;stroke:#666666;" x="220.415883" xlink:href="#m8b5d36b240" y="93.217046"/>
     <use style="fill:#666666;stroke:#666666;" x="221.501684" xlink:href="#m8b5d36b240" y="102.623456"/>
     <use style="fill:#666666;stroke:#666666;" x="222.587486" xlink:href="#m8b5d36b240" y="91.239941"/>
     <use style="fill:#666666;stroke:#666666;" x="223.673287" xlink:href="#m8b5d36b240" y="99.352976"/>
     <use style="fill:#666666;stroke:#666666;" x="224.759088" xlink:href="#m8b5d36b240" y="103.200126"/>
     <use style="fill:#666666;stroke:#666666;" x="225.844889" xlink:href="#m8b5d36b240" y="101.523226"/>
     <use style="fill:#666666;stroke:#666666;" x="226.93069" xlink:href="#m8b5d36b240" y="111.295871"/>
     <use style="fill:#666666;stroke:#666666;" x="228.016491" xlink:href="#m8b5d36b240" y="103.077655"/>
     <use style="fill:#666666;stroke:#666666;" x="229.102292" xlink:href="#m8b5d36b240" y="110.389783"/>
     <use style="fill:#666666;stroke:#666666;" x="230.188094" xlink:href="#m8b5d36b240" y="115.562031"/>
     <use style="fill:#666666;stroke:#666666;" x="231.273895" xlink:href="#m8b5d36b240" y="108.526291"/>
     <use style="fill:#666666;stroke:#666666;" x="232.359696" xlink:href="#m8b5d36b240" y="102.630468"/>
     <use style="fill:#666666;stroke:#666666;" x="233.445497" xlink:href="#m8b5d36b240" y="102.187116"/>
     <use style="fill:#666666;stroke:#666666;" x="234.531298" xlink:href="#m8b5d36b240" y="80.52238"/>
     <use style="fill:#666666;stroke:#666666;" x="235.617099" xlink:href="#m8b5d36b240" y="88.45222"/>
     <use style="fill:#666666;stroke:#666666;" x="236.702901" xlink:href="#m8b5d36b240" y="89.891157"/>
     <use style="fill:#666666;stroke:#666666;" x="237.788702" xlink:href="#m8b5d36b240" y="92.254235"/>
     <use style="fill:#666666;stroke:#666666;" x="238.874503" xlink:href="#m8b5d36b240" y="87.703612"/>
     <use style="fill:#666666;stroke:#666666;" x="239.960304" xlink:href="#m8b5d36b240" y="87.539086"/>
     <use style="fill:#666666;stroke:#666666;" x="241.046105" xlink:href="#m8b5d36b240" y="77.841669"/>
     <use style="fill:#666666;stroke:#666666;" x="242.131906" xlink:href="#m8b5d36b240" y="62.664027"/>
     <use style="fill:#666666;stroke:#666666;" x="243.217708" xlink:href="#m8b5d36b240" y="70.257968"/>
     <use style="fill:#666666;stroke:#666666;" x="244.303509" xlink:href="#m8b5d36b240" y="97.925131"/>
     <use style="fill:#666666;stroke:#666666;" x="245.38931" xlink:href="#m8b5d36b240" y="98.32818"/>
     <use style="fill:#666666;stroke:#666666;" x="246.475111" xlink:href="#m8b5d36b240" y="95.586031"/>
     <use style="fill:#666666;stroke:#666666;" x="247.560912" xlink:href="#m8b5d36b240" y="89.774462"/>
     <use style="fill:#666666;stroke:#666666;" x="248.646713" xlink:href="#m8b5d36b240" y="64.50483"/>
     <use style="fill:#666666;stroke:#666666;" x="249.732514" xlink:href="#m8b5d36b240" y="70.200875"/>
     <use style="fill:#666666;stroke:#666666;" x="250.818316" xlink:href="#m8b5d36b240" y="61.856203"/>
     <use style="fill:#666666;stroke:#666666;" x="251.904117" xlink:href="#m8b5d36b240" y="92.118976"/>
     <use style="fill:#666666;stroke:#666666;" x="252.989918" xlink:href="#m8b5d36b240" y="97.331168"/>
     <use style="fill:#666666;stroke:#666666;" x="254.075719" xlink:href="#m8b5d36b240" y="98.082567"/>
     <use style="fill:#666666;stroke:#666666;" x="255.16152" xlink:href="#m8b5d36b240" y="94.201303"/>
     <use style="fill:#666666;stroke:#666666;" x="256.247321" xlink:href="#m8b5d36b240" y="92.068587"/>
     <use style="fill:#666666;stroke:#666666;" x="257.333123" xlink:href="#m8b5d36b240" y="83.929066"/>
     <use style="fill:#666666;stroke:#666666;" x="258.418924" xlink:href="#m8b5d36b240" y="91.063442"/>
     <use style="fill:#666666;stroke:#666666;" x="259.504725" xlink:href="#m8b5d36b240" y="101.226647"/>
     <use style="fill:#666666;stroke:#666666;" x="260.590526" xlink:href="#m8b5d36b240" y="93.930109"/>
     <use style="fill:#666666;stroke:#666666;" x="261.676327" xlink:href="#m8b5d36b240" y="94.247595"/>
     <use style="fill:#666666;stroke:#666666;" x="262.762128" xlink:href="#m8b5d36b240" y="104.455794"/>
     <use style="fill:#666666;stroke:#666666;" x="263.847929" xlink:href="#m8b5d36b240" y="106.023834"/>
     <use style="fill:#666666;stroke:#666666;" x="264.933731" xlink:href="#m8b5d36b240" y="99.141251"/>
     <use style="fill:#666666;stroke:#666666;" x="266.019532" xlink:href="#m8b5d36b240" y="90.112059"/>
     <use style="fill:#666666;stroke:#666666;" x="267.105333" xlink:href="#m8b5d36b240" y="101.888235"/>
     <use style="fill:#666666;stroke:#666666;" x="268.191134" xlink:href="#m8b5d36b240" y="89.260441"/>
     <use style="fill:#666666;stroke:#666666;" x="269.276935" xlink:href="#m8b5d36b240" y="96.086881"/>
     <use style="fill:#666666;stroke:#666666;" x="270.362736" xlink:href="#m8b5d36b240" y="87.765024"/>
     <use style="fill:#666666;stroke:#666666;" x="271.448538" xlink:href="#m8b5d36b240" y="83.578202"/>
     <use style="fill:#666666;stroke:#666666;" x="272.534339" xlink:href="#m8b5d36b240" y="83.392534"/>
     <use style="fill:#666666;stroke:#666666;" x="273.62014" xlink:href="#m8b5d36b240" y="85.5127"/>
     <use style="fill:#666666;stroke:#666666;" x="274.705941" xlink:href="#m8b5d36b240" y="96.634441"/>
     <use style="fill:#666666;stroke:#666666;" x="275.791742" xlink:href="#m8b5d36b240" y="103.491784"/>
     <use style="fill:#666666;stroke:#666666;" x="276.877543" xlink:href="#m8b5d36b240" y="101.096377"/>
     <use style="fill:#666666;stroke:#666666;" x="277.963344" xlink:href="#m8b5d36b240" y="104.719073"/>
     <use style="fill:#666666;stroke:#666666;" x="279.049146" xlink:href="#m8b5d36b240" y="103.212447"/>
     <use style="fill:#666666;stroke:#666666;" x="280.134947" xlink:href="#m8b5d36b240" y="94.792359"/>
     <use style="fill:#666666;stroke:#666666;" x="281.220748" xlink:href="#m8b5d36b240" y="95.253618"/>
     <use style="fill:#666666;stroke:#666666;" x="282.306549" xlink:href="#m8b5d36b240" y="103.209666"/>
     <use style="fill:#666666;stroke:#666666;" x="283.39235" xlink:href="#m8b5d36b240" y="99.318149"/>
     <use style="fill:#666666;stroke:#666666;" x="284.478151" xlink:href="#m8b5d36b240" y="95.178245"/>
     <use style="fill:#666666;stroke:#666666;" x="285.563953" xlink:href="#m8b5d36b240" y="106.615158"/>
     <use style="fill:#666666;stroke:#666666;" x="286.649754" xlink:href="#m8b5d36b240" y="96.686719"/>
     <use style="fill:#666666;stroke:#666666;" x="287.735555" xlink:href="#m8b5d36b240" y="86.129989"/>
     <use style="fill:#666666;stroke:#666666;" x="288.821356" xlink:href="#m8b5d36b240" y="83.928135"/>
     <use style="fill:#666666;stroke:#666666;" x="289.907157" xlink:href="#m8b5d36b240" y="82.576395"/>
     <use style="fill:#666666;stroke:#666666;" x="290.992958" xlink:href="#m8b5d36b240" y="81.39756"/>
     <use style="fill:#666666;stroke:#666666;" x="292.07876" xlink:href="#m8b5d36b240" y="84.016831"/>
     <use style="fill:#666666;stroke:#666666;" x="293.164561" xlink:href="#m8b5d36b240" y="69.596443"/>
     <use style="fill:#666666;stroke:#666666;" x="294.250362" xlink:href="#m8b5d36b240" y="78.436476"/>
     <use style="fill:#666666;stroke:#666666;" x="295.336163" xlink:href="#m8b5d36b240" y="97.953592"/>
     <use style="fill:#666666;stroke:#666666;" x="296.421964" xlink:href="#m8b5d36b240" y="101.405733"/>
     <use style="fill:#666666;stroke:#666666;" x="297.507765" xlink:href="#m8b5d36b240" y="111.085081"/>
     <use style="fill:#666666;stroke:#666666;" x="298.593566" xlink:href="#m8b5d36b240" y="99.231416"/>
     <use style="fill:#666666;stroke:#666666;" x="299.679368" xlink:href="#m8b5d36b240" y="93.533447"/>
     <use style="fill:#666666;stroke:#666666;" x="300.765169" xlink:href="#m8b5d36b240" y="99.25379"/>
     <use style="fill:#666666;stroke:#666666;" x="301.85097" xlink:href="#m8b5d36b240" y="98.778858"/>
     <use style="fill:#666666;stroke:#666666;" x="302.936771" xlink:href="#m8b5d36b240" y="103.584335"/>
     <use style="fill:#666666;stroke:#666666;" x="304.022572" xlink:href="#m8b5d36b240" y="95.740787"/>
     <use style="fill:#666666;stroke:#666666;" x="305.108373" xlink:href="#m8b5d36b240" y="105.686227"/>
     <use style="fill:#666666;stroke:#666666;" x="306.194175" xlink:href="#m8b5d36b240" y="105.700894"/>
     <use style="fill:#666666;stroke:#666666;" x="307.279976" xlink:href="#m8b5d36b240" y="104.377294"/>
     <use style="fill:#666666;stroke:#666666;" x="308.365777" xlink:href="#m8b5d36b240" y="109.251267"/>
     <use style="fill:#666666;stroke:#666666;" x="309.451578" xlink:href="#m8b5d36b240" y="109.024997"/>
     <use style="fill:#666666;stroke:#666666;" x="310.537379" xlink:href="#m8b5d36b240" y="108.614674"/>
     <use style="fill:#666666;stroke:#666666;" x="311.62318" xlink:href="#m8b5d36b240" y="119.952305"/>
     <use style="fill:#666666;stroke:#666666;" x="312.708981" xlink:href="#m8b5d36b240" y="117.73242"/>
     <use style="fill:#666666;stroke:#666666;" x="313.794783" xlink:href="#m8b5d36b240" y="114.119657"/>
     <use style="fill:#666666;stroke:#666666;" x="314.880584" xlink:href="#m8b5d36b240" y="109.2729"/>
     <use style="fill:#666666;stroke:#666666;" x="315.966385" xlink:href="#m8b5d36b240" y="112.126385"/>
     <use style="fill:#666666;stroke:#666666;" x="317.052186" xlink:href="#m8b5d36b240" y="105.810648"/>
     <use style="fill:#666666;stroke:#666666;" x="318.137987" xlink:href="#m8b5d36b240" y="113.617878"/>
     <use style="fill:#666666;stroke:#666666;" x="319.223788" xlink:href="#m8b5d36b240" y="101.764657"/>
     <use style="fill:#666666;stroke:#666666;" x="320.30959" xlink:href="#m8b5d36b240" y="97.45184"/>
     <use style="fill:#666666;stroke:#666666;" x="321.395391" xlink:href="#m8b5d36b240" y="100.025365"/>
     <use style="fill:#666666;stroke:#666666;" x="322.481192" xlink:href="#m8b5d36b240" y="100.503328"/>
     <use style="fill:#666666;stroke:#666666;" x="323.566993" xlink:href="#m8b5d36b240" y="113.532871"/>
     <use style="fill:#666666;stroke:#666666;" x="324.652794" xlink:href="#m8b5d36b240" y="111.072541"/>
     <use style="fill:#666666;stroke:#666666;" x="325.738595" xlink:href="#m8b5d36b240" y="118.702916"/>
     <use style="fill:#666666;stroke:#666666;" x="326.824396" xlink:href="#m8b5d36b240" y="114.743214"/>
     <use style="fill:#666666;stroke:#666666;" x="327.910198" xlink:href="#m8b5d36b240" y="118.476454"/>
     <use style="fill:#666666;stroke:#666666;" x="328.995999" xlink:href="#m8b5d36b240" y="105.925669"/>
     <use style="fill:#666666;stroke:#666666;" x="330.0818" xlink:href="#m8b5d36b240" y="106.656975"/>
     <use style="fill:#666666;stroke:#666666;" x="331.167601" xlink:href="#m8b5d36b240" y="110.796822"/>
     <use style="fill:#666666;stroke:#666666;" x="332.253402" xlink:href="#m8b5d36b240" y="102.947687"/>
     <use style="fill:#666666;stroke:#666666;" x="333.339203" xlink:href="#m8b5d36b240" y="107.070802"/>
     <use style="fill:#666666;stroke:#666666;" x="334.425005" xlink:href="#m8b5d36b240" y="113.459789"/>
     <use style="fill:#666666;stroke:#666666;" x="335.510806" xlink:href="#m8b5d36b240" y="116.684791"/>
     <use style="fill:#666666;stroke:#666666;" x="336.596607" xlink:href="#m8b5d36b240" y="107.950996"/>
     <use style="fill:#666666;stroke:#666666;" x="337.682408" xlink:href="#m8b5d36b240" y="115.559662"/>
     <use style="fill:#666666;stroke:#666666;" x="338.768209" xlink:href="#m8b5d36b240" y="112.567134"/>
     <use style="fill:#666666;stroke:#666666;" x="339.85401" xlink:href="#m8b5d36b240" y="110.578378"/>
     <use style="fill:#666666;stroke:#666666;" x="340.939811" xlink:href="#m8b5d36b240" y="100.059452"/>
     <use style="fill:#666666;stroke:#666666;" x="342.025613" xlink:href="#m8b5d36b240" y="100.486073"/>
     <use style="fill:#666666;stroke:#666666;" x="343.111414" xlink:href="#m8b5d36b240" y="101.182994"/>
     <use style="fill:#666666;stroke:#666666;" x="344.197215" xlink:href="#m8b5d36b240" y="94.265529"/>
     <use style="fill:#666666;stroke:#666666;" x="345.283016" xlink:href="#m8b5d36b240" y="92.10663"/>
     <use style="fill:#666666;stroke:#666666;" x="346.368817" xlink:href="#m8b5d36b240" y="84.037637"/>
     <use style="fill:#666666;stroke:#666666;" x="347.454618" xlink:href="#m8b5d36b240" y="84.977543"/>
     <use style="fill:#666666;stroke:#666666;" x="348.54042" xlink:href="#m8b5d36b240" y="94.917077"/>
     <use style="fill:#666666;stroke:#666666;" x="349.626221" xlink:href="#m8b5d36b240" y="85.742484"/>
     <use style="fill:#666666;stroke:#666666;" x="350.712022" xlink:href="#m8b5d36b240" y="92.793102"/>
     <use style="fill:#666666;stroke:#666666;" x="351.797823" xlink:href="#m8b5d36b240" y="102.264954"/>
     <use style="fill:#666666;stroke:#666666;" x="352.883624" xlink:href="#m8b5d36b240" y="85.752937"/>
     <use style="fill:#666666;stroke:#666666;" x="353.969425" xlink:href="#m8b5d36b240" y="98.195115"/>
     <use style="fill:#666666;stroke:#666666;" x="355.055227" xlink:href="#m8b5d36b240" y="86.437875"/>
     <use style="fill:#666666;stroke:#666666;" x="356.141028" xlink:href="#m8b5d36b240" y="91.64803"/>
     <use style="fill:#666666;stroke:#666666;" x="357.226829" xlink:href="#m8b5d36b240" y="73.111982"/>
     <use style="fill:#666666;stroke:#666666;" x="358.31263" xlink:href="#m8b5d36b240" y="75.364103"/>
     <use style="fill:#666666;stroke:#666666;" x="359.398431" xlink:href="#m8b5d36b240" y="80.503836"/>
     <use style="fill:#666666;stroke:#666666;" x="360.484232" xlink:href="#m8b5d36b240" y="80.434793"/>
     <use style="fill:#666666;stroke:#666666;" x="361.570033" xlink:href="#m8b5d36b240" y="78.72988"/>
     <use style="fill:#666666;stroke:#666666;" x="362.655835" xlink:href="#m8b5d36b240" y="68.954278"/>
     <use style="fill:#666666;stroke:#666666;" x="363.741636" xlink:href="#m8b5d36b240" y="64.364269"/>
     <use style="fill:#666666;stroke:#666666;" x="364.827437" xlink:href="#m8b5d36b240" y="53.568"/>
     <use style="fill:#666666;stroke:#666666;" x="365.913238" xlink:href="#m8b5d36b240" y="67.523375"/>
     <use style="fill:#666666;stroke:#666666;" x="366.999039" xlink:href="#m8b5d36b240" y="63.601191"/>
     <use style="fill:#666666;stroke:#666666;" x="368.08484" xlink:href="#m8b5d36b240" y="68.33317"/>
     <use style="fill:#666666;stroke:#666666;" x="369.170642" xlink:href="#m8b5d36b240" y="76.351508"/>
     <use style="fill:#666666;stroke:#666666;" x="370.256443" xlink:href="#m8b5d36b240" y="64.408843"/>
     <use style="fill:#666666;stroke:#666666;" x="371.342244" xlink:href="#m8b5d36b240" y="73.358349"/>
     <use style="fill:#666666;stroke:#666666;" x="372.428045" xlink:href="#m8b5d36b240" y="78.858711"/>
     <use style="fill:#666666;stroke:#666666;" x="373.513846" xlink:href="#m8b5d36b240" y="74.624917"/>
     <use style="fill:#666666;stroke:#666666;" x="374.599647" xlink:href="#m8b5d36b240" y="79.289287"/>
     <use style="fill:#666666;stroke:#666666;" x="375.685448" xlink:href="#m8b5d36b240" y="78.931654"/>
     <use style="fill:#666666;stroke:#666666;" x="376.77125" xlink:href="#m8b5d36b240" y="80.621258"/>
     <use style="fill:#666666;stroke:#666666;" x="377.857051" xlink:href="#m8b5d36b240" y="75.009566"/>
     <use style="fill:#666666;stroke:#666666;" x="378.942852" xlink:href="#m8b5d36b240" y="90.590415"/>
     <use style="fill:#666666;stroke:#666666;" x="380.028653" xlink:href="#m8b5d36b240" y="91.813883"/>
     <use style="fill:#666666;stroke:#666666;" x="381.114454" xlink:href="#m8b5d36b240" y="78.161829"/>
     <use style="fill:#666666;stroke:#666666;" x="382.200255" xlink:href="#m8b5d36b240" y="90.557738"/>
     <use style="fill:#666666;stroke:#666666;" x="383.286057" xlink:href="#m8b5d36b240" y="82.384962"/>
     <use style="fill:#666666;stroke:#666666;" x="384.371858" xlink:href="#m8b5d36b240" y="82.067697"/>
     <use style="fill:#666666;stroke:#666666;" x="385.457659" xlink:href="#m8b5d36b240" y="92.203597"/>
     <use style="fill:#666666;stroke:#666666;" x="386.54346" xlink:href="#m8b5d36b240" y="83.672927"/>
     <use style="fill:#666666;stroke:#666666;" x="387.629261" xlink:href="#m8b5d36b240" y="82.406368"/>
     <use style="fill:#666666;stroke:#666666;" x="388.715062" xlink:href="#m8b5d36b240" y="81.600145"/>
     <use style="fill:#666666;stroke:#666666;" x="389.800863" xlink:href="#m8b5d36b240" y="97.646459"/>
     <use style="fill:#666666;stroke:#666666;" x="390.886665" xlink:href="#m8b5d36b240" y="94.049118"/>
     <use style="fill:#666666;stroke:#666666;" x="391.972466" xlink:href="#m8b5d36b240" y="96.958541"/>
     <use style="fill:#666666;stroke:#666666;" x="393.058267" xlink:href="#m8b5d36b240" y="76.933388"/>
     <use style="fill:#666666;stroke:#666666;" x="394.144068" xlink:href="#m8b5d36b240" y="88.094514"/>
     <use style="fill:#666666;stroke:#666666;" x="395.229869" xlink:href="#m8b5d36b240" y="83.896231"/>
     <use style="fill:#666666;stroke:#666666;" x="396.31567" xlink:href="#m8b5d36b240" y="91.454046"/>
     <use style="fill:#666666;stroke:#666666;" x="397.401472" xlink:href="#m8b5d36b240" y="91.050355"/>
     <use style="fill:#666666;stroke:#666666;" x="398.487273" xlink:href="#m8b5d36b240" y="72.495182"/>
    </g>
   </g>
   <g id="patch_3">
    <path d="M 57.6 307.584 
L 57.6 41.472 
" style="fill:none;stroke:#000000;stroke-linecap:square;stroke-linejoin:miter;stroke-width:0.8;"/>
   </g>
   <g id="patch_4">
    <path d="M 414.72 307.584 
L 414.72 41.472 
" style="fill:none;stroke:#000000;stroke-linecap:square;stroke-linejoin:miter;stroke-width:0.8;"/>
   </g>
   <g id="patch_5">
    <path d="M 57.6 307.584 
L 414.72 307.584 
" style="fill:none;stroke:#000000;stroke-linecap:square;stroke-linejoin:miter;stroke-width:0.8;"/>
   </g>
   <g id="patch_6">
    <path d="M 57.6 41.472 
L 414.72 41.472 
" style="fill:none;stroke:#000000;stroke-linecap:square;stroke-linejoin:miter;stroke-width:0.8;"/>
   </g>
  </g>
 </g>
 <defs>
  <clipPath id="p50fe60cab9">
   <rect height="266.112" width="357.12" x="57.6" y="41.472"/>
  </clipPath>
 </defs>
</svg>
