<?xml version="1.0" encoding="utf-8" standalone="no"?>
<!DOCTYPE svg PUBLIC "-//W3C//DTD SVG 1.1//EN"
  "http://www.w3.org/Graphics/SVG/1.1/DTD/svg11.dtd">
<!-- Created with matplotlib (http://matplotlib.org/) -->
<svg height="345.6pt" version="1.1" viewBox="0 0 460.8 345.6" width="460.8pt" xmlns="http://www.w3.org/2000/svg" xmlns:xlink="http://www.w3.org/1999/xlink">
 <defs>
  <style type="text/css">
*{stroke-linecap:butt;stroke-linejoin:round;}
  </style>
 </defs>
 <g id="figure_1">
  <g id="patch_1">
   <path d="M 0 345.6 
L 460.8 345.6 
L 460.8 0 
L 0 0 
z
" style="fill:#ffffff;"/>
  </g>
  <g id="axes_1">
   <g id="patch_2">
    <path d="M 47.72 287.71 
L 447.48 287.71 
L 447.48 13.32 
L 47.72 13.32 
z
" style="fill:#ffffff;"/>
   </g>
   <g id="matplotlib.axis_1">
    <g id="xtick_1">
     <g id="line2d_1">
      <defs>
       <path d="M 0 0 
L 0 3.5 
" id="mc78eb864b1" style="stroke:#000000;stroke-width:0.8;"/>
      </defs>
      <g>
       <use style="stroke:#000000;stroke-width:0.8;" x="47.72" xlink:href="#mc78eb864b1" y="287.71"/>
      </g>
     </g>
     <g id="text_1">
      <!-- A1 -->
      <defs>
       <path d="M 34.1875 63.1875 
L 20.796875 26.90625 
L 47.609375 26.90625 
z
M 28.609375 72.90625 
L 39.796875 72.90625 
L 67.578125 0 
L 57.328125 0 
L 50.6875 18.703125 
L 17.828125 18.703125 
L 11.1875 0 
L 0.78125 0 
z
" id="DejaVuSans-41"/>
       <path d="M 12.40625 8.296875 
L 28.515625 8.296875 
L 28.515625 63.921875 
L 10.984375 60.40625 
L 10.984375 69.390625 
L 28.421875 72.90625 
L 38.28125 72.90625 
L 38.28125 8.296875 
L 54.390625 8.296875 
L 54.390625 0 
L 12.40625 0 
z
" id="DejaVuSans-31"/>
      </defs>
      <g transform="translate(50.479375 307.913125)rotate(-90)scale(0.1 -0.1)">
       <use xlink:href="#DejaVuSans-41"/>
       <use x="68.408203" xlink:href="#DejaVuSans-31"/>
      </g>
     </g>
    </g>
    <g id="xtick_2">
     <g id="line2d_2">
      <g>
       <use style="stroke:#000000;stroke-width:0.8;" x="64.803761" xlink:href="#mc78eb864b1" y="287.71"/>
      </g>
     </g>
     <g id="text_2">
      <!-- A16 -->
      <defs>
       <path d="M 33.015625 40.375 
Q 26.375 40.375 22.484375 35.828125 
Q 18.609375 31.296875 18.609375 23.390625 
Q 18.609375 15.53125 22.484375 10.953125 
Q 26.375 6.390625 33.015625 6.390625 
Q 39.65625 6.390625 43.53125 10.953125 
Q 47.40625 15.53125 47.40625 23.390625 
Q 47.40625 31.296875 43.53125 35.828125 
Q 39.65625 40.375 33.015625 40.375 
z
M 52.59375 71.296875 
L 52.59375 62.3125 
Q 48.875 64.0625 45.09375 64.984375 
Q 41.3125 65.921875 37.59375 65.921875 
Q 27.828125 65.921875 22.671875 59.328125 
Q 17.53125 52.734375 16.796875 39.40625 
Q 19.671875 43.65625 24.015625 45.921875 
Q 28.375 48.1875 33.59375 48.1875 
Q 44.578125 48.1875 50.953125 41.515625 
Q 57.328125 34.859375 57.328125 23.390625 
Q 57.328125 12.15625 50.6875 5.359375 
Q 44.046875 -1.421875 33.015625 -1.421875 
Q 20.359375 -1.421875 13.671875 8.265625 
Q 6.984375 17.96875 6.984375 36.375 
Q 6.984375 53.65625 15.1875 63.9375 
Q 23.390625 74.21875 37.203125 74.21875 
Q 40.921875 74.21875 44.703125 73.484375 
Q 48.484375 72.75 52.59375 71.296875 
z
" id="DejaVuSans-36"/>
      </defs>
      <g transform="translate(67.563136 314.275625)rotate(-90)scale(0.1 -0.1)">
       <use xlink:href="#DejaVuSans-41"/>
       <use x="68.408203" xlink:href="#DejaVuSans-31"/>
       <use x="132.03125" xlink:href="#DejaVuSans-36"/>
      </g>
     </g>
    </g>
    <g id="xtick_3">
     <g id="line2d_3">
      <g>
       <use style="stroke:#000000;stroke-width:0.8;" x="81.887521" xlink:href="#mc78eb864b1" y="287.71"/>
      </g>
     </g>
     <g id="text_3">
      <!-- A31 -->
      <defs>
       <path d="M 40.578125 39.3125 
Q 47.65625 37.796875 51.625 33 
Q 55.609375 28.21875 55.609375 21.1875 
Q 55.609375 10.40625 48.1875 4.484375 
Q 40.765625 -1.421875 27.09375 -1.421875 
Q 22.515625 -1.421875 17.65625 -0.515625 
Q 12.796875 0.390625 7.625 2.203125 
L 7.625 11.71875 
Q 11.71875 9.328125 16.59375 8.109375 
Q 21.484375 6.890625 26.8125 6.890625 
Q 36.078125 6.890625 40.9375 10.546875 
Q 45.796875 14.203125 45.796875 21.1875 
Q 45.796875 27.640625 41.28125 31.265625 
Q 36.765625 34.90625 28.71875 34.90625 
L 20.21875 34.90625 
L 20.21875 43.015625 
L 29.109375 43.015625 
Q 36.375 43.015625 40.234375 45.921875 
Q 44.09375 48.828125 44.09375 54.296875 
Q 44.09375 59.90625 40.109375 62.90625 
Q 36.140625 65.921875 28.71875 65.921875 
Q 24.65625 65.921875 20.015625 65.03125 
Q 15.375 64.15625 9.8125 62.3125 
L 9.8125 71.09375 
Q 15.4375 72.65625 20.34375 73.4375 
Q 25.25 74.21875 29.59375 74.21875 
Q 40.828125 74.21875 47.359375 69.109375 
Q 53.90625 64.015625 53.90625 55.328125 
Q 53.90625 49.265625 50.4375 45.09375 
Q 46.96875 40.921875 40.578125 39.3125 
z
" id="DejaVuSans-33"/>
      </defs>
      <g transform="translate(84.646896 314.275625)rotate(-90)scale(0.1 -0.1)">
       <use xlink:href="#DejaVuSans-41"/>
       <use x="68.408203" xlink:href="#DejaVuSans-33"/>
       <use x="132.03125" xlink:href="#DejaVuSans-31"/>
      </g>
     </g>
    </g>
    <g id="xtick_4">
     <g id="line2d_4">
      <g>
       <use style="stroke:#000000;stroke-width:0.8;" x="98.971282" xlink:href="#mc78eb864b1" y="287.71"/>
      </g>
     </g>
     <g id="text_4">
      <!-- A46 -->
      <defs>
       <path d="M 37.796875 64.3125 
L 12.890625 25.390625 
L 37.796875 25.390625 
z
M 35.203125 72.90625 
L 47.609375 72.90625 
L 47.609375 25.390625 
L 58.015625 25.390625 
L 58.015625 17.1875 
L 47.609375 17.1875 
L 47.609375 0 
L 37.796875 0 
L 37.796875 17.1875 
L 4.890625 17.1875 
L 4.890625 26.703125 
z
" id="DejaVuSans-34"/>
      </defs>
      <g transform="translate(101.730657 314.275625)rotate(-90)scale(0.1 -0.1)">
       <use xlink:href="#DejaVuSans-41"/>
       <use x="68.408203" xlink:href="#DejaVuSans-34"/>
       <use x="132.03125" xlink:href="#DejaVuSans-36"/>
      </g>
     </g>
    </g>
    <g id="xtick_5">
     <g id="line2d_5">
      <g>
       <use style="stroke:#000000;stroke-width:0.8;" x="116.055043" xlink:href="#mc78eb864b1" y="287.71"/>
      </g>
     </g>
     <g id="text_5">
      <!-- A61 -->
      <g transform="translate(118.814418 314.275625)rotate(-90)scale(0.1 -0.1)">
       <use xlink:href="#DejaVuSans-41"/>
       <use x="68.408203" xlink:href="#DejaVuSans-36"/>
       <use x="132.03125" xlink:href="#DejaVuSans-31"/>
      </g>
     </g>
    </g>
    <g id="xtick_6">
     <g id="line2d_6">
      <g>
       <use style="stroke:#000000;stroke-width:0.8;" x="133.138803" xlink:href="#mc78eb864b1" y="287.71"/>
      </g>
     </g>
     <g id="text_6">
      <!-- A76 -->
      <defs>
       <path d="M 8.203125 72.90625 
L 55.078125 72.90625 
L 55.078125 68.703125 
L 28.609375 0 
L 18.3125 0 
L 43.21875 64.59375 
L 8.203125 64.59375 
z
" id="DejaVuSans-37"/>
      </defs>
      <g transform="translate(135.898178 314.275625)rotate(-90)scale(0.1 -0.1)">
       <use xlink:href="#DejaVuSans-41"/>
       <use x="68.408203" xlink:href="#DejaVuSans-37"/>
       <use x="132.03125" xlink:href="#DejaVuSans-36"/>
      </g>
     </g>
    </g>
    <g id="xtick_7">
     <g id="line2d_7">
      <g>
       <use style="stroke:#000000;stroke-width:0.8;" x="150.222564" xlink:href="#mc78eb864b1" y="287.71"/>
      </g>
     </g>
     <g id="text_7">
      <!-- A91 -->
      <defs>
       <path d="M 10.984375 1.515625 
L 10.984375 10.5 
Q 14.703125 8.734375 18.5 7.8125 
Q 22.3125 6.890625 25.984375 6.890625 
Q 35.75 6.890625 40.890625 13.453125 
Q 46.046875 20.015625 46.78125 33.40625 
Q 43.953125 29.203125 39.59375 26.953125 
Q 35.25 24.703125 29.984375 24.703125 
Q 19.046875 24.703125 12.671875 31.3125 
Q 6.296875 37.9375 6.296875 49.421875 
Q 6.296875 60.640625 12.9375 67.421875 
Q 19.578125 74.21875 30.609375 74.21875 
Q 43.265625 74.21875 49.921875 64.515625 
Q 56.59375 54.828125 56.59375 36.375 
Q 56.59375 19.140625 48.40625 8.859375 
Q 40.234375 -1.421875 26.421875 -1.421875 
Q 22.703125 -1.421875 18.890625 -0.6875 
Q 15.09375 0.046875 10.984375 1.515625 
z
M 30.609375 32.421875 
Q 37.25 32.421875 41.125 36.953125 
Q 45.015625 41.5 45.015625 49.421875 
Q 45.015625 57.28125 41.125 61.84375 
Q 37.25 66.40625 30.609375 66.40625 
Q 23.96875 66.40625 20.09375 61.84375 
Q 16.21875 57.28125 16.21875 49.421875 
Q 16.21875 41.5 20.09375 36.953125 
Q 23.96875 32.421875 30.609375 32.421875 
z
" id="DejaVuSans-39"/>
      </defs>
      <g transform="translate(152.981939 314.275625)rotate(-90)scale(0.1 -0.1)">
       <use xlink:href="#DejaVuSans-41"/>
       <use x="68.408203" xlink:href="#DejaVuSans-39"/>
       <use x="132.03125" xlink:href="#DejaVuSans-31"/>
      </g>
     </g>
    </g>
    <g id="xtick_8">
     <g id="line2d_8">
      <g>
       <use style="stroke:#000000;stroke-width:0.8;" x="167.306325" xlink:href="#mc78eb864b1" y="287.71"/>
      </g>
     </g>
     <g id="text_8">
      <!-- A106 -->
      <defs>
       <path d="M 31.78125 66.40625 
Q 24.171875 66.40625 20.328125 58.90625 
Q 16.5 51.421875 16.5 36.375 
Q 16.5 21.390625 20.328125 13.890625 
Q 24.171875 6.390625 31.78125 6.390625 
Q 39.453125 6.390625 43.28125 13.890625 
Q 47.125 21.390625 47.125 36.375 
Q 47.125 51.421875 43.28125 58.90625 
Q 39.453125 66.40625 31.78125 66.40625 
z
M 31.78125 74.21875 
Q 44.046875 74.21875 50.515625 64.515625 
Q 56.984375 54.828125 56.984375 36.375 
Q 56.984375 17.96875 50.515625 8.265625 
Q 44.046875 -1.421875 31.78125 -1.421875 
Q 19.53125 -1.421875 13.0625 8.265625 
Q 6.59375 17.96875 6.59375 36.375 
Q 6.59375 54.828125 13.0625 64.515625 
Q 19.53125 74.21875 31.78125 74.21875 
z
" id="DejaVuSans-30"/>
      </defs>
      <g transform="translate(170.0657 320.638125)rotate(-90)scale(0.1 -0.1)">
       <use xlink:href="#DejaVuSans-41"/>
       <use x="68.408203" xlink:href="#DejaVuSans-31"/>
       <use x="132.03125" xlink:href="#DejaVuSans-30"/>
       <use x="195.654297" xlink:href="#DejaVuSans-36"/>
      </g>
     </g>
    </g>
    <g id="xtick_9">
     <g id="line2d_9">
      <g>
       <use style="stroke:#000000;stroke-width:0.8;" x="184.390085" xlink:href="#mc78eb864b1" y="287.71"/>
      </g>
     </g>
     <g id="text_9">
      <!-- A121 -->
      <defs>
       <path d="M 19.1875 8.296875 
L 53.609375 8.296875 
L 53.609375 0 
L 7.328125 0 
L 7.328125 8.296875 
Q 12.9375 14.109375 22.625 23.890625 
Q 32.328125 33.6875 34.8125 36.53125 
Q 39.546875 41.84375 41.421875 45.53125 
Q 43.3125 49.21875 43.3125 52.78125 
Q 43.3125 58.59375 39.234375 62.25 
Q 35.15625 65.921875 28.609375 65.921875 
Q 23.96875 65.921875 18.8125 64.3125 
Q 13.671875 62.703125 7.8125 59.421875 
L 7.8125 69.390625 
Q 13.765625 71.78125 18.9375 73 
Q 24.125 74.21875 28.421875 74.21875 
Q 39.75 74.21875 46.484375 68.546875 
Q 53.21875 62.890625 53.21875 53.421875 
Q 53.21875 48.921875 51.53125 44.890625 
Q 49.859375 40.875 45.40625 35.40625 
Q 44.1875 33.984375 37.640625 27.21875 
Q 31.109375 20.453125 19.1875 8.296875 
z
" id="DejaVuSans-32"/>
      </defs>
      <g transform="translate(187.14946 320.638125)rotate(-90)scale(0.1 -0.1)">
       <use xlink:href="#DejaVuSans-41"/>
       <use x="68.408203" xlink:href="#DejaVuSans-31"/>
       <use x="132.03125" xlink:href="#DejaVuSans-32"/>
       <use x="195.654297" xlink:href="#DejaVuSans-31"/>
      </g>
     </g>
    </g>
    <g id="xtick_10">
     <g id="line2d_10">
      <g>
       <use style="stroke:#000000;stroke-width:0.8;" x="201.473846" xlink:href="#mc78eb864b1" y="287.71"/>
      </g>
     </g>
     <g id="text_10">
      <!-- A136 -->
      <g transform="translate(204.233221 320.638125)rotate(-90)scale(0.1 -0.1)">
       <use xlink:href="#DejaVuSans-41"/>
       <use x="68.408203" xlink:href="#DejaVuSans-31"/>
       <use x="132.03125" xlink:href="#DejaVuSans-33"/>
       <use x="195.654297" xlink:href="#DejaVuSans-36"/>
      </g>
     </g>
    </g>
    <g id="xtick_11">
     <g id="line2d_11">
      <g>
       <use style="stroke:#000000;stroke-width:0.8;" x="218.557607" xlink:href="#mc78eb864b1" y="287.71"/>
      </g>
     </g>
     <g id="text_11">
      <!-- A151 -->
      <defs>
       <path d="M 10.796875 72.90625 
L 49.515625 72.90625 
L 49.515625 64.59375 
L 19.828125 64.59375 
L 19.828125 46.734375 
Q 21.96875 47.46875 24.109375 47.828125 
Q 26.265625 48.1875 28.421875 48.1875 
Q 40.625 48.1875 47.75 41.5 
Q 54.890625 34.8125 54.890625 23.390625 
Q 54.890625 11.625 47.5625 5.09375 
Q 40.234375 -1.421875 26.90625 -1.421875 
Q 22.3125 -1.421875 17.546875 -0.640625 
Q 12.796875 0.140625 7.71875 1.703125 
L 7.71875 11.625 
Q 12.109375 9.234375 16.796875 8.0625 
Q 21.484375 6.890625 26.703125 6.890625 
Q 35.15625 6.890625 40.078125 11.328125 
Q 45.015625 15.765625 45.015625 23.390625 
Q 45.015625 31 40.078125 35.4375 
Q 35.15625 39.890625 26.703125 39.890625 
Q 22.75 39.890625 18.8125 39.015625 
Q 14.890625 38.140625 10.796875 36.28125 
z
" id="DejaVuSans-35"/>
      </defs>
      <g transform="translate(221.316982 320.638125)rotate(-90)scale(0.1 -0.1)">
       <use xlink:href="#DejaVuSans-41"/>
       <use x="68.408203" xlink:href="#DejaVuSans-31"/>
       <use x="132.03125" xlink:href="#DejaVuSans-35"/>
       <use x="195.654297" xlink:href="#DejaVuSans-31"/>
      </g>
     </g>
    </g>
    <g id="xtick_12">
     <g id="line2d_12">
      <g>
       <use style="stroke:#000000;stroke-width:0.8;" x="235.641368" xlink:href="#mc78eb864b1" y="287.71"/>
      </g>
     </g>
     <g id="text_12">
      <!-- A166 -->
      <g transform="translate(238.400743 320.638125)rotate(-90)scale(0.1 -0.1)">
       <use xlink:href="#DejaVuSans-41"/>
       <use x="68.408203" xlink:href="#DejaVuSans-31"/>
       <use x="132.03125" xlink:href="#DejaVuSans-36"/>
       <use x="195.654297" xlink:href="#DejaVuSans-36"/>
      </g>
     </g>
    </g>
    <g id="xtick_13">
     <g id="line2d_13">
      <g>
       <use style="stroke:#000000;stroke-width:0.8;" x="252.725128" xlink:href="#mc78eb864b1" y="287.71"/>
      </g>
     </g>
     <g id="text_13">
      <!-- A181 -->
      <defs>
       <path d="M 31.78125 34.625 
Q 24.75 34.625 20.71875 30.859375 
Q 16.703125 27.09375 16.703125 20.515625 
Q 16.703125 13.921875 20.71875 10.15625 
Q 24.75 6.390625 31.78125 6.390625 
Q 38.8125 6.390625 42.859375 10.171875 
Q 46.921875 13.96875 46.921875 20.515625 
Q 46.921875 27.09375 42.890625 30.859375 
Q 38.875 34.625 31.78125 34.625 
z
M 21.921875 38.8125 
Q 15.578125 40.375 12.03125 44.71875 
Q 8.5 49.078125 8.5 55.328125 
Q 8.5 64.0625 14.71875 69.140625 
Q 20.953125 74.21875 31.78125 74.21875 
Q 42.671875 74.21875 48.875 69.140625 
Q 55.078125 64.0625 55.078125 55.328125 
Q 55.078125 49.078125 51.53125 44.71875 
Q 48 40.375 41.703125 38.8125 
Q 48.828125 37.15625 52.796875 32.3125 
Q 56.78125 27.484375 56.78125 20.515625 
Q 56.78125 9.90625 50.3125 4.234375 
Q 43.84375 -1.421875 31.78125 -1.421875 
Q 19.734375 -1.421875 13.25 4.234375 
Q 6.78125 9.90625 6.78125 20.515625 
Q 6.78125 27.484375 10.78125 32.3125 
Q 14.796875 37.15625 21.921875 38.8125 
z
M 18.3125 54.390625 
Q 18.3125 48.734375 21.84375 45.5625 
Q 25.390625 42.390625 31.78125 42.390625 
Q 38.140625 42.390625 41.71875 45.5625 
Q 45.3125 48.734375 45.3125 54.390625 
Q 45.3125 60.0625 41.71875 63.234375 
Q 38.140625 66.40625 31.78125 66.40625 
Q 25.390625 66.40625 21.84375 63.234375 
Q 18.3125 60.0625 18.3125 54.390625 
z
" id="DejaVuSans-38"/>
      </defs>
      <g transform="translate(255.484503 320.638125)rotate(-90)scale(0.1 -0.1)">
       <use xlink:href="#DejaVuSans-41"/>
       <use x="68.408203" xlink:href="#DejaVuSans-31"/>
       <use x="132.03125" xlink:href="#DejaVuSans-38"/>
       <use x="195.654297" xlink:href="#DejaVuSans-31"/>
      </g>
     </g>
    </g>
    <g id="xtick_14">
     <g id="line2d_14">
      <g>
       <use style="stroke:#000000;stroke-width:0.8;" x="269.808889" xlink:href="#mc78eb864b1" y="287.71"/>
      </g>
     </g>
     <g id="text_14">
      <!-- A196 -->
      <g transform="translate(272.568264 320.638125)rotate(-90)scale(0.1 -0.1)">
       <use xlink:href="#DejaVuSans-41"/>
       <use x="68.408203" xlink:href="#DejaVuSans-31"/>
       <use x="132.03125" xlink:href="#DejaVuSans-39"/>
       <use x="195.654297" xlink:href="#DejaVuSans-36"/>
      </g>
     </g>
    </g>
    <g id="xtick_15">
     <g id="line2d_15">
      <g>
       <use style="stroke:#000000;stroke-width:0.8;" x="286.89265" xlink:href="#mc78eb864b1" y="287.71"/>
      </g>
     </g>
     <g id="text_15">
      <!-- A211 -->
      <g transform="translate(289.652025 320.638125)rotate(-90)scale(0.1 -0.1)">
       <use xlink:href="#DejaVuSans-41"/>
       <use x="68.408203" xlink:href="#DejaVuSans-32"/>
       <use x="132.03125" xlink:href="#DejaVuSans-31"/>
       <use x="195.654297" xlink:href="#DejaVuSans-31"/>
      </g>
     </g>
    </g>
    <g id="xtick_16">
     <g id="line2d_16">
      <g>
       <use style="stroke:#000000;stroke-width:0.8;" x="303.97641" xlink:href="#mc78eb864b1" y="287.71"/>
      </g>
     </g>
     <g id="text_16">
      <!-- A226 -->
      <g transform="translate(306.735785 320.638125)rotate(-90)scale(0.1 -0.1)">
       <use xlink:href="#DejaVuSans-41"/>
       <use x="68.408203" xlink:href="#DejaVuSans-32"/>
       <use x="132.03125" xlink:href="#DejaVuSans-32"/>
       <use x="195.654297" xlink:href="#DejaVuSans-36"/>
      </g>
     </g>
    </g>
    <g id="xtick_17">
     <g id="line2d_17">
      <g>
       <use style="stroke:#000000;stroke-width:0.8;" x="321.060171" xlink:href="#mc78eb864b1" y="287.71"/>
      </g>
     </g>
     <g id="text_17">
      <!-- A241 -->
      <g transform="translate(323.819546 320.638125)rotate(-90)scale(0.1 -0.1)">
       <use xlink:href="#DejaVuSans-41"/>
       <use x="68.408203" xlink:href="#DejaVuSans-32"/>
       <use x="132.03125" xlink:href="#DejaVuSans-34"/>
       <use x="195.654297" xlink:href="#DejaVuSans-31"/>
      </g>
     </g>
    </g>
    <g id="xtick_18">
     <g id="line2d_18">
      <g>
       <use style="stroke:#000000;stroke-width:0.8;" x="338.143932" xlink:href="#mc78eb864b1" y="287.71"/>
      </g>
     </g>
     <g id="text_18">
      <!-- A256 -->
      <g transform="translate(340.903307 320.638125)rotate(-90)scale(0.1 -0.1)">
       <use xlink:href="#DejaVuSans-41"/>
       <use x="68.408203" xlink:href="#DejaVuSans-32"/>
       <use x="132.03125" xlink:href="#DejaVuSans-35"/>
       <use x="195.654297" xlink:href="#DejaVuSans-36"/>
      </g>
     </g>
    </g>
    <g id="xtick_19">
     <g id="line2d_19">
      <g>
       <use style="stroke:#000000;stroke-width:0.8;" x="355.227692" xlink:href="#mc78eb864b1" y="287.71"/>
      </g>
     </g>
     <g id="text_19">
      <!-- A271 -->
      <g transform="translate(357.987067 320.638125)rotate(-90)scale(0.1 -0.1)">
       <use xlink:href="#DejaVuSans-41"/>
       <use x="68.408203" xlink:href="#DejaVuSans-32"/>
       <use x="132.03125" xlink:href="#DejaVuSans-37"/>
       <use x="195.654297" xlink:href="#DejaVuSans-31"/>
      </g>
     </g>
    </g>
    <g id="xtick_20">
     <g id="line2d_20">
      <g>
       <use style="stroke:#000000;stroke-width:0.8;" x="372.311453" xlink:href="#mc78eb864b1" y="287.71"/>
      </g>
     </g>
     <g id="text_20">
      <!-- A286 -->
      <g transform="translate(375.070828 320.638125)rotate(-90)scale(0.1 -0.1)">
       <use xlink:href="#DejaVuSans-41"/>
       <use x="68.408203" xlink:href="#DejaVuSans-32"/>
       <use x="132.03125" xlink:href="#DejaVuSans-38"/>
       <use x="195.654297" xlink:href="#DejaVuSans-36"/>
      </g>
     </g>
    </g>
    <g id="xtick_21">
     <g id="line2d_21">
      <g>
       <use style="stroke:#000000;stroke-width:0.8;" x="389.395214" xlink:href="#mc78eb864b1" y="287.71"/>
      </g>
     </g>
     <g id="text_21">
      <!-- A301 -->
      <g transform="translate(392.154589 320.638125)rotate(-90)scale(0.1 -0.1)">
       <use xlink:href="#DejaVuSans-41"/>
       <use x="68.408203" xlink:href="#DejaVuSans-33"/>
       <use x="132.03125" xlink:href="#DejaVuSans-30"/>
       <use x="195.654297" xlink:href="#DejaVuSans-31"/>
      </g>
     </g>
    </g>
    <g id="xtick_22">
     <g id="line2d_22">
      <g>
       <use style="stroke:#000000;stroke-width:0.8;" x="406.478974" xlink:href="#mc78eb864b1" y="287.71"/>
      </g>
     </g>
     <g id="text_22">
      <!-- A316 -->
      <g transform="translate(409.238349 320.638125)rotate(-90)scale(0.1 -0.1)">
       <use xlink:href="#DejaVuSans-41"/>
       <use x="68.408203" xlink:href="#DejaVuSans-33"/>
       <use x="132.03125" xlink:href="#DejaVuSans-31"/>
       <use x="195.654297" xlink:href="#DejaVuSans-36"/>
      </g>
     </g>
    </g>
    <g id="xtick_23">
     <g id="line2d_23">
      <g>
       <use style="stroke:#000000;stroke-width:0.8;" x="423.562735" xlink:href="#mc78eb864b1" y="287.71"/>
      </g>
     </g>
     <g id="text_23">
      <!-- A331 -->
      <g transform="translate(426.32211 320.638125)rotate(-90)scale(0.1 -0.1)">
       <use xlink:href="#DejaVuSans-41"/>
       <use x="68.408203" xlink:href="#DejaVuSans-33"/>
       <use x="132.03125" xlink:href="#DejaVuSans-33"/>
       <use x="195.654297" xlink:href="#DejaVuSans-31"/>
      </g>
     </g>
    </g>
    <g id="xtick_24">
     <g id="line2d_24">
      <g>
       <use style="stroke:#000000;stroke-width:0.8;" x="440.646496" xlink:href="#mc78eb864b1" y="287.71"/>
      </g>
     </g>
     <g id="text_24">
      <!-- A346 -->
      <g transform="translate(443.405871 320.638125)rotate(-90)scale(0.1 -0.1)">
       <use xlink:href="#DejaVuSans-41"/>
       <use x="68.408203" xlink:href="#DejaVuSans-33"/>
       <use x="132.03125" xlink:href="#DejaVuSans-34"/>
       <use x="195.654297" xlink:href="#DejaVuSans-36"/>
      </g>
     </g>
    </g>
    <g id="text_25">
     <!-- Residue index -->
     <defs>
      <path d="M 44.390625 34.1875 
Q 47.5625 33.109375 50.5625 29.59375 
Q 53.5625 26.078125 56.59375 19.921875 
L 66.609375 0 
L 56 0 
L 46.6875 18.703125 
Q 43.0625 26.03125 39.671875 28.421875 
Q 36.28125 30.8125 30.421875 30.8125 
L 19.671875 30.8125 
L 19.671875 0 
L 9.8125 0 
L 9.8125 72.90625 
L 32.078125 72.90625 
Q 44.578125 72.90625 50.734375 67.671875 
Q 56.890625 62.453125 56.890625 51.90625 
Q 56.890625 45.015625 53.6875 40.46875 
Q 50.484375 35.9375 44.390625 34.1875 
z
M 19.671875 64.796875 
L 19.671875 38.921875 
L 32.078125 38.921875 
Q 39.203125 38.921875 42.84375 42.21875 
Q 46.484375 45.515625 46.484375 51.90625 
Q 46.484375 58.296875 42.84375 61.546875 
Q 39.203125 64.796875 32.078125 64.796875 
z
" id="DejaVuSans-52"/>
      <path d="M 56.203125 29.59375 
L 56.203125 25.203125 
L 14.890625 25.203125 
Q 15.484375 15.921875 20.484375 11.0625 
Q 25.484375 6.203125 34.421875 6.203125 
Q 39.59375 6.203125 44.453125 7.46875 
Q 49.3125 8.734375 54.109375 11.28125 
L 54.109375 2.78125 
Q 49.265625 0.734375 44.1875 -0.34375 
Q 39.109375 -1.421875 33.890625 -1.421875 
Q 20.796875 -1.421875 13.15625 6.1875 
Q 5.515625 13.8125 5.515625 26.8125 
Q 5.515625 40.234375 12.765625 48.109375 
Q 20.015625 56 32.328125 56 
Q 43.359375 56 49.78125 48.890625 
Q 56.203125 41.796875 56.203125 29.59375 
z
M 47.21875 32.234375 
Q 47.125 39.59375 43.09375 43.984375 
Q 39.0625 48.390625 32.421875 48.390625 
Q 24.90625 48.390625 20.390625 44.140625 
Q 15.875 39.890625 15.1875 32.171875 
z
" id="DejaVuSans-65"/>
      <path d="M 44.28125 53.078125 
L 44.28125 44.578125 
Q 40.484375 46.53125 36.375 47.5 
Q 32.28125 48.484375 27.875 48.484375 
Q 21.1875 48.484375 17.84375 46.4375 
Q 14.5 44.390625 14.5 40.28125 
Q 14.5 37.15625 16.890625 35.375 
Q 19.28125 33.59375 26.515625 31.984375 
L 29.59375 31.296875 
Q 39.15625 29.25 43.1875 25.515625 
Q 47.21875 21.78125 47.21875 15.09375 
Q 47.21875 7.46875 41.1875 3.015625 
Q 35.15625 -1.421875 24.609375 -1.421875 
Q 20.21875 -1.421875 15.453125 -0.5625 
Q 10.6875 0.296875 5.421875 2 
L 5.421875 11.28125 
Q 10.40625 8.6875 15.234375 7.390625 
Q 20.0625 6.109375 24.8125 6.109375 
Q 31.15625 6.109375 34.5625 8.28125 
Q 37.984375 10.453125 37.984375 14.40625 
Q 37.984375 18.0625 35.515625 20.015625 
Q 33.0625 21.96875 24.703125 23.78125 
L 21.578125 24.515625 
Q 13.234375 26.265625 9.515625 29.90625 
Q 5.8125 33.546875 5.8125 39.890625 
Q 5.8125 47.609375 11.28125 51.796875 
Q 16.75 56 26.8125 56 
Q 31.78125 56 36.171875 55.265625 
Q 40.578125 54.546875 44.28125 53.078125 
z
" id="DejaVuSans-73"/>
      <path d="M 9.421875 54.6875 
L 18.40625 54.6875 
L 18.40625 0 
L 9.421875 0 
z
M 9.421875 75.984375 
L 18.40625 75.984375 
L 18.40625 64.59375 
L 9.421875 64.59375 
z
" id="DejaVuSans-69"/>
      <path d="M 45.40625 46.390625 
L 45.40625 75.984375 
L 54.390625 75.984375 
L 54.390625 0 
L 45.40625 0 
L 45.40625 8.203125 
Q 42.578125 3.328125 38.25 0.953125 
Q 33.9375 -1.421875 27.875 -1.421875 
Q 17.96875 -1.421875 11.734375 6.484375 
Q 5.515625 14.40625 5.515625 27.296875 
Q 5.515625 40.1875 11.734375 48.09375 
Q 17.96875 56 27.875 56 
Q 33.9375 56 38.25 53.625 
Q 42.578125 51.265625 45.40625 46.390625 
z
M 14.796875 27.296875 
Q 14.796875 17.390625 18.875 11.75 
Q 22.953125 6.109375 30.078125 6.109375 
Q 37.203125 6.109375 41.296875 11.75 
Q 45.40625 17.390625 45.40625 27.296875 
Q 45.40625 37.203125 41.296875 42.84375 
Q 37.203125 48.484375 30.078125 48.484375 
Q 22.953125 48.484375 18.875 42.84375 
Q 14.796875 37.203125 14.796875 27.296875 
z
" id="DejaVuSans-64"/>
      <path d="M 8.5 21.578125 
L 8.5 54.6875 
L 17.484375 54.6875 
L 17.484375 21.921875 
Q 17.484375 14.15625 20.5 10.265625 
Q 23.53125 6.390625 29.59375 6.390625 
Q 36.859375 6.390625 41.078125 11.03125 
Q 45.3125 15.671875 45.3125 23.6875 
L 45.3125 54.6875 
L 54.296875 54.6875 
L 54.296875 0 
L 45.3125 0 
L 45.3125 8.40625 
Q 42.046875 3.421875 37.71875 1 
Q 33.40625 -1.421875 27.6875 -1.421875 
Q 18.265625 -1.421875 13.375 4.4375 
Q 8.5 10.296875 8.5 21.578125 
z
M 31.109375 56 
z
" id="DejaVuSans-75"/>
      <path id="DejaVuSans-20"/>
      <path d="M 54.890625 33.015625 
L 54.890625 0 
L 45.90625 0 
L 45.90625 32.71875 
Q 45.90625 40.484375 42.875 44.328125 
Q 39.84375 48.1875 33.796875 48.1875 
Q 26.515625 48.1875 22.3125 43.546875 
Q 18.109375 38.921875 18.109375 30.90625 
L 18.109375 0 
L 9.078125 0 
L 9.078125 54.6875 
L 18.109375 54.6875 
L 18.109375 46.1875 
Q 21.34375 51.125 25.703125 53.5625 
Q 30.078125 56 35.796875 56 
Q 45.21875 56 50.046875 50.171875 
Q 54.890625 44.34375 54.890625 33.015625 
z
" id="DejaVuSans-6e"/>
      <path d="M 54.890625 54.6875 
L 35.109375 28.078125 
L 55.90625 0 
L 45.3125 0 
L 29.390625 21.484375 
L 13.484375 0 
L 2.875 0 
L 24.125 28.609375 
L 4.6875 54.6875 
L 15.28125 54.6875 
L 29.78125 35.203125 
L 44.28125 54.6875 
z
" id="DejaVuSans-78"/>
     </defs>
     <g transform="translate(212.282812 332.236562)scale(0.1 -0.1)">
      <use xlink:href="#DejaVuSans-52"/>
      <use x="69.419922" xlink:href="#DejaVuSans-65"/>
      <use x="130.943359" xlink:href="#DejaVuSans-73"/>
      <use x="183.042969" xlink:href="#DejaVuSans-69"/>
      <use x="210.826172" xlink:href="#DejaVuSans-64"/>
      <use x="274.302734" xlink:href="#DejaVuSans-75"/>
      <use x="337.681641" xlink:href="#DejaVuSans-65"/>
      <use x="399.205078" xlink:href="#DejaVuSans-20"/>
      <use x="430.992188" xlink:href="#DejaVuSans-69"/>
      <use x="458.775391" xlink:href="#DejaVuSans-6e"/>
      <use x="522.154297" xlink:href="#DejaVuSans-64"/>
      <use x="585.630859" xlink:href="#DejaVuSans-65"/>
      <use x="647.138672" xlink:href="#DejaVuSans-78"/>
     </g>
    </g>
   </g>
   <g id="matplotlib.axis_2">
    <g id="ytick_1">
     <g id="line2d_25">
      <defs>
       <path d="M 0 0 
L -3.5 0 
" id="me441e714e9" style="stroke:#000000;stroke-width:0.8;"/>
      </defs>
      <g>
       <use style="stroke:#000000;stroke-width:0.8;" x="47.72" xlink:href="#me441e714e9" y="286.231913"/>
      </g>
     </g>
     <g id="text_26">
      <!-- 0.0 -->
      <defs>
       <path d="M 10.6875 12.40625 
L 21 12.40625 
L 21 0 
L 10.6875 0 
z
" id="DejaVuSans-2e"/>
      </defs>
      <g transform="translate(24.816875 290.031132)scale(0.1 -0.1)">
       <use xlink:href="#DejaVuSans-30"/>
       <use x="63.623047" xlink:href="#DejaVuSans-2e"/>
       <use x="95.410156" xlink:href="#DejaVuSans-30"/>
      </g>
     </g>
    </g>
    <g id="ytick_2">
     <g id="line2d_26">
      <g>
       <use style="stroke:#000000;stroke-width:0.8;" x="47.72" xlink:href="#me441e714e9" y="255.52767"/>
      </g>
     </g>
     <g id="text_27">
      <!-- 0.5 -->
      <g transform="translate(24.816875 259.326889)scale(0.1 -0.1)">
       <use xlink:href="#DejaVuSans-30"/>
       <use x="63.623047" xlink:href="#DejaVuSans-2e"/>
       <use x="95.410156" xlink:href="#DejaVuSans-35"/>
      </g>
     </g>
    </g>
    <g id="ytick_3">
     <g id="line2d_27">
      <g>
       <use style="stroke:#000000;stroke-width:0.8;" x="47.72" xlink:href="#me441e714e9" y="224.823428"/>
      </g>
     </g>
     <g id="text_28">
      <!-- 1.0 -->
      <g transform="translate(24.816875 228.622646)scale(0.1 -0.1)">
       <use xlink:href="#DejaVuSans-31"/>
       <use x="63.623047" xlink:href="#DejaVuSans-2e"/>
       <use x="95.410156" xlink:href="#DejaVuSans-30"/>
      </g>
     </g>
    </g>
    <g id="ytick_4">
     <g id="line2d_28">
      <g>
       <use style="stroke:#000000;stroke-width:0.8;" x="47.72" xlink:href="#me441e714e9" y="194.119185"/>
      </g>
     </g>
     <g id="text_29">
      <!-- 1.5 -->
      <g transform="translate(24.816875 197.918404)scale(0.1 -0.1)">
       <use xlink:href="#DejaVuSans-31"/>
       <use x="63.623047" xlink:href="#DejaVuSans-2e"/>
       <use x="95.410156" xlink:href="#DejaVuSans-35"/>
      </g>
     </g>
    </g>
    <g id="ytick_5">
     <g id="line2d_29">
      <g>
       <use style="stroke:#000000;stroke-width:0.8;" x="47.72" xlink:href="#me441e714e9" y="163.414942"/>
      </g>
     </g>
     <g id="text_30">
      <!-- 2.0 -->
      <g transform="translate(24.816875 167.214161)scale(0.1 -0.1)">
       <use xlink:href="#DejaVuSans-32"/>
       <use x="63.623047" xlink:href="#DejaVuSans-2e"/>
       <use x="95.410156" xlink:href="#DejaVuSans-30"/>
      </g>
     </g>
    </g>
    <g id="ytick_6">
     <g id="line2d_30">
      <g>
       <use style="stroke:#000000;stroke-width:0.8;" x="47.72" xlink:href="#me441e714e9" y="132.710699"/>
      </g>
     </g>
     <g id="text_31">
      <!-- 2.5 -->
      <g transform="translate(24.816875 136.509918)scale(0.1 -0.1)">
       <use xlink:href="#DejaVuSans-32"/>
       <use x="63.623047" xlink:href="#DejaVuSans-2e"/>
       <use x="95.410156" xlink:href="#DejaVuSans-35"/>
      </g>
     </g>
    </g>
    <g id="ytick_7">
     <g id="line2d_31">
      <g>
       <use style="stroke:#000000;stroke-width:0.8;" x="47.72" xlink:href="#me441e714e9" y="102.006456"/>
      </g>
     </g>
     <g id="text_32">
      <!-- 3.0 -->
      <g transform="translate(24.816875 105.805675)scale(0.1 -0.1)">
       <use xlink:href="#DejaVuSans-33"/>
       <use x="63.623047" xlink:href="#DejaVuSans-2e"/>
       <use x="95.410156" xlink:href="#DejaVuSans-30"/>
      </g>
     </g>
    </g>
    <g id="ytick_8">
     <g id="line2d_32">
      <g>
       <use style="stroke:#000000;stroke-width:0.8;" x="47.72" xlink:href="#me441e714e9" y="71.302214"/>
      </g>
     </g>
     <g id="text_33">
      <!-- 3.5 -->
      <g transform="translate(24.816875 75.101432)scale(0.1 -0.1)">
       <use xlink:href="#DejaVuSans-33"/>
       <use x="63.623047" xlink:href="#DejaVuSans-2e"/>
       <use x="95.410156" xlink:href="#DejaVuSans-35"/>
      </g>
     </g>
    </g>
    <g id="ytick_9">
     <g id="line2d_33">
      <g>
       <use style="stroke:#000000;stroke-width:0.8;" x="47.72" xlink:href="#me441e714e9" y="40.597971"/>
      </g>
     </g>
     <g id="text_34">
      <!-- 4.0 -->
      <g transform="translate(24.816875 44.39719)scale(0.1 -0.1)">
       <use xlink:href="#DejaVuSans-34"/>
       <use x="63.623047" xlink:href="#DejaVuSans-2e"/>
       <use x="95.410156" xlink:href="#DejaVuSans-30"/>
      </g>
     </g>
    </g>
    <g id="text_35">
     <!-- RMSF -->
     <defs>
      <path d="M 9.8125 72.90625 
L 24.515625 72.90625 
L 43.109375 23.296875 
L 61.8125 72.90625 
L 76.515625 72.90625 
L 76.515625 0 
L 66.890625 0 
L 66.890625 64.015625 
L 48.09375 14.015625 
L 38.1875 14.015625 
L 19.390625 64.015625 
L 19.390625 0 
L 9.8125 0 
z
" id="DejaVuSans-4d"/>
      <path d="M 53.515625 70.515625 
L 53.515625 60.890625 
Q 47.90625 63.578125 42.921875 64.890625 
Q 37.9375 66.21875 33.296875 66.21875 
Q 25.25 66.21875 20.875 63.09375 
Q 16.5 59.96875 16.5 54.203125 
Q 16.5 49.359375 19.40625 46.890625 
Q 22.3125 44.4375 30.421875 42.921875 
L 36.375 41.703125 
Q 47.40625 39.59375 52.65625 34.296875 
Q 57.90625 29 57.90625 20.125 
Q 57.90625 9.515625 50.796875 4.046875 
Q 43.703125 -1.421875 29.984375 -1.421875 
Q 24.8125 -1.421875 18.96875 -0.25 
Q 13.140625 0.921875 6.890625 3.21875 
L 6.890625 13.375 
Q 12.890625 10.015625 18.65625 8.296875 
Q 24.421875 6.59375 29.984375 6.59375 
Q 38.421875 6.59375 43.015625 9.90625 
Q 47.609375 13.234375 47.609375 19.390625 
Q 47.609375 24.75 44.3125 27.78125 
Q 41.015625 30.8125 33.5 32.328125 
L 27.484375 33.5 
Q 16.453125 35.6875 11.515625 40.375 
Q 6.59375 45.0625 6.59375 53.421875 
Q 6.59375 63.09375 13.40625 68.65625 
Q 20.21875 74.21875 32.171875 74.21875 
Q 37.3125 74.21875 42.625 73.28125 
Q 47.953125 72.359375 53.515625 70.515625 
z
" id="DejaVuSans-53"/>
      <path d="M 9.8125 72.90625 
L 51.703125 72.90625 
L 51.703125 64.59375 
L 19.671875 64.59375 
L 19.671875 43.109375 
L 48.578125 43.109375 
L 48.578125 34.8125 
L 19.671875 34.8125 
L 19.671875 0 
L 9.8125 0 
z
" id="DejaVuSans-46"/>
     </defs>
     <g transform="translate(18.737188 164.353281)rotate(-90)scale(0.1 -0.1)">
      <use xlink:href="#DejaVuSans-52"/>
      <use x="69.482422" xlink:href="#DejaVuSans-4d"/>
      <use x="155.761719" xlink:href="#DejaVuSans-53"/>
      <use x="219.238281" xlink:href="#DejaVuSans-46"/>
     </g>
    </g>
   </g>
   <g id="line2d_34">
    <path clip-path="url(#p8ee5b27b8a)" d="M 47.72 158.54456 
L 48.858917 213.152591 
L 49.997835 211.757865 
L 51.136752 218.797389 
L 52.27567 235.69059 
L 53.414587 238.096464 
L 54.553504 234.230695 
L 55.692422 245.410017 
L 56.831339 234.709773 
L 57.970256 227.111224 
L 59.109174 200.647373 
L 60.248091 231.717007 
L 61.387009 252.658509 
L 62.525926 253.718135 
L 63.664843 245.182025 
L 64.803761 246.673901 
L 65.942678 234.335456 
L 67.081595 220.511746 
L 69.35943 160.847824 
L 70.498348 170.422086 
L 71.637265 227.35042 
L 72.776182 258.688171 
L 73.9151 256.304201 
L 75.054017 256.208658 
L 76.192934 255.035666 
L 77.331852 254.800972 
L 78.470769 244.528009 
L 79.609687 238.754207 
L 80.748604 192.616396 
L 81.887521 245.115757 
L 83.026439 259.089041 
L 84.165356 267.010403 
L 85.304274 268.634048 
L 86.443191 254.576423 
L 87.582108 261.855956 
L 88.721026 262.963651 
L 90.99886 223.553005 
L 92.137778 155.616297 
L 93.276695 200.135312 
L 94.415613 183.424689 
L 95.55453 209.041588 
L 96.693447 220.592055 
L 97.832365 219.682836 
L 98.971282 227.924186 
L 100.110199 239.538756 
L 101.249117 242.296528 
L 102.388034 233.728933 
L 104.665869 245.548908 
L 105.804786 248.523301 
L 106.943704 254.425651 
L 108.082621 265.304482 
L 109.221538 266.338893 
L 110.360456 264.363525 
L 111.499373 261.894263 
L 112.638291 262.313843 
L 113.777208 256.440435 
L 114.916125 248.316874 
L 116.055043 237.534194 
L 117.19396 172.978767 
L 118.332877 233.047912 
L 119.471795 256.344708 
L 120.610712 265.535069 
L 121.74963 272.660945 
L 122.888547 270.043187 
L 124.027464 274.188439 
L 125.166382 267.45508 
L 126.305299 272.171333 
L 127.444217 245.121341 
L 128.583134 246.030942 
L 129.722051 233.274796 
L 130.860969 238.835854 
L 131.999886 221.351507 
L 133.138803 242.785632 
L 134.277721 225.962133 
L 135.416638 221.711802 
L 136.555556 161.565019 
L 137.694473 209.286489 
L 138.83339 218.383785 
L 139.972308 179.90588 
L 141.111225 258.847541 
L 142.250142 249.660844 
L 143.38906 248.787135 
L 144.527977 239.679242 
L 145.666895 244.30081 
L 146.805812 249.780356 
L 147.944729 251.660546 
L 149.083647 258.875963 
L 150.222564 244.09829 
L 151.361481 234.242469 
L 152.500399 230.146114 
L 153.639316 242.24144 
L 154.778234 238.656249 
L 155.917151 244.442588 
L 157.056068 256.204918 
L 158.194986 258.303172 
L 159.333903 264.829478 
L 160.472821 264.54322 
L 161.611738 266.733038 
L 162.750655 269.242307 
L 163.889573 268.033301 
L 165.02849 271.423204 
L 166.167407 272.021675 
L 168.445242 264.024836 
L 169.58416 270.034139 
L 170.723077 271.634428 
L 171.861994 263.969585 
L 173.000912 267.370401 
L 174.139829 259.2142 
L 175.278746 245.163359 
L 176.417664 239.77733 
L 177.556581 209.386291 
L 178.695499 153.178966 
L 179.834416 199.055466 
L 180.973333 237.363539 
L 182.112251 245.244206 
L 183.251168 264.20688 
L 184.390085 273.01047 
L 185.529003 275.237727 
L 186.66792 274.397816 
L 187.806838 264.019464 
L 188.945755 240.537897 
L 190.084672 172.677214 
L 191.22359 174.685571 
L 192.362507 223.797689 
L 193.501425 240.480776 
L 194.640342 262.735382 
L 195.779259 255.001711 
L 196.918177 254.619087 
L 198.057094 266.228965 
L 199.196011 267.873087 
L 200.334929 268.058745 
L 201.473846 274.960879 
L 202.612764 270.769765 
L 203.751681 270.654541 
L 204.890598 273.712245 
L 206.029516 261.844088 
L 207.168433 253.911751 
L 208.30735 252.262805 
L 209.446268 242.248731 
L 210.585185 225.878194 
L 212.86302 256.140326 
L 214.001937 249.550014 
L 215.140855 265.82393 
L 216.279772 262.574306 
L 217.418689 260.5058 
L 218.557607 270.040249 
L 219.696524 267.20419 
L 220.835442 259.287521 
L 221.974359 264.202498 
L 223.113276 258.877909 
L 224.252194 251.01516 
L 225.391111 238.059634 
L 226.530028 244.712726 
L 227.668946 245.37691 
L 228.807863 239.942466 
L 229.946781 222.456101 
L 231.085698 195.533343 
L 232.224615 135.72881 
L 233.363533 136.20748 
L 234.50245 100.048147 
L 235.641368 78.370182 
L 236.780285 101.631248 
L 237.919202 213.822474 
L 239.05812 243.104205 
L 240.197037 247.897646 
L 241.335954 241.400927 
L 242.474872 256.11867 
L 243.613789 259.222908 
L 244.752707 258.690576 
L 245.891624 259.923801 
L 247.030541 259.803068 
L 248.169459 274.84678 
L 249.308376 274.454837 
L 250.447293 271.961039 
L 251.586211 272.709564 
L 252.725128 272.220692 
L 253.864046 255.294713 
L 255.002963 251.305653 
L 256.14188 244.880866 
L 257.280798 211.539104 
L 258.419715 211.417076 
L 259.558632 217.86371 
L 260.69755 228.852538 
L 261.836467 235.450972 
L 262.975385 229.992215 
L 264.114302 251.652473 
L 265.253219 266.836728 
L 266.392137 268.087962 
L 267.531054 269.746401 
L 268.669972 271.118641 
L 269.808889 251.164983 
L 270.947806 252.332678 
L 272.086724 264.752946 
L 273.225641 265.826896 
L 274.364558 271.195527 
L 275.503476 264.173973 
L 276.642393 258.45775 
L 277.781311 243.106516 
L 278.920228 209.770946 
L 280.059145 260.138863 
L 281.198063 227.294434 
L 282.33698 212.993751 
L 283.475897 170.976987 
L 284.614815 93.278521 
L 285.753732 131.783657 
L 286.89265 152.265738 
L 288.031567 202.457621 
L 289.170484 267.245561 
L 290.309402 267.992927 
L 291.448319 269.499964 
L 292.587236 269.635955 
L 293.726154 262.900141 
L 294.865071 270.408772 
L 296.003989 267.953145 
L 297.142906 259.35533 
L 298.281823 222.729056 
L 299.420741 239.550528 
L 300.559658 251.451948 
L 301.698575 244.698787 
L 302.837493 246.560786 
L 303.97641 247.036202 
L 305.115328 224.824909 
L 306.254245 191.737834 
L 307.393162 187.442867 
L 308.53208 186.434348 
L 309.670997 202.714453 
L 310.809915 234.580347 
L 311.948832 229.789798 
L 313.087749 240.446868 
L 314.226667 226.90486 
L 315.365584 207.087084 
L 317.643419 250.89094 
L 318.782336 266.442646 
L 321.060171 251.383903 
L 323.338006 239.640558 
L 325.61584 156.294281 
L 326.754758 220.82385 
L 327.893675 248.470814 
L 329.032593 267.838459 
L 330.17151 270.866624 
L 331.310427 271.441966 
L 332.449345 257.269357 
L 333.588262 273.584212 
L 334.727179 268.023738 
L 335.866097 266.119004 
L 337.005014 267.911593 
L 338.143932 267.445204 
L 339.282849 270.534952 
L 341.560684 266.35236 
L 342.699601 247.923633 
L 344.977436 156.171379 
L 346.116353 134.415926 
L 347.255271 147.381647 
L 348.394188 172.325612 
L 349.533105 218.186473 
L 350.672023 231.311871 
L 351.81094 227.801879 
L 352.949858 249.42348 
L 354.088775 241.535295 
L 355.227692 272.031547 
L 356.36661 265.718393 
L 357.505527 273.690867 
L 358.644444 267.316682 
L 359.783362 270.558524 
L 362.061197 259.334049 
L 363.200114 241.886108 
L 364.339031 232.062993 
L 365.477949 239.223035 
L 366.616866 236.483807 
L 367.755783 217.14545 
L 368.894701 185.081712 
L 370.033618 149.208065 
L 371.172536 151.049414 
L 372.311453 121.367159 
L 373.45037 121.162038 
L 374.589288 89.351292 
L 375.728205 118.611998 
L 376.867123 102.212758 
L 378.00604 103.818341 
L 379.144957 104.34172 
L 380.283875 134.440779 
L 381.422792 157.162586 
L 382.561709 104.694418 
L 383.700627 212.382275 
L 384.839544 203.553509 
L 385.978462 219.741444 
L 387.117379 228.073876 
L 388.256296 226.795627 
L 389.395214 234.060283 
L 390.534131 235.016352 
L 391.673048 236.438826 
L 392.811966 250.385166 
L 393.950883 251.688128 
L 395.089801 233.49683 
L 396.228718 219.214699 
L 397.367635 188.218998 
L 398.506553 139.667433 
L 399.64547 62.124832 
L 400.784387 25.792273 
L 401.923305 64.868549 
L 403.062222 181.897486 
L 404.20114 222.567951 
L 405.340057 250.079546 
L 406.478974 259.89947 
L 407.617892 266.310665 
L 408.756809 268.578232 
L 409.895726 270.133685 
L 411.034644 256.206695 
L 412.173561 233.884281 
L 413.312479 232.104575 
L 414.451396 219.810683 
L 415.590313 222.625003 
L 416.729231 242.75526 
L 419.007066 249.468054 
L 420.145983 251.013962 
L 421.2849 230.009966 
L 422.423818 148.211923 
L 423.562735 166.66572 
L 424.701652 121.080671 
L 425.84057 125.968871 
L 426.979487 126.058109 
L 428.118405 217.680301 
L 429.257322 242.477238 
L 430.396239 224.057576 
L 431.535157 215.06892 
L 432.674074 208.193035 
L 433.812991 197.756478 
L 434.951909 240.236822 
L 436.090826 254.561299 
L 437.229744 266.992034 
L 439.507578 270.252797 
L 440.646496 263.06227 
L 441.785413 263.461438 
L 442.92433 252.383328 
L 444.063248 261.713071 
L 445.202165 233.925513 
L 447.48 132.62209 
L 447.48 132.62209 
" style="fill:none;stroke:#666666;stroke-dasharray:1,1.65;stroke-dashoffset:0;"/>
    <defs>
     <path d="M 0 0.5 
C 0.132602 0.5 0.25979 0.447317 0.353553 0.353553 
C 0.447317 0.25979 0.5 0.132602 0.5 0 
C 0.5 -0.132602 0.447317 -0.25979 0.353553 -0.353553 
C 0.25979 -0.447317 0.132602 -0.5 0 -0.5 
C -0.132602 -0.5 -0.25979 -0.447317 -0.353553 -0.353553 
C -0.447317 -0.25979 -0.5 -0.132602 -0.5 0 
C -0.5 0.132602 -0.447317 0.25979 -0.353553 0.353553 
C -0.25979 0.447317 -0.132602 0.5 0 0.5 
z
" id="m17f27b15ab" style="stroke:#666666;"/>
    </defs>
    <g clip-path="url(#p8ee5b27b8a)">
     <use style="fill:#666666;stroke:#666666;" x="47.72" xlink:href="#m17f27b15ab" y="158.54456"/>
     <use style="fill:#666666;stroke:#666666;" x="48.858917" xlink:href="#m17f27b15ab" y="213.152591"/>
     <use style="fill:#666666;stroke:#666666;" x="49.997835" xlink:href="#m17f27b15ab" y="211.757865"/>
     <use style="fill:#666666;stroke:#666666;" x="51.136752" xlink:href="#m17f27b15ab" y="218.797389"/>
     <use style="fill:#666666;stroke:#666666;" x="52.27567" xlink:href="#m17f27b15ab" y="235.69059"/>
     <use style="fill:#666666;stroke:#666666;" x="53.414587" xlink:href="#m17f27b15ab" y="238.096464"/>
     <use style="fill:#666666;stroke:#666666;" x="54.553504" xlink:href="#m17f27b15ab" y="234.230695"/>
     <use style="fill:#666666;stroke:#666666;" x="55.692422" xlink:href="#m17f27b15ab" y="245.410017"/>
     <use style="fill:#666666;stroke:#666666;" x="56.831339" xlink:href="#m17f27b15ab" y="234.709773"/>
     <use style="fill:#666666;stroke:#666666;" x="57.970256" xlink:href="#m17f27b15ab" y="227.111224"/>
     <use style="fill:#666666;stroke:#666666;" x="59.109174" xlink:href="#m17f27b15ab" y="200.647373"/>
     <use style="fill:#666666;stroke:#666666;" x="60.248091" xlink:href="#m17f27b15ab" y="231.717007"/>
     <use style="fill:#666666;stroke:#666666;" x="61.387009" xlink:href="#m17f27b15ab" y="252.658509"/>
     <use style="fill:#666666;stroke:#666666;" x="62.525926" xlink:href="#m17f27b15ab" y="253.718135"/>
     <use style="fill:#666666;stroke:#666666;" x="63.664843" xlink:href="#m17f27b15ab" y="245.182025"/>
     <use style="fill:#666666;stroke:#666666;" x="64.803761" xlink:href="#m17f27b15ab" y="246.673901"/>
     <use style="fill:#666666;stroke:#666666;" x="65.942678" xlink:href="#m17f27b15ab" y="234.335456"/>
     <use style="fill:#666666;stroke:#666666;" x="67.081595" xlink:href="#m17f27b15ab" y="220.511746"/>
     <use style="fill:#666666;stroke:#666666;" x="68.220513" xlink:href="#m17f27b15ab" y="189.17864"/>
     <use style="fill:#666666;stroke:#666666;" x="69.35943" xlink:href="#m17f27b15ab" y="160.847824"/>
     <use style="fill:#666666;stroke:#666666;" x="70.498348" xlink:href="#m17f27b15ab" y="170.422086"/>
     <use style="fill:#666666;stroke:#666666;" x="71.637265" xlink:href="#m17f27b15ab" y="227.35042"/>
     <use style="fill:#666666;stroke:#666666;" x="72.776182" xlink:href="#m17f27b15ab" y="258.688171"/>
     <use style="fill:#666666;stroke:#666666;" x="73.9151" xlink:href="#m17f27b15ab" y="256.304201"/>
     <use style="fill:#666666;stroke:#666666;" x="75.054017" xlink:href="#m17f27b15ab" y="256.208658"/>
     <use style="fill:#666666;stroke:#666666;" x="76.192934" xlink:href="#m17f27b15ab" y="255.035666"/>
     <use style="fill:#666666;stroke:#666666;" x="77.331852" xlink:href="#m17f27b15ab" y="254.800972"/>
     <use style="fill:#666666;stroke:#666666;" x="78.470769" xlink:href="#m17f27b15ab" y="244.528009"/>
     <use style="fill:#666666;stroke:#666666;" x="79.609687" xlink:href="#m17f27b15ab" y="238.754207"/>
     <use style="fill:#666666;stroke:#666666;" x="80.748604" xlink:href="#m17f27b15ab" y="192.616396"/>
     <use style="fill:#666666;stroke:#666666;" x="81.887521" xlink:href="#m17f27b15ab" y="245.115757"/>
     <use style="fill:#666666;stroke:#666666;" x="83.026439" xlink:href="#m17f27b15ab" y="259.089041"/>
     <use style="fill:#666666;stroke:#666666;" x="84.165356" xlink:href="#m17f27b15ab" y="267.010403"/>
     <use style="fill:#666666;stroke:#666666;" x="85.304274" xlink:href="#m17f27b15ab" y="268.634048"/>
     <use style="fill:#666666;stroke:#666666;" x="86.443191" xlink:href="#m17f27b15ab" y="254.576423"/>
     <use style="fill:#666666;stroke:#666666;" x="87.582108" xlink:href="#m17f27b15ab" y="261.855956"/>
     <use style="fill:#666666;stroke:#666666;" x="88.721026" xlink:href="#m17f27b15ab" y="262.963651"/>
     <use style="fill:#666666;stroke:#666666;" x="89.859943" xlink:href="#m17f27b15ab" y="242.332772"/>
     <use style="fill:#666666;stroke:#666666;" x="90.99886" xlink:href="#m17f27b15ab" y="223.553005"/>
     <use style="fill:#666666;stroke:#666666;" x="92.137778" xlink:href="#m17f27b15ab" y="155.616297"/>
     <use style="fill:#666666;stroke:#666666;" x="93.276695" xlink:href="#m17f27b15ab" y="200.135312"/>
     <use style="fill:#666666;stroke:#666666;" x="94.415613" xlink:href="#m17f27b15ab" y="183.424689"/>
     <use style="fill:#666666;stroke:#666666;" x="95.55453" xlink:href="#m17f27b15ab" y="209.041588"/>
     <use style="fill:#666666;stroke:#666666;" x="96.693447" xlink:href="#m17f27b15ab" y="220.592055"/>
     <use style="fill:#666666;stroke:#666666;" x="97.832365" xlink:href="#m17f27b15ab" y="219.682836"/>
     <use style="fill:#666666;stroke:#666666;" x="98.971282" xlink:href="#m17f27b15ab" y="227.924186"/>
     <use style="fill:#666666;stroke:#666666;" x="100.110199" xlink:href="#m17f27b15ab" y="239.538756"/>
     <use style="fill:#666666;stroke:#666666;" x="101.249117" xlink:href="#m17f27b15ab" y="242.296528"/>
     <use style="fill:#666666;stroke:#666666;" x="102.388034" xlink:href="#m17f27b15ab" y="233.728933"/>
     <use style="fill:#666666;stroke:#666666;" x="103.526952" xlink:href="#m17f27b15ab" y="239.738237"/>
     <use style="fill:#666666;stroke:#666666;" x="104.665869" xlink:href="#m17f27b15ab" y="245.548908"/>
     <use style="fill:#666666;stroke:#666666;" x="105.804786" xlink:href="#m17f27b15ab" y="248.523301"/>
     <use style="fill:#666666;stroke:#666666;" x="106.943704" xlink:href="#m17f27b15ab" y="254.425651"/>
     <use style="fill:#666666;stroke:#666666;" x="108.082621" xlink:href="#m17f27b15ab" y="265.304482"/>
     <use style="fill:#666666;stroke:#666666;" x="109.221538" xlink:href="#m17f27b15ab" y="266.338893"/>
     <use style="fill:#666666;stroke:#666666;" x="110.360456" xlink:href="#m17f27b15ab" y="264.363525"/>
     <use style="fill:#666666;stroke:#666666;" x="111.499373" xlink:href="#m17f27b15ab" y="261.894263"/>
     <use style="fill:#666666;stroke:#666666;" x="112.638291" xlink:href="#m17f27b15ab" y="262.313843"/>
     <use style="fill:#666666;stroke:#666666;" x="113.777208" xlink:href="#m17f27b15ab" y="256.440435"/>
     <use style="fill:#666666;stroke:#666666;" x="114.916125" xlink:href="#m17f27b15ab" y="248.316874"/>
     <use style="fill:#666666;stroke:#666666;" x="116.055043" xlink:href="#m17f27b15ab" y="237.534194"/>
     <use style="fill:#666666;stroke:#666666;" x="117.19396" xlink:href="#m17f27b15ab" y="172.978767"/>
     <use style="fill:#666666;stroke:#666666;" x="118.332877" xlink:href="#m17f27b15ab" y="233.047912"/>
     <use style="fill:#666666;stroke:#666666;" x="119.471795" xlink:href="#m17f27b15ab" y="256.344708"/>
     <use style="fill:#666666;stroke:#666666;" x="120.610712" xlink:href="#m17f27b15ab" y="265.535069"/>
     <use style="fill:#666666;stroke:#666666;" x="121.74963" xlink:href="#m17f27b15ab" y="272.660945"/>
     <use style="fill:#666666;stroke:#666666;" x="122.888547" xlink:href="#m17f27b15ab" y="270.043187"/>
     <use style="fill:#666666;stroke:#666666;" x="124.027464" xlink:href="#m17f27b15ab" y="274.188439"/>
     <use style="fill:#666666;stroke:#666666;" x="125.166382" xlink:href="#m17f27b15ab" y="267.45508"/>
     <use style="fill:#666666;stroke:#666666;" x="126.305299" xlink:href="#m17f27b15ab" y="272.171333"/>
     <use style="fill:#666666;stroke:#666666;" x="127.444217" xlink:href="#m17f27b15ab" y="245.121341"/>
     <use style="fill:#666666;stroke:#666666;" x="128.583134" xlink:href="#m17f27b15ab" y="246.030942"/>
     <use style="fill:#666666;stroke:#666666;" x="129.722051" xlink:href="#m17f27b15ab" y="233.274796"/>
     <use style="fill:#666666;stroke:#666666;" x="130.860969" xlink:href="#m17f27b15ab" y="238.835854"/>
     <use style="fill:#666666;stroke:#666666;" x="131.999886" xlink:href="#m17f27b15ab" y="221.351507"/>
     <use style="fill:#666666;stroke:#666666;" x="133.138803" xlink:href="#m17f27b15ab" y="242.785632"/>
     <use style="fill:#666666;stroke:#666666;" x="134.277721" xlink:href="#m17f27b15ab" y="225.962133"/>
     <use style="fill:#666666;stroke:#666666;" x="135.416638" xlink:href="#m17f27b15ab" y="221.711802"/>
     <use style="fill:#666666;stroke:#666666;" x="136.555556" xlink:href="#m17f27b15ab" y="161.565019"/>
     <use style="fill:#666666;stroke:#666666;" x="137.694473" xlink:href="#m17f27b15ab" y="209.286489"/>
     <use style="fill:#666666;stroke:#666666;" x="138.83339" xlink:href="#m17f27b15ab" y="218.383785"/>
     <use style="fill:#666666;stroke:#666666;" x="139.972308" xlink:href="#m17f27b15ab" y="179.90588"/>
     <use style="fill:#666666;stroke:#666666;" x="141.111225" xlink:href="#m17f27b15ab" y="258.847541"/>
     <use style="fill:#666666;stroke:#666666;" x="142.250142" xlink:href="#m17f27b15ab" y="249.660844"/>
     <use style="fill:#666666;stroke:#666666;" x="143.38906" xlink:href="#m17f27b15ab" y="248.787135"/>
     <use style="fill:#666666;stroke:#666666;" x="144.527977" xlink:href="#m17f27b15ab" y="239.679242"/>
     <use style="fill:#666666;stroke:#666666;" x="145.666895" xlink:href="#m17f27b15ab" y="244.30081"/>
     <use style="fill:#666666;stroke:#666666;" x="146.805812" xlink:href="#m17f27b15ab" y="249.780356"/>
     <use style="fill:#666666;stroke:#666666;" x="147.944729" xlink:href="#m17f27b15ab" y="251.660546"/>
     <use style="fill:#666666;stroke:#666666;" x="149.083647" xlink:href="#m17f27b15ab" y="258.875963"/>
     <use style="fill:#666666;stroke:#666666;" x="150.222564" xlink:href="#m17f27b15ab" y="244.09829"/>
     <use style="fill:#666666;stroke:#666666;" x="151.361481" xlink:href="#m17f27b15ab" y="234.242469"/>
     <use style="fill:#666666;stroke:#666666;" x="152.500399" xlink:href="#m17f27b15ab" y="230.146114"/>
     <use style="fill:#666666;stroke:#666666;" x="153.639316" xlink:href="#m17f27b15ab" y="242.24144"/>
     <use style="fill:#666666;stroke:#666666;" x="154.778234" xlink:href="#m17f27b15ab" y="238.656249"/>
     <use style="fill:#666666;stroke:#666666;" x="155.917151" xlink:href="#m17f27b15ab" y="244.442588"/>
     <use style="fill:#666666;stroke:#666666;" x="157.056068" xlink:href="#m17f27b15ab" y="256.204918"/>
     <use style="fill:#666666;stroke:#666666;" x="158.194986" xlink:href="#m17f27b15ab" y="258.303172"/>
     <use style="fill:#666666;stroke:#666666;" x="159.333903" xlink:href="#m17f27b15ab" y="264.829478"/>
     <use style="fill:#666666;stroke:#666666;" x="160.472821" xlink:href="#m17f27b15ab" y="264.54322"/>
     <use style="fill:#666666;stroke:#666666;" x="161.611738" xlink:href="#m17f27b15ab" y="266.733038"/>
     <use style="fill:#666666;stroke:#666666;" x="162.750655" xlink:href="#m17f27b15ab" y="269.242307"/>
     <use style="fill:#666666;stroke:#666666;" x="163.889573" xlink:href="#m17f27b15ab" y="268.033301"/>
     <use style="fill:#666666;stroke:#666666;" x="165.02849" xlink:href="#m17f27b15ab" y="271.423204"/>
     <use style="fill:#666666;stroke:#666666;" x="166.167407" xlink:href="#m17f27b15ab" y="272.021675"/>
     <use style="fill:#666666;stroke:#666666;" x="167.306325" xlink:href="#m17f27b15ab" y="267.854918"/>
     <use style="fill:#666666;stroke:#666666;" x="168.445242" xlink:href="#m17f27b15ab" y="264.024836"/>
     <use style="fill:#666666;stroke:#666666;" x="169.58416" xlink:href="#m17f27b15ab" y="270.034139"/>
     <use style="fill:#666666;stroke:#666666;" x="170.723077" xlink:href="#m17f27b15ab" y="271.634428"/>
     <use style="fill:#666666;stroke:#666666;" x="171.861994" xlink:href="#m17f27b15ab" y="263.969585"/>
     <use style="fill:#666666;stroke:#666666;" x="173.000912" xlink:href="#m17f27b15ab" y="267.370401"/>
     <use style="fill:#666666;stroke:#666666;" x="174.139829" xlink:href="#m17f27b15ab" y="259.2142"/>
     <use style="fill:#666666;stroke:#666666;" x="175.278746" xlink:href="#m17f27b15ab" y="245.163359"/>
     <use style="fill:#666666;stroke:#666666;" x="176.417664" xlink:href="#m17f27b15ab" y="239.77733"/>
     <use style="fill:#666666;stroke:#666666;" x="177.556581" xlink:href="#m17f27b15ab" y="209.386291"/>
     <use style="fill:#666666;stroke:#666666;" x="178.695499" xlink:href="#m17f27b15ab" y="153.178966"/>
     <use style="fill:#666666;stroke:#666666;" x="179.834416" xlink:href="#m17f27b15ab" y="199.055466"/>
     <use style="fill:#666666;stroke:#666666;" x="180.973333" xlink:href="#m17f27b15ab" y="237.363539"/>
     <use style="fill:#666666;stroke:#666666;" x="182.112251" xlink:href="#m17f27b15ab" y="245.244206"/>
     <use style="fill:#666666;stroke:#666666;" x="183.251168" xlink:href="#m17f27b15ab" y="264.20688"/>
     <use style="fill:#666666;stroke:#666666;" x="184.390085" xlink:href="#m17f27b15ab" y="273.01047"/>
     <use style="fill:#666666;stroke:#666666;" x="185.529003" xlink:href="#m17f27b15ab" y="275.237727"/>
     <use style="fill:#666666;stroke:#666666;" x="186.66792" xlink:href="#m17f27b15ab" y="274.397816"/>
     <use style="fill:#666666;stroke:#666666;" x="187.806838" xlink:href="#m17f27b15ab" y="264.019464"/>
     <use style="fill:#666666;stroke:#666666;" x="188.945755" xlink:href="#m17f27b15ab" y="240.537897"/>
     <use style="fill:#666666;stroke:#666666;" x="190.084672" xlink:href="#m17f27b15ab" y="172.677214"/>
     <use style="fill:#666666;stroke:#666666;" x="191.22359" xlink:href="#m17f27b15ab" y="174.685571"/>
     <use style="fill:#666666;stroke:#666666;" x="192.362507" xlink:href="#m17f27b15ab" y="223.797689"/>
     <use style="fill:#666666;stroke:#666666;" x="193.501425" xlink:href="#m17f27b15ab" y="240.480776"/>
     <use style="fill:#666666;stroke:#666666;" x="194.640342" xlink:href="#m17f27b15ab" y="262.735382"/>
     <use style="fill:#666666;stroke:#666666;" x="195.779259" xlink:href="#m17f27b15ab" y="255.001711"/>
     <use style="fill:#666666;stroke:#666666;" x="196.918177" xlink:href="#m17f27b15ab" y="254.619087"/>
     <use style="fill:#666666;stroke:#666666;" x="198.057094" xlink:href="#m17f27b15ab" y="266.228965"/>
     <use style="fill:#666666;stroke:#666666;" x="199.196011" xlink:href="#m17f27b15ab" y="267.873087"/>
     <use style="fill:#666666;stroke:#666666;" x="200.334929" xlink:href="#m17f27b15ab" y="268.058745"/>
     <use style="fill:#666666;stroke:#666666;" x="201.473846" xlink:href="#m17f27b15ab" y="274.960879"/>
     <use style="fill:#666666;stroke:#666666;" x="202.612764" xlink:href="#m17f27b15ab" y="270.769765"/>
     <use style="fill:#666666;stroke:#666666;" x="203.751681" xlink:href="#m17f27b15ab" y="270.654541"/>
     <use style="fill:#666666;stroke:#666666;" x="204.890598" xlink:href="#m17f27b15ab" y="273.712245"/>
     <use style="fill:#666666;stroke:#666666;" x="206.029516" xlink:href="#m17f27b15ab" y="261.844088"/>
     <use style="fill:#666666;stroke:#666666;" x="207.168433" xlink:href="#m17f27b15ab" y="253.911751"/>
     <use style="fill:#666666;stroke:#666666;" x="208.30735" xlink:href="#m17f27b15ab" y="252.262805"/>
     <use style="fill:#666666;stroke:#666666;" x="209.446268" xlink:href="#m17f27b15ab" y="242.248731"/>
     <use style="fill:#666666;stroke:#666666;" x="210.585185" xlink:href="#m17f27b15ab" y="225.878194"/>
     <use style="fill:#666666;stroke:#666666;" x="211.724103" xlink:href="#m17f27b15ab" y="241.712204"/>
     <use style="fill:#666666;stroke:#666666;" x="212.86302" xlink:href="#m17f27b15ab" y="256.140326"/>
     <use style="fill:#666666;stroke:#666666;" x="214.001937" xlink:href="#m17f27b15ab" y="249.550014"/>
     <use style="fill:#666666;stroke:#666666;" x="215.140855" xlink:href="#m17f27b15ab" y="265.82393"/>
     <use style="fill:#666666;stroke:#666666;" x="216.279772" xlink:href="#m17f27b15ab" y="262.574306"/>
     <use style="fill:#666666;stroke:#666666;" x="217.418689" xlink:href="#m17f27b15ab" y="260.5058"/>
     <use style="fill:#666666;stroke:#666666;" x="218.557607" xlink:href="#m17f27b15ab" y="270.040249"/>
     <use style="fill:#666666;stroke:#666666;" x="219.696524" xlink:href="#m17f27b15ab" y="267.20419"/>
     <use style="fill:#666666;stroke:#666666;" x="220.835442" xlink:href="#m17f27b15ab" y="259.287521"/>
     <use style="fill:#666666;stroke:#666666;" x="221.974359" xlink:href="#m17f27b15ab" y="264.202498"/>
     <use style="fill:#666666;stroke:#666666;" x="223.113276" xlink:href="#m17f27b15ab" y="258.877909"/>
     <use style="fill:#666666;stroke:#666666;" x="224.252194" xlink:href="#m17f27b15ab" y="251.01516"/>
     <use style="fill:#666666;stroke:#666666;" x="225.391111" xlink:href="#m17f27b15ab" y="238.059634"/>
     <use style="fill:#666666;stroke:#666666;" x="226.530028" xlink:href="#m17f27b15ab" y="244.712726"/>
     <use style="fill:#666666;stroke:#666666;" x="227.668946" xlink:href="#m17f27b15ab" y="245.37691"/>
     <use style="fill:#666666;stroke:#666666;" x="228.807863" xlink:href="#m17f27b15ab" y="239.942466"/>
     <use style="fill:#666666;stroke:#666666;" x="229.946781" xlink:href="#m17f27b15ab" y="222.456101"/>
     <use style="fill:#666666;stroke:#666666;" x="231.085698" xlink:href="#m17f27b15ab" y="195.533343"/>
     <use style="fill:#666666;stroke:#666666;" x="232.224615" xlink:href="#m17f27b15ab" y="135.72881"/>
     <use style="fill:#666666;stroke:#666666;" x="233.363533" xlink:href="#m17f27b15ab" y="136.20748"/>
     <use style="fill:#666666;stroke:#666666;" x="234.50245" xlink:href="#m17f27b15ab" y="100.048147"/>
     <use style="fill:#666666;stroke:#666666;" x="235.641368" xlink:href="#m17f27b15ab" y="78.370182"/>
     <use style="fill:#666666;stroke:#666666;" x="236.780285" xlink:href="#m17f27b15ab" y="101.631248"/>
     <use style="fill:#666666;stroke:#666666;" x="237.919202" xlink:href="#m17f27b15ab" y="213.822474"/>
     <use style="fill:#666666;stroke:#666666;" x="239.05812" xlink:href="#m17f27b15ab" y="243.104205"/>
     <use style="fill:#666666;stroke:#666666;" x="240.197037" xlink:href="#m17f27b15ab" y="247.897646"/>
     <use style="fill:#666666;stroke:#666666;" x="241.335954" xlink:href="#m17f27b15ab" y="241.400927"/>
     <use style="fill:#666666;stroke:#666666;" x="242.474872" xlink:href="#m17f27b15ab" y="256.11867"/>
     <use style="fill:#666666;stroke:#666666;" x="243.613789" xlink:href="#m17f27b15ab" y="259.222908"/>
     <use style="fill:#666666;stroke:#666666;" x="244.752707" xlink:href="#m17f27b15ab" y="258.690576"/>
     <use style="fill:#666666;stroke:#666666;" x="245.891624" xlink:href="#m17f27b15ab" y="259.923801"/>
     <use style="fill:#666666;stroke:#666666;" x="247.030541" xlink:href="#m17f27b15ab" y="259.803068"/>
     <use style="fill:#666666;stroke:#666666;" x="248.169459" xlink:href="#m17f27b15ab" y="274.84678"/>
     <use style="fill:#666666;stroke:#666666;" x="249.308376" xlink:href="#m17f27b15ab" y="274.454837"/>
     <use style="fill:#666666;stroke:#666666;" x="250.447293" xlink:href="#m17f27b15ab" y="271.961039"/>
     <use style="fill:#666666;stroke:#666666;" x="251.586211" xlink:href="#m17f27b15ab" y="272.709564"/>
     <use style="fill:#666666;stroke:#666666;" x="252.725128" xlink:href="#m17f27b15ab" y="272.220692"/>
     <use style="fill:#666666;stroke:#666666;" x="253.864046" xlink:href="#m17f27b15ab" y="255.294713"/>
     <use style="fill:#666666;stroke:#666666;" x="255.002963" xlink:href="#m17f27b15ab" y="251.305653"/>
     <use style="fill:#666666;stroke:#666666;" x="256.14188" xlink:href="#m17f27b15ab" y="244.880866"/>
     <use style="fill:#666666;stroke:#666666;" x="257.280798" xlink:href="#m17f27b15ab" y="211.539104"/>
     <use style="fill:#666666;stroke:#666666;" x="258.419715" xlink:href="#m17f27b15ab" y="211.417076"/>
     <use style="fill:#666666;stroke:#666666;" x="259.558632" xlink:href="#m17f27b15ab" y="217.86371"/>
     <use style="fill:#666666;stroke:#666666;" x="260.69755" xlink:href="#m17f27b15ab" y="228.852538"/>
     <use style="fill:#666666;stroke:#666666;" x="261.836467" xlink:href="#m17f27b15ab" y="235.450972"/>
     <use style="fill:#666666;stroke:#666666;" x="262.975385" xlink:href="#m17f27b15ab" y="229.992215"/>
     <use style="fill:#666666;stroke:#666666;" x="264.114302" xlink:href="#m17f27b15ab" y="251.652473"/>
     <use style="fill:#666666;stroke:#666666;" x="265.253219" xlink:href="#m17f27b15ab" y="266.836728"/>
     <use style="fill:#666666;stroke:#666666;" x="266.392137" xlink:href="#m17f27b15ab" y="268.087962"/>
     <use style="fill:#666666;stroke:#666666;" x="267.531054" xlink:href="#m17f27b15ab" y="269.746401"/>
     <use style="fill:#666666;stroke:#666666;" x="268.669972" xlink:href="#m17f27b15ab" y="271.118641"/>
     <use style="fill:#666666;stroke:#666666;" x="269.808889" xlink:href="#m17f27b15ab" y="251.164983"/>
     <use style="fill:#666666;stroke:#666666;" x="270.947806" xlink:href="#m17f27b15ab" y="252.332678"/>
     <use style="fill:#666666;stroke:#666666;" x="272.086724" xlink:href="#m17f27b15ab" y="264.752946"/>
     <use style="fill:#666666;stroke:#666666;" x="273.225641" xlink:href="#m17f27b15ab" y="265.826896"/>
     <use style="fill:#666666;stroke:#666666;" x="274.364558" xlink:href="#m17f27b15ab" y="271.195527"/>
     <use style="fill:#666666;stroke:#666666;" x="275.503476" xlink:href="#m17f27b15ab" y="264.173973"/>
     <use style="fill:#666666;stroke:#666666;" x="276.642393" xlink:href="#m17f27b15ab" y="258.45775"/>
     <use style="fill:#666666;stroke:#666666;" x="277.781311" xlink:href="#m17f27b15ab" y="243.106516"/>
     <use style="fill:#666666;stroke:#666666;" x="278.920228" xlink:href="#m17f27b15ab" y="209.770946"/>
     <use style="fill:#666666;stroke:#666666;" x="280.059145" xlink:href="#m17f27b15ab" y="260.138863"/>
     <use style="fill:#666666;stroke:#666666;" x="281.198063" xlink:href="#m17f27b15ab" y="227.294434"/>
     <use style="fill:#666666;stroke:#666666;" x="282.33698" xlink:href="#m17f27b15ab" y="212.993751"/>
     <use style="fill:#666666;stroke:#666666;" x="283.475897" xlink:href="#m17f27b15ab" y="170.976987"/>
     <use style="fill:#666666;stroke:#666666;" x="284.614815" xlink:href="#m17f27b15ab" y="93.278521"/>
     <use style="fill:#666666;stroke:#666666;" x="285.753732" xlink:href="#m17f27b15ab" y="131.783657"/>
     <use style="fill:#666666;stroke:#666666;" x="286.89265" xlink:href="#m17f27b15ab" y="152.265738"/>
     <use style="fill:#666666;stroke:#666666;" x="288.031567" xlink:href="#m17f27b15ab" y="202.457621"/>
     <use style="fill:#666666;stroke:#666666;" x="289.170484" xlink:href="#m17f27b15ab" y="267.245561"/>
     <use style="fill:#666666;stroke:#666666;" x="290.309402" xlink:href="#m17f27b15ab" y="267.992927"/>
     <use style="fill:#666666;stroke:#666666;" x="291.448319" xlink:href="#m17f27b15ab" y="269.499964"/>
     <use style="fill:#666666;stroke:#666666;" x="292.587236" xlink:href="#m17f27b15ab" y="269.635955"/>
     <use style="fill:#666666;stroke:#666666;" x="293.726154" xlink:href="#m17f27b15ab" y="262.900141"/>
     <use style="fill:#666666;stroke:#666666;" x="294.865071" xlink:href="#m17f27b15ab" y="270.408772"/>
     <use style="fill:#666666;stroke:#666666;" x="296.003989" xlink:href="#m17f27b15ab" y="267.953145"/>
     <use style="fill:#666666;stroke:#666666;" x="297.142906" xlink:href="#m17f27b15ab" y="259.35533"/>
     <use style="fill:#666666;stroke:#666666;" x="298.281823" xlink:href="#m17f27b15ab" y="222.729056"/>
     <use style="fill:#666666;stroke:#666666;" x="299.420741" xlink:href="#m17f27b15ab" y="239.550528"/>
     <use style="fill:#666666;stroke:#666666;" x="300.559658" xlink:href="#m17f27b15ab" y="251.451948"/>
     <use style="fill:#666666;stroke:#666666;" x="301.698575" xlink:href="#m17f27b15ab" y="244.698787"/>
     <use style="fill:#666666;stroke:#666666;" x="302.837493" xlink:href="#m17f27b15ab" y="246.560786"/>
     <use style="fill:#666666;stroke:#666666;" x="303.97641" xlink:href="#m17f27b15ab" y="247.036202"/>
     <use style="fill:#666666;stroke:#666666;" x="305.115328" xlink:href="#m17f27b15ab" y="224.824909"/>
     <use style="fill:#666666;stroke:#666666;" x="306.254245" xlink:href="#m17f27b15ab" y="191.737834"/>
     <use style="fill:#666666;stroke:#666666;" x="307.393162" xlink:href="#m17f27b15ab" y="187.442867"/>
     <use style="fill:#666666;stroke:#666666;" x="308.53208" xlink:href="#m17f27b15ab" y="186.434348"/>
     <use style="fill:#666666;stroke:#666666;" x="309.670997" xlink:href="#m17f27b15ab" y="202.714453"/>
     <use style="fill:#666666;stroke:#666666;" x="310.809915" xlink:href="#m17f27b15ab" y="234.580347"/>
     <use style="fill:#666666;stroke:#666666;" x="311.948832" xlink:href="#m17f27b15ab" y="229.789798"/>
     <use style="fill:#666666;stroke:#666666;" x="313.087749" xlink:href="#m17f27b15ab" y="240.446868"/>
     <use style="fill:#666666;stroke:#666666;" x="314.226667" xlink:href="#m17f27b15ab" y="226.90486"/>
     <use style="fill:#666666;stroke:#666666;" x="315.365584" xlink:href="#m17f27b15ab" y="207.087084"/>
     <use style="fill:#666666;stroke:#666666;" x="316.504501" xlink:href="#m17f27b15ab" y="228.693337"/>
     <use style="fill:#666666;stroke:#666666;" x="317.643419" xlink:href="#m17f27b15ab" y="250.89094"/>
     <use style="fill:#666666;stroke:#666666;" x="318.782336" xlink:href="#m17f27b15ab" y="266.442646"/>
     <use style="fill:#666666;stroke:#666666;" x="319.921254" xlink:href="#m17f27b15ab" y="258.530766"/>
     <use style="fill:#666666;stroke:#666666;" x="321.060171" xlink:href="#m17f27b15ab" y="251.383903"/>
     <use style="fill:#666666;stroke:#666666;" x="322.199088" xlink:href="#m17f27b15ab" y="245.43809"/>
     <use style="fill:#666666;stroke:#666666;" x="323.338006" xlink:href="#m17f27b15ab" y="239.640558"/>
     <use style="fill:#666666;stroke:#666666;" x="324.476923" xlink:href="#m17f27b15ab" y="196.723238"/>
     <use style="fill:#666666;stroke:#666666;" x="325.61584" xlink:href="#m17f27b15ab" y="156.294281"/>
     <use style="fill:#666666;stroke:#666666;" x="326.754758" xlink:href="#m17f27b15ab" y="220.82385"/>
     <use style="fill:#666666;stroke:#666666;" x="327.893675" xlink:href="#m17f27b15ab" y="248.470814"/>
     <use style="fill:#666666;stroke:#666666;" x="329.032593" xlink:href="#m17f27b15ab" y="267.838459"/>
     <use style="fill:#666666;stroke:#666666;" x="330.17151" xlink:href="#m17f27b15ab" y="270.866624"/>
     <use style="fill:#666666;stroke:#666666;" x="331.310427" xlink:href="#m17f27b15ab" y="271.441966"/>
     <use style="fill:#666666;stroke:#666666;" x="332.449345" xlink:href="#m17f27b15ab" y="257.269357"/>
     <use style="fill:#666666;stroke:#666666;" x="333.588262" xlink:href="#m17f27b15ab" y="273.584212"/>
     <use style="fill:#666666;stroke:#666666;" x="334.727179" xlink:href="#m17f27b15ab" y="268.023738"/>
     <use style="fill:#666666;stroke:#666666;" x="335.866097" xlink:href="#m17f27b15ab" y="266.119004"/>
     <use style="fill:#666666;stroke:#666666;" x="337.005014" xlink:href="#m17f27b15ab" y="267.911593"/>
     <use style="fill:#666666;stroke:#666666;" x="338.143932" xlink:href="#m17f27b15ab" y="267.445204"/>
     <use style="fill:#666666;stroke:#666666;" x="339.282849" xlink:href="#m17f27b15ab" y="270.534952"/>
     <use style="fill:#666666;stroke:#666666;" x="340.421766" xlink:href="#m17f27b15ab" y="268.490503"/>
     <use style="fill:#666666;stroke:#666666;" x="341.560684" xlink:href="#m17f27b15ab" y="266.35236"/>
     <use style="fill:#666666;stroke:#666666;" x="342.699601" xlink:href="#m17f27b15ab" y="247.923633"/>
     <use style="fill:#666666;stroke:#666666;" x="343.838519" xlink:href="#m17f27b15ab" y="201.644595"/>
     <use style="fill:#666666;stroke:#666666;" x="344.977436" xlink:href="#m17f27b15ab" y="156.171379"/>
     <use style="fill:#666666;stroke:#666666;" x="346.116353" xlink:href="#m17f27b15ab" y="134.415926"/>
     <use style="fill:#666666;stroke:#666666;" x="347.255271" xlink:href="#m17f27b15ab" y="147.381647"/>
     <use style="fill:#666666;stroke:#666666;" x="348.394188" xlink:href="#m17f27b15ab" y="172.325612"/>
     <use style="fill:#666666;stroke:#666666;" x="349.533105" xlink:href="#m17f27b15ab" y="218.186473"/>
     <use style="fill:#666666;stroke:#666666;" x="350.672023" xlink:href="#m17f27b15ab" y="231.311871"/>
     <use style="fill:#666666;stroke:#666666;" x="351.81094" xlink:href="#m17f27b15ab" y="227.801879"/>
     <use style="fill:#666666;stroke:#666666;" x="352.949858" xlink:href="#m17f27b15ab" y="249.42348"/>
     <use style="fill:#666666;stroke:#666666;" x="354.088775" xlink:href="#m17f27b15ab" y="241.535295"/>
     <use style="fill:#666666;stroke:#666666;" x="355.227692" xlink:href="#m17f27b15ab" y="272.031547"/>
     <use style="fill:#666666;stroke:#666666;" x="356.36661" xlink:href="#m17f27b15ab" y="265.718393"/>
     <use style="fill:#666666;stroke:#666666;" x="357.505527" xlink:href="#m17f27b15ab" y="273.690867"/>
     <use style="fill:#666666;stroke:#666666;" x="358.644444" xlink:href="#m17f27b15ab" y="267.316682"/>
     <use style="fill:#666666;stroke:#666666;" x="359.783362" xlink:href="#m17f27b15ab" y="270.558524"/>
     <use style="fill:#666666;stroke:#666666;" x="360.922279" xlink:href="#m17f27b15ab" y="264.859013"/>
     <use style="fill:#666666;stroke:#666666;" x="362.061197" xlink:href="#m17f27b15ab" y="259.334049"/>
     <use style="fill:#666666;stroke:#666666;" x="363.200114" xlink:href="#m17f27b15ab" y="241.886108"/>
     <use style="fill:#666666;stroke:#666666;" x="364.339031" xlink:href="#m17f27b15ab" y="232.062993"/>
     <use style="fill:#666666;stroke:#666666;" x="365.477949" xlink:href="#m17f27b15ab" y="239.223035"/>
     <use style="fill:#666666;stroke:#666666;" x="366.616866" xlink:href="#m17f27b15ab" y="236.483807"/>
     <use style="fill:#666666;stroke:#666666;" x="367.755783" xlink:href="#m17f27b15ab" y="217.14545"/>
     <use style="fill:#666666;stroke:#666666;" x="368.894701" xlink:href="#m17f27b15ab" y="185.081712"/>
     <use style="fill:#666666;stroke:#666666;" x="370.033618" xlink:href="#m17f27b15ab" y="149.208065"/>
     <use style="fill:#666666;stroke:#666666;" x="371.172536" xlink:href="#m17f27b15ab" y="151.049414"/>
     <use style="fill:#666666;stroke:#666666;" x="372.311453" xlink:href="#m17f27b15ab" y="121.367159"/>
     <use style="fill:#666666;stroke:#666666;" x="373.45037" xlink:href="#m17f27b15ab" y="121.162038"/>
     <use style="fill:#666666;stroke:#666666;" x="374.589288" xlink:href="#m17f27b15ab" y="89.351292"/>
     <use style="fill:#666666;stroke:#666666;" x="375.728205" xlink:href="#m17f27b15ab" y="118.611998"/>
     <use style="fill:#666666;stroke:#666666;" x="376.867123" xlink:href="#m17f27b15ab" y="102.212758"/>
     <use style="fill:#666666;stroke:#666666;" x="378.00604" xlink:href="#m17f27b15ab" y="103.818341"/>
     <use style="fill:#666666;stroke:#666666;" x="379.144957" xlink:href="#m17f27b15ab" y="104.34172"/>
     <use style="fill:#666666;stroke:#666666;" x="380.283875" xlink:href="#m17f27b15ab" y="134.440779"/>
     <use style="fill:#666666;stroke:#666666;" x="381.422792" xlink:href="#m17f27b15ab" y="157.162586"/>
     <use style="fill:#666666;stroke:#666666;" x="382.561709" xlink:href="#m17f27b15ab" y="104.694418"/>
     <use style="fill:#666666;stroke:#666666;" x="383.700627" xlink:href="#m17f27b15ab" y="212.382275"/>
     <use style="fill:#666666;stroke:#666666;" x="384.839544" xlink:href="#m17f27b15ab" y="203.553509"/>
     <use style="fill:#666666;stroke:#666666;" x="385.978462" xlink:href="#m17f27b15ab" y="219.741444"/>
     <use style="fill:#666666;stroke:#666666;" x="387.117379" xlink:href="#m17f27b15ab" y="228.073876"/>
     <use style="fill:#666666;stroke:#666666;" x="388.256296" xlink:href="#m17f27b15ab" y="226.795627"/>
     <use style="fill:#666666;stroke:#666666;" x="389.395214" xlink:href="#m17f27b15ab" y="234.060283"/>
     <use style="fill:#666666;stroke:#666666;" x="390.534131" xlink:href="#m17f27b15ab" y="235.016352"/>
     <use style="fill:#666666;stroke:#666666;" x="391.673048" xlink:href="#m17f27b15ab" y="236.438826"/>
     <use style="fill:#666666;stroke:#666666;" x="392.811966" xlink:href="#m17f27b15ab" y="250.385166"/>
     <use style="fill:#666666;stroke:#666666;" x="393.950883" xlink:href="#m17f27b15ab" y="251.688128"/>
     <use style="fill:#666666;stroke:#666666;" x="395.089801" xlink:href="#m17f27b15ab" y="233.49683"/>
     <use style="fill:#666666;stroke:#666666;" x="396.228718" xlink:href="#m17f27b15ab" y="219.214699"/>
     <use style="fill:#666666;stroke:#666666;" x="397.367635" xlink:href="#m17f27b15ab" y="188.218998"/>
     <use style="fill:#666666;stroke:#666666;" x="398.506553" xlink:href="#m17f27b15ab" y="139.667433"/>
     <use style="fill:#666666;stroke:#666666;" x="399.64547" xlink:href="#m17f27b15ab" y="62.124832"/>
     <use style="fill:#666666;stroke:#666666;" x="400.784387" xlink:href="#m17f27b15ab" y="25.792273"/>
     <use style="fill:#666666;stroke:#666666;" x="401.923305" xlink:href="#m17f27b15ab" y="64.868549"/>
     <use style="fill:#666666;stroke:#666666;" x="403.062222" xlink:href="#m17f27b15ab" y="181.897486"/>
     <use style="fill:#666666;stroke:#666666;" x="404.20114" xlink:href="#m17f27b15ab" y="222.567951"/>
     <use style="fill:#666666;stroke:#666666;" x="405.340057" xlink:href="#m17f27b15ab" y="250.079546"/>
     <use style="fill:#666666;stroke:#666666;" x="406.478974" xlink:href="#m17f27b15ab" y="259.89947"/>
     <use style="fill:#666666;stroke:#666666;" x="407.617892" xlink:href="#m17f27b15ab" y="266.310665"/>
     <use style="fill:#666666;stroke:#666666;" x="408.756809" xlink:href="#m17f27b15ab" y="268.578232"/>
     <use style="fill:#666666;stroke:#666666;" x="409.895726" xlink:href="#m17f27b15ab" y="270.133685"/>
     <use style="fill:#666666;stroke:#666666;" x="411.034644" xlink:href="#m17f27b15ab" y="256.206695"/>
     <use style="fill:#666666;stroke:#666666;" x="412.173561" xlink:href="#m17f27b15ab" y="233.884281"/>
     <use style="fill:#666666;stroke:#666666;" x="413.312479" xlink:href="#m17f27b15ab" y="232.104575"/>
     <use style="fill:#666666;stroke:#666666;" x="414.451396" xlink:href="#m17f27b15ab" y="219.810683"/>
     <use style="fill:#666666;stroke:#666666;" x="415.590313" xlink:href="#m17f27b15ab" y="222.625003"/>
     <use style="fill:#666666;stroke:#666666;" x="416.729231" xlink:href="#m17f27b15ab" y="242.75526"/>
     <use style="fill:#666666;stroke:#666666;" x="417.868148" xlink:href="#m17f27b15ab" y="246.141063"/>
     <use style="fill:#666666;stroke:#666666;" x="419.007066" xlink:href="#m17f27b15ab" y="249.468054"/>
     <use style="fill:#666666;stroke:#666666;" x="420.145983" xlink:href="#m17f27b15ab" y="251.013962"/>
     <use style="fill:#666666;stroke:#666666;" x="421.2849" xlink:href="#m17f27b15ab" y="230.009966"/>
     <use style="fill:#666666;stroke:#666666;" x="422.423818" xlink:href="#m17f27b15ab" y="148.211923"/>
     <use style="fill:#666666;stroke:#666666;" x="423.562735" xlink:href="#m17f27b15ab" y="166.66572"/>
     <use style="fill:#666666;stroke:#666666;" x="424.701652" xlink:href="#m17f27b15ab" y="121.080671"/>
     <use style="fill:#666666;stroke:#666666;" x="425.84057" xlink:href="#m17f27b15ab" y="125.968871"/>
     <use style="fill:#666666;stroke:#666666;" x="426.979487" xlink:href="#m17f27b15ab" y="126.058109"/>
     <use style="fill:#666666;stroke:#666666;" x="428.118405" xlink:href="#m17f27b15ab" y="217.680301"/>
     <use style="fill:#666666;stroke:#666666;" x="429.257322" xlink:href="#m17f27b15ab" y="242.477238"/>
     <use style="fill:#666666;stroke:#666666;" x="430.396239" xlink:href="#m17f27b15ab" y="224.057576"/>
     <use style="fill:#666666;stroke:#666666;" x="431.535157" xlink:href="#m17f27b15ab" y="215.06892"/>
     <use style="fill:#666666;stroke:#666666;" x="432.674074" xlink:href="#m17f27b15ab" y="208.193035"/>
     <use style="fill:#666666;stroke:#666666;" x="433.812991" xlink:href="#m17f27b15ab" y="197.756478"/>
     <use style="fill:#666666;stroke:#666666;" x="434.951909" xlink:href="#m17f27b15ab" y="240.236822"/>
     <use style="fill:#666666;stroke:#666666;" x="436.090826" xlink:href="#m17f27b15ab" y="254.561299"/>
     <use style="fill:#666666;stroke:#666666;" x="437.229744" xlink:href="#m17f27b15ab" y="266.992034"/>
     <use style="fill:#666666;stroke:#666666;" x="438.368661" xlink:href="#m17f27b15ab" y="268.627668"/>
     <use style="fill:#666666;stroke:#666666;" x="439.507578" xlink:href="#m17f27b15ab" y="270.252797"/>
     <use style="fill:#666666;stroke:#666666;" x="440.646496" xlink:href="#m17f27b15ab" y="263.06227"/>
     <use style="fill:#666666;stroke:#666666;" x="441.785413" xlink:href="#m17f27b15ab" y="263.461438"/>
     <use style="fill:#666666;stroke:#666666;" x="442.92433" xlink:href="#m17f27b15ab" y="252.383328"/>
     <use style="fill:#666666;stroke:#666666;" x="444.063248" xlink:href="#m17f27b15ab" y="261.713071"/>
     <use style="fill:#666666;stroke:#666666;" x="445.202165" xlink:href="#m17f27b15ab" y="233.925513"/>
     <use style="fill:#666666;stroke:#666666;" x="446.341083" xlink:href="#m17f27b15ab" y="181.641812"/>
     <use style="fill:#666666;stroke:#666666;" x="447.48" xlink:href="#m17f27b15ab" y="132.62209"/>
    </g>
   </g>
   <g id="patch_3">
    <path d="M 47.72 287.71 
L 47.72 13.32 
" style="fill:none;stroke:#000000;stroke-linecap:square;stroke-linejoin:miter;stroke-width:0.8;"/>
   </g>
   <g id="patch_4">
    <path d="M 447.48 287.71 
L 447.48 13.32 
" style="fill:none;stroke:#000000;stroke-linecap:square;stroke-linejoin:miter;stroke-width:0.8;"/>
   </g>
   <g id="patch_5">
    <path d="M 47.72 287.71 
L 447.48 287.71 
" style="fill:none;stroke:#000000;stroke-linecap:square;stroke-linejoin:miter;stroke-width:0.8;"/>
   </g>
   <g id="patch_6">
    <path d="M 47.72 13.32 
L 447.48 13.32 
" style="fill:none;stroke:#000000;stroke-linecap:square;stroke-linejoin:miter;stroke-width:0.8;"/>
   </g>
  </g>
 </g>
 <defs>
  <clipPath id="p8ee5b27b8a">
   <rect height="274.39" width="399.76" x="47.72" y="13.32"/>
  </clipPath>
 </defs>
</svg>
