<?xml version="1.0" encoding="utf-8" standalone="no"?>
<!DOCTYPE svg PUBLIC "-//W3C//DTD SVG 1.1//EN"
  "http://www.w3.org/Graphics/SVG/1.1/DTD/svg11.dtd">
<!-- Created with matplotlib (http://matplotlib.org/) -->
<svg height="345.6pt" version="1.1" viewBox="0 0 460.8 345.6" width="460.8pt" xmlns="http://www.w3.org/2000/svg" xmlns:xlink="http://www.w3.org/1999/xlink">
 <defs>
  <style type="text/css">
*{stroke-linecap:butt;stroke-linejoin:round;}
  </style>
 </defs>
 <g id="figure_1">
  <g id="patch_1">
   <path d="M 0 345.6 
L 460.8 345.6 
L 460.8 0 
L 0 0 
z
" style="fill:#ffffff;"/>
  </g>
  <g id="axes_1">
   <g id="patch_2">
    <path d="M 57.6 307.584 
L 414.72 307.584 
L 414.72 41.472 
L 57.6 41.472 
z
" style="fill:#ffffff;"/>
   </g>
   <g id="matplotlib.axis_1">
    <g id="xtick_1">
     <g id="line2d_1">
      <defs>
       <path d="M 0 0 
L 0 3.5 
" id="m0f75d04b2f" style="stroke:#000000;stroke-width:0.8;"/>
      </defs>
      <g>
       <use style="stroke:#000000;stroke-width:0.8;" x="73.832727" xlink:href="#m0f75d04b2f" y="307.584"/>
      </g>
     </g>
     <g id="text_1">
      <!-- 0 -->
      <defs>
       <path d="M 31.78125 66.40625 
Q 24.171875 66.40625 20.328125 58.90625 
Q 16.5 51.421875 16.5 36.375 
Q 16.5 21.390625 20.328125 13.890625 
Q 24.171875 6.390625 31.78125 6.390625 
Q 39.453125 6.390625 43.28125 13.890625 
Q 47.125 21.390625 47.125 36.375 
Q 47.125 51.421875 43.28125 58.90625 
Q 39.453125 66.40625 31.78125 66.40625 
z
M 31.78125 74.21875 
Q 44.046875 74.21875 50.515625 64.515625 
Q 56.984375 54.828125 56.984375 36.375 
Q 56.984375 17.96875 50.515625 8.265625 
Q 44.046875 -1.421875 31.78125 -1.421875 
Q 19.53125 -1.421875 13.0625 8.265625 
Q 6.59375 17.96875 6.59375 36.375 
Q 6.59375 54.828125 13.0625 64.515625 
Q 19.53125 74.21875 31.78125 74.21875 
z
" id="DejaVuSans-30"/>
      </defs>
      <g transform="translate(70.651477 322.182437)scale(0.1 -0.1)">
       <use xlink:href="#DejaVuSans-30"/>
      </g>
     </g>
    </g>
    <g id="xtick_2">
     <g id="line2d_2">
      <g>
       <use style="stroke:#000000;stroke-width:0.8;" x="128.122785" xlink:href="#m0f75d04b2f" y="307.584"/>
      </g>
     </g>
     <g id="text_2">
      <!-- 50 -->
      <defs>
       <path d="M 10.796875 72.90625 
L 49.515625 72.90625 
L 49.515625 64.59375 
L 19.828125 64.59375 
L 19.828125 46.734375 
Q 21.96875 47.46875 24.109375 47.828125 
Q 26.265625 48.1875 28.421875 48.1875 
Q 40.625 48.1875 47.75 41.5 
Q 54.890625 34.8125 54.890625 23.390625 
Q 54.890625 11.625 47.5625 5.09375 
Q 40.234375 -1.421875 26.90625 -1.421875 
Q 22.3125 -1.421875 17.546875 -0.640625 
Q 12.796875 0.140625 7.71875 1.703125 
L 7.71875 11.625 
Q 12.109375 9.234375 16.796875 8.0625 
Q 21.484375 6.890625 26.703125 6.890625 
Q 35.15625 6.890625 40.078125 11.328125 
Q 45.015625 15.765625 45.015625 23.390625 
Q 45.015625 31 40.078125 35.4375 
Q 35.15625 39.890625 26.703125 39.890625 
Q 22.75 39.890625 18.8125 39.015625 
Q 14.890625 38.140625 10.796875 36.28125 
z
" id="DejaVuSans-35"/>
      </defs>
      <g transform="translate(121.760285 322.182437)scale(0.1 -0.1)">
       <use xlink:href="#DejaVuSans-35"/>
       <use x="63.623047" xlink:href="#DejaVuSans-30"/>
      </g>
     </g>
    </g>
    <g id="xtick_3">
     <g id="line2d_3">
      <g>
       <use style="stroke:#000000;stroke-width:0.8;" x="182.412843" xlink:href="#m0f75d04b2f" y="307.584"/>
      </g>
     </g>
     <g id="text_3">
      <!-- 100 -->
      <defs>
       <path d="M 12.40625 8.296875 
L 28.515625 8.296875 
L 28.515625 63.921875 
L 10.984375 60.40625 
L 10.984375 69.390625 
L 28.421875 72.90625 
L 38.28125 72.90625 
L 38.28125 8.296875 
L 54.390625 8.296875 
L 54.390625 0 
L 12.40625 0 
z
" id="DejaVuSans-31"/>
      </defs>
      <g transform="translate(172.869093 322.182437)scale(0.1 -0.1)">
       <use xlink:href="#DejaVuSans-31"/>
       <use x="63.623047" xlink:href="#DejaVuSans-30"/>
       <use x="127.246094" xlink:href="#DejaVuSans-30"/>
      </g>
     </g>
    </g>
    <g id="xtick_4">
     <g id="line2d_4">
      <g>
       <use style="stroke:#000000;stroke-width:0.8;" x="236.702901" xlink:href="#m0f75d04b2f" y="307.584"/>
      </g>
     </g>
     <g id="text_4">
      <!-- 150 -->
      <g transform="translate(227.159151 322.182437)scale(0.1 -0.1)">
       <use xlink:href="#DejaVuSans-31"/>
       <use x="63.623047" xlink:href="#DejaVuSans-35"/>
       <use x="127.246094" xlink:href="#DejaVuSans-30"/>
      </g>
     </g>
    </g>
    <g id="xtick_5">
     <g id="line2d_5">
      <g>
       <use style="stroke:#000000;stroke-width:0.8;" x="290.992958" xlink:href="#m0f75d04b2f" y="307.584"/>
      </g>
     </g>
     <g id="text_5">
      <!-- 200 -->
      <defs>
       <path d="M 19.1875 8.296875 
L 53.609375 8.296875 
L 53.609375 0 
L 7.328125 0 
L 7.328125 8.296875 
Q 12.9375 14.109375 22.625 23.890625 
Q 32.328125 33.6875 34.8125 36.53125 
Q 39.546875 41.84375 41.421875 45.53125 
Q 43.3125 49.21875 43.3125 52.78125 
Q 43.3125 58.59375 39.234375 62.25 
Q 35.15625 65.921875 28.609375 65.921875 
Q 23.96875 65.921875 18.8125 64.3125 
Q 13.671875 62.703125 7.8125 59.421875 
L 7.8125 69.390625 
Q 13.765625 71.78125 18.9375 73 
Q 24.125 74.21875 28.421875 74.21875 
Q 39.75 74.21875 46.484375 68.546875 
Q 53.21875 62.890625 53.21875 53.421875 
Q 53.21875 48.921875 51.53125 44.890625 
Q 49.859375 40.875 45.40625 35.40625 
Q 44.1875 33.984375 37.640625 27.21875 
Q 31.109375 20.453125 19.1875 8.296875 
z
" id="DejaVuSans-32"/>
      </defs>
      <g transform="translate(281.449208 322.182437)scale(0.1 -0.1)">
       <use xlink:href="#DejaVuSans-32"/>
       <use x="63.623047" xlink:href="#DejaVuSans-30"/>
       <use x="127.246094" xlink:href="#DejaVuSans-30"/>
      </g>
     </g>
    </g>
    <g id="xtick_6">
     <g id="line2d_6">
      <g>
       <use style="stroke:#000000;stroke-width:0.8;" x="345.283016" xlink:href="#m0f75d04b2f" y="307.584"/>
      </g>
     </g>
     <g id="text_6">
      <!-- 250 -->
      <g transform="translate(335.739266 322.182437)scale(0.1 -0.1)">
       <use xlink:href="#DejaVuSans-32"/>
       <use x="63.623047" xlink:href="#DejaVuSans-35"/>
       <use x="127.246094" xlink:href="#DejaVuSans-30"/>
      </g>
     </g>
    </g>
    <g id="xtick_7">
     <g id="line2d_7">
      <g>
       <use style="stroke:#000000;stroke-width:0.8;" x="399.573074" xlink:href="#m0f75d04b2f" y="307.584"/>
      </g>
     </g>
    </g>
    <g id="text_7">
     <!-- Frame index -->
     <defs>
      <path d="M 9.8125 72.90625 
L 51.703125 72.90625 
L 51.703125 64.59375 
L 19.671875 64.59375 
L 19.671875 43.109375 
L 48.578125 43.109375 
L 48.578125 34.8125 
L 19.671875 34.8125 
L 19.671875 0 
L 9.8125 0 
z
" id="DejaVuSans-46"/>
      <path d="M 41.109375 46.296875 
Q 39.59375 47.171875 37.8125 47.578125 
Q 36.03125 48 33.890625 48 
Q 26.265625 48 22.1875 43.046875 
Q 18.109375 38.09375 18.109375 28.8125 
L 18.109375 0 
L 9.078125 0 
L 9.078125 54.6875 
L 18.109375 54.6875 
L 18.109375 46.1875 
Q 20.953125 51.171875 25.484375 53.578125 
Q 30.03125 56 36.53125 56 
Q 37.453125 56 38.578125 55.875 
Q 39.703125 55.765625 41.0625 55.515625 
z
" id="DejaVuSans-72"/>
      <path d="M 34.28125 27.484375 
Q 23.390625 27.484375 19.1875 25 
Q 14.984375 22.515625 14.984375 16.5 
Q 14.984375 11.71875 18.140625 8.90625 
Q 21.296875 6.109375 26.703125 6.109375 
Q 34.1875 6.109375 38.703125 11.40625 
Q 43.21875 16.703125 43.21875 25.484375 
L 43.21875 27.484375 
z
M 52.203125 31.203125 
L 52.203125 0 
L 43.21875 0 
L 43.21875 8.296875 
Q 40.140625 3.328125 35.546875 0.953125 
Q 30.953125 -1.421875 24.3125 -1.421875 
Q 15.921875 -1.421875 10.953125 3.296875 
Q 6 8.015625 6 15.921875 
Q 6 25.140625 12.171875 29.828125 
Q 18.359375 34.515625 30.609375 34.515625 
L 43.21875 34.515625 
L 43.21875 35.40625 
Q 43.21875 41.609375 39.140625 45 
Q 35.0625 48.390625 27.6875 48.390625 
Q 23 48.390625 18.546875 47.265625 
Q 14.109375 46.140625 10.015625 43.890625 
L 10.015625 52.203125 
Q 14.9375 54.109375 19.578125 55.046875 
Q 24.21875 56 28.609375 56 
Q 40.484375 56 46.34375 49.84375 
Q 52.203125 43.703125 52.203125 31.203125 
z
" id="DejaVuSans-61"/>
      <path d="M 52 44.1875 
Q 55.375 50.25 60.0625 53.125 
Q 64.75 56 71.09375 56 
Q 79.640625 56 84.28125 50.015625 
Q 88.921875 44.046875 88.921875 33.015625 
L 88.921875 0 
L 79.890625 0 
L 79.890625 32.71875 
Q 79.890625 40.578125 77.09375 44.375 
Q 74.3125 48.1875 68.609375 48.1875 
Q 61.625 48.1875 57.5625 43.546875 
Q 53.515625 38.921875 53.515625 30.90625 
L 53.515625 0 
L 44.484375 0 
L 44.484375 32.71875 
Q 44.484375 40.625 41.703125 44.40625 
Q 38.921875 48.1875 33.109375 48.1875 
Q 26.21875 48.1875 22.15625 43.53125 
Q 18.109375 38.875 18.109375 30.90625 
L 18.109375 0 
L 9.078125 0 
L 9.078125 54.6875 
L 18.109375 54.6875 
L 18.109375 46.1875 
Q 21.1875 51.21875 25.484375 53.609375 
Q 29.78125 56 35.6875 56 
Q 41.65625 56 45.828125 52.96875 
Q 50 49.953125 52 44.1875 
z
" id="DejaVuSans-6d"/>
      <path d="M 56.203125 29.59375 
L 56.203125 25.203125 
L 14.890625 25.203125 
Q 15.484375 15.921875 20.484375 11.0625 
Q 25.484375 6.203125 34.421875 6.203125 
Q 39.59375 6.203125 44.453125 7.46875 
Q 49.3125 8.734375 54.109375 11.28125 
L 54.109375 2.78125 
Q 49.265625 0.734375 44.1875 -0.34375 
Q 39.109375 -1.421875 33.890625 -1.421875 
Q 20.796875 -1.421875 13.15625 6.1875 
Q 5.515625 13.8125 5.515625 26.8125 
Q 5.515625 40.234375 12.765625 48.109375 
Q 20.015625 56 32.328125 56 
Q 43.359375 56 49.78125 48.890625 
Q 56.203125 41.796875 56.203125 29.59375 
z
M 47.21875 32.234375 
Q 47.125 39.59375 43.09375 43.984375 
Q 39.0625 48.390625 32.421875 48.390625 
Q 24.90625 48.390625 20.390625 44.140625 
Q 15.875 39.890625 15.1875 32.171875 
z
" id="DejaVuSans-65"/>
      <path id="DejaVuSans-20"/>
      <path d="M 9.421875 54.6875 
L 18.40625 54.6875 
L 18.40625 0 
L 9.421875 0 
z
M 9.421875 75.984375 
L 18.40625 75.984375 
L 18.40625 64.59375 
L 9.421875 64.59375 
z
" id="DejaVuSans-69"/>
      <path d="M 54.890625 33.015625 
L 54.890625 0 
L 45.90625 0 
L 45.90625 32.71875 
Q 45.90625 40.484375 42.875 44.328125 
Q 39.84375 48.1875 33.796875 48.1875 
Q 26.515625 48.1875 22.3125 43.546875 
Q 18.109375 38.921875 18.109375 30.90625 
L 18.109375 0 
L 9.078125 0 
L 9.078125 54.6875 
L 18.109375 54.6875 
L 18.109375 46.1875 
Q 21.34375 51.125 25.703125 53.5625 
Q 30.078125 56 35.796875 56 
Q 45.21875 56 50.046875 50.171875 
Q 54.890625 44.34375 54.890625 33.015625 
z
" id="DejaVuSans-6e"/>
      <path d="M 45.40625 46.390625 
L 45.40625 75.984375 
L 54.390625 75.984375 
L 54.390625 0 
L 45.40625 0 
L 45.40625 8.203125 
Q 42.578125 3.328125 38.25 0.953125 
Q 33.9375 -1.421875 27.875 -1.421875 
Q 17.96875 -1.421875 11.734375 6.484375 
Q 5.515625 14.40625 5.515625 27.296875 
Q 5.515625 40.1875 11.734375 48.09375 
Q 17.96875 56 27.875 56 
Q 33.9375 56 38.25 53.625 
Q 42.578125 51.265625 45.40625 46.390625 
z
M 14.796875 27.296875 
Q 14.796875 17.390625 18.875 11.75 
Q 22.953125 6.109375 30.078125 6.109375 
Q 37.203125 6.109375 41.296875 11.75 
Q 45.40625 17.390625 45.40625 27.296875 
Q 45.40625 37.203125 41.296875 42.84375 
Q 37.203125 48.484375 30.078125 48.484375 
Q 22.953125 48.484375 18.875 42.84375 
Q 14.796875 37.203125 14.796875 27.296875 
z
" id="DejaVuSans-64"/>
      <path d="M 54.890625 54.6875 
L 35.109375 28.078125 
L 55.90625 0 
L 45.3125 0 
L 29.390625 21.484375 
L 13.484375 0 
L 2.875 0 
L 24.125 28.609375 
L 4.6875 54.6875 
L 15.28125 54.6875 
L 29.78125 35.203125 
L 44.28125 54.6875 
z
" id="DejaVuSans-78"/>
     </defs>
     <g transform="translate(204.867031 335.860562)scale(0.1 -0.1)">
      <use xlink:href="#DejaVuSans-46"/>
      <use x="57.410156" xlink:href="#DejaVuSans-72"/>
      <use x="98.523438" xlink:href="#DejaVuSans-61"/>
      <use x="159.802734" xlink:href="#DejaVuSans-6d"/>
      <use x="257.214844" xlink:href="#DejaVuSans-65"/>
      <use x="318.738281" xlink:href="#DejaVuSans-20"/>
      <use x="350.525391" xlink:href="#DejaVuSans-69"/>
      <use x="378.308594" xlink:href="#DejaVuSans-6e"/>
      <use x="441.6875" xlink:href="#DejaVuSans-64"/>
      <use x="505.164062" xlink:href="#DejaVuSans-65"/>
      <use x="566.671875" xlink:href="#DejaVuSans-78"/>
     </g>
    </g>
   </g>
   <g id="matplotlib.axis_2">
    <g id="ytick_1">
     <g id="line2d_8">
      <defs>
       <path d="M 0 0 
L -3.5 0 
" id="ma42d26accb" style="stroke:#000000;stroke-width:0.8;"/>
      </defs>
      <g>
       <use style="stroke:#000000;stroke-width:0.8;" x="57.6" xlink:href="#ma42d26accb" y="283.069924"/>
      </g>
     </g>
     <g id="text_8">
      <!-- 1.75 -->
      <defs>
       <path d="M 10.6875 12.40625 
L 21 12.40625 
L 21 0 
L 10.6875 0 
z
" id="DejaVuSans-2e"/>
       <path d="M 8.203125 72.90625 
L 55.078125 72.90625 
L 55.078125 68.703125 
L 28.609375 0 
L 18.3125 0 
L 43.21875 64.59375 
L 8.203125 64.59375 
z
" id="DejaVuSans-37"/>
      </defs>
      <g transform="translate(28.334375 286.869142)scale(0.1 -0.1)">
       <use xlink:href="#DejaVuSans-31"/>
       <use x="63.623047" xlink:href="#DejaVuSans-2e"/>
       <use x="95.410156" xlink:href="#DejaVuSans-37"/>
       <use x="159.033203" xlink:href="#DejaVuSans-35"/>
      </g>
     </g>
    </g>
    <g id="ytick_2">
     <g id="line2d_9">
      <g>
       <use style="stroke:#000000;stroke-width:0.8;" x="57.6" xlink:href="#ma42d26accb" y="250.158039"/>
      </g>
     </g>
     <g id="text_9">
      <!-- 2.00 -->
      <g transform="translate(28.334375 253.957257)scale(0.1 -0.1)">
       <use xlink:href="#DejaVuSans-32"/>
       <use x="63.623047" xlink:href="#DejaVuSans-2e"/>
       <use x="95.410156" xlink:href="#DejaVuSans-30"/>
       <use x="159.033203" xlink:href="#DejaVuSans-30"/>
      </g>
     </g>
    </g>
    <g id="ytick_3">
     <g id="line2d_10">
      <g>
       <use style="stroke:#000000;stroke-width:0.8;" x="57.6" xlink:href="#ma42d26accb" y="217.246154"/>
      </g>
     </g>
     <g id="text_10">
      <!-- 2.25 -->
      <g transform="translate(28.334375 221.045373)scale(0.1 -0.1)">
       <use xlink:href="#DejaVuSans-32"/>
       <use x="63.623047" xlink:href="#DejaVuSans-2e"/>
       <use x="95.410156" xlink:href="#DejaVuSans-32"/>
       <use x="159.033203" xlink:href="#DejaVuSans-35"/>
      </g>
     </g>
    </g>
    <g id="ytick_4">
     <g id="line2d_11">
      <g>
       <use style="stroke:#000000;stroke-width:0.8;" x="57.6" xlink:href="#ma42d26accb" y="184.334269"/>
      </g>
     </g>
     <g id="text_11">
      <!-- 2.50 -->
      <g transform="translate(28.334375 188.133488)scale(0.1 -0.1)">
       <use xlink:href="#DejaVuSans-32"/>
       <use x="63.623047" xlink:href="#DejaVuSans-2e"/>
       <use x="95.410156" xlink:href="#DejaVuSans-35"/>
       <use x="159.033203" xlink:href="#DejaVuSans-30"/>
      </g>
     </g>
    </g>
    <g id="ytick_5">
     <g id="line2d_12">
      <g>
       <use style="stroke:#000000;stroke-width:0.8;" x="57.6" xlink:href="#ma42d26accb" y="151.422384"/>
      </g>
     </g>
     <g id="text_12">
      <!-- 2.75 -->
      <g transform="translate(28.334375 155.221603)scale(0.1 -0.1)">
       <use xlink:href="#DejaVuSans-32"/>
       <use x="63.623047" xlink:href="#DejaVuSans-2e"/>
       <use x="95.410156" xlink:href="#DejaVuSans-37"/>
       <use x="159.033203" xlink:href="#DejaVuSans-35"/>
      </g>
     </g>
    </g>
    <g id="ytick_6">
     <g id="line2d_13">
      <g>
       <use style="stroke:#000000;stroke-width:0.8;" x="57.6" xlink:href="#ma42d26accb" y="118.510499"/>
      </g>
     </g>
     <g id="text_13">
      <!-- 3.00 -->
      <defs>
       <path d="M 40.578125 39.3125 
Q 47.65625 37.796875 51.625 33 
Q 55.609375 28.21875 55.609375 21.1875 
Q 55.609375 10.40625 48.1875 4.484375 
Q 40.765625 -1.421875 27.09375 -1.421875 
Q 22.515625 -1.421875 17.65625 -0.515625 
Q 12.796875 0.390625 7.625 2.203125 
L 7.625 11.71875 
Q 11.71875 9.328125 16.59375 8.109375 
Q 21.484375 6.890625 26.8125 6.890625 
Q 36.078125 6.890625 40.9375 10.546875 
Q 45.796875 14.203125 45.796875 21.1875 
Q 45.796875 27.640625 41.28125 31.265625 
Q 36.765625 34.90625 28.71875 34.90625 
L 20.21875 34.90625 
L 20.21875 43.015625 
L 29.109375 43.015625 
Q 36.375 43.015625 40.234375 45.921875 
Q 44.09375 48.828125 44.09375 54.296875 
Q 44.09375 59.90625 40.109375 62.90625 
Q 36.140625 65.921875 28.71875 65.921875 
Q 24.65625 65.921875 20.015625 65.03125 
Q 15.375 64.15625 9.8125 62.3125 
L 9.8125 71.09375 
Q 15.4375 72.65625 20.34375 73.4375 
Q 25.25 74.21875 29.59375 74.21875 
Q 40.828125 74.21875 47.359375 69.109375 
Q 53.90625 64.015625 53.90625 55.328125 
Q 53.90625 49.265625 50.4375 45.09375 
Q 46.96875 40.921875 40.578125 39.3125 
z
" id="DejaVuSans-33"/>
      </defs>
      <g transform="translate(28.334375 122.309718)scale(0.1 -0.1)">
       <use xlink:href="#DejaVuSans-33"/>
       <use x="63.623047" xlink:href="#DejaVuSans-2e"/>
       <use x="95.410156" xlink:href="#DejaVuSans-30"/>
       <use x="159.033203" xlink:href="#DejaVuSans-30"/>
      </g>
     </g>
    </g>
    <g id="ytick_7">
     <g id="line2d_14">
      <g>
       <use style="stroke:#000000;stroke-width:0.8;" x="57.6" xlink:href="#ma42d26accb" y="85.598614"/>
      </g>
     </g>
     <g id="text_14">
      <!-- 3.25 -->
      <g transform="translate(28.334375 89.397833)scale(0.1 -0.1)">
       <use xlink:href="#DejaVuSans-33"/>
       <use x="63.623047" xlink:href="#DejaVuSans-2e"/>
       <use x="95.410156" xlink:href="#DejaVuSans-32"/>
       <use x="159.033203" xlink:href="#DejaVuSans-35"/>
      </g>
     </g>
    </g>
    <g id="ytick_8">
     <g id="line2d_15">
      <g>
       <use style="stroke:#000000;stroke-width:0.8;" x="57.6" xlink:href="#ma42d26accb" y="52.686729"/>
      </g>
     </g>
     <g id="text_15">
      <!-- 3.50 -->
      <g transform="translate(28.334375 56.485948)scale(0.1 -0.1)">
       <use xlink:href="#DejaVuSans-33"/>
       <use x="63.623047" xlink:href="#DejaVuSans-2e"/>
       <use x="95.410156" xlink:href="#DejaVuSans-35"/>
       <use x="159.033203" xlink:href="#DejaVuSans-30"/>
      </g>
     </g>
    </g>
    <g id="text_16">
     <!-- RMSD -->
     <defs>
      <path d="M 44.390625 34.1875 
Q 47.5625 33.109375 50.5625 29.59375 
Q 53.5625 26.078125 56.59375 19.921875 
L 66.609375 0 
L 56 0 
L 46.6875 18.703125 
Q 43.0625 26.03125 39.671875 28.421875 
Q 36.28125 30.8125 30.421875 30.8125 
L 19.671875 30.8125 
L 19.671875 0 
L 9.8125 0 
L 9.8125 72.90625 
L 32.078125 72.90625 
Q 44.578125 72.90625 50.734375 67.671875 
Q 56.890625 62.453125 56.890625 51.90625 
Q 56.890625 45.015625 53.6875 40.46875 
Q 50.484375 35.9375 44.390625 34.1875 
z
M 19.671875 64.796875 
L 19.671875 38.921875 
L 32.078125 38.921875 
Q 39.203125 38.921875 42.84375 42.21875 
Q 46.484375 45.515625 46.484375 51.90625 
Q 46.484375 58.296875 42.84375 61.546875 
Q 39.203125 64.796875 32.078125 64.796875 
z
" id="DejaVuSans-52"/>
      <path d="M 9.8125 72.90625 
L 24.515625 72.90625 
L 43.109375 23.296875 
L 61.8125 72.90625 
L 76.515625 72.90625 
L 76.515625 0 
L 66.890625 0 
L 66.890625 64.015625 
L 48.09375 14.015625 
L 38.1875 14.015625 
L 19.390625 64.015625 
L 19.390625 0 
L 9.8125 0 
z
" id="DejaVuSans-4d"/>
      <path d="M 53.515625 70.515625 
L 53.515625 60.890625 
Q 47.90625 63.578125 42.921875 64.890625 
Q 37.9375 66.21875 33.296875 66.21875 
Q 25.25 66.21875 20.875 63.09375 
Q 16.5 59.96875 16.5 54.203125 
Q 16.5 49.359375 19.40625 46.890625 
Q 22.3125 44.4375 30.421875 42.921875 
L 36.375 41.703125 
Q 47.40625 39.59375 52.65625 34.296875 
Q 57.90625 29 57.90625 20.125 
Q 57.90625 9.515625 50.796875 4.046875 
Q 43.703125 -1.421875 29.984375 -1.421875 
Q 24.8125 -1.421875 18.96875 -0.25 
Q 13.140625 0.921875 6.890625 3.21875 
L 6.890625 13.375 
Q 12.890625 10.015625 18.65625 8.296875 
Q 24.421875 6.59375 29.984375 6.59375 
Q 38.421875 6.59375 43.015625 9.90625 
Q 47.609375 13.234375 47.609375 19.390625 
Q 47.609375 24.75 44.3125 27.78125 
Q 41.015625 30.8125 33.5 32.328125 
L 27.484375 33.5 
Q 16.453125 35.6875 11.515625 40.375 
Q 6.59375 45.0625 6.59375 53.421875 
Q 6.59375 63.09375 13.40625 68.65625 
Q 20.21875 74.21875 32.171875 74.21875 
Q 37.3125 74.21875 42.625 73.28125 
Q 47.953125 72.359375 53.515625 70.515625 
z
" id="DejaVuSans-53"/>
      <path d="M 19.671875 64.796875 
L 19.671875 8.109375 
L 31.59375 8.109375 
Q 46.6875 8.109375 53.6875 14.9375 
Q 60.6875 21.78125 60.6875 36.53125 
Q 60.6875 51.171875 53.6875 57.984375 
Q 46.6875 64.796875 31.59375 64.796875 
z
M 9.8125 72.90625 
L 30.078125 72.90625 
Q 51.265625 72.90625 61.171875 64.09375 
Q 71.09375 55.28125 71.09375 36.53125 
Q 71.09375 17.671875 61.125 8.828125 
Q 51.171875 0 30.078125 0 
L 9.8125 0 
z
" id="DejaVuSans-44"/>
     </defs>
     <g transform="translate(22.254687 189.3405)rotate(-90)scale(0.1 -0.1)">
      <use xlink:href="#DejaVuSans-52"/>
      <use x="69.482422" xlink:href="#DejaVuSans-4d"/>
      <use x="155.761719" xlink:href="#DejaVuSans-53"/>
      <use x="219.238281" xlink:href="#DejaVuSans-44"/>
     </g>
    </g>
   </g>
   <g id="line2d_16">
    <path clip-path="url(#p06b4bb433d)" d="M 73.832727 295.488 
L 74.918528 259.570736 
L 76.00433 255.667056 
L 77.090131 234.418418 
L 78.175932 216.63979 
L 79.261733 204.454061 
L 80.347534 206.484646 
L 81.433335 211.397569 
L 82.519137 205.854687 
L 83.604938 199.602036 
L 84.690739 196.544896 
L 85.77654 194.304609 
L 86.862341 181.288825 
L 87.948142 182.540579 
L 89.033943 174.72558 
L 90.119745 176.005746 
L 91.205546 172.398704 
L 92.291347 170.583665 
L 93.377148 163.439288 
L 94.462949 166.29126 
L 95.54875 174.740225 
L 96.634552 179.247555 
L 97.720353 181.170202 
L 98.806154 175.612217 
L 99.891955 180.252865 
L 100.977756 163.8007 
L 102.063557 158.69609 
L 103.149358 160.081724 
L 104.23516 157.429843 
L 105.320961 190.478619 
L 106.406762 191.676241 
L 107.492563 184.995616 
L 108.578364 179.881293 
L 109.664165 156.238972 
L 110.749967 156.293546 
L 111.835768 164.007711 
L 112.921569 147.68682 
L 114.00737 153.298961 
L 115.093171 155.05742 
L 116.178972 154.183084 
L 117.264773 152.388859 
L 118.350575 158.442029 
L 119.436376 155.274069 
L 120.522177 160.192928 
L 121.607978 154.275333 
L 123.77958 158.014438 
L 124.865382 161.712172 
L 125.951183 158.473356 
L 127.036984 161.240352 
L 128.122785 157.229486 
L 129.208586 150.877506 
L 130.294387 153.756752 
L 131.380189 144.735609 
L 132.46599 147.153426 
L 133.551791 145.672086 
L 134.637592 146.705664 
L 135.723393 138.690813 
L 136.809194 139.60098 
L 137.894995 144.324176 
L 138.980797 144.256641 
L 140.066598 153.906777 
L 141.152399 147.93572 
L 142.2382 157.575639 
L 143.324001 156.779011 
L 144.409802 142.569105 
L 145.495604 139.040746 
L 146.581405 150.847454 
L 147.667206 147.873762 
L 148.753007 150.942303 
L 149.838808 142.879443 
L 150.924609 136.701077 
L 152.01041 131.529331 
L 153.096212 131.450123 
L 154.182013 135.062987 
L 155.267814 133.218216 
L 156.353615 136.599379 
L 157.439416 142.733394 
L 158.525217 136.021517 
L 159.611019 149.125599 
L 160.69682 153.570247 
L 161.782621 144.1139 
L 162.868422 147.773828 
L 163.954223 147.121401 
L 165.040024 153.92081 
L 166.125825 152.317417 
L 167.211627 147.549651 
L 168.297428 145.340175 
L 169.383229 144.928447 
L 170.46903 146.014372 
L 171.554831 140.62148 
L 172.640632 139.881779 
L 173.726434 142.568325 
L 174.812235 142.507541 
L 175.898036 149.292324 
L 176.983837 144.911591 
L 178.069638 146.42115 
L 179.155439 133.660504 
L 180.24124 141.5263 
L 181.327042 148.212869 
L 182.412843 134.772551 
L 183.498644 148.345594 
L 184.584445 147.478423 
L 185.670246 148.206801 
L 186.756047 153.492683 
L 187.841849 153.81283 
L 188.92765 154.465064 
L 190.013451 157.235656 
L 191.099252 154.307875 
L 192.185053 147.770699 
L 193.270854 143.456063 
L 194.356656 152.930354 
L 195.442457 146.730235 
L 196.528258 150.950191 
L 197.614059 145.996184 
L 198.69986 157.476403 
L 199.785661 138.009253 
L 200.871462 142.041562 
L 201.957264 143.72474 
L 203.043065 146.85043 
L 204.128866 142.250531 
L 205.214667 145.837261 
L 206.300468 109.335368 
L 207.386269 116.060193 
L 208.472071 125.405722 
L 209.557872 131.500285 
L 210.643673 129.934391 
L 211.729474 129.3621 
L 212.815275 127.019354 
L 213.901076 127.906929 
L 214.986877 122.309993 
L 216.072679 114.094537 
L 217.15848 106.973414 
L 218.244281 107.139691 
L 219.330082 112.650045 
L 220.415883 117.060177 
L 221.501684 118.118543 
L 222.587486 101.728298 
L 223.673287 111.33902 
L 224.759088 107.522826 
L 225.844889 110.844544 
L 226.93069 108.367081 
L 228.016491 106.722216 
L 229.102292 97.461054 
L 230.188094 89.608946 
L 231.273895 97.253017 
L 232.359696 102.817548 
L 233.445497 96.584084 
L 234.531298 105.571071 
L 235.617099 94.550653 
L 236.702901 86.252563 
L 237.788702 92.613194 
L 238.874503 88.425383 
L 239.960304 90.242679 
L 241.046105 83.170972 
L 242.131906 87.846341 
L 243.217708 82.01661 
L 244.303509 83.957145 
L 245.38931 68.464391 
L 246.475111 80.359291 
L 247.560912 80.326789 
L 248.646713 83.873802 
L 249.732514 86.503261 
L 250.818316 90.22547 
L 251.904117 81.378295 
L 252.989918 76.944303 
L 254.075719 78.952731 
L 255.16152 87.809799 
L 256.247321 82.556486 
L 257.333123 89.675805 
L 258.418924 86.552499 
L 259.504725 78.087435 
L 260.590526 74.732813 
L 261.676327 87.873797 
L 262.762128 85.676295 
L 263.847929 90.666973 
L 264.933731 93.585708 
L 266.019532 93.685779 
L 267.105333 88.036666 
L 268.191134 94.586237 
L 269.276935 94.972743 
L 270.362736 98.641555 
L 272.534339 72.755244 
L 273.62014 75.259442 
L 274.705941 62.662269 
L 275.791742 69.206556 
L 276.877543 71.125053 
L 277.963344 77.790746 
L 279.049146 75.788371 
L 280.134947 78.823081 
L 281.220748 74.544147 
L 282.306549 81.302672 
L 283.39235 81.466164 
L 284.478151 80.899653 
L 285.563953 74.49172 
L 286.649754 69.865483 
L 287.735555 63.66323 
L 288.821356 56.565983 
L 289.907157 59.381175 
L 290.992958 60.806472 
L 292.07876 60.551554 
L 293.164561 70.238476 
L 294.250362 60.947427 
L 295.336163 66.433339 
L 296.421964 69.121961 
L 297.507765 69.216711 
L 298.593566 76.315009 
L 299.679368 81.283829 
L 300.765169 77.345855 
L 301.85097 71.236265 
L 302.936771 75.930125 
L 304.022572 65.789833 
L 305.108373 76.871913 
L 306.194175 76.745415 
L 307.279976 73.410629 
L 308.365777 56.04884 
L 309.451578 66.176073 
L 310.537379 67.316437 
L 311.62318 70.49267 
L 312.708981 60.462774 
L 313.794783 61.25755 
L 314.880584 57.726103 
L 315.966385 71.880441 
L 317.052186 71.420324 
L 318.137987 65.0661 
L 319.223788 60.567806 
L 320.30959 55.521461 
L 321.395391 59.123477 
L 322.481192 68.54459 
L 323.566993 62.423929 
L 324.652794 60.805613 
L 325.738595 61.343163 
L 327.910198 81.539044 
L 328.995999 76.318873 
L 330.0818 67.470231 
L 331.167601 67.035392 
L 332.253402 73.45976 
L 333.339203 66.961171 
L 334.425005 80.441084 
L 335.510806 76.334229 
L 336.596607 84.212299 
L 337.682408 72.741501 
L 338.768209 70.08096 
L 339.85401 63.279162 
L 340.939811 66.17756 
L 342.025613 69.725632 
L 343.111414 63.940102 
L 344.197215 79.270304 
L 345.283016 71.863954 
L 346.368817 62.131921 
L 347.454618 76.266081 
L 348.54042 66.135727 
L 349.626221 73.931221 
L 350.712022 69.7 
L 351.797823 62.953179 
L 352.883624 71.574423 
L 353.969425 70.352822 
L 355.055227 65.182821 
L 356.141028 62.183156 
L 357.226829 63.901443 
L 358.31263 64.974234 
L 360.484232 77.525064 
L 361.570033 77.806113 
L 362.655835 76.483751 
L 363.741636 79.831073 
L 364.827437 77.719612 
L 365.913238 87.323469 
L 366.999039 81.785799 
L 368.08484 84.405126 
L 369.170642 86.37377 
L 370.256443 84.22448 
L 371.342244 80.16641 
L 372.428045 75.163347 
L 373.513846 72.774902 
L 374.599647 82.299412 
L 375.685448 84.458194 
L 376.77125 74.962645 
L 380.028653 72.266482 
L 381.114454 63.429919 
L 382.200255 69.753479 
L 383.286057 78.146156 
L 384.371858 64.654634 
L 385.457659 72.133465 
L 386.54346 59.400822 
L 387.629261 54.757008 
L 388.715062 53.568 
L 389.800863 59.428244 
L 390.886665 75.698942 
L 391.972466 68.506563 
L 393.058267 54.206597 
L 394.144068 79.464878 
L 395.229869 75.014164 
L 397.401472 68.509354 
L 398.487273 74.281552 
L 398.487273 74.281552 
" style="fill:none;stroke:#666666;stroke-dasharray:1,1.65;stroke-dashoffset:0;"/>
    <defs>
     <path d="M 0 0.5 
C 0.132602 0.5 0.25979 0.447317 0.353553 0.353553 
C 0.447317 0.25979 0.5 0.132602 0.5 0 
C 0.5 -0.132602 0.447317 -0.25979 0.353553 -0.353553 
C 0.25979 -0.447317 0.132602 -0.5 0 -0.5 
C -0.132602 -0.5 -0.25979 -0.447317 -0.353553 -0.353553 
C -0.447317 -0.25979 -0.5 -0.132602 -0.5 0 
C -0.5 0.132602 -0.447317 0.25979 -0.353553 0.353553 
C -0.25979 0.447317 -0.132602 0.5 0 0.5 
z
" id="mede584eaac" style="stroke:#666666;"/>
    </defs>
    <g clip-path="url(#p06b4bb433d)">
     <use style="fill:#666666;stroke:#666666;" x="73.832727" xlink:href="#mede584eaac" y="295.488"/>
     <use style="fill:#666666;stroke:#666666;" x="74.918528" xlink:href="#mede584eaac" y="259.570736"/>
     <use style="fill:#666666;stroke:#666666;" x="76.00433" xlink:href="#mede584eaac" y="255.667056"/>
     <use style="fill:#666666;stroke:#666666;" x="77.090131" xlink:href="#mede584eaac" y="234.418418"/>
     <use style="fill:#666666;stroke:#666666;" x="78.175932" xlink:href="#mede584eaac" y="216.63979"/>
     <use style="fill:#666666;stroke:#666666;" x="79.261733" xlink:href="#mede584eaac" y="204.454061"/>
     <use style="fill:#666666;stroke:#666666;" x="80.347534" xlink:href="#mede584eaac" y="206.484646"/>
     <use style="fill:#666666;stroke:#666666;" x="81.433335" xlink:href="#mede584eaac" y="211.397569"/>
     <use style="fill:#666666;stroke:#666666;" x="82.519137" xlink:href="#mede584eaac" y="205.854687"/>
     <use style="fill:#666666;stroke:#666666;" x="83.604938" xlink:href="#mede584eaac" y="199.602036"/>
     <use style="fill:#666666;stroke:#666666;" x="84.690739" xlink:href="#mede584eaac" y="196.544896"/>
     <use style="fill:#666666;stroke:#666666;" x="85.77654" xlink:href="#mede584eaac" y="194.304609"/>
     <use style="fill:#666666;stroke:#666666;" x="86.862341" xlink:href="#mede584eaac" y="181.288825"/>
     <use style="fill:#666666;stroke:#666666;" x="87.948142" xlink:href="#mede584eaac" y="182.540579"/>
     <use style="fill:#666666;stroke:#666666;" x="89.033943" xlink:href="#mede584eaac" y="174.72558"/>
     <use style="fill:#666666;stroke:#666666;" x="90.119745" xlink:href="#mede584eaac" y="176.005746"/>
     <use style="fill:#666666;stroke:#666666;" x="91.205546" xlink:href="#mede584eaac" y="172.398704"/>
     <use style="fill:#666666;stroke:#666666;" x="92.291347" xlink:href="#mede584eaac" y="170.583665"/>
     <use style="fill:#666666;stroke:#666666;" x="93.377148" xlink:href="#mede584eaac" y="163.439288"/>
     <use style="fill:#666666;stroke:#666666;" x="94.462949" xlink:href="#mede584eaac" y="166.29126"/>
     <use style="fill:#666666;stroke:#666666;" x="95.54875" xlink:href="#mede584eaac" y="174.740225"/>
     <use style="fill:#666666;stroke:#666666;" x="96.634552" xlink:href="#mede584eaac" y="179.247555"/>
     <use style="fill:#666666;stroke:#666666;" x="97.720353" xlink:href="#mede584eaac" y="181.170202"/>
     <use style="fill:#666666;stroke:#666666;" x="98.806154" xlink:href="#mede584eaac" y="175.612217"/>
     <use style="fill:#666666;stroke:#666666;" x="99.891955" xlink:href="#mede584eaac" y="180.252865"/>
     <use style="fill:#666666;stroke:#666666;" x="100.977756" xlink:href="#mede584eaac" y="163.8007"/>
     <use style="fill:#666666;stroke:#666666;" x="102.063557" xlink:href="#mede584eaac" y="158.69609"/>
     <use style="fill:#666666;stroke:#666666;" x="103.149358" xlink:href="#mede584eaac" y="160.081724"/>
     <use style="fill:#666666;stroke:#666666;" x="104.23516" xlink:href="#mede584eaac" y="157.429843"/>
     <use style="fill:#666666;stroke:#666666;" x="105.320961" xlink:href="#mede584eaac" y="190.478619"/>
     <use style="fill:#666666;stroke:#666666;" x="106.406762" xlink:href="#mede584eaac" y="191.676241"/>
     <use style="fill:#666666;stroke:#666666;" x="107.492563" xlink:href="#mede584eaac" y="184.995616"/>
     <use style="fill:#666666;stroke:#666666;" x="108.578364" xlink:href="#mede584eaac" y="179.881293"/>
     <use style="fill:#666666;stroke:#666666;" x="109.664165" xlink:href="#mede584eaac" y="156.238972"/>
     <use style="fill:#666666;stroke:#666666;" x="110.749967" xlink:href="#mede584eaac" y="156.293546"/>
     <use style="fill:#666666;stroke:#666666;" x="111.835768" xlink:href="#mede584eaac" y="164.007711"/>
     <use style="fill:#666666;stroke:#666666;" x="112.921569" xlink:href="#mede584eaac" y="147.68682"/>
     <use style="fill:#666666;stroke:#666666;" x="114.00737" xlink:href="#mede584eaac" y="153.298961"/>
     <use style="fill:#666666;stroke:#666666;" x="115.093171" xlink:href="#mede584eaac" y="155.05742"/>
     <use style="fill:#666666;stroke:#666666;" x="116.178972" xlink:href="#mede584eaac" y="154.183084"/>
     <use style="fill:#666666;stroke:#666666;" x="117.264773" xlink:href="#mede584eaac" y="152.388859"/>
     <use style="fill:#666666;stroke:#666666;" x="118.350575" xlink:href="#mede584eaac" y="158.442029"/>
     <use style="fill:#666666;stroke:#666666;" x="119.436376" xlink:href="#mede584eaac" y="155.274069"/>
     <use style="fill:#666666;stroke:#666666;" x="120.522177" xlink:href="#mede584eaac" y="160.192928"/>
     <use style="fill:#666666;stroke:#666666;" x="121.607978" xlink:href="#mede584eaac" y="154.275333"/>
     <use style="fill:#666666;stroke:#666666;" x="122.693779" xlink:href="#mede584eaac" y="156.257187"/>
     <use style="fill:#666666;stroke:#666666;" x="123.77958" xlink:href="#mede584eaac" y="158.014438"/>
     <use style="fill:#666666;stroke:#666666;" x="124.865382" xlink:href="#mede584eaac" y="161.712172"/>
     <use style="fill:#666666;stroke:#666666;" x="125.951183" xlink:href="#mede584eaac" y="158.473356"/>
     <use style="fill:#666666;stroke:#666666;" x="127.036984" xlink:href="#mede584eaac" y="161.240352"/>
     <use style="fill:#666666;stroke:#666666;" x="128.122785" xlink:href="#mede584eaac" y="157.229486"/>
     <use style="fill:#666666;stroke:#666666;" x="129.208586" xlink:href="#mede584eaac" y="150.877506"/>
     <use style="fill:#666666;stroke:#666666;" x="130.294387" xlink:href="#mede584eaac" y="153.756752"/>
     <use style="fill:#666666;stroke:#666666;" x="131.380189" xlink:href="#mede584eaac" y="144.735609"/>
     <use style="fill:#666666;stroke:#666666;" x="132.46599" xlink:href="#mede584eaac" y="147.153426"/>
     <use style="fill:#666666;stroke:#666666;" x="133.551791" xlink:href="#mede584eaac" y="145.672086"/>
     <use style="fill:#666666;stroke:#666666;" x="134.637592" xlink:href="#mede584eaac" y="146.705664"/>
     <use style="fill:#666666;stroke:#666666;" x="135.723393" xlink:href="#mede584eaac" y="138.690813"/>
     <use style="fill:#666666;stroke:#666666;" x="136.809194" xlink:href="#mede584eaac" y="139.60098"/>
     <use style="fill:#666666;stroke:#666666;" x="137.894995" xlink:href="#mede584eaac" y="144.324176"/>
     <use style="fill:#666666;stroke:#666666;" x="138.980797" xlink:href="#mede584eaac" y="144.256641"/>
     <use style="fill:#666666;stroke:#666666;" x="140.066598" xlink:href="#mede584eaac" y="153.906777"/>
     <use style="fill:#666666;stroke:#666666;" x="141.152399" xlink:href="#mede584eaac" y="147.93572"/>
     <use style="fill:#666666;stroke:#666666;" x="142.2382" xlink:href="#mede584eaac" y="157.575639"/>
     <use style="fill:#666666;stroke:#666666;" x="143.324001" xlink:href="#mede584eaac" y="156.779011"/>
     <use style="fill:#666666;stroke:#666666;" x="144.409802" xlink:href="#mede584eaac" y="142.569105"/>
     <use style="fill:#666666;stroke:#666666;" x="145.495604" xlink:href="#mede584eaac" y="139.040746"/>
     <use style="fill:#666666;stroke:#666666;" x="146.581405" xlink:href="#mede584eaac" y="150.847454"/>
     <use style="fill:#666666;stroke:#666666;" x="147.667206" xlink:href="#mede584eaac" y="147.873762"/>
     <use style="fill:#666666;stroke:#666666;" x="148.753007" xlink:href="#mede584eaac" y="150.942303"/>
     <use style="fill:#666666;stroke:#666666;" x="149.838808" xlink:href="#mede584eaac" y="142.879443"/>
     <use style="fill:#666666;stroke:#666666;" x="150.924609" xlink:href="#mede584eaac" y="136.701077"/>
     <use style="fill:#666666;stroke:#666666;" x="152.01041" xlink:href="#mede584eaac" y="131.529331"/>
     <use style="fill:#666666;stroke:#666666;" x="153.096212" xlink:href="#mede584eaac" y="131.450123"/>
     <use style="fill:#666666;stroke:#666666;" x="154.182013" xlink:href="#mede584eaac" y="135.062987"/>
     <use style="fill:#666666;stroke:#666666;" x="155.267814" xlink:href="#mede584eaac" y="133.218216"/>
     <use style="fill:#666666;stroke:#666666;" x="156.353615" xlink:href="#mede584eaac" y="136.599379"/>
     <use style="fill:#666666;stroke:#666666;" x="157.439416" xlink:href="#mede584eaac" y="142.733394"/>
     <use style="fill:#666666;stroke:#666666;" x="158.525217" xlink:href="#mede584eaac" y="136.021517"/>
     <use style="fill:#666666;stroke:#666666;" x="159.611019" xlink:href="#mede584eaac" y="149.125599"/>
     <use style="fill:#666666;stroke:#666666;" x="160.69682" xlink:href="#mede584eaac" y="153.570247"/>
     <use style="fill:#666666;stroke:#666666;" x="161.782621" xlink:href="#mede584eaac" y="144.1139"/>
     <use style="fill:#666666;stroke:#666666;" x="162.868422" xlink:href="#mede584eaac" y="147.773828"/>
     <use style="fill:#666666;stroke:#666666;" x="163.954223" xlink:href="#mede584eaac" y="147.121401"/>
     <use style="fill:#666666;stroke:#666666;" x="165.040024" xlink:href="#mede584eaac" y="153.92081"/>
     <use style="fill:#666666;stroke:#666666;" x="166.125825" xlink:href="#mede584eaac" y="152.317417"/>
     <use style="fill:#666666;stroke:#666666;" x="167.211627" xlink:href="#mede584eaac" y="147.549651"/>
     <use style="fill:#666666;stroke:#666666;" x="168.297428" xlink:href="#mede584eaac" y="145.340175"/>
     <use style="fill:#666666;stroke:#666666;" x="169.383229" xlink:href="#mede584eaac" y="144.928447"/>
     <use style="fill:#666666;stroke:#666666;" x="170.46903" xlink:href="#mede584eaac" y="146.014372"/>
     <use style="fill:#666666;stroke:#666666;" x="171.554831" xlink:href="#mede584eaac" y="140.62148"/>
     <use style="fill:#666666;stroke:#666666;" x="172.640632" xlink:href="#mede584eaac" y="139.881779"/>
     <use style="fill:#666666;stroke:#666666;" x="173.726434" xlink:href="#mede584eaac" y="142.568325"/>
     <use style="fill:#666666;stroke:#666666;" x="174.812235" xlink:href="#mede584eaac" y="142.507541"/>
     <use style="fill:#666666;stroke:#666666;" x="175.898036" xlink:href="#mede584eaac" y="149.292324"/>
     <use style="fill:#666666;stroke:#666666;" x="176.983837" xlink:href="#mede584eaac" y="144.911591"/>
     <use style="fill:#666666;stroke:#666666;" x="178.069638" xlink:href="#mede584eaac" y="146.42115"/>
     <use style="fill:#666666;stroke:#666666;" x="179.155439" xlink:href="#mede584eaac" y="133.660504"/>
     <use style="fill:#666666;stroke:#666666;" x="180.24124" xlink:href="#mede584eaac" y="141.5263"/>
     <use style="fill:#666666;stroke:#666666;" x="181.327042" xlink:href="#mede584eaac" y="148.212869"/>
     <use style="fill:#666666;stroke:#666666;" x="182.412843" xlink:href="#mede584eaac" y="134.772551"/>
     <use style="fill:#666666;stroke:#666666;" x="183.498644" xlink:href="#mede584eaac" y="148.345594"/>
     <use style="fill:#666666;stroke:#666666;" x="184.584445" xlink:href="#mede584eaac" y="147.478423"/>
     <use style="fill:#666666;stroke:#666666;" x="185.670246" xlink:href="#mede584eaac" y="148.206801"/>
     <use style="fill:#666666;stroke:#666666;" x="186.756047" xlink:href="#mede584eaac" y="153.492683"/>
     <use style="fill:#666666;stroke:#666666;" x="187.841849" xlink:href="#mede584eaac" y="153.81283"/>
     <use style="fill:#666666;stroke:#666666;" x="188.92765" xlink:href="#mede584eaac" y="154.465064"/>
     <use style="fill:#666666;stroke:#666666;" x="190.013451" xlink:href="#mede584eaac" y="157.235656"/>
     <use style="fill:#666666;stroke:#666666;" x="191.099252" xlink:href="#mede584eaac" y="154.307875"/>
     <use style="fill:#666666;stroke:#666666;" x="192.185053" xlink:href="#mede584eaac" y="147.770699"/>
     <use style="fill:#666666;stroke:#666666;" x="193.270854" xlink:href="#mede584eaac" y="143.456063"/>
     <use style="fill:#666666;stroke:#666666;" x="194.356656" xlink:href="#mede584eaac" y="152.930354"/>
     <use style="fill:#666666;stroke:#666666;" x="195.442457" xlink:href="#mede584eaac" y="146.730235"/>
     <use style="fill:#666666;stroke:#666666;" x="196.528258" xlink:href="#mede584eaac" y="150.950191"/>
     <use style="fill:#666666;stroke:#666666;" x="197.614059" xlink:href="#mede584eaac" y="145.996184"/>
     <use style="fill:#666666;stroke:#666666;" x="198.69986" xlink:href="#mede584eaac" y="157.476403"/>
     <use style="fill:#666666;stroke:#666666;" x="199.785661" xlink:href="#mede584eaac" y="138.009253"/>
     <use style="fill:#666666;stroke:#666666;" x="200.871462" xlink:href="#mede584eaac" y="142.041562"/>
     <use style="fill:#666666;stroke:#666666;" x="201.957264" xlink:href="#mede584eaac" y="143.72474"/>
     <use style="fill:#666666;stroke:#666666;" x="203.043065" xlink:href="#mede584eaac" y="146.85043"/>
     <use style="fill:#666666;stroke:#666666;" x="204.128866" xlink:href="#mede584eaac" y="142.250531"/>
     <use style="fill:#666666;stroke:#666666;" x="205.214667" xlink:href="#mede584eaac" y="145.837261"/>
     <use style="fill:#666666;stroke:#666666;" x="206.300468" xlink:href="#mede584eaac" y="109.335368"/>
     <use style="fill:#666666;stroke:#666666;" x="207.386269" xlink:href="#mede584eaac" y="116.060193"/>
     <use style="fill:#666666;stroke:#666666;" x="208.472071" xlink:href="#mede584eaac" y="125.405722"/>
     <use style="fill:#666666;stroke:#666666;" x="209.557872" xlink:href="#mede584eaac" y="131.500285"/>
     <use style="fill:#666666;stroke:#666666;" x="210.643673" xlink:href="#mede584eaac" y="129.934391"/>
     <use style="fill:#666666;stroke:#666666;" x="211.729474" xlink:href="#mede584eaac" y="129.3621"/>
     <use style="fill:#666666;stroke:#666666;" x="212.815275" xlink:href="#mede584eaac" y="127.019354"/>
     <use style="fill:#666666;stroke:#666666;" x="213.901076" xlink:href="#mede584eaac" y="127.906929"/>
     <use style="fill:#666666;stroke:#666666;" x="214.986877" xlink:href="#mede584eaac" y="122.309993"/>
     <use style="fill:#666666;stroke:#666666;" x="216.072679" xlink:href="#mede584eaac" y="114.094537"/>
     <use style="fill:#666666;stroke:#666666;" x="217.15848" xlink:href="#mede584eaac" y="106.973414"/>
     <use style="fill:#666666;stroke:#666666;" x="218.244281" xlink:href="#mede584eaac" y="107.139691"/>
     <use style="fill:#666666;stroke:#666666;" x="219.330082" xlink:href="#mede584eaac" y="112.650045"/>
     <use style="fill:#666666;stroke:#666666;" x="220.415883" xlink:href="#mede584eaac" y="117.060177"/>
     <use style="fill:#666666;stroke:#666666;" x="221.501684" xlink:href="#mede584eaac" y="118.118543"/>
     <use style="fill:#666666;stroke:#666666;" x="222.587486" xlink:href="#mede584eaac" y="101.728298"/>
     <use style="fill:#666666;stroke:#666666;" x="223.673287" xlink:href="#mede584eaac" y="111.33902"/>
     <use style="fill:#666666;stroke:#666666;" x="224.759088" xlink:href="#mede584eaac" y="107.522826"/>
     <use style="fill:#666666;stroke:#666666;" x="225.844889" xlink:href="#mede584eaac" y="110.844544"/>
     <use style="fill:#666666;stroke:#666666;" x="226.93069" xlink:href="#mede584eaac" y="108.367081"/>
     <use style="fill:#666666;stroke:#666666;" x="228.016491" xlink:href="#mede584eaac" y="106.722216"/>
     <use style="fill:#666666;stroke:#666666;" x="229.102292" xlink:href="#mede584eaac" y="97.461054"/>
     <use style="fill:#666666;stroke:#666666;" x="230.188094" xlink:href="#mede584eaac" y="89.608946"/>
     <use style="fill:#666666;stroke:#666666;" x="231.273895" xlink:href="#mede584eaac" y="97.253017"/>
     <use style="fill:#666666;stroke:#666666;" x="232.359696" xlink:href="#mede584eaac" y="102.817548"/>
     <use style="fill:#666666;stroke:#666666;" x="233.445497" xlink:href="#mede584eaac" y="96.584084"/>
     <use style="fill:#666666;stroke:#666666;" x="234.531298" xlink:href="#mede584eaac" y="105.571071"/>
     <use style="fill:#666666;stroke:#666666;" x="235.617099" xlink:href="#mede584eaac" y="94.550653"/>
     <use style="fill:#666666;stroke:#666666;" x="236.702901" xlink:href="#mede584eaac" y="86.252563"/>
     <use style="fill:#666666;stroke:#666666;" x="237.788702" xlink:href="#mede584eaac" y="92.613194"/>
     <use style="fill:#666666;stroke:#666666;" x="238.874503" xlink:href="#mede584eaac" y="88.425383"/>
     <use style="fill:#666666;stroke:#666666;" x="239.960304" xlink:href="#mede584eaac" y="90.242679"/>
     <use style="fill:#666666;stroke:#666666;" x="241.046105" xlink:href="#mede584eaac" y="83.170972"/>
     <use style="fill:#666666;stroke:#666666;" x="242.131906" xlink:href="#mede584eaac" y="87.846341"/>
     <use style="fill:#666666;stroke:#666666;" x="243.217708" xlink:href="#mede584eaac" y="82.01661"/>
     <use style="fill:#666666;stroke:#666666;" x="244.303509" xlink:href="#mede584eaac" y="83.957145"/>
     <use style="fill:#666666;stroke:#666666;" x="245.38931" xlink:href="#mede584eaac" y="68.464391"/>
     <use style="fill:#666666;stroke:#666666;" x="246.475111" xlink:href="#mede584eaac" y="80.359291"/>
     <use style="fill:#666666;stroke:#666666;" x="247.560912" xlink:href="#mede584eaac" y="80.326789"/>
     <use style="fill:#666666;stroke:#666666;" x="248.646713" xlink:href="#mede584eaac" y="83.873802"/>
     <use style="fill:#666666;stroke:#666666;" x="249.732514" xlink:href="#mede584eaac" y="86.503261"/>
     <use style="fill:#666666;stroke:#666666;" x="250.818316" xlink:href="#mede584eaac" y="90.22547"/>
     <use style="fill:#666666;stroke:#666666;" x="251.904117" xlink:href="#mede584eaac" y="81.378295"/>
     <use style="fill:#666666;stroke:#666666;" x="252.989918" xlink:href="#mede584eaac" y="76.944303"/>
     <use style="fill:#666666;stroke:#666666;" x="254.075719" xlink:href="#mede584eaac" y="78.952731"/>
     <use style="fill:#666666;stroke:#666666;" x="255.16152" xlink:href="#mede584eaac" y="87.809799"/>
     <use style="fill:#666666;stroke:#666666;" x="256.247321" xlink:href="#mede584eaac" y="82.556486"/>
     <use style="fill:#666666;stroke:#666666;" x="257.333123" xlink:href="#mede584eaac" y="89.675805"/>
     <use style="fill:#666666;stroke:#666666;" x="258.418924" xlink:href="#mede584eaac" y="86.552499"/>
     <use style="fill:#666666;stroke:#666666;" x="259.504725" xlink:href="#mede584eaac" y="78.087435"/>
     <use style="fill:#666666;stroke:#666666;" x="260.590526" xlink:href="#mede584eaac" y="74.732813"/>
     <use style="fill:#666666;stroke:#666666;" x="261.676327" xlink:href="#mede584eaac" y="87.873797"/>
     <use style="fill:#666666;stroke:#666666;" x="262.762128" xlink:href="#mede584eaac" y="85.676295"/>
     <use style="fill:#666666;stroke:#666666;" x="263.847929" xlink:href="#mede584eaac" y="90.666973"/>
     <use style="fill:#666666;stroke:#666666;" x="264.933731" xlink:href="#mede584eaac" y="93.585708"/>
     <use style="fill:#666666;stroke:#666666;" x="266.019532" xlink:href="#mede584eaac" y="93.685779"/>
     <use style="fill:#666666;stroke:#666666;" x="267.105333" xlink:href="#mede584eaac" y="88.036666"/>
     <use style="fill:#666666;stroke:#666666;" x="268.191134" xlink:href="#mede584eaac" y="94.586237"/>
     <use style="fill:#666666;stroke:#666666;" x="269.276935" xlink:href="#mede584eaac" y="94.972743"/>
     <use style="fill:#666666;stroke:#666666;" x="270.362736" xlink:href="#mede584eaac" y="98.641555"/>
     <use style="fill:#666666;stroke:#666666;" x="271.448538" xlink:href="#mede584eaac" y="85.390339"/>
     <use style="fill:#666666;stroke:#666666;" x="272.534339" xlink:href="#mede584eaac" y="72.755244"/>
     <use style="fill:#666666;stroke:#666666;" x="273.62014" xlink:href="#mede584eaac" y="75.259442"/>
     <use style="fill:#666666;stroke:#666666;" x="274.705941" xlink:href="#mede584eaac" y="62.662269"/>
     <use style="fill:#666666;stroke:#666666;" x="275.791742" xlink:href="#mede584eaac" y="69.206556"/>
     <use style="fill:#666666;stroke:#666666;" x="276.877543" xlink:href="#mede584eaac" y="71.125053"/>
     <use style="fill:#666666;stroke:#666666;" x="277.963344" xlink:href="#mede584eaac" y="77.790746"/>
     <use style="fill:#666666;stroke:#666666;" x="279.049146" xlink:href="#mede584eaac" y="75.788371"/>
     <use style="fill:#666666;stroke:#666666;" x="280.134947" xlink:href="#mede584eaac" y="78.823081"/>
     <use style="fill:#666666;stroke:#666666;" x="281.220748" xlink:href="#mede584eaac" y="74.544147"/>
     <use style="fill:#666666;stroke:#666666;" x="282.306549" xlink:href="#mede584eaac" y="81.302672"/>
     <use style="fill:#666666;stroke:#666666;" x="283.39235" xlink:href="#mede584eaac" y="81.466164"/>
     <use style="fill:#666666;stroke:#666666;" x="284.478151" xlink:href="#mede584eaac" y="80.899653"/>
     <use style="fill:#666666;stroke:#666666;" x="285.563953" xlink:href="#mede584eaac" y="74.49172"/>
     <use style="fill:#666666;stroke:#666666;" x="286.649754" xlink:href="#mede584eaac" y="69.865483"/>
     <use style="fill:#666666;stroke:#666666;" x="287.735555" xlink:href="#mede584eaac" y="63.66323"/>
     <use style="fill:#666666;stroke:#666666;" x="288.821356" xlink:href="#mede584eaac" y="56.565983"/>
     <use style="fill:#666666;stroke:#666666;" x="289.907157" xlink:href="#mede584eaac" y="59.381175"/>
     <use style="fill:#666666;stroke:#666666;" x="290.992958" xlink:href="#mede584eaac" y="60.806472"/>
     <use style="fill:#666666;stroke:#666666;" x="292.07876" xlink:href="#mede584eaac" y="60.551554"/>
     <use style="fill:#666666;stroke:#666666;" x="293.164561" xlink:href="#mede584eaac" y="70.238476"/>
     <use style="fill:#666666;stroke:#666666;" x="294.250362" xlink:href="#mede584eaac" y="60.947427"/>
     <use style="fill:#666666;stroke:#666666;" x="295.336163" xlink:href="#mede584eaac" y="66.433339"/>
     <use style="fill:#666666;stroke:#666666;" x="296.421964" xlink:href="#mede584eaac" y="69.121961"/>
     <use style="fill:#666666;stroke:#666666;" x="297.507765" xlink:href="#mede584eaac" y="69.216711"/>
     <use style="fill:#666666;stroke:#666666;" x="298.593566" xlink:href="#mede584eaac" y="76.315009"/>
     <use style="fill:#666666;stroke:#666666;" x="299.679368" xlink:href="#mede584eaac" y="81.283829"/>
     <use style="fill:#666666;stroke:#666666;" x="300.765169" xlink:href="#mede584eaac" y="77.345855"/>
     <use style="fill:#666666;stroke:#666666;" x="301.85097" xlink:href="#mede584eaac" y="71.236265"/>
     <use style="fill:#666666;stroke:#666666;" x="302.936771" xlink:href="#mede584eaac" y="75.930125"/>
     <use style="fill:#666666;stroke:#666666;" x="304.022572" xlink:href="#mede584eaac" y="65.789833"/>
     <use style="fill:#666666;stroke:#666666;" x="305.108373" xlink:href="#mede584eaac" y="76.871913"/>
     <use style="fill:#666666;stroke:#666666;" x="306.194175" xlink:href="#mede584eaac" y="76.745415"/>
     <use style="fill:#666666;stroke:#666666;" x="307.279976" xlink:href="#mede584eaac" y="73.410629"/>
     <use style="fill:#666666;stroke:#666666;" x="308.365777" xlink:href="#mede584eaac" y="56.04884"/>
     <use style="fill:#666666;stroke:#666666;" x="309.451578" xlink:href="#mede584eaac" y="66.176073"/>
     <use style="fill:#666666;stroke:#666666;" x="310.537379" xlink:href="#mede584eaac" y="67.316437"/>
     <use style="fill:#666666;stroke:#666666;" x="311.62318" xlink:href="#mede584eaac" y="70.49267"/>
     <use style="fill:#666666;stroke:#666666;" x="312.708981" xlink:href="#mede584eaac" y="60.462774"/>
     <use style="fill:#666666;stroke:#666666;" x="313.794783" xlink:href="#mede584eaac" y="61.25755"/>
     <use style="fill:#666666;stroke:#666666;" x="314.880584" xlink:href="#mede584eaac" y="57.726103"/>
     <use style="fill:#666666;stroke:#666666;" x="315.966385" xlink:href="#mede584eaac" y="71.880441"/>
     <use style="fill:#666666;stroke:#666666;" x="317.052186" xlink:href="#mede584eaac" y="71.420324"/>
     <use style="fill:#666666;stroke:#666666;" x="318.137987" xlink:href="#mede584eaac" y="65.0661"/>
     <use style="fill:#666666;stroke:#666666;" x="319.223788" xlink:href="#mede584eaac" y="60.567806"/>
     <use style="fill:#666666;stroke:#666666;" x="320.30959" xlink:href="#mede584eaac" y="55.521461"/>
     <use style="fill:#666666;stroke:#666666;" x="321.395391" xlink:href="#mede584eaac" y="59.123477"/>
     <use style="fill:#666666;stroke:#666666;" x="322.481192" xlink:href="#mede584eaac" y="68.54459"/>
     <use style="fill:#666666;stroke:#666666;" x="323.566993" xlink:href="#mede584eaac" y="62.423929"/>
     <use style="fill:#666666;stroke:#666666;" x="324.652794" xlink:href="#mede584eaac" y="60.805613"/>
     <use style="fill:#666666;stroke:#666666;" x="325.738595" xlink:href="#mede584eaac" y="61.343163"/>
     <use style="fill:#666666;stroke:#666666;" x="326.824396" xlink:href="#mede584eaac" y="71.702572"/>
     <use style="fill:#666666;stroke:#666666;" x="327.910198" xlink:href="#mede584eaac" y="81.539044"/>
     <use style="fill:#666666;stroke:#666666;" x="328.995999" xlink:href="#mede584eaac" y="76.318873"/>
     <use style="fill:#666666;stroke:#666666;" x="330.0818" xlink:href="#mede584eaac" y="67.470231"/>
     <use style="fill:#666666;stroke:#666666;" x="331.167601" xlink:href="#mede584eaac" y="67.035392"/>
     <use style="fill:#666666;stroke:#666666;" x="332.253402" xlink:href="#mede584eaac" y="73.45976"/>
     <use style="fill:#666666;stroke:#666666;" x="333.339203" xlink:href="#mede584eaac" y="66.961171"/>
     <use style="fill:#666666;stroke:#666666;" x="334.425005" xlink:href="#mede584eaac" y="80.441084"/>
     <use style="fill:#666666;stroke:#666666;" x="335.510806" xlink:href="#mede584eaac" y="76.334229"/>
     <use style="fill:#666666;stroke:#666666;" x="336.596607" xlink:href="#mede584eaac" y="84.212299"/>
     <use style="fill:#666666;stroke:#666666;" x="337.682408" xlink:href="#mede584eaac" y="72.741501"/>
     <use style="fill:#666666;stroke:#666666;" x="338.768209" xlink:href="#mede584eaac" y="70.08096"/>
     <use style="fill:#666666;stroke:#666666;" x="339.85401" xlink:href="#mede584eaac" y="63.279162"/>
     <use style="fill:#666666;stroke:#666666;" x="340.939811" xlink:href="#mede584eaac" y="66.17756"/>
     <use style="fill:#666666;stroke:#666666;" x="342.025613" xlink:href="#mede584eaac" y="69.725632"/>
     <use style="fill:#666666;stroke:#666666;" x="343.111414" xlink:href="#mede584eaac" y="63.940102"/>
     <use style="fill:#666666;stroke:#666666;" x="344.197215" xlink:href="#mede584eaac" y="79.270304"/>
     <use style="fill:#666666;stroke:#666666;" x="345.283016" xlink:href="#mede584eaac" y="71.863954"/>
     <use style="fill:#666666;stroke:#666666;" x="346.368817" xlink:href="#mede584eaac" y="62.131921"/>
     <use style="fill:#666666;stroke:#666666;" x="347.454618" xlink:href="#mede584eaac" y="76.266081"/>
     <use style="fill:#666666;stroke:#666666;" x="348.54042" xlink:href="#mede584eaac" y="66.135727"/>
     <use style="fill:#666666;stroke:#666666;" x="349.626221" xlink:href="#mede584eaac" y="73.931221"/>
     <use style="fill:#666666;stroke:#666666;" x="350.712022" xlink:href="#mede584eaac" y="69.7"/>
     <use style="fill:#666666;stroke:#666666;" x="351.797823" xlink:href="#mede584eaac" y="62.953179"/>
     <use style="fill:#666666;stroke:#666666;" x="352.883624" xlink:href="#mede584eaac" y="71.574423"/>
     <use style="fill:#666666;stroke:#666666;" x="353.969425" xlink:href="#mede584eaac" y="70.352822"/>
     <use style="fill:#666666;stroke:#666666;" x="355.055227" xlink:href="#mede584eaac" y="65.182821"/>
     <use style="fill:#666666;stroke:#666666;" x="356.141028" xlink:href="#mede584eaac" y="62.183156"/>
     <use style="fill:#666666;stroke:#666666;" x="357.226829" xlink:href="#mede584eaac" y="63.901443"/>
     <use style="fill:#666666;stroke:#666666;" x="358.31263" xlink:href="#mede584eaac" y="64.974234"/>
     <use style="fill:#666666;stroke:#666666;" x="359.398431" xlink:href="#mede584eaac" y="71.296691"/>
     <use style="fill:#666666;stroke:#666666;" x="360.484232" xlink:href="#mede584eaac" y="77.525064"/>
     <use style="fill:#666666;stroke:#666666;" x="361.570033" xlink:href="#mede584eaac" y="77.806113"/>
     <use style="fill:#666666;stroke:#666666;" x="362.655835" xlink:href="#mede584eaac" y="76.483751"/>
     <use style="fill:#666666;stroke:#666666;" x="363.741636" xlink:href="#mede584eaac" y="79.831073"/>
     <use style="fill:#666666;stroke:#666666;" x="364.827437" xlink:href="#mede584eaac" y="77.719612"/>
     <use style="fill:#666666;stroke:#666666;" x="365.913238" xlink:href="#mede584eaac" y="87.323469"/>
     <use style="fill:#666666;stroke:#666666;" x="366.999039" xlink:href="#mede584eaac" y="81.785799"/>
     <use style="fill:#666666;stroke:#666666;" x="368.08484" xlink:href="#mede584eaac" y="84.405126"/>
     <use style="fill:#666666;stroke:#666666;" x="369.170642" xlink:href="#mede584eaac" y="86.37377"/>
     <use style="fill:#666666;stroke:#666666;" x="370.256443" xlink:href="#mede584eaac" y="84.22448"/>
     <use style="fill:#666666;stroke:#666666;" x="371.342244" xlink:href="#mede584eaac" y="80.16641"/>
     <use style="fill:#666666;stroke:#666666;" x="372.428045" xlink:href="#mede584eaac" y="75.163347"/>
     <use style="fill:#666666;stroke:#666666;" x="373.513846" xlink:href="#mede584eaac" y="72.774902"/>
     <use style="fill:#666666;stroke:#666666;" x="374.599647" xlink:href="#mede584eaac" y="82.299412"/>
     <use style="fill:#666666;stroke:#666666;" x="375.685448" xlink:href="#mede584eaac" y="84.458194"/>
     <use style="fill:#666666;stroke:#666666;" x="376.77125" xlink:href="#mede584eaac" y="74.962645"/>
     <use style="fill:#666666;stroke:#666666;" x="377.857051" xlink:href="#mede584eaac" y="74.014884"/>
     <use style="fill:#666666;stroke:#666666;" x="378.942852" xlink:href="#mede584eaac" y="73.192735"/>
     <use style="fill:#666666;stroke:#666666;" x="380.028653" xlink:href="#mede584eaac" y="72.266482"/>
     <use style="fill:#666666;stroke:#666666;" x="381.114454" xlink:href="#mede584eaac" y="63.429919"/>
     <use style="fill:#666666;stroke:#666666;" x="382.200255" xlink:href="#mede584eaac" y="69.753479"/>
     <use style="fill:#666666;stroke:#666666;" x="383.286057" xlink:href="#mede584eaac" y="78.146156"/>
     <use style="fill:#666666;stroke:#666666;" x="384.371858" xlink:href="#mede584eaac" y="64.654634"/>
     <use style="fill:#666666;stroke:#666666;" x="385.457659" xlink:href="#mede584eaac" y="72.133465"/>
     <use style="fill:#666666;stroke:#666666;" x="386.54346" xlink:href="#mede584eaac" y="59.400822"/>
     <use style="fill:#666666;stroke:#666666;" x="387.629261" xlink:href="#mede584eaac" y="54.757008"/>
     <use style="fill:#666666;stroke:#666666;" x="388.715062" xlink:href="#mede584eaac" y="53.568"/>
     <use style="fill:#666666;stroke:#666666;" x="389.800863" xlink:href="#mede584eaac" y="59.428244"/>
     <use style="fill:#666666;stroke:#666666;" x="390.886665" xlink:href="#mede584eaac" y="75.698942"/>
     <use style="fill:#666666;stroke:#666666;" x="391.972466" xlink:href="#mede584eaac" y="68.506563"/>
     <use style="fill:#666666;stroke:#666666;" x="393.058267" xlink:href="#mede584eaac" y="54.206597"/>
     <use style="fill:#666666;stroke:#666666;" x="394.144068" xlink:href="#mede584eaac" y="79.464878"/>
     <use style="fill:#666666;stroke:#666666;" x="395.229869" xlink:href="#mede584eaac" y="75.014164"/>
     <use style="fill:#666666;stroke:#666666;" x="396.31567" xlink:href="#mede584eaac" y="71.751416"/>
     <use style="fill:#666666;stroke:#666666;" x="397.401472" xlink:href="#mede584eaac" y="68.509354"/>
     <use style="fill:#666666;stroke:#666666;" x="398.487273" xlink:href="#mede584eaac" y="74.281552"/>
    </g>
   </g>
   <g id="patch_3">
    <path d="M 57.6 307.584 
L 57.6 41.472 
" style="fill:none;stroke:#000000;stroke-linecap:square;stroke-linejoin:miter;stroke-width:0.8;"/>
   </g>
   <g id="patch_4">
    <path d="M 414.72 307.584 
L 414.72 41.472 
" style="fill:none;stroke:#000000;stroke-linecap:square;stroke-linejoin:miter;stroke-width:0.8;"/>
   </g>
   <g id="patch_5">
    <path d="M 57.6 307.584 
L 414.72 307.584 
" style="fill:none;stroke:#000000;stroke-linecap:square;stroke-linejoin:miter;stroke-width:0.8;"/>
   </g>
   <g id="patch_6">
    <path d="M 57.6 41.472 
L 414.72 41.472 
" style="fill:none;stroke:#000000;stroke-linecap:square;stroke-linejoin:miter;stroke-width:0.8;"/>
   </g>
  </g>
 </g>
 <defs>
  <clipPath id="p06b4bb433d">
   <rect height="266.112" width="357.12" x="57.6" y="41.472"/>
  </clipPath>
 </defs>
</svg>
