<?xml version="1.0" encoding="utf-8" standalone="no"?>
<!DOCTYPE svg PUBLIC "-//W3C//DTD SVG 1.1//EN"
  "http://www.w3.org/Graphics/SVG/1.1/DTD/svg11.dtd">
<!-- Created with matplotlib (http://matplotlib.org/) -->
<svg height="345.6pt" version="1.1" viewBox="0 0 460.8 345.6" width="460.8pt" xmlns="http://www.w3.org/2000/svg" xmlns:xlink="http://www.w3.org/1999/xlink">
 <defs>
  <style type="text/css">
*{stroke-linecap:butt;stroke-linejoin:round;}
  </style>
 </defs>
 <g id="figure_1">
  <g id="patch_1">
   <path d="M 0 345.6 
L 460.8 345.6 
L 460.8 0 
L 0 0 
z
" style="fill:#ffffff;"/>
  </g>
  <g id="axes_1">
   <g id="patch_2">
    <path d="M 38.27 287.71 
L 447.48 287.71 
L 447.48 13.32 
L 38.27 13.32 
z
" style="fill:#ffffff;"/>
   </g>
   <g id="matplotlib.axis_1">
    <g id="xtick_1">
     <g id="line2d_1">
      <defs>
       <path d="M 0 0 
L 0 3.5 
" id="m7189143e28" style="stroke:#000000;stroke-width:0.8;"/>
      </defs>
      <g>
       <use style="stroke:#000000;stroke-width:0.8;" x="38.27" xlink:href="#m7189143e28" y="287.71"/>
      </g>
     </g>
     <g id="text_1">
      <!-- A1 -->
      <defs>
       <path d="M 34.1875 63.1875 
L 20.796875 26.90625 
L 47.609375 26.90625 
z
M 28.609375 72.90625 
L 39.796875 72.90625 
L 67.578125 0 
L 57.328125 0 
L 50.6875 18.703125 
L 17.828125 18.703125 
L 11.1875 0 
L 0.78125 0 
z
" id="DejaVuSans-41"/>
       <path d="M 12.40625 8.296875 
L 28.515625 8.296875 
L 28.515625 63.921875 
L 10.984375 60.40625 
L 10.984375 69.390625 
L 28.421875 72.90625 
L 38.28125 72.90625 
L 38.28125 8.296875 
L 54.390625 8.296875 
L 54.390625 0 
L 12.40625 0 
z
" id="DejaVuSans-31"/>
      </defs>
      <g transform="translate(41.029375 307.913125)rotate(-90)scale(0.1 -0.1)">
       <use xlink:href="#DejaVuSans-41"/>
       <use x="68.408203" xlink:href="#DejaVuSans-31"/>
      </g>
     </g>
    </g>
    <g id="xtick_2">
     <g id="line2d_2">
      <g>
       <use style="stroke:#000000;stroke-width:0.8;" x="55.757607" xlink:href="#m7189143e28" y="287.71"/>
      </g>
     </g>
     <g id="text_2">
      <!-- A16 -->
      <defs>
       <path d="M 33.015625 40.375 
Q 26.375 40.375 22.484375 35.828125 
Q 18.609375 31.296875 18.609375 23.390625 
Q 18.609375 15.53125 22.484375 10.953125 
Q 26.375 6.390625 33.015625 6.390625 
Q 39.65625 6.390625 43.53125 10.953125 
Q 47.40625 15.53125 47.40625 23.390625 
Q 47.40625 31.296875 43.53125 35.828125 
Q 39.65625 40.375 33.015625 40.375 
z
M 52.59375 71.296875 
L 52.59375 62.3125 
Q 48.875 64.0625 45.09375 64.984375 
Q 41.3125 65.921875 37.59375 65.921875 
Q 27.828125 65.921875 22.671875 59.328125 
Q 17.53125 52.734375 16.796875 39.40625 
Q 19.671875 43.65625 24.015625 45.921875 
Q 28.375 48.1875 33.59375 48.1875 
Q 44.578125 48.1875 50.953125 41.515625 
Q 57.328125 34.859375 57.328125 23.390625 
Q 57.328125 12.15625 50.6875 5.359375 
Q 44.046875 -1.421875 33.015625 -1.421875 
Q 20.359375 -1.421875 13.671875 8.265625 
Q 6.984375 17.96875 6.984375 36.375 
Q 6.984375 53.65625 15.1875 63.9375 
Q 23.390625 74.21875 37.203125 74.21875 
Q 40.921875 74.21875 44.703125 73.484375 
Q 48.484375 72.75 52.59375 71.296875 
z
" id="DejaVuSans-36"/>
      </defs>
      <g transform="translate(58.516982 314.275625)rotate(-90)scale(0.1 -0.1)">
       <use xlink:href="#DejaVuSans-41"/>
       <use x="68.408203" xlink:href="#DejaVuSans-31"/>
       <use x="132.03125" xlink:href="#DejaVuSans-36"/>
      </g>
     </g>
    </g>
    <g id="xtick_3">
     <g id="line2d_3">
      <g>
       <use style="stroke:#000000;stroke-width:0.8;" x="73.245214" xlink:href="#m7189143e28" y="287.71"/>
      </g>
     </g>
     <g id="text_3">
      <!-- A31 -->
      <defs>
       <path d="M 40.578125 39.3125 
Q 47.65625 37.796875 51.625 33 
Q 55.609375 28.21875 55.609375 21.1875 
Q 55.609375 10.40625 48.1875 4.484375 
Q 40.765625 -1.421875 27.09375 -1.421875 
Q 22.515625 -1.421875 17.65625 -0.515625 
Q 12.796875 0.390625 7.625 2.203125 
L 7.625 11.71875 
Q 11.71875 9.328125 16.59375 8.109375 
Q 21.484375 6.890625 26.8125 6.890625 
Q 36.078125 6.890625 40.9375 10.546875 
Q 45.796875 14.203125 45.796875 21.1875 
Q 45.796875 27.640625 41.28125 31.265625 
Q 36.765625 34.90625 28.71875 34.90625 
L 20.21875 34.90625 
L 20.21875 43.015625 
L 29.109375 43.015625 
Q 36.375 43.015625 40.234375 45.921875 
Q 44.09375 48.828125 44.09375 54.296875 
Q 44.09375 59.90625 40.109375 62.90625 
Q 36.140625 65.921875 28.71875 65.921875 
Q 24.65625 65.921875 20.015625 65.03125 
Q 15.375 64.15625 9.8125 62.3125 
L 9.8125 71.09375 
Q 15.4375 72.65625 20.34375 73.4375 
Q 25.25 74.21875 29.59375 74.21875 
Q 40.828125 74.21875 47.359375 69.109375 
Q 53.90625 64.015625 53.90625 55.328125 
Q 53.90625 49.265625 50.4375 45.09375 
Q 46.96875 40.921875 40.578125 39.3125 
z
" id="DejaVuSans-33"/>
      </defs>
      <g transform="translate(76.004589 314.275625)rotate(-90)scale(0.1 -0.1)">
       <use xlink:href="#DejaVuSans-41"/>
       <use x="68.408203" xlink:href="#DejaVuSans-33"/>
       <use x="132.03125" xlink:href="#DejaVuSans-31"/>
      </g>
     </g>
    </g>
    <g id="xtick_4">
     <g id="line2d_4">
      <g>
       <use style="stroke:#000000;stroke-width:0.8;" x="90.732821" xlink:href="#m7189143e28" y="287.71"/>
      </g>
     </g>
     <g id="text_4">
      <!-- A46 -->
      <defs>
       <path d="M 37.796875 64.3125 
L 12.890625 25.390625 
L 37.796875 25.390625 
z
M 35.203125 72.90625 
L 47.609375 72.90625 
L 47.609375 25.390625 
L 58.015625 25.390625 
L 58.015625 17.1875 
L 47.609375 17.1875 
L 47.609375 0 
L 37.796875 0 
L 37.796875 17.1875 
L 4.890625 17.1875 
L 4.890625 26.703125 
z
" id="DejaVuSans-34"/>
      </defs>
      <g transform="translate(93.492196 314.275625)rotate(-90)scale(0.1 -0.1)">
       <use xlink:href="#DejaVuSans-41"/>
       <use x="68.408203" xlink:href="#DejaVuSans-34"/>
       <use x="132.03125" xlink:href="#DejaVuSans-36"/>
      </g>
     </g>
    </g>
    <g id="xtick_5">
     <g id="line2d_5">
      <g>
       <use style="stroke:#000000;stroke-width:0.8;" x="108.220427" xlink:href="#m7189143e28" y="287.71"/>
      </g>
     </g>
     <g id="text_5">
      <!-- A61 -->
      <g transform="translate(110.979802 314.275625)rotate(-90)scale(0.1 -0.1)">
       <use xlink:href="#DejaVuSans-41"/>
       <use x="68.408203" xlink:href="#DejaVuSans-36"/>
       <use x="132.03125" xlink:href="#DejaVuSans-31"/>
      </g>
     </g>
    </g>
    <g id="xtick_6">
     <g id="line2d_6">
      <g>
       <use style="stroke:#000000;stroke-width:0.8;" x="125.708034" xlink:href="#m7189143e28" y="287.71"/>
      </g>
     </g>
     <g id="text_6">
      <!-- A76 -->
      <defs>
       <path d="M 8.203125 72.90625 
L 55.078125 72.90625 
L 55.078125 68.703125 
L 28.609375 0 
L 18.3125 0 
L 43.21875 64.59375 
L 8.203125 64.59375 
z
" id="DejaVuSans-37"/>
      </defs>
      <g transform="translate(128.467409 314.275625)rotate(-90)scale(0.1 -0.1)">
       <use xlink:href="#DejaVuSans-41"/>
       <use x="68.408203" xlink:href="#DejaVuSans-37"/>
       <use x="132.03125" xlink:href="#DejaVuSans-36"/>
      </g>
     </g>
    </g>
    <g id="xtick_7">
     <g id="line2d_7">
      <g>
       <use style="stroke:#000000;stroke-width:0.8;" x="143.195641" xlink:href="#m7189143e28" y="287.71"/>
      </g>
     </g>
     <g id="text_7">
      <!-- A91 -->
      <defs>
       <path d="M 10.984375 1.515625 
L 10.984375 10.5 
Q 14.703125 8.734375 18.5 7.8125 
Q 22.3125 6.890625 25.984375 6.890625 
Q 35.75 6.890625 40.890625 13.453125 
Q 46.046875 20.015625 46.78125 33.40625 
Q 43.953125 29.203125 39.59375 26.953125 
Q 35.25 24.703125 29.984375 24.703125 
Q 19.046875 24.703125 12.671875 31.3125 
Q 6.296875 37.9375 6.296875 49.421875 
Q 6.296875 60.640625 12.9375 67.421875 
Q 19.578125 74.21875 30.609375 74.21875 
Q 43.265625 74.21875 49.921875 64.515625 
Q 56.59375 54.828125 56.59375 36.375 
Q 56.59375 19.140625 48.40625 8.859375 
Q 40.234375 -1.421875 26.421875 -1.421875 
Q 22.703125 -1.421875 18.890625 -0.6875 
Q 15.09375 0.046875 10.984375 1.515625 
z
M 30.609375 32.421875 
Q 37.25 32.421875 41.125 36.953125 
Q 45.015625 41.5 45.015625 49.421875 
Q 45.015625 57.28125 41.125 61.84375 
Q 37.25 66.40625 30.609375 66.40625 
Q 23.96875 66.40625 20.09375 61.84375 
Q 16.21875 57.28125 16.21875 49.421875 
Q 16.21875 41.5 20.09375 36.953125 
Q 23.96875 32.421875 30.609375 32.421875 
z
" id="DejaVuSans-39"/>
      </defs>
      <g transform="translate(145.955016 314.275625)rotate(-90)scale(0.1 -0.1)">
       <use xlink:href="#DejaVuSans-41"/>
       <use x="68.408203" xlink:href="#DejaVuSans-39"/>
       <use x="132.03125" xlink:href="#DejaVuSans-31"/>
      </g>
     </g>
    </g>
    <g id="xtick_8">
     <g id="line2d_8">
      <g>
       <use style="stroke:#000000;stroke-width:0.8;" x="160.683248" xlink:href="#m7189143e28" y="287.71"/>
      </g>
     </g>
     <g id="text_8">
      <!-- A106 -->
      <defs>
       <path d="M 31.78125 66.40625 
Q 24.171875 66.40625 20.328125 58.90625 
Q 16.5 51.421875 16.5 36.375 
Q 16.5 21.390625 20.328125 13.890625 
Q 24.171875 6.390625 31.78125 6.390625 
Q 39.453125 6.390625 43.28125 13.890625 
Q 47.125 21.390625 47.125 36.375 
Q 47.125 51.421875 43.28125 58.90625 
Q 39.453125 66.40625 31.78125 66.40625 
z
M 31.78125 74.21875 
Q 44.046875 74.21875 50.515625 64.515625 
Q 56.984375 54.828125 56.984375 36.375 
Q 56.984375 17.96875 50.515625 8.265625 
Q 44.046875 -1.421875 31.78125 -1.421875 
Q 19.53125 -1.421875 13.0625 8.265625 
Q 6.59375 17.96875 6.59375 36.375 
Q 6.59375 54.828125 13.0625 64.515625 
Q 19.53125 74.21875 31.78125 74.21875 
z
" id="DejaVuSans-30"/>
      </defs>
      <g transform="translate(163.442623 320.638125)rotate(-90)scale(0.1 -0.1)">
       <use xlink:href="#DejaVuSans-41"/>
       <use x="68.408203" xlink:href="#DejaVuSans-31"/>
       <use x="132.03125" xlink:href="#DejaVuSans-30"/>
       <use x="195.654297" xlink:href="#DejaVuSans-36"/>
      </g>
     </g>
    </g>
    <g id="xtick_9">
     <g id="line2d_9">
      <g>
       <use style="stroke:#000000;stroke-width:0.8;" x="178.170855" xlink:href="#m7189143e28" y="287.71"/>
      </g>
     </g>
     <g id="text_9">
      <!-- A121 -->
      <defs>
       <path d="M 19.1875 8.296875 
L 53.609375 8.296875 
L 53.609375 0 
L 7.328125 0 
L 7.328125 8.296875 
Q 12.9375 14.109375 22.625 23.890625 
Q 32.328125 33.6875 34.8125 36.53125 
Q 39.546875 41.84375 41.421875 45.53125 
Q 43.3125 49.21875 43.3125 52.78125 
Q 43.3125 58.59375 39.234375 62.25 
Q 35.15625 65.921875 28.609375 65.921875 
Q 23.96875 65.921875 18.8125 64.3125 
Q 13.671875 62.703125 7.8125 59.421875 
L 7.8125 69.390625 
Q 13.765625 71.78125 18.9375 73 
Q 24.125 74.21875 28.421875 74.21875 
Q 39.75 74.21875 46.484375 68.546875 
Q 53.21875 62.890625 53.21875 53.421875 
Q 53.21875 48.921875 51.53125 44.890625 
Q 49.859375 40.875 45.40625 35.40625 
Q 44.1875 33.984375 37.640625 27.21875 
Q 31.109375 20.453125 19.1875 8.296875 
z
" id="DejaVuSans-32"/>
      </defs>
      <g transform="translate(180.93023 320.638125)rotate(-90)scale(0.1 -0.1)">
       <use xlink:href="#DejaVuSans-41"/>
       <use x="68.408203" xlink:href="#DejaVuSans-31"/>
       <use x="132.03125" xlink:href="#DejaVuSans-32"/>
       <use x="195.654297" xlink:href="#DejaVuSans-31"/>
      </g>
     </g>
    </g>
    <g id="xtick_10">
     <g id="line2d_10">
      <g>
       <use style="stroke:#000000;stroke-width:0.8;" x="195.658462" xlink:href="#m7189143e28" y="287.71"/>
      </g>
     </g>
     <g id="text_10">
      <!-- A136 -->
      <g transform="translate(198.417837 320.638125)rotate(-90)scale(0.1 -0.1)">
       <use xlink:href="#DejaVuSans-41"/>
       <use x="68.408203" xlink:href="#DejaVuSans-31"/>
       <use x="132.03125" xlink:href="#DejaVuSans-33"/>
       <use x="195.654297" xlink:href="#DejaVuSans-36"/>
      </g>
     </g>
    </g>
    <g id="xtick_11">
     <g id="line2d_11">
      <g>
       <use style="stroke:#000000;stroke-width:0.8;" x="213.146068" xlink:href="#m7189143e28" y="287.71"/>
      </g>
     </g>
     <g id="text_11">
      <!-- A151 -->
      <defs>
       <path d="M 10.796875 72.90625 
L 49.515625 72.90625 
L 49.515625 64.59375 
L 19.828125 64.59375 
L 19.828125 46.734375 
Q 21.96875 47.46875 24.109375 47.828125 
Q 26.265625 48.1875 28.421875 48.1875 
Q 40.625 48.1875 47.75 41.5 
Q 54.890625 34.8125 54.890625 23.390625 
Q 54.890625 11.625 47.5625 5.09375 
Q 40.234375 -1.421875 26.90625 -1.421875 
Q 22.3125 -1.421875 17.546875 -0.640625 
Q 12.796875 0.140625 7.71875 1.703125 
L 7.71875 11.625 
Q 12.109375 9.234375 16.796875 8.0625 
Q 21.484375 6.890625 26.703125 6.890625 
Q 35.15625 6.890625 40.078125 11.328125 
Q 45.015625 15.765625 45.015625 23.390625 
Q 45.015625 31 40.078125 35.4375 
Q 35.15625 39.890625 26.703125 39.890625 
Q 22.75 39.890625 18.8125 39.015625 
Q 14.890625 38.140625 10.796875 36.28125 
z
" id="DejaVuSans-35"/>
      </defs>
      <g transform="translate(215.905443 320.638125)rotate(-90)scale(0.1 -0.1)">
       <use xlink:href="#DejaVuSans-41"/>
       <use x="68.408203" xlink:href="#DejaVuSans-31"/>
       <use x="132.03125" xlink:href="#DejaVuSans-35"/>
       <use x="195.654297" xlink:href="#DejaVuSans-31"/>
      </g>
     </g>
    </g>
    <g id="xtick_12">
     <g id="line2d_12">
      <g>
       <use style="stroke:#000000;stroke-width:0.8;" x="230.633675" xlink:href="#m7189143e28" y="287.71"/>
      </g>
     </g>
     <g id="text_12">
      <!-- A166 -->
      <g transform="translate(233.39305 320.638125)rotate(-90)scale(0.1 -0.1)">
       <use xlink:href="#DejaVuSans-41"/>
       <use x="68.408203" xlink:href="#DejaVuSans-31"/>
       <use x="132.03125" xlink:href="#DejaVuSans-36"/>
       <use x="195.654297" xlink:href="#DejaVuSans-36"/>
      </g>
     </g>
    </g>
    <g id="xtick_13">
     <g id="line2d_13">
      <g>
       <use style="stroke:#000000;stroke-width:0.8;" x="248.121282" xlink:href="#m7189143e28" y="287.71"/>
      </g>
     </g>
     <g id="text_13">
      <!-- A181 -->
      <defs>
       <path d="M 31.78125 34.625 
Q 24.75 34.625 20.71875 30.859375 
Q 16.703125 27.09375 16.703125 20.515625 
Q 16.703125 13.921875 20.71875 10.15625 
Q 24.75 6.390625 31.78125 6.390625 
Q 38.8125 6.390625 42.859375 10.171875 
Q 46.921875 13.96875 46.921875 20.515625 
Q 46.921875 27.09375 42.890625 30.859375 
Q 38.875 34.625 31.78125 34.625 
z
M 21.921875 38.8125 
Q 15.578125 40.375 12.03125 44.71875 
Q 8.5 49.078125 8.5 55.328125 
Q 8.5 64.0625 14.71875 69.140625 
Q 20.953125 74.21875 31.78125 74.21875 
Q 42.671875 74.21875 48.875 69.140625 
Q 55.078125 64.0625 55.078125 55.328125 
Q 55.078125 49.078125 51.53125 44.71875 
Q 48 40.375 41.703125 38.8125 
Q 48.828125 37.15625 52.796875 32.3125 
Q 56.78125 27.484375 56.78125 20.515625 
Q 56.78125 9.90625 50.3125 4.234375 
Q 43.84375 -1.421875 31.78125 -1.421875 
Q 19.734375 -1.421875 13.25 4.234375 
Q 6.78125 9.90625 6.78125 20.515625 
Q 6.78125 27.484375 10.78125 32.3125 
Q 14.796875 37.15625 21.921875 38.8125 
z
M 18.3125 54.390625 
Q 18.3125 48.734375 21.84375 45.5625 
Q 25.390625 42.390625 31.78125 42.390625 
Q 38.140625 42.390625 41.71875 45.5625 
Q 45.3125 48.734375 45.3125 54.390625 
Q 45.3125 60.0625 41.71875 63.234375 
Q 38.140625 66.40625 31.78125 66.40625 
Q 25.390625 66.40625 21.84375 63.234375 
Q 18.3125 60.0625 18.3125 54.390625 
z
" id="DejaVuSans-38"/>
      </defs>
      <g transform="translate(250.880657 320.638125)rotate(-90)scale(0.1 -0.1)">
       <use xlink:href="#DejaVuSans-41"/>
       <use x="68.408203" xlink:href="#DejaVuSans-31"/>
       <use x="132.03125" xlink:href="#DejaVuSans-38"/>
       <use x="195.654297" xlink:href="#DejaVuSans-31"/>
      </g>
     </g>
    </g>
    <g id="xtick_14">
     <g id="line2d_14">
      <g>
       <use style="stroke:#000000;stroke-width:0.8;" x="265.608889" xlink:href="#m7189143e28" y="287.71"/>
      </g>
     </g>
     <g id="text_14">
      <!-- A196 -->
      <g transform="translate(268.368264 320.638125)rotate(-90)scale(0.1 -0.1)">
       <use xlink:href="#DejaVuSans-41"/>
       <use x="68.408203" xlink:href="#DejaVuSans-31"/>
       <use x="132.03125" xlink:href="#DejaVuSans-39"/>
       <use x="195.654297" xlink:href="#DejaVuSans-36"/>
      </g>
     </g>
    </g>
    <g id="xtick_15">
     <g id="line2d_15">
      <g>
       <use style="stroke:#000000;stroke-width:0.8;" x="283.096496" xlink:href="#m7189143e28" y="287.71"/>
      </g>
     </g>
     <g id="text_15">
      <!-- A211 -->
      <g transform="translate(285.855871 320.638125)rotate(-90)scale(0.1 -0.1)">
       <use xlink:href="#DejaVuSans-41"/>
       <use x="68.408203" xlink:href="#DejaVuSans-32"/>
       <use x="132.03125" xlink:href="#DejaVuSans-31"/>
       <use x="195.654297" xlink:href="#DejaVuSans-31"/>
      </g>
     </g>
    </g>
    <g id="xtick_16">
     <g id="line2d_16">
      <g>
       <use style="stroke:#000000;stroke-width:0.8;" x="300.584103" xlink:href="#m7189143e28" y="287.71"/>
      </g>
     </g>
     <g id="text_16">
      <!-- A226 -->
      <g transform="translate(303.343478 320.638125)rotate(-90)scale(0.1 -0.1)">
       <use xlink:href="#DejaVuSans-41"/>
       <use x="68.408203" xlink:href="#DejaVuSans-32"/>
       <use x="132.03125" xlink:href="#DejaVuSans-32"/>
       <use x="195.654297" xlink:href="#DejaVuSans-36"/>
      </g>
     </g>
    </g>
    <g id="xtick_17">
     <g id="line2d_17">
      <g>
       <use style="stroke:#000000;stroke-width:0.8;" x="318.071709" xlink:href="#m7189143e28" y="287.71"/>
      </g>
     </g>
     <g id="text_17">
      <!-- A241 -->
      <g transform="translate(320.831084 320.638125)rotate(-90)scale(0.1 -0.1)">
       <use xlink:href="#DejaVuSans-41"/>
       <use x="68.408203" xlink:href="#DejaVuSans-32"/>
       <use x="132.03125" xlink:href="#DejaVuSans-34"/>
       <use x="195.654297" xlink:href="#DejaVuSans-31"/>
      </g>
     </g>
    </g>
    <g id="xtick_18">
     <g id="line2d_18">
      <g>
       <use style="stroke:#000000;stroke-width:0.8;" x="335.559316" xlink:href="#m7189143e28" y="287.71"/>
      </g>
     </g>
     <g id="text_18">
      <!-- A256 -->
      <g transform="translate(338.318691 320.638125)rotate(-90)scale(0.1 -0.1)">
       <use xlink:href="#DejaVuSans-41"/>
       <use x="68.408203" xlink:href="#DejaVuSans-32"/>
       <use x="132.03125" xlink:href="#DejaVuSans-35"/>
       <use x="195.654297" xlink:href="#DejaVuSans-36"/>
      </g>
     </g>
    </g>
    <g id="xtick_19">
     <g id="line2d_19">
      <g>
       <use style="stroke:#000000;stroke-width:0.8;" x="353.046923" xlink:href="#m7189143e28" y="287.71"/>
      </g>
     </g>
     <g id="text_19">
      <!-- A271 -->
      <g transform="translate(355.806298 320.638125)rotate(-90)scale(0.1 -0.1)">
       <use xlink:href="#DejaVuSans-41"/>
       <use x="68.408203" xlink:href="#DejaVuSans-32"/>
       <use x="132.03125" xlink:href="#DejaVuSans-37"/>
       <use x="195.654297" xlink:href="#DejaVuSans-31"/>
      </g>
     </g>
    </g>
    <g id="xtick_20">
     <g id="line2d_20">
      <g>
       <use style="stroke:#000000;stroke-width:0.8;" x="370.53453" xlink:href="#m7189143e28" y="287.71"/>
      </g>
     </g>
     <g id="text_20">
      <!-- A286 -->
      <g transform="translate(373.293905 320.638125)rotate(-90)scale(0.1 -0.1)">
       <use xlink:href="#DejaVuSans-41"/>
       <use x="68.408203" xlink:href="#DejaVuSans-32"/>
       <use x="132.03125" xlink:href="#DejaVuSans-38"/>
       <use x="195.654297" xlink:href="#DejaVuSans-36"/>
      </g>
     </g>
    </g>
    <g id="xtick_21">
     <g id="line2d_21">
      <g>
       <use style="stroke:#000000;stroke-width:0.8;" x="388.022137" xlink:href="#m7189143e28" y="287.71"/>
      </g>
     </g>
     <g id="text_21">
      <!-- A301 -->
      <g transform="translate(390.781512 320.638125)rotate(-90)scale(0.1 -0.1)">
       <use xlink:href="#DejaVuSans-41"/>
       <use x="68.408203" xlink:href="#DejaVuSans-33"/>
       <use x="132.03125" xlink:href="#DejaVuSans-30"/>
       <use x="195.654297" xlink:href="#DejaVuSans-31"/>
      </g>
     </g>
    </g>
    <g id="xtick_22">
     <g id="line2d_22">
      <g>
       <use style="stroke:#000000;stroke-width:0.8;" x="405.509744" xlink:href="#m7189143e28" y="287.71"/>
      </g>
     </g>
     <g id="text_22">
      <!-- A316 -->
      <g transform="translate(408.269119 320.638125)rotate(-90)scale(0.1 -0.1)">
       <use xlink:href="#DejaVuSans-41"/>
       <use x="68.408203" xlink:href="#DejaVuSans-33"/>
       <use x="132.03125" xlink:href="#DejaVuSans-31"/>
       <use x="195.654297" xlink:href="#DejaVuSans-36"/>
      </g>
     </g>
    </g>
    <g id="xtick_23">
     <g id="line2d_23">
      <g>
       <use style="stroke:#000000;stroke-width:0.8;" x="422.99735" xlink:href="#m7189143e28" y="287.71"/>
      </g>
     </g>
     <g id="text_23">
      <!-- A331 -->
      <g transform="translate(425.756725 320.638125)rotate(-90)scale(0.1 -0.1)">
       <use xlink:href="#DejaVuSans-41"/>
       <use x="68.408203" xlink:href="#DejaVuSans-33"/>
       <use x="132.03125" xlink:href="#DejaVuSans-33"/>
       <use x="195.654297" xlink:href="#DejaVuSans-31"/>
      </g>
     </g>
    </g>
    <g id="xtick_24">
     <g id="line2d_24">
      <g>
       <use style="stroke:#000000;stroke-width:0.8;" x="440.484957" xlink:href="#m7189143e28" y="287.71"/>
      </g>
     </g>
     <g id="text_24">
      <!-- A346 -->
      <g transform="translate(443.244332 320.638125)rotate(-90)scale(0.1 -0.1)">
       <use xlink:href="#DejaVuSans-41"/>
       <use x="68.408203" xlink:href="#DejaVuSans-33"/>
       <use x="132.03125" xlink:href="#DejaVuSans-34"/>
       <use x="195.654297" xlink:href="#DejaVuSans-36"/>
      </g>
     </g>
    </g>
    <g id="text_25">
     <!-- Residue index -->
     <defs>
      <path d="M 44.390625 34.1875 
Q 47.5625 33.109375 50.5625 29.59375 
Q 53.5625 26.078125 56.59375 19.921875 
L 66.609375 0 
L 56 0 
L 46.6875 18.703125 
Q 43.0625 26.03125 39.671875 28.421875 
Q 36.28125 30.8125 30.421875 30.8125 
L 19.671875 30.8125 
L 19.671875 0 
L 9.8125 0 
L 9.8125 72.90625 
L 32.078125 72.90625 
Q 44.578125 72.90625 50.734375 67.671875 
Q 56.890625 62.453125 56.890625 51.90625 
Q 56.890625 45.015625 53.6875 40.46875 
Q 50.484375 35.9375 44.390625 34.1875 
z
M 19.671875 64.796875 
L 19.671875 38.921875 
L 32.078125 38.921875 
Q 39.203125 38.921875 42.84375 42.21875 
Q 46.484375 45.515625 46.484375 51.90625 
Q 46.484375 58.296875 42.84375 61.546875 
Q 39.203125 64.796875 32.078125 64.796875 
z
" id="DejaVuSans-52"/>
      <path d="M 56.203125 29.59375 
L 56.203125 25.203125 
L 14.890625 25.203125 
Q 15.484375 15.921875 20.484375 11.0625 
Q 25.484375 6.203125 34.421875 6.203125 
Q 39.59375 6.203125 44.453125 7.46875 
Q 49.3125 8.734375 54.109375 11.28125 
L 54.109375 2.78125 
Q 49.265625 0.734375 44.1875 -0.34375 
Q 39.109375 -1.421875 33.890625 -1.421875 
Q 20.796875 -1.421875 13.15625 6.1875 
Q 5.515625 13.8125 5.515625 26.8125 
Q 5.515625 40.234375 12.765625 48.109375 
Q 20.015625 56 32.328125 56 
Q 43.359375 56 49.78125 48.890625 
Q 56.203125 41.796875 56.203125 29.59375 
z
M 47.21875 32.234375 
Q 47.125 39.59375 43.09375 43.984375 
Q 39.0625 48.390625 32.421875 48.390625 
Q 24.90625 48.390625 20.390625 44.140625 
Q 15.875 39.890625 15.1875 32.171875 
z
" id="DejaVuSans-65"/>
      <path d="M 44.28125 53.078125 
L 44.28125 44.578125 
Q 40.484375 46.53125 36.375 47.5 
Q 32.28125 48.484375 27.875 48.484375 
Q 21.1875 48.484375 17.84375 46.4375 
Q 14.5 44.390625 14.5 40.28125 
Q 14.5 37.15625 16.890625 35.375 
Q 19.28125 33.59375 26.515625 31.984375 
L 29.59375 31.296875 
Q 39.15625 29.25 43.1875 25.515625 
Q 47.21875 21.78125 47.21875 15.09375 
Q 47.21875 7.46875 41.1875 3.015625 
Q 35.15625 -1.421875 24.609375 -1.421875 
Q 20.21875 -1.421875 15.453125 -0.5625 
Q 10.6875 0.296875 5.421875 2 
L 5.421875 11.28125 
Q 10.40625 8.6875 15.234375 7.390625 
Q 20.0625 6.109375 24.8125 6.109375 
Q 31.15625 6.109375 34.5625 8.28125 
Q 37.984375 10.453125 37.984375 14.40625 
Q 37.984375 18.0625 35.515625 20.015625 
Q 33.0625 21.96875 24.703125 23.78125 
L 21.578125 24.515625 
Q 13.234375 26.265625 9.515625 29.90625 
Q 5.8125 33.546875 5.8125 39.890625 
Q 5.8125 47.609375 11.28125 51.796875 
Q 16.75 56 26.8125 56 
Q 31.78125 56 36.171875 55.265625 
Q 40.578125 54.546875 44.28125 53.078125 
z
" id="DejaVuSans-73"/>
      <path d="M 9.421875 54.6875 
L 18.40625 54.6875 
L 18.40625 0 
L 9.421875 0 
z
M 9.421875 75.984375 
L 18.40625 75.984375 
L 18.40625 64.59375 
L 9.421875 64.59375 
z
" id="DejaVuSans-69"/>
      <path d="M 45.40625 46.390625 
L 45.40625 75.984375 
L 54.390625 75.984375 
L 54.390625 0 
L 45.40625 0 
L 45.40625 8.203125 
Q 42.578125 3.328125 38.25 0.953125 
Q 33.9375 -1.421875 27.875 -1.421875 
Q 17.96875 -1.421875 11.734375 6.484375 
Q 5.515625 14.40625 5.515625 27.296875 
Q 5.515625 40.1875 11.734375 48.09375 
Q 17.96875 56 27.875 56 
Q 33.9375 56 38.25 53.625 
Q 42.578125 51.265625 45.40625 46.390625 
z
M 14.796875 27.296875 
Q 14.796875 17.390625 18.875 11.75 
Q 22.953125 6.109375 30.078125 6.109375 
Q 37.203125 6.109375 41.296875 11.75 
Q 45.40625 17.390625 45.40625 27.296875 
Q 45.40625 37.203125 41.296875 42.84375 
Q 37.203125 48.484375 30.078125 48.484375 
Q 22.953125 48.484375 18.875 42.84375 
Q 14.796875 37.203125 14.796875 27.296875 
z
" id="DejaVuSans-64"/>
      <path d="M 8.5 21.578125 
L 8.5 54.6875 
L 17.484375 54.6875 
L 17.484375 21.921875 
Q 17.484375 14.15625 20.5 10.265625 
Q 23.53125 6.390625 29.59375 6.390625 
Q 36.859375 6.390625 41.078125 11.03125 
Q 45.3125 15.671875 45.3125 23.6875 
L 45.3125 54.6875 
L 54.296875 54.6875 
L 54.296875 0 
L 45.3125 0 
L 45.3125 8.40625 
Q 42.046875 3.421875 37.71875 1 
Q 33.40625 -1.421875 27.6875 -1.421875 
Q 18.265625 -1.421875 13.375 4.4375 
Q 8.5 10.296875 8.5 21.578125 
z
M 31.109375 56 
z
" id="DejaVuSans-75"/>
      <path id="DejaVuSans-20"/>
      <path d="M 54.890625 33.015625 
L 54.890625 0 
L 45.90625 0 
L 45.90625 32.71875 
Q 45.90625 40.484375 42.875 44.328125 
Q 39.84375 48.1875 33.796875 48.1875 
Q 26.515625 48.1875 22.3125 43.546875 
Q 18.109375 38.921875 18.109375 30.90625 
L 18.109375 0 
L 9.078125 0 
L 9.078125 54.6875 
L 18.109375 54.6875 
L 18.109375 46.1875 
Q 21.34375 51.125 25.703125 53.5625 
Q 30.078125 56 35.796875 56 
Q 45.21875 56 50.046875 50.171875 
Q 54.890625 44.34375 54.890625 33.015625 
z
" id="DejaVuSans-6e"/>
      <path d="M 54.890625 54.6875 
L 35.109375 28.078125 
L 55.90625 0 
L 45.3125 0 
L 29.390625 21.484375 
L 13.484375 0 
L 2.875 0 
L 24.125 28.609375 
L 4.6875 54.6875 
L 15.28125 54.6875 
L 29.78125 35.203125 
L 44.28125 54.6875 
z
" id="DejaVuSans-78"/>
     </defs>
     <g transform="translate(207.557813 332.236562)scale(0.1 -0.1)">
      <use xlink:href="#DejaVuSans-52"/>
      <use x="69.419922" xlink:href="#DejaVuSans-65"/>
      <use x="130.943359" xlink:href="#DejaVuSans-73"/>
      <use x="183.042969" xlink:href="#DejaVuSans-69"/>
      <use x="210.826172" xlink:href="#DejaVuSans-64"/>
      <use x="274.302734" xlink:href="#DejaVuSans-75"/>
      <use x="337.681641" xlink:href="#DejaVuSans-65"/>
      <use x="399.205078" xlink:href="#DejaVuSans-20"/>
      <use x="430.992188" xlink:href="#DejaVuSans-69"/>
      <use x="458.775391" xlink:href="#DejaVuSans-6e"/>
      <use x="522.154297" xlink:href="#DejaVuSans-64"/>
      <use x="585.630859" xlink:href="#DejaVuSans-65"/>
      <use x="647.138672" xlink:href="#DejaVuSans-78"/>
     </g>
    </g>
   </g>
   <g id="matplotlib.axis_2">
    <g id="ytick_1">
     <g id="line2d_25">
      <defs>
       <path d="M 0 0 
L -3.5 0 
" id="m319cf46170" style="stroke:#000000;stroke-width:0.8;"/>
      </defs>
      <g>
       <use style="stroke:#000000;stroke-width:0.8;" x="38.27" xlink:href="#m319cf46170" y="281.750121"/>
      </g>
     </g>
     <g id="text_26">
      <!-- 0 -->
      <g transform="translate(24.9075 285.54934)scale(0.1 -0.1)">
       <use xlink:href="#DejaVuSans-30"/>
      </g>
     </g>
    </g>
    <g id="ytick_2">
     <g id="line2d_26">
      <g>
       <use style="stroke:#000000;stroke-width:0.8;" x="38.27" xlink:href="#m319cf46170" y="246.036384"/>
      </g>
     </g>
     <g id="text_27">
      <!-- 1 -->
      <g transform="translate(24.9075 249.835602)scale(0.1 -0.1)">
       <use xlink:href="#DejaVuSans-31"/>
      </g>
     </g>
    </g>
    <g id="ytick_3">
     <g id="line2d_27">
      <g>
       <use style="stroke:#000000;stroke-width:0.8;" x="38.27" xlink:href="#m319cf46170" y="210.322646"/>
      </g>
     </g>
     <g id="text_28">
      <!-- 2 -->
      <g transform="translate(24.9075 214.121865)scale(0.1 -0.1)">
       <use xlink:href="#DejaVuSans-32"/>
      </g>
     </g>
    </g>
    <g id="ytick_4">
     <g id="line2d_28">
      <g>
       <use style="stroke:#000000;stroke-width:0.8;" x="38.27" xlink:href="#m319cf46170" y="174.608909"/>
      </g>
     </g>
     <g id="text_29">
      <!-- 3 -->
      <g transform="translate(24.9075 178.408128)scale(0.1 -0.1)">
       <use xlink:href="#DejaVuSans-33"/>
      </g>
     </g>
    </g>
    <g id="ytick_5">
     <g id="line2d_29">
      <g>
       <use style="stroke:#000000;stroke-width:0.8;" x="38.27" xlink:href="#m319cf46170" y="138.895172"/>
      </g>
     </g>
     <g id="text_30">
      <!-- 4 -->
      <g transform="translate(24.9075 142.69439)scale(0.1 -0.1)">
       <use xlink:href="#DejaVuSans-34"/>
      </g>
     </g>
    </g>
    <g id="ytick_6">
     <g id="line2d_30">
      <g>
       <use style="stroke:#000000;stroke-width:0.8;" x="38.27" xlink:href="#m319cf46170" y="103.181434"/>
      </g>
     </g>
     <g id="text_31">
      <!-- 5 -->
      <g transform="translate(24.9075 106.980653)scale(0.1 -0.1)">
       <use xlink:href="#DejaVuSans-35"/>
      </g>
     </g>
    </g>
    <g id="ytick_7">
     <g id="line2d_31">
      <g>
       <use style="stroke:#000000;stroke-width:0.8;" x="38.27" xlink:href="#m319cf46170" y="67.467697"/>
      </g>
     </g>
     <g id="text_32">
      <!-- 6 -->
      <g transform="translate(24.9075 71.266916)scale(0.1 -0.1)">
       <use xlink:href="#DejaVuSans-36"/>
      </g>
     </g>
    </g>
    <g id="ytick_8">
     <g id="line2d_32">
      <g>
       <use style="stroke:#000000;stroke-width:0.8;" x="38.27" xlink:href="#m319cf46170" y="31.75396"/>
      </g>
     </g>
     <g id="text_33">
      <!-- 7 -->
      <g transform="translate(24.9075 35.553178)scale(0.1 -0.1)">
       <use xlink:href="#DejaVuSans-37"/>
      </g>
     </g>
    </g>
    <g id="text_34">
     <!-- RMSF -->
     <defs>
      <path d="M 9.8125 72.90625 
L 24.515625 72.90625 
L 43.109375 23.296875 
L 61.8125 72.90625 
L 76.515625 72.90625 
L 76.515625 0 
L 66.890625 0 
L 66.890625 64.015625 
L 48.09375 14.015625 
L 38.1875 14.015625 
L 19.390625 64.015625 
L 19.390625 0 
L 9.8125 0 
z
" id="DejaVuSans-4d"/>
      <path d="M 53.515625 70.515625 
L 53.515625 60.890625 
Q 47.90625 63.578125 42.921875 64.890625 
Q 37.9375 66.21875 33.296875 66.21875 
Q 25.25 66.21875 20.875 63.09375 
Q 16.5 59.96875 16.5 54.203125 
Q 16.5 49.359375 19.40625 46.890625 
Q 22.3125 44.4375 30.421875 42.921875 
L 36.375 41.703125 
Q 47.40625 39.59375 52.65625 34.296875 
Q 57.90625 29 57.90625 20.125 
Q 57.90625 9.515625 50.796875 4.046875 
Q 43.703125 -1.421875 29.984375 -1.421875 
Q 24.8125 -1.421875 18.96875 -0.25 
Q 13.140625 0.921875 6.890625 3.21875 
L 6.890625 13.375 
Q 12.890625 10.015625 18.65625 8.296875 
Q 24.421875 6.59375 29.984375 6.59375 
Q 38.421875 6.59375 43.015625 9.90625 
Q 47.609375 13.234375 47.609375 19.390625 
Q 47.609375 24.75 44.3125 27.78125 
Q 41.015625 30.8125 33.5 32.328125 
L 27.484375 33.5 
Q 16.453125 35.6875 11.515625 40.375 
Q 6.59375 45.0625 6.59375 53.421875 
Q 6.59375 63.09375 13.40625 68.65625 
Q 20.21875 74.21875 32.171875 74.21875 
Q 37.3125 74.21875 42.625 73.28125 
Q 47.953125 72.359375 53.515625 70.515625 
z
" id="DejaVuSans-53"/>
      <path d="M 9.8125 72.90625 
L 51.703125 72.90625 
L 51.703125 64.59375 
L 19.671875 64.59375 
L 19.671875 43.109375 
L 48.578125 43.109375 
L 48.578125 34.8125 
L 19.671875 34.8125 
L 19.671875 0 
L 9.8125 0 
z
" id="DejaVuSans-46"/>
     </defs>
     <g transform="translate(18.827813 164.353281)rotate(-90)scale(0.1 -0.1)">
      <use xlink:href="#DejaVuSans-52"/>
      <use x="69.482422" xlink:href="#DejaVuSans-4d"/>
      <use x="155.761719" xlink:href="#DejaVuSans-53"/>
      <use x="219.238281" xlink:href="#DejaVuSans-46"/>
     </g>
    </g>
   </g>
   <g id="line2d_33">
    <path clip-path="url(#pb6a605a1cf)" d="M 38.27 236.787694 
L 39.43584 237.029452 
L 40.601681 246.882394 
L 41.767521 242.18638 
L 42.933362 242.974617 
L 44.099202 249.927302 
L 45.265043 244.277087 
L 46.430883 236.630754 
L 47.596724 235.365729 
L 48.762564 234.805691 
L 49.928405 199.839316 
L 51.094245 205.839537 
L 53.425926 243.644808 
L 54.591766 247.385055 
L 55.757607 252.892274 
L 56.923447 250.466006 
L 58.089288 244.13754 
L 59.255128 235.702236 
L 60.420969 225.957643 
L 61.586809 246.112384 
L 62.75265 251.961265 
L 63.91849 260.790362 
L 65.08433 259.916818 
L 66.250171 261.019356 
L 67.416011 267.860823 
L 68.581852 264.181129 
L 69.747692 262.841794 
L 70.913533 239.055171 
L 72.079373 212.948008 
L 73.245214 245.842103 
L 75.576895 266.707734 
L 76.742735 271.902859 
L 77.908575 270.085102 
L 79.074416 262.860197 
L 80.240256 234.312514 
L 81.406097 263.473447 
L 82.571937 265.776651 
L 83.737778 228.251739 
L 84.903618 209.404998 
L 86.069459 202.270179 
L 87.235299 240.83127 
L 88.40114 251.659634 
L 89.56698 223.384098 
L 90.732821 234.024371 
L 91.898661 249.985466 
L 93.064501 252.601778 
L 94.230342 260.445155 
L 95.396182 261.844591 
L 96.562023 253.48789 
L 97.727863 264.665455 
L 98.893704 269.335499 
L 100.059544 261.676935 
L 101.225385 265.275373 
L 102.391225 261.218974 
L 103.557066 265.128371 
L 105.888746 255.337804 
L 107.054587 255.445902 
L 108.220427 248.170478 
L 109.386268 169.957381 
L 110.552108 219.096723 
L 111.717949 226.743026 
L 112.883789 239.715434 
L 114.04963 263.395501 
L 115.21547 264.376008 
L 116.381311 262.445226 
L 117.547151 270.493848 
L 118.712991 261.770694 
L 119.878832 257.189654 
L 121.044672 222.857402 
L 122.210513 177.484775 
L 123.376353 188.649123 
L 124.542194 221.423804 
L 125.708034 212.950293 
L 126.873875 203.482627 
L 128.039715 222.705592 
L 129.205556 220.750278 
L 130.371396 226.857711 
L 131.537236 234.08604 
L 132.703077 227.682128 
L 133.868917 240.256131 
L 135.034758 247.878933 
L 136.200598 250.338985 
L 137.366439 245.143653 
L 138.532279 252.847179 
L 139.69812 257.434991 
L 140.86396 253.74642 
L 142.029801 253.701548 
L 143.195641 240.128914 
L 144.361481 191.600064 
L 146.693162 221.301944 
L 147.859003 208.030077 
L 149.024843 187.535248 
L 150.190684 244.843994 
L 151.356524 263.044584 
L 152.522365 247.273788 
L 153.688205 264.422969 
L 154.854046 267.857768 
L 156.019886 267.979683 
L 157.185726 264.953934 
L 158.351567 260.317613 
L 159.517407 266.277482 
L 160.683248 269.394754 
L 161.849088 265.980418 
L 163.014929 270.402156 
L 164.180769 268.04068 
L 165.34661 259.645208 
L 166.51245 265.719414 
L 167.678291 261.223548 
L 168.844131 249.2013 
L 170.009972 244.432715 
L 171.175812 222.874059 
L 172.341652 208.361762 
L 173.507493 226.3686 
L 174.673333 235.950774 
L 175.839174 253.769656 
L 177.005014 258.954954 
L 178.170855 269.892139 
L 179.336695 272.866318 
L 180.502536 274.197922 
L 181.668376 256.251975 
L 184.000057 163.820454 
L 185.165897 201.57761 
L 186.331738 232.23385 
L 187.497578 252.70832 
L 188.663419 266.583317 
L 189.829259 270.644403 
L 190.9951 270.107855 
L 192.16094 268.400933 
L 193.326781 270.824971 
L 194.492621 274.218295 
L 195.658462 267.598202 
L 196.824302 268.378949 
L 197.990142 274.345389 
L 199.155983 267.37588 
L 200.321823 267.885364 
L 201.487664 266.965131 
L 202.653504 262.822846 
L 203.819345 252.32514 
L 204.985185 248.595289 
L 206.151026 253.680766 
L 207.316866 262.616247 
L 208.482707 260.165037 
L 209.648547 266.422716 
L 210.814387 261.821367 
L 211.980228 265.412961 
L 214.311909 261.883945 
L 215.477749 260.426303 
L 216.64359 263.69898 
L 217.80943 261.940377 
L 218.975271 249.217706 
L 220.141111 244.790706 
L 221.306952 252.177708 
L 222.472792 253.846465 
L 223.638632 239.905731 
L 224.804473 214.720528 
L 227.136154 186.935252 
L 228.301994 198.781175 
L 229.467835 191.646379 
L 230.633675 196.681148 
L 231.799516 232.367147 
L 232.965356 256.250939 
L 234.131197 264.799194 
L 235.297037 268.439641 
L 236.462877 275.061169 
L 237.628718 275.237727 
L 238.794558 270.729686 
L 239.960399 272.968154 
L 241.126239 274.832348 
L 242.29208 267.482119 
L 243.45792 272.791484 
L 244.623761 273.804167 
L 245.789601 269.725025 
L 246.955442 272.58733 
L 248.121282 271.269317 
L 249.287123 267.534568 
L 250.452963 265.769815 
L 251.618803 257.209968 
L 252.784644 256.172997 
L 253.950484 247.441791 
L 255.116325 236.010559 
L 256.282165 219.78519 
L 257.448006 234.59309 
L 258.613846 229.091667 
L 259.779687 261.007547 
L 260.945527 262.344669 
L 262.111368 265.86201 
L 263.277208 271.043437 
L 264.443048 271.494515 
L 265.608889 267.911611 
L 266.774729 266.958325 
L 267.94057 269.523579 
L 269.10641 270.932428 
L 270.272251 267.429243 
L 271.438091 261.064142 
L 272.603932 262.521437 
L 273.769772 257.409686 
L 274.935613 258.183698 
L 276.101453 262.47689 
L 278.433134 238.187966 
L 279.598974 219.791214 
L 280.764815 226.049838 
L 281.930655 247.431351 
L 283.096496 252.148915 
L 284.262336 262.688499 
L 285.428177 267.791997 
L 286.594017 268.812201 
L 287.759858 264.885143 
L 288.925698 270.400327 
L 290.091538 266.342786 
L 291.257379 273.095369 
L 292.423219 270.128192 
L 293.58906 268.799255 
L 294.7549 254.969882 
L 295.920741 263.27912 
L 297.086581 265.777659 
L 298.252422 266.244128 
L 299.418262 268.316106 
L 300.584103 266.936317 
L 301.749943 258.553351 
L 302.915783 253.920755 
L 304.081624 245.038324 
L 305.247464 222.757448 
L 306.413305 235.722967 
L 308.744986 254.784082 
L 309.910826 249.928803 
L 311.076667 247.074939 
L 312.242507 238.432724 
L 313.408348 251.181971 
L 314.574188 261.557379 
L 315.740028 258.57998 
L 316.905869 268.046143 
L 318.071709 265.417081 
L 319.23755 268.069794 
L 320.40339 261.394973 
L 321.569231 256.992063 
L 322.735071 228.229197 
L 323.900912 254.858893 
L 325.066752 264.94404 
L 326.232593 260.464495 
L 327.398433 263.284323 
L 328.564274 263.654815 
L 329.730114 262.419536 
L 330.895954 270.072232 
L 332.061795 269.776032 
L 333.227635 273.686589 
L 334.393476 273.055783 
L 335.559316 272.946646 
L 336.725157 271.540333 
L 337.890997 269.312329 
L 339.056838 268.039973 
L 340.222678 261.153203 
L 341.388519 251.116364 
L 342.554359 234.952871 
L 343.720199 215.686443 
L 344.88604 207.667752 
L 346.05188 231.474536 
L 347.217721 251.667103 
L 348.383561 261.536159 
L 349.549402 263.579539 
L 350.715242 268.23492 
L 351.881083 268.148433 
L 353.046923 273.149648 
L 354.212764 269.857627 
L 355.378604 272.124134 
L 356.544444 269.902429 
L 357.710285 271.104392 
L 358.876125 261.80364 
L 360.041966 261.773495 
L 361.207806 250.956946 
L 362.373647 245.920374 
L 363.539487 259.910696 
L 364.705328 253.215331 
L 365.871168 250.126011 
L 367.037009 228.632256 
L 368.202849 221.332955 
L 369.368689 233.167406 
L 370.53453 236.339835 
L 371.70037 216.271876 
L 372.866211 210.282215 
L 374.032051 215.662312 
L 375.197892 204.341463 
L 376.363732 196.128011 
L 377.529573 215.47342 
L 378.695413 215.940823 
L 379.861254 230.356633 
L 381.027094 217.554538 
L 382.192934 230.820899 
L 383.358775 209.271147 
L 384.524615 234.91807 
L 385.690456 225.282917 
L 386.856296 228.168076 
L 388.022137 241.185101 
L 389.187977 189.435229 
L 390.353818 257.112596 
L 391.519658 261.419697 
L 392.685499 262.142752 
L 393.851339 257.470163 
L 395.017179 246.279065 
L 396.18302 222.06921 
L 397.34886 117.206126 
L 398.514701 68.41984 
L 399.680541 25.792273 
L 400.846382 84.440759 
L 402.012222 165.52467 
L 404.343903 265.252008 
L 405.509744 267.827467 
L 407.841425 268.328049 
L 409.007265 269.056749 
L 411.338946 261.342967 
L 412.504786 263.95807 
L 413.670627 255.715403 
L 414.836467 255.175257 
L 416.002308 257.999782 
L 417.168148 268.165688 
L 418.333989 255.336863 
L 419.499829 253.833815 
L 420.66567 250.984323 
L 421.83151 229.300449 
L 422.99735 191.364495 
L 424.163191 132.473627 
L 425.329031 112.542108 
L 426.494872 149.022657 
L 427.660712 199.628437 
L 428.826553 255.264139 
L 429.992393 266.483542 
L 431.158234 260.330208 
L 432.324074 247.689501 
L 433.489915 257.883998 
L 434.655755 263.376415 
L 435.821595 262.658597 
L 436.987436 270.444083 
L 438.153276 272.239975 
L 439.319117 272.374942 
L 440.484957 270.231281 
L 441.650798 271.337368 
L 442.816638 270.75123 
L 443.982479 269.874411 
L 446.31416 242.185153 
L 447.48 231.211801 
L 447.48 231.211801 
" style="fill:none;stroke:#666666;stroke-dasharray:1,1.65;stroke-dashoffset:0;"/>
    <defs>
     <path d="M 0 0.5 
C 0.132602 0.5 0.25979 0.447317 0.353553 0.353553 
C 0.447317 0.25979 0.5 0.132602 0.5 0 
C 0.5 -0.132602 0.447317 -0.25979 0.353553 -0.353553 
C 0.25979 -0.447317 0.132602 -0.5 0 -0.5 
C -0.132602 -0.5 -0.25979 -0.447317 -0.353553 -0.353553 
C -0.447317 -0.25979 -0.5 -0.132602 -0.5 0 
C -0.5 0.132602 -0.447317 0.25979 -0.353553 0.353553 
C -0.25979 0.447317 -0.132602 0.5 0 0.5 
z
" id="mf4135b83ca" style="stroke:#666666;"/>
    </defs>
    <g clip-path="url(#pb6a605a1cf)">
     <use style="fill:#666666;stroke:#666666;" x="38.27" xlink:href="#mf4135b83ca" y="236.787694"/>
     <use style="fill:#666666;stroke:#666666;" x="39.43584" xlink:href="#mf4135b83ca" y="237.029452"/>
     <use style="fill:#666666;stroke:#666666;" x="40.601681" xlink:href="#mf4135b83ca" y="246.882394"/>
     <use style="fill:#666666;stroke:#666666;" x="41.767521" xlink:href="#mf4135b83ca" y="242.18638"/>
     <use style="fill:#666666;stroke:#666666;" x="42.933362" xlink:href="#mf4135b83ca" y="242.974617"/>
     <use style="fill:#666666;stroke:#666666;" x="44.099202" xlink:href="#mf4135b83ca" y="249.927302"/>
     <use style="fill:#666666;stroke:#666666;" x="45.265043" xlink:href="#mf4135b83ca" y="244.277087"/>
     <use style="fill:#666666;stroke:#666666;" x="46.430883" xlink:href="#mf4135b83ca" y="236.630754"/>
     <use style="fill:#666666;stroke:#666666;" x="47.596724" xlink:href="#mf4135b83ca" y="235.365729"/>
     <use style="fill:#666666;stroke:#666666;" x="48.762564" xlink:href="#mf4135b83ca" y="234.805691"/>
     <use style="fill:#666666;stroke:#666666;" x="49.928405" xlink:href="#mf4135b83ca" y="199.839316"/>
     <use style="fill:#666666;stroke:#666666;" x="51.094245" xlink:href="#mf4135b83ca" y="205.839537"/>
     <use style="fill:#666666;stroke:#666666;" x="52.260085" xlink:href="#mf4135b83ca" y="224.731316"/>
     <use style="fill:#666666;stroke:#666666;" x="53.425926" xlink:href="#mf4135b83ca" y="243.644808"/>
     <use style="fill:#666666;stroke:#666666;" x="54.591766" xlink:href="#mf4135b83ca" y="247.385055"/>
     <use style="fill:#666666;stroke:#666666;" x="55.757607" xlink:href="#mf4135b83ca" y="252.892274"/>
     <use style="fill:#666666;stroke:#666666;" x="56.923447" xlink:href="#mf4135b83ca" y="250.466006"/>
     <use style="fill:#666666;stroke:#666666;" x="58.089288" xlink:href="#mf4135b83ca" y="244.13754"/>
     <use style="fill:#666666;stroke:#666666;" x="59.255128" xlink:href="#mf4135b83ca" y="235.702236"/>
     <use style="fill:#666666;stroke:#666666;" x="60.420969" xlink:href="#mf4135b83ca" y="225.957643"/>
     <use style="fill:#666666;stroke:#666666;" x="61.586809" xlink:href="#mf4135b83ca" y="246.112384"/>
     <use style="fill:#666666;stroke:#666666;" x="62.75265" xlink:href="#mf4135b83ca" y="251.961265"/>
     <use style="fill:#666666;stroke:#666666;" x="63.91849" xlink:href="#mf4135b83ca" y="260.790362"/>
     <use style="fill:#666666;stroke:#666666;" x="65.08433" xlink:href="#mf4135b83ca" y="259.916818"/>
     <use style="fill:#666666;stroke:#666666;" x="66.250171" xlink:href="#mf4135b83ca" y="261.019356"/>
     <use style="fill:#666666;stroke:#666666;" x="67.416011" xlink:href="#mf4135b83ca" y="267.860823"/>
     <use style="fill:#666666;stroke:#666666;" x="68.581852" xlink:href="#mf4135b83ca" y="264.181129"/>
     <use style="fill:#666666;stroke:#666666;" x="69.747692" xlink:href="#mf4135b83ca" y="262.841794"/>
     <use style="fill:#666666;stroke:#666666;" x="70.913533" xlink:href="#mf4135b83ca" y="239.055171"/>
     <use style="fill:#666666;stroke:#666666;" x="72.079373" xlink:href="#mf4135b83ca" y="212.948008"/>
     <use style="fill:#666666;stroke:#666666;" x="73.245214" xlink:href="#mf4135b83ca" y="245.842103"/>
     <use style="fill:#666666;stroke:#666666;" x="74.411054" xlink:href="#mf4135b83ca" y="256.705478"/>
     <use style="fill:#666666;stroke:#666666;" x="75.576895" xlink:href="#mf4135b83ca" y="266.707734"/>
     <use style="fill:#666666;stroke:#666666;" x="76.742735" xlink:href="#mf4135b83ca" y="271.902859"/>
     <use style="fill:#666666;stroke:#666666;" x="77.908575" xlink:href="#mf4135b83ca" y="270.085102"/>
     <use style="fill:#666666;stroke:#666666;" x="79.074416" xlink:href="#mf4135b83ca" y="262.860197"/>
     <use style="fill:#666666;stroke:#666666;" x="80.240256" xlink:href="#mf4135b83ca" y="234.312514"/>
     <use style="fill:#666666;stroke:#666666;" x="81.406097" xlink:href="#mf4135b83ca" y="263.473447"/>
     <use style="fill:#666666;stroke:#666666;" x="82.571937" xlink:href="#mf4135b83ca" y="265.776651"/>
     <use style="fill:#666666;stroke:#666666;" x="83.737778" xlink:href="#mf4135b83ca" y="228.251739"/>
     <use style="fill:#666666;stroke:#666666;" x="84.903618" xlink:href="#mf4135b83ca" y="209.404998"/>
     <use style="fill:#666666;stroke:#666666;" x="86.069459" xlink:href="#mf4135b83ca" y="202.270179"/>
     <use style="fill:#666666;stroke:#666666;" x="87.235299" xlink:href="#mf4135b83ca" y="240.83127"/>
     <use style="fill:#666666;stroke:#666666;" x="88.40114" xlink:href="#mf4135b83ca" y="251.659634"/>
     <use style="fill:#666666;stroke:#666666;" x="89.56698" xlink:href="#mf4135b83ca" y="223.384098"/>
     <use style="fill:#666666;stroke:#666666;" x="90.732821" xlink:href="#mf4135b83ca" y="234.024371"/>
     <use style="fill:#666666;stroke:#666666;" x="91.898661" xlink:href="#mf4135b83ca" y="249.985466"/>
     <use style="fill:#666666;stroke:#666666;" x="93.064501" xlink:href="#mf4135b83ca" y="252.601778"/>
     <use style="fill:#666666;stroke:#666666;" x="94.230342" xlink:href="#mf4135b83ca" y="260.445155"/>
     <use style="fill:#666666;stroke:#666666;" x="95.396182" xlink:href="#mf4135b83ca" y="261.844591"/>
     <use style="fill:#666666;stroke:#666666;" x="96.562023" xlink:href="#mf4135b83ca" y="253.48789"/>
     <use style="fill:#666666;stroke:#666666;" x="97.727863" xlink:href="#mf4135b83ca" y="264.665455"/>
     <use style="fill:#666666;stroke:#666666;" x="98.893704" xlink:href="#mf4135b83ca" y="269.335499"/>
     <use style="fill:#666666;stroke:#666666;" x="100.059544" xlink:href="#mf4135b83ca" y="261.676935"/>
     <use style="fill:#666666;stroke:#666666;" x="101.225385" xlink:href="#mf4135b83ca" y="265.275373"/>
     <use style="fill:#666666;stroke:#666666;" x="102.391225" xlink:href="#mf4135b83ca" y="261.218974"/>
     <use style="fill:#666666;stroke:#666666;" x="103.557066" xlink:href="#mf4135b83ca" y="265.128371"/>
     <use style="fill:#666666;stroke:#666666;" x="104.722906" xlink:href="#mf4135b83ca" y="260.312947"/>
     <use style="fill:#666666;stroke:#666666;" x="105.888746" xlink:href="#mf4135b83ca" y="255.337804"/>
     <use style="fill:#666666;stroke:#666666;" x="107.054587" xlink:href="#mf4135b83ca" y="255.445902"/>
     <use style="fill:#666666;stroke:#666666;" x="108.220427" xlink:href="#mf4135b83ca" y="248.170478"/>
     <use style="fill:#666666;stroke:#666666;" x="109.386268" xlink:href="#mf4135b83ca" y="169.957381"/>
     <use style="fill:#666666;stroke:#666666;" x="110.552108" xlink:href="#mf4135b83ca" y="219.096723"/>
     <use style="fill:#666666;stroke:#666666;" x="111.717949" xlink:href="#mf4135b83ca" y="226.743026"/>
     <use style="fill:#666666;stroke:#666666;" x="112.883789" xlink:href="#mf4135b83ca" y="239.715434"/>
     <use style="fill:#666666;stroke:#666666;" x="114.04963" xlink:href="#mf4135b83ca" y="263.395501"/>
     <use style="fill:#666666;stroke:#666666;" x="115.21547" xlink:href="#mf4135b83ca" y="264.376008"/>
     <use style="fill:#666666;stroke:#666666;" x="116.381311" xlink:href="#mf4135b83ca" y="262.445226"/>
     <use style="fill:#666666;stroke:#666666;" x="117.547151" xlink:href="#mf4135b83ca" y="270.493848"/>
     <use style="fill:#666666;stroke:#666666;" x="118.712991" xlink:href="#mf4135b83ca" y="261.770694"/>
     <use style="fill:#666666;stroke:#666666;" x="119.878832" xlink:href="#mf4135b83ca" y="257.189654"/>
     <use style="fill:#666666;stroke:#666666;" x="121.044672" xlink:href="#mf4135b83ca" y="222.857402"/>
     <use style="fill:#666666;stroke:#666666;" x="122.210513" xlink:href="#mf4135b83ca" y="177.484775"/>
     <use style="fill:#666666;stroke:#666666;" x="123.376353" xlink:href="#mf4135b83ca" y="188.649123"/>
     <use style="fill:#666666;stroke:#666666;" x="124.542194" xlink:href="#mf4135b83ca" y="221.423804"/>
     <use style="fill:#666666;stroke:#666666;" x="125.708034" xlink:href="#mf4135b83ca" y="212.950293"/>
     <use style="fill:#666666;stroke:#666666;" x="126.873875" xlink:href="#mf4135b83ca" y="203.482627"/>
     <use style="fill:#666666;stroke:#666666;" x="128.039715" xlink:href="#mf4135b83ca" y="222.705592"/>
     <use style="fill:#666666;stroke:#666666;" x="129.205556" xlink:href="#mf4135b83ca" y="220.750278"/>
     <use style="fill:#666666;stroke:#666666;" x="130.371396" xlink:href="#mf4135b83ca" y="226.857711"/>
     <use style="fill:#666666;stroke:#666666;" x="131.537236" xlink:href="#mf4135b83ca" y="234.08604"/>
     <use style="fill:#666666;stroke:#666666;" x="132.703077" xlink:href="#mf4135b83ca" y="227.682128"/>
     <use style="fill:#666666;stroke:#666666;" x="133.868917" xlink:href="#mf4135b83ca" y="240.256131"/>
     <use style="fill:#666666;stroke:#666666;" x="135.034758" xlink:href="#mf4135b83ca" y="247.878933"/>
     <use style="fill:#666666;stroke:#666666;" x="136.200598" xlink:href="#mf4135b83ca" y="250.338985"/>
     <use style="fill:#666666;stroke:#666666;" x="137.366439" xlink:href="#mf4135b83ca" y="245.143653"/>
     <use style="fill:#666666;stroke:#666666;" x="138.532279" xlink:href="#mf4135b83ca" y="252.847179"/>
     <use style="fill:#666666;stroke:#666666;" x="139.69812" xlink:href="#mf4135b83ca" y="257.434991"/>
     <use style="fill:#666666;stroke:#666666;" x="140.86396" xlink:href="#mf4135b83ca" y="253.74642"/>
     <use style="fill:#666666;stroke:#666666;" x="142.029801" xlink:href="#mf4135b83ca" y="253.701548"/>
     <use style="fill:#666666;stroke:#666666;" x="143.195641" xlink:href="#mf4135b83ca" y="240.128914"/>
     <use style="fill:#666666;stroke:#666666;" x="144.361481" xlink:href="#mf4135b83ca" y="191.600064"/>
     <use style="fill:#666666;stroke:#666666;" x="145.527322" xlink:href="#mf4135b83ca" y="206.647785"/>
     <use style="fill:#666666;stroke:#666666;" x="146.693162" xlink:href="#mf4135b83ca" y="221.301944"/>
     <use style="fill:#666666;stroke:#666666;" x="147.859003" xlink:href="#mf4135b83ca" y="208.030077"/>
     <use style="fill:#666666;stroke:#666666;" x="149.024843" xlink:href="#mf4135b83ca" y="187.535248"/>
     <use style="fill:#666666;stroke:#666666;" x="150.190684" xlink:href="#mf4135b83ca" y="244.843994"/>
     <use style="fill:#666666;stroke:#666666;" x="151.356524" xlink:href="#mf4135b83ca" y="263.044584"/>
     <use style="fill:#666666;stroke:#666666;" x="152.522365" xlink:href="#mf4135b83ca" y="247.273788"/>
     <use style="fill:#666666;stroke:#666666;" x="153.688205" xlink:href="#mf4135b83ca" y="264.422969"/>
     <use style="fill:#666666;stroke:#666666;" x="154.854046" xlink:href="#mf4135b83ca" y="267.857768"/>
     <use style="fill:#666666;stroke:#666666;" x="156.019886" xlink:href="#mf4135b83ca" y="267.979683"/>
     <use style="fill:#666666;stroke:#666666;" x="157.185726" xlink:href="#mf4135b83ca" y="264.953934"/>
     <use style="fill:#666666;stroke:#666666;" x="158.351567" xlink:href="#mf4135b83ca" y="260.317613"/>
     <use style="fill:#666666;stroke:#666666;" x="159.517407" xlink:href="#mf4135b83ca" y="266.277482"/>
     <use style="fill:#666666;stroke:#666666;" x="160.683248" xlink:href="#mf4135b83ca" y="269.394754"/>
     <use style="fill:#666666;stroke:#666666;" x="161.849088" xlink:href="#mf4135b83ca" y="265.980418"/>
     <use style="fill:#666666;stroke:#666666;" x="163.014929" xlink:href="#mf4135b83ca" y="270.402156"/>
     <use style="fill:#666666;stroke:#666666;" x="164.180769" xlink:href="#mf4135b83ca" y="268.04068"/>
     <use style="fill:#666666;stroke:#666666;" x="165.34661" xlink:href="#mf4135b83ca" y="259.645208"/>
     <use style="fill:#666666;stroke:#666666;" x="166.51245" xlink:href="#mf4135b83ca" y="265.719414"/>
     <use style="fill:#666666;stroke:#666666;" x="167.678291" xlink:href="#mf4135b83ca" y="261.223548"/>
     <use style="fill:#666666;stroke:#666666;" x="168.844131" xlink:href="#mf4135b83ca" y="249.2013"/>
     <use style="fill:#666666;stroke:#666666;" x="170.009972" xlink:href="#mf4135b83ca" y="244.432715"/>
     <use style="fill:#666666;stroke:#666666;" x="171.175812" xlink:href="#mf4135b83ca" y="222.874059"/>
     <use style="fill:#666666;stroke:#666666;" x="172.341652" xlink:href="#mf4135b83ca" y="208.361762"/>
     <use style="fill:#666666;stroke:#666666;" x="173.507493" xlink:href="#mf4135b83ca" y="226.3686"/>
     <use style="fill:#666666;stroke:#666666;" x="174.673333" xlink:href="#mf4135b83ca" y="235.950774"/>
     <use style="fill:#666666;stroke:#666666;" x="175.839174" xlink:href="#mf4135b83ca" y="253.769656"/>
     <use style="fill:#666666;stroke:#666666;" x="177.005014" xlink:href="#mf4135b83ca" y="258.954954"/>
     <use style="fill:#666666;stroke:#666666;" x="178.170855" xlink:href="#mf4135b83ca" y="269.892139"/>
     <use style="fill:#666666;stroke:#666666;" x="179.336695" xlink:href="#mf4135b83ca" y="272.866318"/>
     <use style="fill:#666666;stroke:#666666;" x="180.502536" xlink:href="#mf4135b83ca" y="274.197922"/>
     <use style="fill:#666666;stroke:#666666;" x="181.668376" xlink:href="#mf4135b83ca" y="256.251975"/>
     <use style="fill:#666666;stroke:#666666;" x="182.834217" xlink:href="#mf4135b83ca" y="211.483736"/>
     <use style="fill:#666666;stroke:#666666;" x="184.000057" xlink:href="#mf4135b83ca" y="163.820454"/>
     <use style="fill:#666666;stroke:#666666;" x="185.165897" xlink:href="#mf4135b83ca" y="201.57761"/>
     <use style="fill:#666666;stroke:#666666;" x="186.331738" xlink:href="#mf4135b83ca" y="232.23385"/>
     <use style="fill:#666666;stroke:#666666;" x="187.497578" xlink:href="#mf4135b83ca" y="252.70832"/>
     <use style="fill:#666666;stroke:#666666;" x="188.663419" xlink:href="#mf4135b83ca" y="266.583317"/>
     <use style="fill:#666666;stroke:#666666;" x="189.829259" xlink:href="#mf4135b83ca" y="270.644403"/>
     <use style="fill:#666666;stroke:#666666;" x="190.9951" xlink:href="#mf4135b83ca" y="270.107855"/>
     <use style="fill:#666666;stroke:#666666;" x="192.16094" xlink:href="#mf4135b83ca" y="268.400933"/>
     <use style="fill:#666666;stroke:#666666;" x="193.326781" xlink:href="#mf4135b83ca" y="270.824971"/>
     <use style="fill:#666666;stroke:#666666;" x="194.492621" xlink:href="#mf4135b83ca" y="274.218295"/>
     <use style="fill:#666666;stroke:#666666;" x="195.658462" xlink:href="#mf4135b83ca" y="267.598202"/>
     <use style="fill:#666666;stroke:#666666;" x="196.824302" xlink:href="#mf4135b83ca" y="268.378949"/>
     <use style="fill:#666666;stroke:#666666;" x="197.990142" xlink:href="#mf4135b83ca" y="274.345389"/>
     <use style="fill:#666666;stroke:#666666;" x="199.155983" xlink:href="#mf4135b83ca" y="267.37588"/>
     <use style="fill:#666666;stroke:#666666;" x="200.321823" xlink:href="#mf4135b83ca" y="267.885364"/>
     <use style="fill:#666666;stroke:#666666;" x="201.487664" xlink:href="#mf4135b83ca" y="266.965131"/>
     <use style="fill:#666666;stroke:#666666;" x="202.653504" xlink:href="#mf4135b83ca" y="262.822846"/>
     <use style="fill:#666666;stroke:#666666;" x="203.819345" xlink:href="#mf4135b83ca" y="252.32514"/>
     <use style="fill:#666666;stroke:#666666;" x="204.985185" xlink:href="#mf4135b83ca" y="248.595289"/>
     <use style="fill:#666666;stroke:#666666;" x="206.151026" xlink:href="#mf4135b83ca" y="253.680766"/>
     <use style="fill:#666666;stroke:#666666;" x="207.316866" xlink:href="#mf4135b83ca" y="262.616247"/>
     <use style="fill:#666666;stroke:#666666;" x="208.482707" xlink:href="#mf4135b83ca" y="260.165037"/>
     <use style="fill:#666666;stroke:#666666;" x="209.648547" xlink:href="#mf4135b83ca" y="266.422716"/>
     <use style="fill:#666666;stroke:#666666;" x="210.814387" xlink:href="#mf4135b83ca" y="261.821367"/>
     <use style="fill:#666666;stroke:#666666;" x="211.980228" xlink:href="#mf4135b83ca" y="265.412961"/>
     <use style="fill:#666666;stroke:#666666;" x="213.146068" xlink:href="#mf4135b83ca" y="263.67001"/>
     <use style="fill:#666666;stroke:#666666;" x="214.311909" xlink:href="#mf4135b83ca" y="261.883945"/>
     <use style="fill:#666666;stroke:#666666;" x="215.477749" xlink:href="#mf4135b83ca" y="260.426303"/>
     <use style="fill:#666666;stroke:#666666;" x="216.64359" xlink:href="#mf4135b83ca" y="263.69898"/>
     <use style="fill:#666666;stroke:#666666;" x="217.80943" xlink:href="#mf4135b83ca" y="261.940377"/>
     <use style="fill:#666666;stroke:#666666;" x="218.975271" xlink:href="#mf4135b83ca" y="249.217706"/>
     <use style="fill:#666666;stroke:#666666;" x="220.141111" xlink:href="#mf4135b83ca" y="244.790706"/>
     <use style="fill:#666666;stroke:#666666;" x="221.306952" xlink:href="#mf4135b83ca" y="252.177708"/>
     <use style="fill:#666666;stroke:#666666;" x="222.472792" xlink:href="#mf4135b83ca" y="253.846465"/>
     <use style="fill:#666666;stroke:#666666;" x="223.638632" xlink:href="#mf4135b83ca" y="239.905731"/>
     <use style="fill:#666666;stroke:#666666;" x="224.804473" xlink:href="#mf4135b83ca" y="214.720528"/>
     <use style="fill:#666666;stroke:#666666;" x="225.970313" xlink:href="#mf4135b83ca" y="200.607281"/>
     <use style="fill:#666666;stroke:#666666;" x="227.136154" xlink:href="#mf4135b83ca" y="186.935252"/>
     <use style="fill:#666666;stroke:#666666;" x="228.301994" xlink:href="#mf4135b83ca" y="198.781175"/>
     <use style="fill:#666666;stroke:#666666;" x="229.467835" xlink:href="#mf4135b83ca" y="191.646379"/>
     <use style="fill:#666666;stroke:#666666;" x="230.633675" xlink:href="#mf4135b83ca" y="196.681148"/>
     <use style="fill:#666666;stroke:#666666;" x="231.799516" xlink:href="#mf4135b83ca" y="232.367147"/>
     <use style="fill:#666666;stroke:#666666;" x="232.965356" xlink:href="#mf4135b83ca" y="256.250939"/>
     <use style="fill:#666666;stroke:#666666;" x="234.131197" xlink:href="#mf4135b83ca" y="264.799194"/>
     <use style="fill:#666666;stroke:#666666;" x="235.297037" xlink:href="#mf4135b83ca" y="268.439641"/>
     <use style="fill:#666666;stroke:#666666;" x="236.462877" xlink:href="#mf4135b83ca" y="275.061169"/>
     <use style="fill:#666666;stroke:#666666;" x="237.628718" xlink:href="#mf4135b83ca" y="275.237727"/>
     <use style="fill:#666666;stroke:#666666;" x="238.794558" xlink:href="#mf4135b83ca" y="270.729686"/>
     <use style="fill:#666666;stroke:#666666;" x="239.960399" xlink:href="#mf4135b83ca" y="272.968154"/>
     <use style="fill:#666666;stroke:#666666;" x="241.126239" xlink:href="#mf4135b83ca" y="274.832348"/>
     <use style="fill:#666666;stroke:#666666;" x="242.29208" xlink:href="#mf4135b83ca" y="267.482119"/>
     <use style="fill:#666666;stroke:#666666;" x="243.45792" xlink:href="#mf4135b83ca" y="272.791484"/>
     <use style="fill:#666666;stroke:#666666;" x="244.623761" xlink:href="#mf4135b83ca" y="273.804167"/>
     <use style="fill:#666666;stroke:#666666;" x="245.789601" xlink:href="#mf4135b83ca" y="269.725025"/>
     <use style="fill:#666666;stroke:#666666;" x="246.955442" xlink:href="#mf4135b83ca" y="272.58733"/>
     <use style="fill:#666666;stroke:#666666;" x="248.121282" xlink:href="#mf4135b83ca" y="271.269317"/>
     <use style="fill:#666666;stroke:#666666;" x="249.287123" xlink:href="#mf4135b83ca" y="267.534568"/>
     <use style="fill:#666666;stroke:#666666;" x="250.452963" xlink:href="#mf4135b83ca" y="265.769815"/>
     <use style="fill:#666666;stroke:#666666;" x="251.618803" xlink:href="#mf4135b83ca" y="257.209968"/>
     <use style="fill:#666666;stroke:#666666;" x="252.784644" xlink:href="#mf4135b83ca" y="256.172997"/>
     <use style="fill:#666666;stroke:#666666;" x="253.950484" xlink:href="#mf4135b83ca" y="247.441791"/>
     <use style="fill:#666666;stroke:#666666;" x="255.116325" xlink:href="#mf4135b83ca" y="236.010559"/>
     <use style="fill:#666666;stroke:#666666;" x="256.282165" xlink:href="#mf4135b83ca" y="219.78519"/>
     <use style="fill:#666666;stroke:#666666;" x="257.448006" xlink:href="#mf4135b83ca" y="234.59309"/>
     <use style="fill:#666666;stroke:#666666;" x="258.613846" xlink:href="#mf4135b83ca" y="229.091667"/>
     <use style="fill:#666666;stroke:#666666;" x="259.779687" xlink:href="#mf4135b83ca" y="261.007547"/>
     <use style="fill:#666666;stroke:#666666;" x="260.945527" xlink:href="#mf4135b83ca" y="262.344669"/>
     <use style="fill:#666666;stroke:#666666;" x="262.111368" xlink:href="#mf4135b83ca" y="265.86201"/>
     <use style="fill:#666666;stroke:#666666;" x="263.277208" xlink:href="#mf4135b83ca" y="271.043437"/>
     <use style="fill:#666666;stroke:#666666;" x="264.443048" xlink:href="#mf4135b83ca" y="271.494515"/>
     <use style="fill:#666666;stroke:#666666;" x="265.608889" xlink:href="#mf4135b83ca" y="267.911611"/>
     <use style="fill:#666666;stroke:#666666;" x="266.774729" xlink:href="#mf4135b83ca" y="266.958325"/>
     <use style="fill:#666666;stroke:#666666;" x="267.94057" xlink:href="#mf4135b83ca" y="269.523579"/>
     <use style="fill:#666666;stroke:#666666;" x="269.10641" xlink:href="#mf4135b83ca" y="270.932428"/>
     <use style="fill:#666666;stroke:#666666;" x="270.272251" xlink:href="#mf4135b83ca" y="267.429243"/>
     <use style="fill:#666666;stroke:#666666;" x="271.438091" xlink:href="#mf4135b83ca" y="261.064142"/>
     <use style="fill:#666666;stroke:#666666;" x="272.603932" xlink:href="#mf4135b83ca" y="262.521437"/>
     <use style="fill:#666666;stroke:#666666;" x="273.769772" xlink:href="#mf4135b83ca" y="257.409686"/>
     <use style="fill:#666666;stroke:#666666;" x="274.935613" xlink:href="#mf4135b83ca" y="258.183698"/>
     <use style="fill:#666666;stroke:#666666;" x="276.101453" xlink:href="#mf4135b83ca" y="262.47689"/>
     <use style="fill:#666666;stroke:#666666;" x="277.267293" xlink:href="#mf4135b83ca" y="250.086381"/>
     <use style="fill:#666666;stroke:#666666;" x="278.433134" xlink:href="#mf4135b83ca" y="238.187966"/>
     <use style="fill:#666666;stroke:#666666;" x="279.598974" xlink:href="#mf4135b83ca" y="219.791214"/>
     <use style="fill:#666666;stroke:#666666;" x="280.764815" xlink:href="#mf4135b83ca" y="226.049838"/>
     <use style="fill:#666666;stroke:#666666;" x="281.930655" xlink:href="#mf4135b83ca" y="247.431351"/>
     <use style="fill:#666666;stroke:#666666;" x="283.096496" xlink:href="#mf4135b83ca" y="252.148915"/>
     <use style="fill:#666666;stroke:#666666;" x="284.262336" xlink:href="#mf4135b83ca" y="262.688499"/>
     <use style="fill:#666666;stroke:#666666;" x="285.428177" xlink:href="#mf4135b83ca" y="267.791997"/>
     <use style="fill:#666666;stroke:#666666;" x="286.594017" xlink:href="#mf4135b83ca" y="268.812201"/>
     <use style="fill:#666666;stroke:#666666;" x="287.759858" xlink:href="#mf4135b83ca" y="264.885143"/>
     <use style="fill:#666666;stroke:#666666;" x="288.925698" xlink:href="#mf4135b83ca" y="270.400327"/>
     <use style="fill:#666666;stroke:#666666;" x="290.091538" xlink:href="#mf4135b83ca" y="266.342786"/>
     <use style="fill:#666666;stroke:#666666;" x="291.257379" xlink:href="#mf4135b83ca" y="273.095369"/>
     <use style="fill:#666666;stroke:#666666;" x="292.423219" xlink:href="#mf4135b83ca" y="270.128192"/>
     <use style="fill:#666666;stroke:#666666;" x="293.58906" xlink:href="#mf4135b83ca" y="268.799255"/>
     <use style="fill:#666666;stroke:#666666;" x="294.7549" xlink:href="#mf4135b83ca" y="254.969882"/>
     <use style="fill:#666666;stroke:#666666;" x="295.920741" xlink:href="#mf4135b83ca" y="263.27912"/>
     <use style="fill:#666666;stroke:#666666;" x="297.086581" xlink:href="#mf4135b83ca" y="265.777659"/>
     <use style="fill:#666666;stroke:#666666;" x="298.252422" xlink:href="#mf4135b83ca" y="266.244128"/>
     <use style="fill:#666666;stroke:#666666;" x="299.418262" xlink:href="#mf4135b83ca" y="268.316106"/>
     <use style="fill:#666666;stroke:#666666;" x="300.584103" xlink:href="#mf4135b83ca" y="266.936317"/>
     <use style="fill:#666666;stroke:#666666;" x="301.749943" xlink:href="#mf4135b83ca" y="258.553351"/>
     <use style="fill:#666666;stroke:#666666;" x="302.915783" xlink:href="#mf4135b83ca" y="253.920755"/>
     <use style="fill:#666666;stroke:#666666;" x="304.081624" xlink:href="#mf4135b83ca" y="245.038324"/>
     <use style="fill:#666666;stroke:#666666;" x="305.247464" xlink:href="#mf4135b83ca" y="222.757448"/>
     <use style="fill:#666666;stroke:#666666;" x="306.413305" xlink:href="#mf4135b83ca" y="235.722967"/>
     <use style="fill:#666666;stroke:#666666;" x="307.579145" xlink:href="#mf4135b83ca" y="245.270237"/>
     <use style="fill:#666666;stroke:#666666;" x="308.744986" xlink:href="#mf4135b83ca" y="254.784082"/>
     <use style="fill:#666666;stroke:#666666;" x="309.910826" xlink:href="#mf4135b83ca" y="249.928803"/>
     <use style="fill:#666666;stroke:#666666;" x="311.076667" xlink:href="#mf4135b83ca" y="247.074939"/>
     <use style="fill:#666666;stroke:#666666;" x="312.242507" xlink:href="#mf4135b83ca" y="238.432724"/>
     <use style="fill:#666666;stroke:#666666;" x="313.408348" xlink:href="#mf4135b83ca" y="251.181971"/>
     <use style="fill:#666666;stroke:#666666;" x="314.574188" xlink:href="#mf4135b83ca" y="261.557379"/>
     <use style="fill:#666666;stroke:#666666;" x="315.740028" xlink:href="#mf4135b83ca" y="258.57998"/>
     <use style="fill:#666666;stroke:#666666;" x="316.905869" xlink:href="#mf4135b83ca" y="268.046143"/>
     <use style="fill:#666666;stroke:#666666;" x="318.071709" xlink:href="#mf4135b83ca" y="265.417081"/>
     <use style="fill:#666666;stroke:#666666;" x="319.23755" xlink:href="#mf4135b83ca" y="268.069794"/>
     <use style="fill:#666666;stroke:#666666;" x="320.40339" xlink:href="#mf4135b83ca" y="261.394973"/>
     <use style="fill:#666666;stroke:#666666;" x="321.569231" xlink:href="#mf4135b83ca" y="256.992063"/>
     <use style="fill:#666666;stroke:#666666;" x="322.735071" xlink:href="#mf4135b83ca" y="228.229197"/>
     <use style="fill:#666666;stroke:#666666;" x="323.900912" xlink:href="#mf4135b83ca" y="254.858893"/>
     <use style="fill:#666666;stroke:#666666;" x="325.066752" xlink:href="#mf4135b83ca" y="264.94404"/>
     <use style="fill:#666666;stroke:#666666;" x="326.232593" xlink:href="#mf4135b83ca" y="260.464495"/>
     <use style="fill:#666666;stroke:#666666;" x="327.398433" xlink:href="#mf4135b83ca" y="263.284323"/>
     <use style="fill:#666666;stroke:#666666;" x="328.564274" xlink:href="#mf4135b83ca" y="263.654815"/>
     <use style="fill:#666666;stroke:#666666;" x="329.730114" xlink:href="#mf4135b83ca" y="262.419536"/>
     <use style="fill:#666666;stroke:#666666;" x="330.895954" xlink:href="#mf4135b83ca" y="270.072232"/>
     <use style="fill:#666666;stroke:#666666;" x="332.061795" xlink:href="#mf4135b83ca" y="269.776032"/>
     <use style="fill:#666666;stroke:#666666;" x="333.227635" xlink:href="#mf4135b83ca" y="273.686589"/>
     <use style="fill:#666666;stroke:#666666;" x="334.393476" xlink:href="#mf4135b83ca" y="273.055783"/>
     <use style="fill:#666666;stroke:#666666;" x="335.559316" xlink:href="#mf4135b83ca" y="272.946646"/>
     <use style="fill:#666666;stroke:#666666;" x="336.725157" xlink:href="#mf4135b83ca" y="271.540333"/>
     <use style="fill:#666666;stroke:#666666;" x="337.890997" xlink:href="#mf4135b83ca" y="269.312329"/>
     <use style="fill:#666666;stroke:#666666;" x="339.056838" xlink:href="#mf4135b83ca" y="268.039973"/>
     <use style="fill:#666666;stroke:#666666;" x="340.222678" xlink:href="#mf4135b83ca" y="261.153203"/>
     <use style="fill:#666666;stroke:#666666;" x="341.388519" xlink:href="#mf4135b83ca" y="251.116364"/>
     <use style="fill:#666666;stroke:#666666;" x="342.554359" xlink:href="#mf4135b83ca" y="234.952871"/>
     <use style="fill:#666666;stroke:#666666;" x="343.720199" xlink:href="#mf4135b83ca" y="215.686443"/>
     <use style="fill:#666666;stroke:#666666;" x="344.88604" xlink:href="#mf4135b83ca" y="207.667752"/>
     <use style="fill:#666666;stroke:#666666;" x="346.05188" xlink:href="#mf4135b83ca" y="231.474536"/>
     <use style="fill:#666666;stroke:#666666;" x="347.217721" xlink:href="#mf4135b83ca" y="251.667103"/>
     <use style="fill:#666666;stroke:#666666;" x="348.383561" xlink:href="#mf4135b83ca" y="261.536159"/>
     <use style="fill:#666666;stroke:#666666;" x="349.549402" xlink:href="#mf4135b83ca" y="263.579539"/>
     <use style="fill:#666666;stroke:#666666;" x="350.715242" xlink:href="#mf4135b83ca" y="268.23492"/>
     <use style="fill:#666666;stroke:#666666;" x="351.881083" xlink:href="#mf4135b83ca" y="268.148433"/>
     <use style="fill:#666666;stroke:#666666;" x="353.046923" xlink:href="#mf4135b83ca" y="273.149648"/>
     <use style="fill:#666666;stroke:#666666;" x="354.212764" xlink:href="#mf4135b83ca" y="269.857627"/>
     <use style="fill:#666666;stroke:#666666;" x="355.378604" xlink:href="#mf4135b83ca" y="272.124134"/>
     <use style="fill:#666666;stroke:#666666;" x="356.544444" xlink:href="#mf4135b83ca" y="269.902429"/>
     <use style="fill:#666666;stroke:#666666;" x="357.710285" xlink:href="#mf4135b83ca" y="271.104392"/>
     <use style="fill:#666666;stroke:#666666;" x="358.876125" xlink:href="#mf4135b83ca" y="261.80364"/>
     <use style="fill:#666666;stroke:#666666;" x="360.041966" xlink:href="#mf4135b83ca" y="261.773495"/>
     <use style="fill:#666666;stroke:#666666;" x="361.207806" xlink:href="#mf4135b83ca" y="250.956946"/>
     <use style="fill:#666666;stroke:#666666;" x="362.373647" xlink:href="#mf4135b83ca" y="245.920374"/>
     <use style="fill:#666666;stroke:#666666;" x="363.539487" xlink:href="#mf4135b83ca" y="259.910696"/>
     <use style="fill:#666666;stroke:#666666;" x="364.705328" xlink:href="#mf4135b83ca" y="253.215331"/>
     <use style="fill:#666666;stroke:#666666;" x="365.871168" xlink:href="#mf4135b83ca" y="250.126011"/>
     <use style="fill:#666666;stroke:#666666;" x="367.037009" xlink:href="#mf4135b83ca" y="228.632256"/>
     <use style="fill:#666666;stroke:#666666;" x="368.202849" xlink:href="#mf4135b83ca" y="221.332955"/>
     <use style="fill:#666666;stroke:#666666;" x="369.368689" xlink:href="#mf4135b83ca" y="233.167406"/>
     <use style="fill:#666666;stroke:#666666;" x="370.53453" xlink:href="#mf4135b83ca" y="236.339835"/>
     <use style="fill:#666666;stroke:#666666;" x="371.70037" xlink:href="#mf4135b83ca" y="216.271876"/>
     <use style="fill:#666666;stroke:#666666;" x="372.866211" xlink:href="#mf4135b83ca" y="210.282215"/>
     <use style="fill:#666666;stroke:#666666;" x="374.032051" xlink:href="#mf4135b83ca" y="215.662312"/>
     <use style="fill:#666666;stroke:#666666;" x="375.197892" xlink:href="#mf4135b83ca" y="204.341463"/>
     <use style="fill:#666666;stroke:#666666;" x="376.363732" xlink:href="#mf4135b83ca" y="196.128011"/>
     <use style="fill:#666666;stroke:#666666;" x="377.529573" xlink:href="#mf4135b83ca" y="215.47342"/>
     <use style="fill:#666666;stroke:#666666;" x="378.695413" xlink:href="#mf4135b83ca" y="215.940823"/>
     <use style="fill:#666666;stroke:#666666;" x="379.861254" xlink:href="#mf4135b83ca" y="230.356633"/>
     <use style="fill:#666666;stroke:#666666;" x="381.027094" xlink:href="#mf4135b83ca" y="217.554538"/>
     <use style="fill:#666666;stroke:#666666;" x="382.192934" xlink:href="#mf4135b83ca" y="230.820899"/>
     <use style="fill:#666666;stroke:#666666;" x="383.358775" xlink:href="#mf4135b83ca" y="209.271147"/>
     <use style="fill:#666666;stroke:#666666;" x="384.524615" xlink:href="#mf4135b83ca" y="234.91807"/>
     <use style="fill:#666666;stroke:#666666;" x="385.690456" xlink:href="#mf4135b83ca" y="225.282917"/>
     <use style="fill:#666666;stroke:#666666;" x="386.856296" xlink:href="#mf4135b83ca" y="228.168076"/>
     <use style="fill:#666666;stroke:#666666;" x="388.022137" xlink:href="#mf4135b83ca" y="241.185101"/>
     <use style="fill:#666666;stroke:#666666;" x="389.187977" xlink:href="#mf4135b83ca" y="189.435229"/>
     <use style="fill:#666666;stroke:#666666;" x="390.353818" xlink:href="#mf4135b83ca" y="257.112596"/>
     <use style="fill:#666666;stroke:#666666;" x="391.519658" xlink:href="#mf4135b83ca" y="261.419697"/>
     <use style="fill:#666666;stroke:#666666;" x="392.685499" xlink:href="#mf4135b83ca" y="262.142752"/>
     <use style="fill:#666666;stroke:#666666;" x="393.851339" xlink:href="#mf4135b83ca" y="257.470163"/>
     <use style="fill:#666666;stroke:#666666;" x="395.017179" xlink:href="#mf4135b83ca" y="246.279065"/>
     <use style="fill:#666666;stroke:#666666;" x="396.18302" xlink:href="#mf4135b83ca" y="222.06921"/>
     <use style="fill:#666666;stroke:#666666;" x="397.34886" xlink:href="#mf4135b83ca" y="117.206126"/>
     <use style="fill:#666666;stroke:#666666;" x="398.514701" xlink:href="#mf4135b83ca" y="68.41984"/>
     <use style="fill:#666666;stroke:#666666;" x="399.680541" xlink:href="#mf4135b83ca" y="25.792273"/>
     <use style="fill:#666666;stroke:#666666;" x="400.846382" xlink:href="#mf4135b83ca" y="84.440759"/>
     <use style="fill:#666666;stroke:#666666;" x="402.012222" xlink:href="#mf4135b83ca" y="165.52467"/>
     <use style="fill:#666666;stroke:#666666;" x="403.178063" xlink:href="#mf4135b83ca" y="213.991936"/>
     <use style="fill:#666666;stroke:#666666;" x="404.343903" xlink:href="#mf4135b83ca" y="265.252008"/>
     <use style="fill:#666666;stroke:#666666;" x="405.509744" xlink:href="#mf4135b83ca" y="267.827467"/>
     <use style="fill:#666666;stroke:#666666;" x="406.675584" xlink:href="#mf4135b83ca" y="268.087533"/>
     <use style="fill:#666666;stroke:#666666;" x="407.841425" xlink:href="#mf4135b83ca" y="268.328049"/>
     <use style="fill:#666666;stroke:#666666;" x="409.007265" xlink:href="#mf4135b83ca" y="269.056749"/>
     <use style="fill:#666666;stroke:#666666;" x="410.173105" xlink:href="#mf4135b83ca" y="265.023765"/>
     <use style="fill:#666666;stroke:#666666;" x="411.338946" xlink:href="#mf4135b83ca" y="261.342967"/>
     <use style="fill:#666666;stroke:#666666;" x="412.504786" xlink:href="#mf4135b83ca" y="263.95807"/>
     <use style="fill:#666666;stroke:#666666;" x="413.670627" xlink:href="#mf4135b83ca" y="255.715403"/>
     <use style="fill:#666666;stroke:#666666;" x="414.836467" xlink:href="#mf4135b83ca" y="255.175257"/>
     <use style="fill:#666666;stroke:#666666;" x="416.002308" xlink:href="#mf4135b83ca" y="257.999782"/>
     <use style="fill:#666666;stroke:#666666;" x="417.168148" xlink:href="#mf4135b83ca" y="268.165688"/>
     <use style="fill:#666666;stroke:#666666;" x="418.333989" xlink:href="#mf4135b83ca" y="255.336863"/>
     <use style="fill:#666666;stroke:#666666;" x="419.499829" xlink:href="#mf4135b83ca" y="253.833815"/>
     <use style="fill:#666666;stroke:#666666;" x="420.66567" xlink:href="#mf4135b83ca" y="250.984323"/>
     <use style="fill:#666666;stroke:#666666;" x="421.83151" xlink:href="#mf4135b83ca" y="229.300449"/>
     <use style="fill:#666666;stroke:#666666;" x="422.99735" xlink:href="#mf4135b83ca" y="191.364495"/>
     <use style="fill:#666666;stroke:#666666;" x="424.163191" xlink:href="#mf4135b83ca" y="132.473627"/>
     <use style="fill:#666666;stroke:#666666;" x="425.329031" xlink:href="#mf4135b83ca" y="112.542108"/>
     <use style="fill:#666666;stroke:#666666;" x="426.494872" xlink:href="#mf4135b83ca" y="149.022657"/>
     <use style="fill:#666666;stroke:#666666;" x="427.660712" xlink:href="#mf4135b83ca" y="199.628437"/>
     <use style="fill:#666666;stroke:#666666;" x="428.826553" xlink:href="#mf4135b83ca" y="255.264139"/>
     <use style="fill:#666666;stroke:#666666;" x="429.992393" xlink:href="#mf4135b83ca" y="266.483542"/>
     <use style="fill:#666666;stroke:#666666;" x="431.158234" xlink:href="#mf4135b83ca" y="260.330208"/>
     <use style="fill:#666666;stroke:#666666;" x="432.324074" xlink:href="#mf4135b83ca" y="247.689501"/>
     <use style="fill:#666666;stroke:#666666;" x="433.489915" xlink:href="#mf4135b83ca" y="257.883998"/>
     <use style="fill:#666666;stroke:#666666;" x="434.655755" xlink:href="#mf4135b83ca" y="263.376415"/>
     <use style="fill:#666666;stroke:#666666;" x="435.821595" xlink:href="#mf4135b83ca" y="262.658597"/>
     <use style="fill:#666666;stroke:#666666;" x="436.987436" xlink:href="#mf4135b83ca" y="270.444083"/>
     <use style="fill:#666666;stroke:#666666;" x="438.153276" xlink:href="#mf4135b83ca" y="272.239975"/>
     <use style="fill:#666666;stroke:#666666;" x="439.319117" xlink:href="#mf4135b83ca" y="272.374942"/>
     <use style="fill:#666666;stroke:#666666;" x="440.484957" xlink:href="#mf4135b83ca" y="270.231281"/>
     <use style="fill:#666666;stroke:#666666;" x="441.650798" xlink:href="#mf4135b83ca" y="271.337368"/>
     <use style="fill:#666666;stroke:#666666;" x="442.816638" xlink:href="#mf4135b83ca" y="270.75123"/>
     <use style="fill:#666666;stroke:#666666;" x="443.982479" xlink:href="#mf4135b83ca" y="269.874411"/>
     <use style="fill:#666666;stroke:#666666;" x="445.148319" xlink:href="#mf4135b83ca" y="256.222285"/>
     <use style="fill:#666666;stroke:#666666;" x="446.31416" xlink:href="#mf4135b83ca" y="242.185153"/>
     <use style="fill:#666666;stroke:#666666;" x="447.48" xlink:href="#mf4135b83ca" y="231.211801"/>
    </g>
   </g>
   <g id="patch_3">
    <path d="M 38.27 287.71 
L 38.27 13.32 
" style="fill:none;stroke:#000000;stroke-linecap:square;stroke-linejoin:miter;stroke-width:0.8;"/>
   </g>
   <g id="patch_4">
    <path d="M 447.48 287.71 
L 447.48 13.32 
" style="fill:none;stroke:#000000;stroke-linecap:square;stroke-linejoin:miter;stroke-width:0.8;"/>
   </g>
   <g id="patch_5">
    <path d="M 38.27 287.71 
L 447.48 287.71 
" style="fill:none;stroke:#000000;stroke-linecap:square;stroke-linejoin:miter;stroke-width:0.8;"/>
   </g>
   <g id="patch_6">
    <path d="M 38.27 13.32 
L 447.48 13.32 
" style="fill:none;stroke:#000000;stroke-linecap:square;stroke-linejoin:miter;stroke-width:0.8;"/>
   </g>
  </g>
 </g>
 <defs>
  <clipPath id="pb6a605a1cf">
   <rect height="274.39" width="409.21" x="38.27" y="13.32"/>
  </clipPath>
 </defs>
</svg>
