<?xml version="1.0" encoding="utf-8" standalone="no"?>
<!DOCTYPE svg PUBLIC "-//W3C//DTD SVG 1.1//EN"
  "http://www.w3.org/Graphics/SVG/1.1/DTD/svg11.dtd">
<!-- Created with matplotlib (http://matplotlib.org/) -->
<svg height="345.6pt" version="1.1" viewBox="0 0 460.8 345.6" width="460.8pt" xmlns="http://www.w3.org/2000/svg" xmlns:xlink="http://www.w3.org/1999/xlink">
 <defs>
  <style type="text/css">
*{stroke-linecap:butt;stroke-linejoin:round;}
  </style>
 </defs>
 <g id="figure_1">
  <g id="patch_1">
   <path d="M 0 345.6 
L 460.8 345.6 
L 460.8 0 
L 0 0 
z
" style="fill:#ffffff;"/>
  </g>
  <g id="axes_1">
   <g id="patch_2">
    <path d="M 57.6 307.584 
L 414.72 307.584 
L 414.72 41.472 
L 57.6 41.472 
z
" style="fill:#ffffff;"/>
   </g>
   <g id="matplotlib.axis_1">
    <g id="xtick_1">
     <g id="line2d_1">
      <defs>
       <path d="M 0 0 
L 0 3.5 
" id="ma50327a8a8" style="stroke:#000000;stroke-width:0.8;"/>
      </defs>
      <g>
       <use style="stroke:#000000;stroke-width:0.8;" x="73.832727" xlink:href="#ma50327a8a8" y="307.584"/>
      </g>
     </g>
     <g id="text_1">
      <!-- 0 -->
      <defs>
       <path d="M 31.78125 66.40625 
Q 24.171875 66.40625 20.328125 58.90625 
Q 16.5 51.421875 16.5 36.375 
Q 16.5 21.390625 20.328125 13.890625 
Q 24.171875 6.390625 31.78125 6.390625 
Q 39.453125 6.390625 43.28125 13.890625 
Q 47.125 21.390625 47.125 36.375 
Q 47.125 51.421875 43.28125 58.90625 
Q 39.453125 66.40625 31.78125 66.40625 
z
M 31.78125 74.21875 
Q 44.046875 74.21875 50.515625 64.515625 
Q 56.984375 54.828125 56.984375 36.375 
Q 56.984375 17.96875 50.515625 8.265625 
Q 44.046875 -1.421875 31.78125 -1.421875 
Q 19.53125 -1.421875 13.0625 8.265625 
Q 6.59375 17.96875 6.59375 36.375 
Q 6.59375 54.828125 13.0625 64.515625 
Q 19.53125 74.21875 31.78125 74.21875 
z
" id="DejaVuSans-30"/>
      </defs>
      <g transform="translate(70.651477 322.182437)scale(0.1 -0.1)">
       <use xlink:href="#DejaVuSans-30"/>
      </g>
     </g>
    </g>
    <g id="xtick_2">
     <g id="line2d_2">
      <g>
       <use style="stroke:#000000;stroke-width:0.8;" x="128.122785" xlink:href="#ma50327a8a8" y="307.584"/>
      </g>
     </g>
     <g id="text_2">
      <!-- 50 -->
      <defs>
       <path d="M 10.796875 72.90625 
L 49.515625 72.90625 
L 49.515625 64.59375 
L 19.828125 64.59375 
L 19.828125 46.734375 
Q 21.96875 47.46875 24.109375 47.828125 
Q 26.265625 48.1875 28.421875 48.1875 
Q 40.625 48.1875 47.75 41.5 
Q 54.890625 34.8125 54.890625 23.390625 
Q 54.890625 11.625 47.5625 5.09375 
Q 40.234375 -1.421875 26.90625 -1.421875 
Q 22.3125 -1.421875 17.546875 -0.640625 
Q 12.796875 0.140625 7.71875 1.703125 
L 7.71875 11.625 
Q 12.109375 9.234375 16.796875 8.0625 
Q 21.484375 6.890625 26.703125 6.890625 
Q 35.15625 6.890625 40.078125 11.328125 
Q 45.015625 15.765625 45.015625 23.390625 
Q 45.015625 31 40.078125 35.4375 
Q 35.15625 39.890625 26.703125 39.890625 
Q 22.75 39.890625 18.8125 39.015625 
Q 14.890625 38.140625 10.796875 36.28125 
z
" id="DejaVuSans-35"/>
      </defs>
      <g transform="translate(121.760285 322.182437)scale(0.1 -0.1)">
       <use xlink:href="#DejaVuSans-35"/>
       <use x="63.623047" xlink:href="#DejaVuSans-30"/>
      </g>
     </g>
    </g>
    <g id="xtick_3">
     <g id="line2d_3">
      <g>
       <use style="stroke:#000000;stroke-width:0.8;" x="182.412843" xlink:href="#ma50327a8a8" y="307.584"/>
      </g>
     </g>
     <g id="text_3">
      <!-- 100 -->
      <defs>
       <path d="M 12.40625 8.296875 
L 28.515625 8.296875 
L 28.515625 63.921875 
L 10.984375 60.40625 
L 10.984375 69.390625 
L 28.421875 72.90625 
L 38.28125 72.90625 
L 38.28125 8.296875 
L 54.390625 8.296875 
L 54.390625 0 
L 12.40625 0 
z
" id="DejaVuSans-31"/>
      </defs>
      <g transform="translate(172.869093 322.182437)scale(0.1 -0.1)">
       <use xlink:href="#DejaVuSans-31"/>
       <use x="63.623047" xlink:href="#DejaVuSans-30"/>
       <use x="127.246094" xlink:href="#DejaVuSans-30"/>
      </g>
     </g>
    </g>
    <g id="xtick_4">
     <g id="line2d_4">
      <g>
       <use style="stroke:#000000;stroke-width:0.8;" x="236.702901" xlink:href="#ma50327a8a8" y="307.584"/>
      </g>
     </g>
     <g id="text_4">
      <!-- 150 -->
      <g transform="translate(227.159151 322.182437)scale(0.1 -0.1)">
       <use xlink:href="#DejaVuSans-31"/>
       <use x="63.623047" xlink:href="#DejaVuSans-35"/>
       <use x="127.246094" xlink:href="#DejaVuSans-30"/>
      </g>
     </g>
    </g>
    <g id="xtick_5">
     <g id="line2d_5">
      <g>
       <use style="stroke:#000000;stroke-width:0.8;" x="290.992958" xlink:href="#ma50327a8a8" y="307.584"/>
      </g>
     </g>
     <g id="text_5">
      <!-- 200 -->
      <defs>
       <path d="M 19.1875 8.296875 
L 53.609375 8.296875 
L 53.609375 0 
L 7.328125 0 
L 7.328125 8.296875 
Q 12.9375 14.109375 22.625 23.890625 
Q 32.328125 33.6875 34.8125 36.53125 
Q 39.546875 41.84375 41.421875 45.53125 
Q 43.3125 49.21875 43.3125 52.78125 
Q 43.3125 58.59375 39.234375 62.25 
Q 35.15625 65.921875 28.609375 65.921875 
Q 23.96875 65.921875 18.8125 64.3125 
Q 13.671875 62.703125 7.8125 59.421875 
L 7.8125 69.390625 
Q 13.765625 71.78125 18.9375 73 
Q 24.125 74.21875 28.421875 74.21875 
Q 39.75 74.21875 46.484375 68.546875 
Q 53.21875 62.890625 53.21875 53.421875 
Q 53.21875 48.921875 51.53125 44.890625 
Q 49.859375 40.875 45.40625 35.40625 
Q 44.1875 33.984375 37.640625 27.21875 
Q 31.109375 20.453125 19.1875 8.296875 
z
" id="DejaVuSans-32"/>
      </defs>
      <g transform="translate(281.449208 322.182437)scale(0.1 -0.1)">
       <use xlink:href="#DejaVuSans-32"/>
       <use x="63.623047" xlink:href="#DejaVuSans-30"/>
       <use x="127.246094" xlink:href="#DejaVuSans-30"/>
      </g>
     </g>
    </g>
    <g id="xtick_6">
     <g id="line2d_6">
      <g>
       <use style="stroke:#000000;stroke-width:0.8;" x="345.283016" xlink:href="#ma50327a8a8" y="307.584"/>
      </g>
     </g>
     <g id="text_6">
      <!-- 250 -->
      <g transform="translate(335.739266 322.182437)scale(0.1 -0.1)">
       <use xlink:href="#DejaVuSans-32"/>
       <use x="63.623047" xlink:href="#DejaVuSans-35"/>
       <use x="127.246094" xlink:href="#DejaVuSans-30"/>
      </g>
     </g>
    </g>
    <g id="xtick_7">
     <g id="line2d_7">
      <g>
       <use style="stroke:#000000;stroke-width:0.8;" x="399.573074" xlink:href="#ma50327a8a8" y="307.584"/>
      </g>
     </g>
    </g>
    <g id="text_7">
     <!-- Frame index -->
     <defs>
      <path d="M 9.8125 72.90625 
L 51.703125 72.90625 
L 51.703125 64.59375 
L 19.671875 64.59375 
L 19.671875 43.109375 
L 48.578125 43.109375 
L 48.578125 34.8125 
L 19.671875 34.8125 
L 19.671875 0 
L 9.8125 0 
z
" id="DejaVuSans-46"/>
      <path d="M 41.109375 46.296875 
Q 39.59375 47.171875 37.8125 47.578125 
Q 36.03125 48 33.890625 48 
Q 26.265625 48 22.1875 43.046875 
Q 18.109375 38.09375 18.109375 28.8125 
L 18.109375 0 
L 9.078125 0 
L 9.078125 54.6875 
L 18.109375 54.6875 
L 18.109375 46.1875 
Q 20.953125 51.171875 25.484375 53.578125 
Q 30.03125 56 36.53125 56 
Q 37.453125 56 38.578125 55.875 
Q 39.703125 55.765625 41.0625 55.515625 
z
" id="DejaVuSans-72"/>
      <path d="M 34.28125 27.484375 
Q 23.390625 27.484375 19.1875 25 
Q 14.984375 22.515625 14.984375 16.5 
Q 14.984375 11.71875 18.140625 8.90625 
Q 21.296875 6.109375 26.703125 6.109375 
Q 34.1875 6.109375 38.703125 11.40625 
Q 43.21875 16.703125 43.21875 25.484375 
L 43.21875 27.484375 
z
M 52.203125 31.203125 
L 52.203125 0 
L 43.21875 0 
L 43.21875 8.296875 
Q 40.140625 3.328125 35.546875 0.953125 
Q 30.953125 -1.421875 24.3125 -1.421875 
Q 15.921875 -1.421875 10.953125 3.296875 
Q 6 8.015625 6 15.921875 
Q 6 25.140625 12.171875 29.828125 
Q 18.359375 34.515625 30.609375 34.515625 
L 43.21875 34.515625 
L 43.21875 35.40625 
Q 43.21875 41.609375 39.140625 45 
Q 35.0625 48.390625 27.6875 48.390625 
Q 23 48.390625 18.546875 47.265625 
Q 14.109375 46.140625 10.015625 43.890625 
L 10.015625 52.203125 
Q 14.9375 54.109375 19.578125 55.046875 
Q 24.21875 56 28.609375 56 
Q 40.484375 56 46.34375 49.84375 
Q 52.203125 43.703125 52.203125 31.203125 
z
" id="DejaVuSans-61"/>
      <path d="M 52 44.1875 
Q 55.375 50.25 60.0625 53.125 
Q 64.75 56 71.09375 56 
Q 79.640625 56 84.28125 50.015625 
Q 88.921875 44.046875 88.921875 33.015625 
L 88.921875 0 
L 79.890625 0 
L 79.890625 32.71875 
Q 79.890625 40.578125 77.09375 44.375 
Q 74.3125 48.1875 68.609375 48.1875 
Q 61.625 48.1875 57.5625 43.546875 
Q 53.515625 38.921875 53.515625 30.90625 
L 53.515625 0 
L 44.484375 0 
L 44.484375 32.71875 
Q 44.484375 40.625 41.703125 44.40625 
Q 38.921875 48.1875 33.109375 48.1875 
Q 26.21875 48.1875 22.15625 43.53125 
Q 18.109375 38.875 18.109375 30.90625 
L 18.109375 0 
L 9.078125 0 
L 9.078125 54.6875 
L 18.109375 54.6875 
L 18.109375 46.1875 
Q 21.1875 51.21875 25.484375 53.609375 
Q 29.78125 56 35.6875 56 
Q 41.65625 56 45.828125 52.96875 
Q 50 49.953125 52 44.1875 
z
" id="DejaVuSans-6d"/>
      <path d="M 56.203125 29.59375 
L 56.203125 25.203125 
L 14.890625 25.203125 
Q 15.484375 15.921875 20.484375 11.0625 
Q 25.484375 6.203125 34.421875 6.203125 
Q 39.59375 6.203125 44.453125 7.46875 
Q 49.3125 8.734375 54.109375 11.28125 
L 54.109375 2.78125 
Q 49.265625 0.734375 44.1875 -0.34375 
Q 39.109375 -1.421875 33.890625 -1.421875 
Q 20.796875 -1.421875 13.15625 6.1875 
Q 5.515625 13.8125 5.515625 26.8125 
Q 5.515625 40.234375 12.765625 48.109375 
Q 20.015625 56 32.328125 56 
Q 43.359375 56 49.78125 48.890625 
Q 56.203125 41.796875 56.203125 29.59375 
z
M 47.21875 32.234375 
Q 47.125 39.59375 43.09375 43.984375 
Q 39.0625 48.390625 32.421875 48.390625 
Q 24.90625 48.390625 20.390625 44.140625 
Q 15.875 39.890625 15.1875 32.171875 
z
" id="DejaVuSans-65"/>
      <path id="DejaVuSans-20"/>
      <path d="M 9.421875 54.6875 
L 18.40625 54.6875 
L 18.40625 0 
L 9.421875 0 
z
M 9.421875 75.984375 
L 18.40625 75.984375 
L 18.40625 64.59375 
L 9.421875 64.59375 
z
" id="DejaVuSans-69"/>
      <path d="M 54.890625 33.015625 
L 54.890625 0 
L 45.90625 0 
L 45.90625 32.71875 
Q 45.90625 40.484375 42.875 44.328125 
Q 39.84375 48.1875 33.796875 48.1875 
Q 26.515625 48.1875 22.3125 43.546875 
Q 18.109375 38.921875 18.109375 30.90625 
L 18.109375 0 
L 9.078125 0 
L 9.078125 54.6875 
L 18.109375 54.6875 
L 18.109375 46.1875 
Q 21.34375 51.125 25.703125 53.5625 
Q 30.078125 56 35.796875 56 
Q 45.21875 56 50.046875 50.171875 
Q 54.890625 44.34375 54.890625 33.015625 
z
" id="DejaVuSans-6e"/>
      <path d="M 45.40625 46.390625 
L 45.40625 75.984375 
L 54.390625 75.984375 
L 54.390625 0 
L 45.40625 0 
L 45.40625 8.203125 
Q 42.578125 3.328125 38.25 0.953125 
Q 33.9375 -1.421875 27.875 -1.421875 
Q 17.96875 -1.421875 11.734375 6.484375 
Q 5.515625 14.40625 5.515625 27.296875 
Q 5.515625 40.1875 11.734375 48.09375 
Q 17.96875 56 27.875 56 
Q 33.9375 56 38.25 53.625 
Q 42.578125 51.265625 45.40625 46.390625 
z
M 14.796875 27.296875 
Q 14.796875 17.390625 18.875 11.75 
Q 22.953125 6.109375 30.078125 6.109375 
Q 37.203125 6.109375 41.296875 11.75 
Q 45.40625 17.390625 45.40625 27.296875 
Q 45.40625 37.203125 41.296875 42.84375 
Q 37.203125 48.484375 30.078125 48.484375 
Q 22.953125 48.484375 18.875 42.84375 
Q 14.796875 37.203125 14.796875 27.296875 
z
" id="DejaVuSans-64"/>
      <path d="M 54.890625 54.6875 
L 35.109375 28.078125 
L 55.90625 0 
L 45.3125 0 
L 29.390625 21.484375 
L 13.484375 0 
L 2.875 0 
L 24.125 28.609375 
L 4.6875 54.6875 
L 15.28125 54.6875 
L 29.78125 35.203125 
L 44.28125 54.6875 
z
" id="DejaVuSans-78"/>
     </defs>
     <g transform="translate(204.867031 335.860562)scale(0.1 -0.1)">
      <use xlink:href="#DejaVuSans-46"/>
      <use x="57.410156" xlink:href="#DejaVuSans-72"/>
      <use x="98.523438" xlink:href="#DejaVuSans-61"/>
      <use x="159.802734" xlink:href="#DejaVuSans-6d"/>
      <use x="257.214844" xlink:href="#DejaVuSans-65"/>
      <use x="318.738281" xlink:href="#DejaVuSans-20"/>
      <use x="350.525391" xlink:href="#DejaVuSans-69"/>
      <use x="378.308594" xlink:href="#DejaVuSans-6e"/>
      <use x="441.6875" xlink:href="#DejaVuSans-64"/>
      <use x="505.164062" xlink:href="#DejaVuSans-65"/>
      <use x="566.671875" xlink:href="#DejaVuSans-78"/>
     </g>
    </g>
   </g>
   <g id="matplotlib.axis_2">
    <g id="ytick_1">
     <g id="line2d_8">
      <defs>
       <path d="M 0 0 
L -3.5 0 
" id="m6a524b393d" style="stroke:#000000;stroke-width:0.8;"/>
      </defs>
      <g>
       <use style="stroke:#000000;stroke-width:0.8;" x="57.6" xlink:href="#m6a524b393d" y="277.555664"/>
      </g>
     </g>
     <g id="text_8">
      <!-- 1.8 -->
      <defs>
       <path d="M 10.6875 12.40625 
L 21 12.40625 
L 21 0 
L 10.6875 0 
z
" id="DejaVuSans-2e"/>
       <path d="M 31.78125 34.625 
Q 24.75 34.625 20.71875 30.859375 
Q 16.703125 27.09375 16.703125 20.515625 
Q 16.703125 13.921875 20.71875 10.15625 
Q 24.75 6.390625 31.78125 6.390625 
Q 38.8125 6.390625 42.859375 10.171875 
Q 46.921875 13.96875 46.921875 20.515625 
Q 46.921875 27.09375 42.890625 30.859375 
Q 38.875 34.625 31.78125 34.625 
z
M 21.921875 38.8125 
Q 15.578125 40.375 12.03125 44.71875 
Q 8.5 49.078125 8.5 55.328125 
Q 8.5 64.0625 14.71875 69.140625 
Q 20.953125 74.21875 31.78125 74.21875 
Q 42.671875 74.21875 48.875 69.140625 
Q 55.078125 64.0625 55.078125 55.328125 
Q 55.078125 49.078125 51.53125 44.71875 
Q 48 40.375 41.703125 38.8125 
Q 48.828125 37.15625 52.796875 32.3125 
Q 56.78125 27.484375 56.78125 20.515625 
Q 56.78125 9.90625 50.3125 4.234375 
Q 43.84375 -1.421875 31.78125 -1.421875 
Q 19.734375 -1.421875 13.25 4.234375 
Q 6.78125 9.90625 6.78125 20.515625 
Q 6.78125 27.484375 10.78125 32.3125 
Q 14.796875 37.15625 21.921875 38.8125 
z
M 18.3125 54.390625 
Q 18.3125 48.734375 21.84375 45.5625 
Q 25.390625 42.390625 31.78125 42.390625 
Q 38.140625 42.390625 41.71875 45.5625 
Q 45.3125 48.734375 45.3125 54.390625 
Q 45.3125 60.0625 41.71875 63.234375 
Q 38.140625 66.40625 31.78125 66.40625 
Q 25.390625 66.40625 21.84375 63.234375 
Q 18.3125 60.0625 18.3125 54.390625 
z
" id="DejaVuSans-38"/>
      </defs>
      <g transform="translate(34.696875 281.354882)scale(0.1 -0.1)">
       <use xlink:href="#DejaVuSans-31"/>
       <use x="63.623047" xlink:href="#DejaVuSans-2e"/>
       <use x="95.410156" xlink:href="#DejaVuSans-38"/>
      </g>
     </g>
    </g>
    <g id="ytick_2">
     <g id="line2d_9">
      <g>
       <use style="stroke:#000000;stroke-width:0.8;" x="57.6" xlink:href="#m6a524b393d" y="247.000105"/>
      </g>
     </g>
     <g id="text_9">
      <!-- 2.0 -->
      <g transform="translate(34.696875 250.799323)scale(0.1 -0.1)">
       <use xlink:href="#DejaVuSans-32"/>
       <use x="63.623047" xlink:href="#DejaVuSans-2e"/>
       <use x="95.410156" xlink:href="#DejaVuSans-30"/>
      </g>
     </g>
    </g>
    <g id="ytick_3">
     <g id="line2d_10">
      <g>
       <use style="stroke:#000000;stroke-width:0.8;" x="57.6" xlink:href="#m6a524b393d" y="216.444546"/>
      </g>
     </g>
     <g id="text_10">
      <!-- 2.2 -->
      <g transform="translate(34.696875 220.243764)scale(0.1 -0.1)">
       <use xlink:href="#DejaVuSans-32"/>
       <use x="63.623047" xlink:href="#DejaVuSans-2e"/>
       <use x="95.410156" xlink:href="#DejaVuSans-32"/>
      </g>
     </g>
    </g>
    <g id="ytick_4">
     <g id="line2d_11">
      <g>
       <use style="stroke:#000000;stroke-width:0.8;" x="57.6" xlink:href="#m6a524b393d" y="185.888987"/>
      </g>
     </g>
     <g id="text_11">
      <!-- 2.4 -->
      <defs>
       <path d="M 37.796875 64.3125 
L 12.890625 25.390625 
L 37.796875 25.390625 
z
M 35.203125 72.90625 
L 47.609375 72.90625 
L 47.609375 25.390625 
L 58.015625 25.390625 
L 58.015625 17.1875 
L 47.609375 17.1875 
L 47.609375 0 
L 37.796875 0 
L 37.796875 17.1875 
L 4.890625 17.1875 
L 4.890625 26.703125 
z
" id="DejaVuSans-34"/>
      </defs>
      <g transform="translate(34.696875 189.688205)scale(0.1 -0.1)">
       <use xlink:href="#DejaVuSans-32"/>
       <use x="63.623047" xlink:href="#DejaVuSans-2e"/>
       <use x="95.410156" xlink:href="#DejaVuSans-34"/>
      </g>
     </g>
    </g>
    <g id="ytick_5">
     <g id="line2d_12">
      <g>
       <use style="stroke:#000000;stroke-width:0.8;" x="57.6" xlink:href="#m6a524b393d" y="155.333428"/>
      </g>
     </g>
     <g id="text_12">
      <!-- 2.6 -->
      <defs>
       <path d="M 33.015625 40.375 
Q 26.375 40.375 22.484375 35.828125 
Q 18.609375 31.296875 18.609375 23.390625 
Q 18.609375 15.53125 22.484375 10.953125 
Q 26.375 6.390625 33.015625 6.390625 
Q 39.65625 6.390625 43.53125 10.953125 
Q 47.40625 15.53125 47.40625 23.390625 
Q 47.40625 31.296875 43.53125 35.828125 
Q 39.65625 40.375 33.015625 40.375 
z
M 52.59375 71.296875 
L 52.59375 62.3125 
Q 48.875 64.0625 45.09375 64.984375 
Q 41.3125 65.921875 37.59375 65.921875 
Q 27.828125 65.921875 22.671875 59.328125 
Q 17.53125 52.734375 16.796875 39.40625 
Q 19.671875 43.65625 24.015625 45.921875 
Q 28.375 48.1875 33.59375 48.1875 
Q 44.578125 48.1875 50.953125 41.515625 
Q 57.328125 34.859375 57.328125 23.390625 
Q 57.328125 12.15625 50.6875 5.359375 
Q 44.046875 -1.421875 33.015625 -1.421875 
Q 20.359375 -1.421875 13.671875 8.265625 
Q 6.984375 17.96875 6.984375 36.375 
Q 6.984375 53.65625 15.1875 63.9375 
Q 23.390625 74.21875 37.203125 74.21875 
Q 40.921875 74.21875 44.703125 73.484375 
Q 48.484375 72.75 52.59375 71.296875 
z
" id="DejaVuSans-36"/>
      </defs>
      <g transform="translate(34.696875 159.132646)scale(0.1 -0.1)">
       <use xlink:href="#DejaVuSans-32"/>
       <use x="63.623047" xlink:href="#DejaVuSans-2e"/>
       <use x="95.410156" xlink:href="#DejaVuSans-36"/>
      </g>
     </g>
    </g>
    <g id="ytick_6">
     <g id="line2d_13">
      <g>
       <use style="stroke:#000000;stroke-width:0.8;" x="57.6" xlink:href="#m6a524b393d" y="124.777869"/>
      </g>
     </g>
     <g id="text_13">
      <!-- 2.8 -->
      <g transform="translate(34.696875 128.577087)scale(0.1 -0.1)">
       <use xlink:href="#DejaVuSans-32"/>
       <use x="63.623047" xlink:href="#DejaVuSans-2e"/>
       <use x="95.410156" xlink:href="#DejaVuSans-38"/>
      </g>
     </g>
    </g>
    <g id="ytick_7">
     <g id="line2d_14">
      <g>
       <use style="stroke:#000000;stroke-width:0.8;" x="57.6" xlink:href="#m6a524b393d" y="94.22231"/>
      </g>
     </g>
     <g id="text_14">
      <!-- 3.0 -->
      <defs>
       <path d="M 40.578125 39.3125 
Q 47.65625 37.796875 51.625 33 
Q 55.609375 28.21875 55.609375 21.1875 
Q 55.609375 10.40625 48.1875 4.484375 
Q 40.765625 -1.421875 27.09375 -1.421875 
Q 22.515625 -1.421875 17.65625 -0.515625 
Q 12.796875 0.390625 7.625 2.203125 
L 7.625 11.71875 
Q 11.71875 9.328125 16.59375 8.109375 
Q 21.484375 6.890625 26.8125 6.890625 
Q 36.078125 6.890625 40.9375 10.546875 
Q 45.796875 14.203125 45.796875 21.1875 
Q 45.796875 27.640625 41.28125 31.265625 
Q 36.765625 34.90625 28.71875 34.90625 
L 20.21875 34.90625 
L 20.21875 43.015625 
L 29.109375 43.015625 
Q 36.375 43.015625 40.234375 45.921875 
Q 44.09375 48.828125 44.09375 54.296875 
Q 44.09375 59.90625 40.109375 62.90625 
Q 36.140625 65.921875 28.71875 65.921875 
Q 24.65625 65.921875 20.015625 65.03125 
Q 15.375 64.15625 9.8125 62.3125 
L 9.8125 71.09375 
Q 15.4375 72.65625 20.34375 73.4375 
Q 25.25 74.21875 29.59375 74.21875 
Q 40.828125 74.21875 47.359375 69.109375 
Q 53.90625 64.015625 53.90625 55.328125 
Q 53.90625 49.265625 50.4375 45.09375 
Q 46.96875 40.921875 40.578125 39.3125 
z
" id="DejaVuSans-33"/>
      </defs>
      <g transform="translate(34.696875 98.021528)scale(0.1 -0.1)">
       <use xlink:href="#DejaVuSans-33"/>
       <use x="63.623047" xlink:href="#DejaVuSans-2e"/>
       <use x="95.410156" xlink:href="#DejaVuSans-30"/>
      </g>
     </g>
    </g>
    <g id="ytick_8">
     <g id="line2d_15">
      <g>
       <use style="stroke:#000000;stroke-width:0.8;" x="57.6" xlink:href="#m6a524b393d" y="63.666751"/>
      </g>
     </g>
     <g id="text_15">
      <!-- 3.2 -->
      <g transform="translate(34.696875 67.465969)scale(0.1 -0.1)">
       <use xlink:href="#DejaVuSans-33"/>
       <use x="63.623047" xlink:href="#DejaVuSans-2e"/>
       <use x="95.410156" xlink:href="#DejaVuSans-32"/>
      </g>
     </g>
    </g>
    <g id="text_16">
     <!-- RMSD -->
     <defs>
      <path d="M 44.390625 34.1875 
Q 47.5625 33.109375 50.5625 29.59375 
Q 53.5625 26.078125 56.59375 19.921875 
L 66.609375 0 
L 56 0 
L 46.6875 18.703125 
Q 43.0625 26.03125 39.671875 28.421875 
Q 36.28125 30.8125 30.421875 30.8125 
L 19.671875 30.8125 
L 19.671875 0 
L 9.8125 0 
L 9.8125 72.90625 
L 32.078125 72.90625 
Q 44.578125 72.90625 50.734375 67.671875 
Q 56.890625 62.453125 56.890625 51.90625 
Q 56.890625 45.015625 53.6875 40.46875 
Q 50.484375 35.9375 44.390625 34.1875 
z
M 19.671875 64.796875 
L 19.671875 38.921875 
L 32.078125 38.921875 
Q 39.203125 38.921875 42.84375 42.21875 
Q 46.484375 45.515625 46.484375 51.90625 
Q 46.484375 58.296875 42.84375 61.546875 
Q 39.203125 64.796875 32.078125 64.796875 
z
" id="DejaVuSans-52"/>
      <path d="M 9.8125 72.90625 
L 24.515625 72.90625 
L 43.109375 23.296875 
L 61.8125 72.90625 
L 76.515625 72.90625 
L 76.515625 0 
L 66.890625 0 
L 66.890625 64.015625 
L 48.09375 14.015625 
L 38.1875 14.015625 
L 19.390625 64.015625 
L 19.390625 0 
L 9.8125 0 
z
" id="DejaVuSans-4d"/>
      <path d="M 53.515625 70.515625 
L 53.515625 60.890625 
Q 47.90625 63.578125 42.921875 64.890625 
Q 37.9375 66.21875 33.296875 66.21875 
Q 25.25 66.21875 20.875 63.09375 
Q 16.5 59.96875 16.5 54.203125 
Q 16.5 49.359375 19.40625 46.890625 
Q 22.3125 44.4375 30.421875 42.921875 
L 36.375 41.703125 
Q 47.40625 39.59375 52.65625 34.296875 
Q 57.90625 29 57.90625 20.125 
Q 57.90625 9.515625 50.796875 4.046875 
Q 43.703125 -1.421875 29.984375 -1.421875 
Q 24.8125 -1.421875 18.96875 -0.25 
Q 13.140625 0.921875 6.890625 3.21875 
L 6.890625 13.375 
Q 12.890625 10.015625 18.65625 8.296875 
Q 24.421875 6.59375 29.984375 6.59375 
Q 38.421875 6.59375 43.015625 9.90625 
Q 47.609375 13.234375 47.609375 19.390625 
Q 47.609375 24.75 44.3125 27.78125 
Q 41.015625 30.8125 33.5 32.328125 
L 27.484375 33.5 
Q 16.453125 35.6875 11.515625 40.375 
Q 6.59375 45.0625 6.59375 53.421875 
Q 6.59375 63.09375 13.40625 68.65625 
Q 20.21875 74.21875 32.171875 74.21875 
Q 37.3125 74.21875 42.625 73.28125 
Q 47.953125 72.359375 53.515625 70.515625 
z
" id="DejaVuSans-53"/>
      <path d="M 19.671875 64.796875 
L 19.671875 8.109375 
L 31.59375 8.109375 
Q 46.6875 8.109375 53.6875 14.9375 
Q 60.6875 21.78125 60.6875 36.53125 
Q 60.6875 51.171875 53.6875 57.984375 
Q 46.6875 64.796875 31.59375 64.796875 
z
M 9.8125 72.90625 
L 30.078125 72.90625 
Q 51.265625 72.90625 61.171875 64.09375 
Q 71.09375 55.28125 71.09375 36.53125 
Q 71.09375 17.671875 61.125 8.828125 
Q 51.171875 0 30.078125 0 
L 9.8125 0 
z
" id="DejaVuSans-44"/>
     </defs>
     <g transform="translate(28.617187 189.3405)rotate(-90)scale(0.1 -0.1)">
      <use xlink:href="#DejaVuSans-52"/>
      <use x="69.482422" xlink:href="#DejaVuSans-4d"/>
      <use x="155.761719" xlink:href="#DejaVuSans-53"/>
      <use x="219.238281" xlink:href="#DejaVuSans-44"/>
     </g>
    </g>
   </g>
   <g id="line2d_16">
    <path clip-path="url(#p18dc4f5ec5)" d="M 73.832727 295.488 
L 74.918528 270.012301 
L 76.00433 225.955142 
L 78.175932 161.270935 
L 79.261733 150.889041 
L 80.347534 166.453367 
L 81.433335 157.166967 
L 82.519137 161.775309 
L 83.604938 162.657089 
L 84.690739 158.313143 
L 85.77654 152.559035 
L 87.948142 147.153069 
L 89.033943 140.609211 
L 90.119745 131.878357 
L 91.205546 128.631256 
L 92.291347 118.449546 
L 93.377148 124.408909 
L 94.462949 125.183319 
L 95.54875 136.884171 
L 96.634552 140.114163 
L 97.720353 132.418181 
L 98.806154 129.940639 
L 99.891955 128.549822 
L 100.977756 118.018971 
L 102.063557 118.719504 
L 103.149358 122.02349 
L 104.23516 118.136086 
L 105.320961 95.860771 
L 106.406762 94.542955 
L 107.492563 110.568879 
L 108.578364 109.579551 
L 109.664165 103.805835 
L 110.749967 102.953716 
L 111.835768 104.22608 
L 112.921569 95.912043 
L 114.00737 89.736185 
L 115.093171 93.686301 
L 116.178972 89.07985 
L 117.264773 85.353666 
L 118.350575 88.878062 
L 119.436376 90.003659 
L 120.522177 92.830956 
L 121.607978 90.20568 
L 122.693779 87.049416 
L 123.77958 92.527675 
L 124.865382 92.897737 
L 125.951183 92.131403 
L 127.036984 88.015763 
L 128.122785 92.330391 
L 129.208586 93.486075 
L 130.294387 92.415426 
L 131.380189 89.463173 
L 132.46599 85.158562 
L 133.551791 88.721939 
L 134.637592 74.625416 
L 135.723393 85.10261 
L 136.809194 83.689276 
L 137.894995 104.688487 
L 138.980797 101.722793 
L 140.066598 103.372251 
L 141.152399 108.631759 
L 142.2382 94.323305 
L 143.324001 92.565238 
L 144.409802 84.720144 
L 145.495604 81.82513 
L 146.581405 78.203171 
L 147.667206 84.703003 
L 148.753007 79.867739 
L 149.838808 78.37801 
L 150.924609 84.305494 
L 153.096212 102.313336 
L 154.182013 107.679665 
L 155.267814 109.191647 
L 156.353615 109.453651 
L 157.439416 110.749643 
L 158.525217 124.568892 
L 159.611019 121.478074 
L 160.69682 117.683529 
L 162.868422 121.071237 
L 163.954223 121.861222 
L 165.040024 112.966204 
L 166.125825 129.098253 
L 167.211627 120.778331 
L 168.297428 113.967723 
L 169.383229 102.89407 
L 170.46903 108.052388 
L 171.554831 110.178914 
L 172.640632 104.513178 
L 173.726434 106.110058 
L 174.812235 105.993451 
L 175.898036 113.501049 
L 176.983837 99.479413 
L 178.069638 101.252822 
L 179.155439 98.088185 
L 180.24124 98.506243 
L 181.327042 111.62919 
L 182.412843 114.849494 
L 183.498644 108.486086 
L 184.584445 106.394081 
L 185.670246 118.105879 
L 186.756047 109.311227 
L 187.841849 115.170744 
L 188.92765 110.260426 
L 190.013451 123.53651 
L 191.099252 109.228224 
L 192.185053 112.416791 
L 193.270854 102.516174 
L 194.356656 106.801597 
L 195.442457 104.791113 
L 196.528258 111.235098 
L 197.614059 113.871241 
L 198.69986 108.078115 
L 199.785661 115.021656 
L 200.871462 111.549024 
L 201.957264 100.367888 
L 203.043065 103.20091 
L 204.128866 106.71738 
L 205.214667 106.602626 
L 206.300468 97.789131 
L 207.386269 98.738972 
L 208.472071 94.647871 
L 209.557872 100.12765 
L 210.643673 93.617271 
L 211.729474 96.800609 
L 212.815275 103.06887 
L 213.901076 100.61613 
L 214.986877 96.29792 
L 216.072679 100.918302 
L 217.15848 94.151208 
L 219.330082 94.297405 
L 220.415883 98.024306 
L 221.501684 100.21335 
L 222.587486 97.854056 
L 223.673287 97.907565 
L 224.759088 93.61498 
L 225.844889 93.303948 
L 226.93069 96.782732 
L 228.016491 97.965898 
L 229.102292 89.965465 
L 230.188094 97.907987 
L 231.273895 100.57096 
L 232.359696 94.186507 
L 233.445497 81.429886 
L 234.531298 83.966741 
L 235.617099 78.197992 
L 236.702901 83.357531 
L 237.788702 72.469891 
L 238.874503 74.552052 
L 239.960304 84.137039 
L 241.046105 74.128757 
L 242.131906 68.976586 
L 243.217708 65.052239 
L 244.303509 63.200312 
L 245.38931 59.161746 
L 246.475111 62.408725 
L 247.560912 73.258613 
L 248.646713 67.49286 
L 249.732514 71.620613 
L 250.818316 57.751952 
L 251.904117 69.070211 
L 252.989918 65.17175 
L 254.075719 68.062085 
L 255.16152 65.109254 
L 256.247321 68.524644 
L 257.333123 75.491695 
L 258.418924 79.569745 
L 259.504725 75.748759 
L 260.590526 85.308856 
L 261.676327 86.587512 
L 262.762128 84.895884 
L 263.847929 91.829852 
L 264.933731 92.813364 
L 266.019532 77.198027 
L 267.105333 79.459936 
L 268.191134 76.805132 
L 269.276935 72.228396 
L 270.362736 76.287943 
L 271.448538 73.515884 
L 272.534339 69.547468 
L 273.62014 71.850816 
L 274.705941 84.368022 
L 275.791742 93.815638 
L 276.877543 86.148262 
L 277.963344 82.17119 
L 279.049146 94.607408 
L 280.134947 79.564955 
L 281.220748 81.155534 
L 282.306549 83.320704 
L 283.39235 69.78162 
L 284.478151 70.340081 
L 285.563953 67.632604 
L 286.649754 72.368565 
L 287.735555 73.747076 
L 289.907157 75.124732 
L 290.992958 75.956248 
L 292.07876 77.368881 
L 293.164561 70.105407 
L 294.250362 78.295319 
L 295.336163 85.385946 
L 296.421964 90.866265 
L 297.507765 72.98915 
L 298.593566 86.186486 
L 299.679368 74.805439 
L 300.765169 79.82854 
L 301.85097 81.026031 
L 302.936771 73.294807 
L 304.022572 83.912823 
L 305.108373 78.876918 
L 306.194175 70.01816 
L 307.279976 71.208453 
L 308.365777 67.861824 
L 309.451578 72.960029 
L 310.537379 71.415794 
L 311.62318 77.214016 
L 312.708981 79.647372 
L 313.794783 84.078456 
L 314.880584 75.841967 
L 315.966385 69.031446 
L 317.052186 67.932572 
L 318.137987 64.504019 
L 319.223788 65.085752 
L 320.30959 66.399065 
L 321.395391 74.281663 
L 322.481192 68.789118 
L 323.566993 75.937533 
L 324.652794 68.669756 
L 325.738595 69.495309 
L 326.824396 66.984041 
L 327.910198 68.324687 
L 328.995999 64.986578 
L 330.0818 78.669212 
L 331.167601 77.493547 
L 332.253402 66.634353 
L 333.339203 70.408684 
L 334.425005 70.265049 
L 335.510806 63.677917 
L 336.596607 79.04282 
L 337.682408 90.840806 
L 338.768209 74.388132 
L 339.85401 80.076534 
L 340.939811 74.982396 
L 342.025613 75.080937 
L 343.111414 72.482243 
L 344.197215 67.088691 
L 345.283016 77.325 
L 346.368817 63.816585 
L 347.454618 62.839043 
L 348.54042 68.133413 
L 349.626221 87.708128 
L 350.712022 80.017315 
L 351.797823 78.951861 
L 352.883624 75.421874 
L 353.969425 81.034859 
L 355.055227 76.027175 
L 356.141028 73.5925 
L 357.226829 67.539165 
L 358.31263 70.903179 
L 359.398431 69.643533 
L 360.484232 67.242357 
L 361.570033 66.199703 
L 362.655835 87.043102 
L 363.741636 88.134899 
L 364.827437 80.807527 
L 365.913238 80.084733 
L 366.999039 77.666905 
L 368.08484 80.795161 
L 369.170642 73.914749 
L 370.256443 71.366327 
L 371.342244 83.184924 
L 372.428045 75.259467 
L 373.513846 76.276548 
L 374.599647 62.220516 
L 376.77125 69.905553 
L 377.857051 57.215683 
L 378.942852 59.937589 
L 380.028653 63.700298 
L 381.114454 61.787287 
L 382.200255 53.568 
L 383.286057 57.687714 
L 384.371858 59.284425 
L 385.457659 69.524317 
L 386.54346 68.318629 
L 387.629261 84.615166 
L 388.715062 79.867566 
L 389.800863 71.989791 
L 390.886665 82.60697 
L 391.972466 78.358493 
L 393.058267 78.470205 
L 394.144068 82.631834 
L 395.229869 85.809759 
L 396.31567 76.259529 
L 397.401472 71.768666 
L 398.487273 74.775931 
L 398.487273 74.775931 
" style="fill:none;stroke:#666666;stroke-dasharray:1,1.65;stroke-dashoffset:0;"/>
    <defs>
     <path d="M 0 0.5 
C 0.132602 0.5 0.25979 0.447317 0.353553 0.353553 
C 0.447317 0.25979 0.5 0.132602 0.5 0 
C 0.5 -0.132602 0.447317 -0.25979 0.353553 -0.353553 
C 0.25979 -0.447317 0.132602 -0.5 0 -0.5 
C -0.132602 -0.5 -0.25979 -0.447317 -0.353553 -0.353553 
C -0.447317 -0.25979 -0.5 -0.132602 -0.5 0 
C -0.5 0.132602 -0.447317 0.25979 -0.353553 0.353553 
C -0.25979 0.447317 -0.132602 0.5 0 0.5 
z
" id="m508c01e07c" style="stroke:#666666;"/>
    </defs>
    <g clip-path="url(#p18dc4f5ec5)">
     <use style="fill:#666666;stroke:#666666;" x="73.832727" xlink:href="#m508c01e07c" y="295.488"/>
     <use style="fill:#666666;stroke:#666666;" x="74.918528" xlink:href="#m508c01e07c" y="270.012301"/>
     <use style="fill:#666666;stroke:#666666;" x="76.00433" xlink:href="#m508c01e07c" y="225.955142"/>
     <use style="fill:#666666;stroke:#666666;" x="77.090131" xlink:href="#m508c01e07c" y="191.998766"/>
     <use style="fill:#666666;stroke:#666666;" x="78.175932" xlink:href="#m508c01e07c" y="161.270935"/>
     <use style="fill:#666666;stroke:#666666;" x="79.261733" xlink:href="#m508c01e07c" y="150.889041"/>
     <use style="fill:#666666;stroke:#666666;" x="80.347534" xlink:href="#m508c01e07c" y="166.453367"/>
     <use style="fill:#666666;stroke:#666666;" x="81.433335" xlink:href="#m508c01e07c" y="157.166967"/>
     <use style="fill:#666666;stroke:#666666;" x="82.519137" xlink:href="#m508c01e07c" y="161.775309"/>
     <use style="fill:#666666;stroke:#666666;" x="83.604938" xlink:href="#m508c01e07c" y="162.657089"/>
     <use style="fill:#666666;stroke:#666666;" x="84.690739" xlink:href="#m508c01e07c" y="158.313143"/>
     <use style="fill:#666666;stroke:#666666;" x="85.77654" xlink:href="#m508c01e07c" y="152.559035"/>
     <use style="fill:#666666;stroke:#666666;" x="86.862341" xlink:href="#m508c01e07c" y="149.895798"/>
     <use style="fill:#666666;stroke:#666666;" x="87.948142" xlink:href="#m508c01e07c" y="147.153069"/>
     <use style="fill:#666666;stroke:#666666;" x="89.033943" xlink:href="#m508c01e07c" y="140.609211"/>
     <use style="fill:#666666;stroke:#666666;" x="90.119745" xlink:href="#m508c01e07c" y="131.878357"/>
     <use style="fill:#666666;stroke:#666666;" x="91.205546" xlink:href="#m508c01e07c" y="128.631256"/>
     <use style="fill:#666666;stroke:#666666;" x="92.291347" xlink:href="#m508c01e07c" y="118.449546"/>
     <use style="fill:#666666;stroke:#666666;" x="93.377148" xlink:href="#m508c01e07c" y="124.408909"/>
     <use style="fill:#666666;stroke:#666666;" x="94.462949" xlink:href="#m508c01e07c" y="125.183319"/>
     <use style="fill:#666666;stroke:#666666;" x="95.54875" xlink:href="#m508c01e07c" y="136.884171"/>
     <use style="fill:#666666;stroke:#666666;" x="96.634552" xlink:href="#m508c01e07c" y="140.114163"/>
     <use style="fill:#666666;stroke:#666666;" x="97.720353" xlink:href="#m508c01e07c" y="132.418181"/>
     <use style="fill:#666666;stroke:#666666;" x="98.806154" xlink:href="#m508c01e07c" y="129.940639"/>
     <use style="fill:#666666;stroke:#666666;" x="99.891955" xlink:href="#m508c01e07c" y="128.549822"/>
     <use style="fill:#666666;stroke:#666666;" x="100.977756" xlink:href="#m508c01e07c" y="118.018971"/>
     <use style="fill:#666666;stroke:#666666;" x="102.063557" xlink:href="#m508c01e07c" y="118.719504"/>
     <use style="fill:#666666;stroke:#666666;" x="103.149358" xlink:href="#m508c01e07c" y="122.02349"/>
     <use style="fill:#666666;stroke:#666666;" x="104.23516" xlink:href="#m508c01e07c" y="118.136086"/>
     <use style="fill:#666666;stroke:#666666;" x="105.320961" xlink:href="#m508c01e07c" y="95.860771"/>
     <use style="fill:#666666;stroke:#666666;" x="106.406762" xlink:href="#m508c01e07c" y="94.542955"/>
     <use style="fill:#666666;stroke:#666666;" x="107.492563" xlink:href="#m508c01e07c" y="110.568879"/>
     <use style="fill:#666666;stroke:#666666;" x="108.578364" xlink:href="#m508c01e07c" y="109.579551"/>
     <use style="fill:#666666;stroke:#666666;" x="109.664165" xlink:href="#m508c01e07c" y="103.805835"/>
     <use style="fill:#666666;stroke:#666666;" x="110.749967" xlink:href="#m508c01e07c" y="102.953716"/>
     <use style="fill:#666666;stroke:#666666;" x="111.835768" xlink:href="#m508c01e07c" y="104.22608"/>
     <use style="fill:#666666;stroke:#666666;" x="112.921569" xlink:href="#m508c01e07c" y="95.912043"/>
     <use style="fill:#666666;stroke:#666666;" x="114.00737" xlink:href="#m508c01e07c" y="89.736185"/>
     <use style="fill:#666666;stroke:#666666;" x="115.093171" xlink:href="#m508c01e07c" y="93.686301"/>
     <use style="fill:#666666;stroke:#666666;" x="116.178972" xlink:href="#m508c01e07c" y="89.07985"/>
     <use style="fill:#666666;stroke:#666666;" x="117.264773" xlink:href="#m508c01e07c" y="85.353666"/>
     <use style="fill:#666666;stroke:#666666;" x="118.350575" xlink:href="#m508c01e07c" y="88.878062"/>
     <use style="fill:#666666;stroke:#666666;" x="119.436376" xlink:href="#m508c01e07c" y="90.003659"/>
     <use style="fill:#666666;stroke:#666666;" x="120.522177" xlink:href="#m508c01e07c" y="92.830956"/>
     <use style="fill:#666666;stroke:#666666;" x="121.607978" xlink:href="#m508c01e07c" y="90.20568"/>
     <use style="fill:#666666;stroke:#666666;" x="122.693779" xlink:href="#m508c01e07c" y="87.049416"/>
     <use style="fill:#666666;stroke:#666666;" x="123.77958" xlink:href="#m508c01e07c" y="92.527675"/>
     <use style="fill:#666666;stroke:#666666;" x="124.865382" xlink:href="#m508c01e07c" y="92.897737"/>
     <use style="fill:#666666;stroke:#666666;" x="125.951183" xlink:href="#m508c01e07c" y="92.131403"/>
     <use style="fill:#666666;stroke:#666666;" x="127.036984" xlink:href="#m508c01e07c" y="88.015763"/>
     <use style="fill:#666666;stroke:#666666;" x="128.122785" xlink:href="#m508c01e07c" y="92.330391"/>
     <use style="fill:#666666;stroke:#666666;" x="129.208586" xlink:href="#m508c01e07c" y="93.486075"/>
     <use style="fill:#666666;stroke:#666666;" x="130.294387" xlink:href="#m508c01e07c" y="92.415426"/>
     <use style="fill:#666666;stroke:#666666;" x="131.380189" xlink:href="#m508c01e07c" y="89.463173"/>
     <use style="fill:#666666;stroke:#666666;" x="132.46599" xlink:href="#m508c01e07c" y="85.158562"/>
     <use style="fill:#666666;stroke:#666666;" x="133.551791" xlink:href="#m508c01e07c" y="88.721939"/>
     <use style="fill:#666666;stroke:#666666;" x="134.637592" xlink:href="#m508c01e07c" y="74.625416"/>
     <use style="fill:#666666;stroke:#666666;" x="135.723393" xlink:href="#m508c01e07c" y="85.10261"/>
     <use style="fill:#666666;stroke:#666666;" x="136.809194" xlink:href="#m508c01e07c" y="83.689276"/>
     <use style="fill:#666666;stroke:#666666;" x="137.894995" xlink:href="#m508c01e07c" y="104.688487"/>
     <use style="fill:#666666;stroke:#666666;" x="138.980797" xlink:href="#m508c01e07c" y="101.722793"/>
     <use style="fill:#666666;stroke:#666666;" x="140.066598" xlink:href="#m508c01e07c" y="103.372251"/>
     <use style="fill:#666666;stroke:#666666;" x="141.152399" xlink:href="#m508c01e07c" y="108.631759"/>
     <use style="fill:#666666;stroke:#666666;" x="142.2382" xlink:href="#m508c01e07c" y="94.323305"/>
     <use style="fill:#666666;stroke:#666666;" x="143.324001" xlink:href="#m508c01e07c" y="92.565238"/>
     <use style="fill:#666666;stroke:#666666;" x="144.409802" xlink:href="#m508c01e07c" y="84.720144"/>
     <use style="fill:#666666;stroke:#666666;" x="145.495604" xlink:href="#m508c01e07c" y="81.82513"/>
     <use style="fill:#666666;stroke:#666666;" x="146.581405" xlink:href="#m508c01e07c" y="78.203171"/>
     <use style="fill:#666666;stroke:#666666;" x="147.667206" xlink:href="#m508c01e07c" y="84.703003"/>
     <use style="fill:#666666;stroke:#666666;" x="148.753007" xlink:href="#m508c01e07c" y="79.867739"/>
     <use style="fill:#666666;stroke:#666666;" x="149.838808" xlink:href="#m508c01e07c" y="78.37801"/>
     <use style="fill:#666666;stroke:#666666;" x="150.924609" xlink:href="#m508c01e07c" y="84.305494"/>
     <use style="fill:#666666;stroke:#666666;" x="152.01041" xlink:href="#m508c01e07c" y="93.394495"/>
     <use style="fill:#666666;stroke:#666666;" x="153.096212" xlink:href="#m508c01e07c" y="102.313336"/>
     <use style="fill:#666666;stroke:#666666;" x="154.182013" xlink:href="#m508c01e07c" y="107.679665"/>
     <use style="fill:#666666;stroke:#666666;" x="155.267814" xlink:href="#m508c01e07c" y="109.191647"/>
     <use style="fill:#666666;stroke:#666666;" x="156.353615" xlink:href="#m508c01e07c" y="109.453651"/>
     <use style="fill:#666666;stroke:#666666;" x="157.439416" xlink:href="#m508c01e07c" y="110.749643"/>
     <use style="fill:#666666;stroke:#666666;" x="158.525217" xlink:href="#m508c01e07c" y="124.568892"/>
     <use style="fill:#666666;stroke:#666666;" x="159.611019" xlink:href="#m508c01e07c" y="121.478074"/>
     <use style="fill:#666666;stroke:#666666;" x="160.69682" xlink:href="#m508c01e07c" y="117.683529"/>
     <use style="fill:#666666;stroke:#666666;" x="161.782621" xlink:href="#m508c01e07c" y="119.368617"/>
     <use style="fill:#666666;stroke:#666666;" x="162.868422" xlink:href="#m508c01e07c" y="121.071237"/>
     <use style="fill:#666666;stroke:#666666;" x="163.954223" xlink:href="#m508c01e07c" y="121.861222"/>
     <use style="fill:#666666;stroke:#666666;" x="165.040024" xlink:href="#m508c01e07c" y="112.966204"/>
     <use style="fill:#666666;stroke:#666666;" x="166.125825" xlink:href="#m508c01e07c" y="129.098253"/>
     <use style="fill:#666666;stroke:#666666;" x="167.211627" xlink:href="#m508c01e07c" y="120.778331"/>
     <use style="fill:#666666;stroke:#666666;" x="168.297428" xlink:href="#m508c01e07c" y="113.967723"/>
     <use style="fill:#666666;stroke:#666666;" x="169.383229" xlink:href="#m508c01e07c" y="102.89407"/>
     <use style="fill:#666666;stroke:#666666;" x="170.46903" xlink:href="#m508c01e07c" y="108.052388"/>
     <use style="fill:#666666;stroke:#666666;" x="171.554831" xlink:href="#m508c01e07c" y="110.178914"/>
     <use style="fill:#666666;stroke:#666666;" x="172.640632" xlink:href="#m508c01e07c" y="104.513178"/>
     <use style="fill:#666666;stroke:#666666;" x="173.726434" xlink:href="#m508c01e07c" y="106.110058"/>
     <use style="fill:#666666;stroke:#666666;" x="174.812235" xlink:href="#m508c01e07c" y="105.993451"/>
     <use style="fill:#666666;stroke:#666666;" x="175.898036" xlink:href="#m508c01e07c" y="113.501049"/>
     <use style="fill:#666666;stroke:#666666;" x="176.983837" xlink:href="#m508c01e07c" y="99.479413"/>
     <use style="fill:#666666;stroke:#666666;" x="178.069638" xlink:href="#m508c01e07c" y="101.252822"/>
     <use style="fill:#666666;stroke:#666666;" x="179.155439" xlink:href="#m508c01e07c" y="98.088185"/>
     <use style="fill:#666666;stroke:#666666;" x="180.24124" xlink:href="#m508c01e07c" y="98.506243"/>
     <use style="fill:#666666;stroke:#666666;" x="181.327042" xlink:href="#m508c01e07c" y="111.62919"/>
     <use style="fill:#666666;stroke:#666666;" x="182.412843" xlink:href="#m508c01e07c" y="114.849494"/>
     <use style="fill:#666666;stroke:#666666;" x="183.498644" xlink:href="#m508c01e07c" y="108.486086"/>
     <use style="fill:#666666;stroke:#666666;" x="184.584445" xlink:href="#m508c01e07c" y="106.394081"/>
     <use style="fill:#666666;stroke:#666666;" x="185.670246" xlink:href="#m508c01e07c" y="118.105879"/>
     <use style="fill:#666666;stroke:#666666;" x="186.756047" xlink:href="#m508c01e07c" y="109.311227"/>
     <use style="fill:#666666;stroke:#666666;" x="187.841849" xlink:href="#m508c01e07c" y="115.170744"/>
     <use style="fill:#666666;stroke:#666666;" x="188.92765" xlink:href="#m508c01e07c" y="110.260426"/>
     <use style="fill:#666666;stroke:#666666;" x="190.013451" xlink:href="#m508c01e07c" y="123.53651"/>
     <use style="fill:#666666;stroke:#666666;" x="191.099252" xlink:href="#m508c01e07c" y="109.228224"/>
     <use style="fill:#666666;stroke:#666666;" x="192.185053" xlink:href="#m508c01e07c" y="112.416791"/>
     <use style="fill:#666666;stroke:#666666;" x="193.270854" xlink:href="#m508c01e07c" y="102.516174"/>
     <use style="fill:#666666;stroke:#666666;" x="194.356656" xlink:href="#m508c01e07c" y="106.801597"/>
     <use style="fill:#666666;stroke:#666666;" x="195.442457" xlink:href="#m508c01e07c" y="104.791113"/>
     <use style="fill:#666666;stroke:#666666;" x="196.528258" xlink:href="#m508c01e07c" y="111.235098"/>
     <use style="fill:#666666;stroke:#666666;" x="197.614059" xlink:href="#m508c01e07c" y="113.871241"/>
     <use style="fill:#666666;stroke:#666666;" x="198.69986" xlink:href="#m508c01e07c" y="108.078115"/>
     <use style="fill:#666666;stroke:#666666;" x="199.785661" xlink:href="#m508c01e07c" y="115.021656"/>
     <use style="fill:#666666;stroke:#666666;" x="200.871462" xlink:href="#m508c01e07c" y="111.549024"/>
     <use style="fill:#666666;stroke:#666666;" x="201.957264" xlink:href="#m508c01e07c" y="100.367888"/>
     <use style="fill:#666666;stroke:#666666;" x="203.043065" xlink:href="#m508c01e07c" y="103.20091"/>
     <use style="fill:#666666;stroke:#666666;" x="204.128866" xlink:href="#m508c01e07c" y="106.71738"/>
     <use style="fill:#666666;stroke:#666666;" x="205.214667" xlink:href="#m508c01e07c" y="106.602626"/>
     <use style="fill:#666666;stroke:#666666;" x="206.300468" xlink:href="#m508c01e07c" y="97.789131"/>
     <use style="fill:#666666;stroke:#666666;" x="207.386269" xlink:href="#m508c01e07c" y="98.738972"/>
     <use style="fill:#666666;stroke:#666666;" x="208.472071" xlink:href="#m508c01e07c" y="94.647871"/>
     <use style="fill:#666666;stroke:#666666;" x="209.557872" xlink:href="#m508c01e07c" y="100.12765"/>
     <use style="fill:#666666;stroke:#666666;" x="210.643673" xlink:href="#m508c01e07c" y="93.617271"/>
     <use style="fill:#666666;stroke:#666666;" x="211.729474" xlink:href="#m508c01e07c" y="96.800609"/>
     <use style="fill:#666666;stroke:#666666;" x="212.815275" xlink:href="#m508c01e07c" y="103.06887"/>
     <use style="fill:#666666;stroke:#666666;" x="213.901076" xlink:href="#m508c01e07c" y="100.61613"/>
     <use style="fill:#666666;stroke:#666666;" x="214.986877" xlink:href="#m508c01e07c" y="96.29792"/>
     <use style="fill:#666666;stroke:#666666;" x="216.072679" xlink:href="#m508c01e07c" y="100.918302"/>
     <use style="fill:#666666;stroke:#666666;" x="217.15848" xlink:href="#m508c01e07c" y="94.151208"/>
     <use style="fill:#666666;stroke:#666666;" x="218.244281" xlink:href="#m508c01e07c" y="94.190459"/>
     <use style="fill:#666666;stroke:#666666;" x="219.330082" xlink:href="#m508c01e07c" y="94.297405"/>
     <use style="fill:#666666;stroke:#666666;" x="220.415883" xlink:href="#m508c01e07c" y="98.024306"/>
     <use style="fill:#666666;stroke:#666666;" x="221.501684" xlink:href="#m508c01e07c" y="100.21335"/>
     <use style="fill:#666666;stroke:#666666;" x="222.587486" xlink:href="#m508c01e07c" y="97.854056"/>
     <use style="fill:#666666;stroke:#666666;" x="223.673287" xlink:href="#m508c01e07c" y="97.907565"/>
     <use style="fill:#666666;stroke:#666666;" x="224.759088" xlink:href="#m508c01e07c" y="93.61498"/>
     <use style="fill:#666666;stroke:#666666;" x="225.844889" xlink:href="#m508c01e07c" y="93.303948"/>
     <use style="fill:#666666;stroke:#666666;" x="226.93069" xlink:href="#m508c01e07c" y="96.782732"/>
     <use style="fill:#666666;stroke:#666666;" x="228.016491" xlink:href="#m508c01e07c" y="97.965898"/>
     <use style="fill:#666666;stroke:#666666;" x="229.102292" xlink:href="#m508c01e07c" y="89.965465"/>
     <use style="fill:#666666;stroke:#666666;" x="230.188094" xlink:href="#m508c01e07c" y="97.907987"/>
     <use style="fill:#666666;stroke:#666666;" x="231.273895" xlink:href="#m508c01e07c" y="100.57096"/>
     <use style="fill:#666666;stroke:#666666;" x="232.359696" xlink:href="#m508c01e07c" y="94.186507"/>
     <use style="fill:#666666;stroke:#666666;" x="233.445497" xlink:href="#m508c01e07c" y="81.429886"/>
     <use style="fill:#666666;stroke:#666666;" x="234.531298" xlink:href="#m508c01e07c" y="83.966741"/>
     <use style="fill:#666666;stroke:#666666;" x="235.617099" xlink:href="#m508c01e07c" y="78.197992"/>
     <use style="fill:#666666;stroke:#666666;" x="236.702901" xlink:href="#m508c01e07c" y="83.357531"/>
     <use style="fill:#666666;stroke:#666666;" x="237.788702" xlink:href="#m508c01e07c" y="72.469891"/>
     <use style="fill:#666666;stroke:#666666;" x="238.874503" xlink:href="#m508c01e07c" y="74.552052"/>
     <use style="fill:#666666;stroke:#666666;" x="239.960304" xlink:href="#m508c01e07c" y="84.137039"/>
     <use style="fill:#666666;stroke:#666666;" x="241.046105" xlink:href="#m508c01e07c" y="74.128757"/>
     <use style="fill:#666666;stroke:#666666;" x="242.131906" xlink:href="#m508c01e07c" y="68.976586"/>
     <use style="fill:#666666;stroke:#666666;" x="243.217708" xlink:href="#m508c01e07c" y="65.052239"/>
     <use style="fill:#666666;stroke:#666666;" x="244.303509" xlink:href="#m508c01e07c" y="63.200312"/>
     <use style="fill:#666666;stroke:#666666;" x="245.38931" xlink:href="#m508c01e07c" y="59.161746"/>
     <use style="fill:#666666;stroke:#666666;" x="246.475111" xlink:href="#m508c01e07c" y="62.408725"/>
     <use style="fill:#666666;stroke:#666666;" x="247.560912" xlink:href="#m508c01e07c" y="73.258613"/>
     <use style="fill:#666666;stroke:#666666;" x="248.646713" xlink:href="#m508c01e07c" y="67.49286"/>
     <use style="fill:#666666;stroke:#666666;" x="249.732514" xlink:href="#m508c01e07c" y="71.620613"/>
     <use style="fill:#666666;stroke:#666666;" x="250.818316" xlink:href="#m508c01e07c" y="57.751952"/>
     <use style="fill:#666666;stroke:#666666;" x="251.904117" xlink:href="#m508c01e07c" y="69.070211"/>
     <use style="fill:#666666;stroke:#666666;" x="252.989918" xlink:href="#m508c01e07c" y="65.17175"/>
     <use style="fill:#666666;stroke:#666666;" x="254.075719" xlink:href="#m508c01e07c" y="68.062085"/>
     <use style="fill:#666666;stroke:#666666;" x="255.16152" xlink:href="#m508c01e07c" y="65.109254"/>
     <use style="fill:#666666;stroke:#666666;" x="256.247321" xlink:href="#m508c01e07c" y="68.524644"/>
     <use style="fill:#666666;stroke:#666666;" x="257.333123" xlink:href="#m508c01e07c" y="75.491695"/>
     <use style="fill:#666666;stroke:#666666;" x="258.418924" xlink:href="#m508c01e07c" y="79.569745"/>
     <use style="fill:#666666;stroke:#666666;" x="259.504725" xlink:href="#m508c01e07c" y="75.748759"/>
     <use style="fill:#666666;stroke:#666666;" x="260.590526" xlink:href="#m508c01e07c" y="85.308856"/>
     <use style="fill:#666666;stroke:#666666;" x="261.676327" xlink:href="#m508c01e07c" y="86.587512"/>
     <use style="fill:#666666;stroke:#666666;" x="262.762128" xlink:href="#m508c01e07c" y="84.895884"/>
     <use style="fill:#666666;stroke:#666666;" x="263.847929" xlink:href="#m508c01e07c" y="91.829852"/>
     <use style="fill:#666666;stroke:#666666;" x="264.933731" xlink:href="#m508c01e07c" y="92.813364"/>
     <use style="fill:#666666;stroke:#666666;" x="266.019532" xlink:href="#m508c01e07c" y="77.198027"/>
     <use style="fill:#666666;stroke:#666666;" x="267.105333" xlink:href="#m508c01e07c" y="79.459936"/>
     <use style="fill:#666666;stroke:#666666;" x="268.191134" xlink:href="#m508c01e07c" y="76.805132"/>
     <use style="fill:#666666;stroke:#666666;" x="269.276935" xlink:href="#m508c01e07c" y="72.228396"/>
     <use style="fill:#666666;stroke:#666666;" x="270.362736" xlink:href="#m508c01e07c" y="76.287943"/>
     <use style="fill:#666666;stroke:#666666;" x="271.448538" xlink:href="#m508c01e07c" y="73.515884"/>
     <use style="fill:#666666;stroke:#666666;" x="272.534339" xlink:href="#m508c01e07c" y="69.547468"/>
     <use style="fill:#666666;stroke:#666666;" x="273.62014" xlink:href="#m508c01e07c" y="71.850816"/>
     <use style="fill:#666666;stroke:#666666;" x="274.705941" xlink:href="#m508c01e07c" y="84.368022"/>
     <use style="fill:#666666;stroke:#666666;" x="275.791742" xlink:href="#m508c01e07c" y="93.815638"/>
     <use style="fill:#666666;stroke:#666666;" x="276.877543" xlink:href="#m508c01e07c" y="86.148262"/>
     <use style="fill:#666666;stroke:#666666;" x="277.963344" xlink:href="#m508c01e07c" y="82.17119"/>
     <use style="fill:#666666;stroke:#666666;" x="279.049146" xlink:href="#m508c01e07c" y="94.607408"/>
     <use style="fill:#666666;stroke:#666666;" x="280.134947" xlink:href="#m508c01e07c" y="79.564955"/>
     <use style="fill:#666666;stroke:#666666;" x="281.220748" xlink:href="#m508c01e07c" y="81.155534"/>
     <use style="fill:#666666;stroke:#666666;" x="282.306549" xlink:href="#m508c01e07c" y="83.320704"/>
     <use style="fill:#666666;stroke:#666666;" x="283.39235" xlink:href="#m508c01e07c" y="69.78162"/>
     <use style="fill:#666666;stroke:#666666;" x="284.478151" xlink:href="#m508c01e07c" y="70.340081"/>
     <use style="fill:#666666;stroke:#666666;" x="285.563953" xlink:href="#m508c01e07c" y="67.632604"/>
     <use style="fill:#666666;stroke:#666666;" x="286.649754" xlink:href="#m508c01e07c" y="72.368565"/>
     <use style="fill:#666666;stroke:#666666;" x="287.735555" xlink:href="#m508c01e07c" y="73.747076"/>
     <use style="fill:#666666;stroke:#666666;" x="288.821356" xlink:href="#m508c01e07c" y="74.414898"/>
     <use style="fill:#666666;stroke:#666666;" x="289.907157" xlink:href="#m508c01e07c" y="75.124732"/>
     <use style="fill:#666666;stroke:#666666;" x="290.992958" xlink:href="#m508c01e07c" y="75.956248"/>
     <use style="fill:#666666;stroke:#666666;" x="292.07876" xlink:href="#m508c01e07c" y="77.368881"/>
     <use style="fill:#666666;stroke:#666666;" x="293.164561" xlink:href="#m508c01e07c" y="70.105407"/>
     <use style="fill:#666666;stroke:#666666;" x="294.250362" xlink:href="#m508c01e07c" y="78.295319"/>
     <use style="fill:#666666;stroke:#666666;" x="295.336163" xlink:href="#m508c01e07c" y="85.385946"/>
     <use style="fill:#666666;stroke:#666666;" x="296.421964" xlink:href="#m508c01e07c" y="90.866265"/>
     <use style="fill:#666666;stroke:#666666;" x="297.507765" xlink:href="#m508c01e07c" y="72.98915"/>
     <use style="fill:#666666;stroke:#666666;" x="298.593566" xlink:href="#m508c01e07c" y="86.186486"/>
     <use style="fill:#666666;stroke:#666666;" x="299.679368" xlink:href="#m508c01e07c" y="74.805439"/>
     <use style="fill:#666666;stroke:#666666;" x="300.765169" xlink:href="#m508c01e07c" y="79.82854"/>
     <use style="fill:#666666;stroke:#666666;" x="301.85097" xlink:href="#m508c01e07c" y="81.026031"/>
     <use style="fill:#666666;stroke:#666666;" x="302.936771" xlink:href="#m508c01e07c" y="73.294807"/>
     <use style="fill:#666666;stroke:#666666;" x="304.022572" xlink:href="#m508c01e07c" y="83.912823"/>
     <use style="fill:#666666;stroke:#666666;" x="305.108373" xlink:href="#m508c01e07c" y="78.876918"/>
     <use style="fill:#666666;stroke:#666666;" x="306.194175" xlink:href="#m508c01e07c" y="70.01816"/>
     <use style="fill:#666666;stroke:#666666;" x="307.279976" xlink:href="#m508c01e07c" y="71.208453"/>
     <use style="fill:#666666;stroke:#666666;" x="308.365777" xlink:href="#m508c01e07c" y="67.861824"/>
     <use style="fill:#666666;stroke:#666666;" x="309.451578" xlink:href="#m508c01e07c" y="72.960029"/>
     <use style="fill:#666666;stroke:#666666;" x="310.537379" xlink:href="#m508c01e07c" y="71.415794"/>
     <use style="fill:#666666;stroke:#666666;" x="311.62318" xlink:href="#m508c01e07c" y="77.214016"/>
     <use style="fill:#666666;stroke:#666666;" x="312.708981" xlink:href="#m508c01e07c" y="79.647372"/>
     <use style="fill:#666666;stroke:#666666;" x="313.794783" xlink:href="#m508c01e07c" y="84.078456"/>
     <use style="fill:#666666;stroke:#666666;" x="314.880584" xlink:href="#m508c01e07c" y="75.841967"/>
     <use style="fill:#666666;stroke:#666666;" x="315.966385" xlink:href="#m508c01e07c" y="69.031446"/>
     <use style="fill:#666666;stroke:#666666;" x="317.052186" xlink:href="#m508c01e07c" y="67.932572"/>
     <use style="fill:#666666;stroke:#666666;" x="318.137987" xlink:href="#m508c01e07c" y="64.504019"/>
     <use style="fill:#666666;stroke:#666666;" x="319.223788" xlink:href="#m508c01e07c" y="65.085752"/>
     <use style="fill:#666666;stroke:#666666;" x="320.30959" xlink:href="#m508c01e07c" y="66.399065"/>
     <use style="fill:#666666;stroke:#666666;" x="321.395391" xlink:href="#m508c01e07c" y="74.281663"/>
     <use style="fill:#666666;stroke:#666666;" x="322.481192" xlink:href="#m508c01e07c" y="68.789118"/>
     <use style="fill:#666666;stroke:#666666;" x="323.566993" xlink:href="#m508c01e07c" y="75.937533"/>
     <use style="fill:#666666;stroke:#666666;" x="324.652794" xlink:href="#m508c01e07c" y="68.669756"/>
     <use style="fill:#666666;stroke:#666666;" x="325.738595" xlink:href="#m508c01e07c" y="69.495309"/>
     <use style="fill:#666666;stroke:#666666;" x="326.824396" xlink:href="#m508c01e07c" y="66.984041"/>
     <use style="fill:#666666;stroke:#666666;" x="327.910198" xlink:href="#m508c01e07c" y="68.324687"/>
     <use style="fill:#666666;stroke:#666666;" x="328.995999" xlink:href="#m508c01e07c" y="64.986578"/>
     <use style="fill:#666666;stroke:#666666;" x="330.0818" xlink:href="#m508c01e07c" y="78.669212"/>
     <use style="fill:#666666;stroke:#666666;" x="331.167601" xlink:href="#m508c01e07c" y="77.493547"/>
     <use style="fill:#666666;stroke:#666666;" x="332.253402" xlink:href="#m508c01e07c" y="66.634353"/>
     <use style="fill:#666666;stroke:#666666;" x="333.339203" xlink:href="#m508c01e07c" y="70.408684"/>
     <use style="fill:#666666;stroke:#666666;" x="334.425005" xlink:href="#m508c01e07c" y="70.265049"/>
     <use style="fill:#666666;stroke:#666666;" x="335.510806" xlink:href="#m508c01e07c" y="63.677917"/>
     <use style="fill:#666666;stroke:#666666;" x="336.596607" xlink:href="#m508c01e07c" y="79.04282"/>
     <use style="fill:#666666;stroke:#666666;" x="337.682408" xlink:href="#m508c01e07c" y="90.840806"/>
     <use style="fill:#666666;stroke:#666666;" x="338.768209" xlink:href="#m508c01e07c" y="74.388132"/>
     <use style="fill:#666666;stroke:#666666;" x="339.85401" xlink:href="#m508c01e07c" y="80.076534"/>
     <use style="fill:#666666;stroke:#666666;" x="340.939811" xlink:href="#m508c01e07c" y="74.982396"/>
     <use style="fill:#666666;stroke:#666666;" x="342.025613" xlink:href="#m508c01e07c" y="75.080937"/>
     <use style="fill:#666666;stroke:#666666;" x="343.111414" xlink:href="#m508c01e07c" y="72.482243"/>
     <use style="fill:#666666;stroke:#666666;" x="344.197215" xlink:href="#m508c01e07c" y="67.088691"/>
     <use style="fill:#666666;stroke:#666666;" x="345.283016" xlink:href="#m508c01e07c" y="77.325"/>
     <use style="fill:#666666;stroke:#666666;" x="346.368817" xlink:href="#m508c01e07c" y="63.816585"/>
     <use style="fill:#666666;stroke:#666666;" x="347.454618" xlink:href="#m508c01e07c" y="62.839043"/>
     <use style="fill:#666666;stroke:#666666;" x="348.54042" xlink:href="#m508c01e07c" y="68.133413"/>
     <use style="fill:#666666;stroke:#666666;" x="349.626221" xlink:href="#m508c01e07c" y="87.708128"/>
     <use style="fill:#666666;stroke:#666666;" x="350.712022" xlink:href="#m508c01e07c" y="80.017315"/>
     <use style="fill:#666666;stroke:#666666;" x="351.797823" xlink:href="#m508c01e07c" y="78.951861"/>
     <use style="fill:#666666;stroke:#666666;" x="352.883624" xlink:href="#m508c01e07c" y="75.421874"/>
     <use style="fill:#666666;stroke:#666666;" x="353.969425" xlink:href="#m508c01e07c" y="81.034859"/>
     <use style="fill:#666666;stroke:#666666;" x="355.055227" xlink:href="#m508c01e07c" y="76.027175"/>
     <use style="fill:#666666;stroke:#666666;" x="356.141028" xlink:href="#m508c01e07c" y="73.5925"/>
     <use style="fill:#666666;stroke:#666666;" x="357.226829" xlink:href="#m508c01e07c" y="67.539165"/>
     <use style="fill:#666666;stroke:#666666;" x="358.31263" xlink:href="#m508c01e07c" y="70.903179"/>
     <use style="fill:#666666;stroke:#666666;" x="359.398431" xlink:href="#m508c01e07c" y="69.643533"/>
     <use style="fill:#666666;stroke:#666666;" x="360.484232" xlink:href="#m508c01e07c" y="67.242357"/>
     <use style="fill:#666666;stroke:#666666;" x="361.570033" xlink:href="#m508c01e07c" y="66.199703"/>
     <use style="fill:#666666;stroke:#666666;" x="362.655835" xlink:href="#m508c01e07c" y="87.043102"/>
     <use style="fill:#666666;stroke:#666666;" x="363.741636" xlink:href="#m508c01e07c" y="88.134899"/>
     <use style="fill:#666666;stroke:#666666;" x="364.827437" xlink:href="#m508c01e07c" y="80.807527"/>
     <use style="fill:#666666;stroke:#666666;" x="365.913238" xlink:href="#m508c01e07c" y="80.084733"/>
     <use style="fill:#666666;stroke:#666666;" x="366.999039" xlink:href="#m508c01e07c" y="77.666905"/>
     <use style="fill:#666666;stroke:#666666;" x="368.08484" xlink:href="#m508c01e07c" y="80.795161"/>
     <use style="fill:#666666;stroke:#666666;" x="369.170642" xlink:href="#m508c01e07c" y="73.914749"/>
     <use style="fill:#666666;stroke:#666666;" x="370.256443" xlink:href="#m508c01e07c" y="71.366327"/>
     <use style="fill:#666666;stroke:#666666;" x="371.342244" xlink:href="#m508c01e07c" y="83.184924"/>
     <use style="fill:#666666;stroke:#666666;" x="372.428045" xlink:href="#m508c01e07c" y="75.259467"/>
     <use style="fill:#666666;stroke:#666666;" x="373.513846" xlink:href="#m508c01e07c" y="76.276548"/>
     <use style="fill:#666666;stroke:#666666;" x="374.599647" xlink:href="#m508c01e07c" y="62.220516"/>
     <use style="fill:#666666;stroke:#666666;" x="375.685448" xlink:href="#m508c01e07c" y="66.006074"/>
     <use style="fill:#666666;stroke:#666666;" x="376.77125" xlink:href="#m508c01e07c" y="69.905553"/>
     <use style="fill:#666666;stroke:#666666;" x="377.857051" xlink:href="#m508c01e07c" y="57.215683"/>
     <use style="fill:#666666;stroke:#666666;" x="378.942852" xlink:href="#m508c01e07c" y="59.937589"/>
     <use style="fill:#666666;stroke:#666666;" x="380.028653" xlink:href="#m508c01e07c" y="63.700298"/>
     <use style="fill:#666666;stroke:#666666;" x="381.114454" xlink:href="#m508c01e07c" y="61.787287"/>
     <use style="fill:#666666;stroke:#666666;" x="382.200255" xlink:href="#m508c01e07c" y="53.568"/>
     <use style="fill:#666666;stroke:#666666;" x="383.286057" xlink:href="#m508c01e07c" y="57.687714"/>
     <use style="fill:#666666;stroke:#666666;" x="384.371858" xlink:href="#m508c01e07c" y="59.284425"/>
     <use style="fill:#666666;stroke:#666666;" x="385.457659" xlink:href="#m508c01e07c" y="69.524317"/>
     <use style="fill:#666666;stroke:#666666;" x="386.54346" xlink:href="#m508c01e07c" y="68.318629"/>
     <use style="fill:#666666;stroke:#666666;" x="387.629261" xlink:href="#m508c01e07c" y="84.615166"/>
     <use style="fill:#666666;stroke:#666666;" x="388.715062" xlink:href="#m508c01e07c" y="79.867566"/>
     <use style="fill:#666666;stroke:#666666;" x="389.800863" xlink:href="#m508c01e07c" y="71.989791"/>
     <use style="fill:#666666;stroke:#666666;" x="390.886665" xlink:href="#m508c01e07c" y="82.60697"/>
     <use style="fill:#666666;stroke:#666666;" x="391.972466" xlink:href="#m508c01e07c" y="78.358493"/>
     <use style="fill:#666666;stroke:#666666;" x="393.058267" xlink:href="#m508c01e07c" y="78.470205"/>
     <use style="fill:#666666;stroke:#666666;" x="394.144068" xlink:href="#m508c01e07c" y="82.631834"/>
     <use style="fill:#666666;stroke:#666666;" x="395.229869" xlink:href="#m508c01e07c" y="85.809759"/>
     <use style="fill:#666666;stroke:#666666;" x="396.31567" xlink:href="#m508c01e07c" y="76.259529"/>
     <use style="fill:#666666;stroke:#666666;" x="397.401472" xlink:href="#m508c01e07c" y="71.768666"/>
     <use style="fill:#666666;stroke:#666666;" x="398.487273" xlink:href="#m508c01e07c" y="74.775931"/>
    </g>
   </g>
   <g id="patch_3">
    <path d="M 57.6 307.584 
L 57.6 41.472 
" style="fill:none;stroke:#000000;stroke-linecap:square;stroke-linejoin:miter;stroke-width:0.8;"/>
   </g>
   <g id="patch_4">
    <path d="M 414.72 307.584 
L 414.72 41.472 
" style="fill:none;stroke:#000000;stroke-linecap:square;stroke-linejoin:miter;stroke-width:0.8;"/>
   </g>
   <g id="patch_5">
    <path d="M 57.6 307.584 
L 414.72 307.584 
" style="fill:none;stroke:#000000;stroke-linecap:square;stroke-linejoin:miter;stroke-width:0.8;"/>
   </g>
   <g id="patch_6">
    <path d="M 57.6 41.472 
L 414.72 41.472 
" style="fill:none;stroke:#000000;stroke-linecap:square;stroke-linejoin:miter;stroke-width:0.8;"/>
   </g>
  </g>
 </g>
 <defs>
  <clipPath id="p18dc4f5ec5">
   <rect height="266.112" width="357.12" x="57.6" y="41.472"/>
  </clipPath>
 </defs>
</svg>
