<?xml version="1.0" encoding="utf-8" standalone="no"?>
<!DOCTYPE svg PUBLIC "-//W3C//DTD SVG 1.1//EN"
  "http://www.w3.org/Graphics/SVG/1.1/DTD/svg11.dtd">
<!-- Created with matplotlib (http://matplotlib.org/) -->
<svg height="345.6pt" version="1.1" viewBox="0 0 460.8 345.6" width="460.8pt" xmlns="http://www.w3.org/2000/svg" xmlns:xlink="http://www.w3.org/1999/xlink">
 <defs>
  <style type="text/css">
*{stroke-linecap:butt;stroke-linejoin:round;}
  </style>
 </defs>
 <g id="figure_1">
  <g id="patch_1">
   <path d="M 0 345.6 
L 460.8 345.6 
L 460.8 0 
L 0 0 
z
" style="fill:#ffffff;"/>
  </g>
  <g id="axes_1">
   <g id="patch_2">
    <path d="M 47.72 287.71 
L 447.48 287.71 
L 447.48 13.32 
L 47.72 13.32 
z
" style="fill:#ffffff;"/>
   </g>
   <g id="matplotlib.axis_1">
    <g id="xtick_1">
     <g id="line2d_1">
      <defs>
       <path d="M 0 0 
L 0 3.5 
" id="mecec141f3b" style="stroke:#000000;stroke-width:0.8;"/>
      </defs>
      <g>
       <use style="stroke:#000000;stroke-width:0.8;" x="47.72" xlink:href="#mecec141f3b" y="287.71"/>
      </g>
     </g>
     <g id="text_1">
      <!-- A1 -->
      <defs>
       <path d="M 34.1875 63.1875 
L 20.796875 26.90625 
L 47.609375 26.90625 
z
M 28.609375 72.90625 
L 39.796875 72.90625 
L 67.578125 0 
L 57.328125 0 
L 50.6875 18.703125 
L 17.828125 18.703125 
L 11.1875 0 
L 0.78125 0 
z
" id="DejaVuSans-41"/>
       <path d="M 12.40625 8.296875 
L 28.515625 8.296875 
L 28.515625 63.921875 
L 10.984375 60.40625 
L 10.984375 69.390625 
L 28.421875 72.90625 
L 38.28125 72.90625 
L 38.28125 8.296875 
L 54.390625 8.296875 
L 54.390625 0 
L 12.40625 0 
z
" id="DejaVuSans-31"/>
      </defs>
      <g transform="translate(50.479375 307.913125)rotate(-90)scale(0.1 -0.1)">
       <use xlink:href="#DejaVuSans-41"/>
       <use x="68.408203" xlink:href="#DejaVuSans-31"/>
      </g>
     </g>
    </g>
    <g id="xtick_2">
     <g id="line2d_2">
      <g>
       <use style="stroke:#000000;stroke-width:0.8;" x="64.803761" xlink:href="#mecec141f3b" y="287.71"/>
      </g>
     </g>
     <g id="text_2">
      <!-- A16 -->
      <defs>
       <path d="M 33.015625 40.375 
Q 26.375 40.375 22.484375 35.828125 
Q 18.609375 31.296875 18.609375 23.390625 
Q 18.609375 15.53125 22.484375 10.953125 
Q 26.375 6.390625 33.015625 6.390625 
Q 39.65625 6.390625 43.53125 10.953125 
Q 47.40625 15.53125 47.40625 23.390625 
Q 47.40625 31.296875 43.53125 35.828125 
Q 39.65625 40.375 33.015625 40.375 
z
M 52.59375 71.296875 
L 52.59375 62.3125 
Q 48.875 64.0625 45.09375 64.984375 
Q 41.3125 65.921875 37.59375 65.921875 
Q 27.828125 65.921875 22.671875 59.328125 
Q 17.53125 52.734375 16.796875 39.40625 
Q 19.671875 43.65625 24.015625 45.921875 
Q 28.375 48.1875 33.59375 48.1875 
Q 44.578125 48.1875 50.953125 41.515625 
Q 57.328125 34.859375 57.328125 23.390625 
Q 57.328125 12.15625 50.6875 5.359375 
Q 44.046875 -1.421875 33.015625 -1.421875 
Q 20.359375 -1.421875 13.671875 8.265625 
Q 6.984375 17.96875 6.984375 36.375 
Q 6.984375 53.65625 15.1875 63.9375 
Q 23.390625 74.21875 37.203125 74.21875 
Q 40.921875 74.21875 44.703125 73.484375 
Q 48.484375 72.75 52.59375 71.296875 
z
" id="DejaVuSans-36"/>
      </defs>
      <g transform="translate(67.563136 314.275625)rotate(-90)scale(0.1 -0.1)">
       <use xlink:href="#DejaVuSans-41"/>
       <use x="68.408203" xlink:href="#DejaVuSans-31"/>
       <use x="132.03125" xlink:href="#DejaVuSans-36"/>
      </g>
     </g>
    </g>
    <g id="xtick_3">
     <g id="line2d_3">
      <g>
       <use style="stroke:#000000;stroke-width:0.8;" x="81.887521" xlink:href="#mecec141f3b" y="287.71"/>
      </g>
     </g>
     <g id="text_3">
      <!-- A31 -->
      <defs>
       <path d="M 40.578125 39.3125 
Q 47.65625 37.796875 51.625 33 
Q 55.609375 28.21875 55.609375 21.1875 
Q 55.609375 10.40625 48.1875 4.484375 
Q 40.765625 -1.421875 27.09375 -1.421875 
Q 22.515625 -1.421875 17.65625 -0.515625 
Q 12.796875 0.390625 7.625 2.203125 
L 7.625 11.71875 
Q 11.71875 9.328125 16.59375 8.109375 
Q 21.484375 6.890625 26.8125 6.890625 
Q 36.078125 6.890625 40.9375 10.546875 
Q 45.796875 14.203125 45.796875 21.1875 
Q 45.796875 27.640625 41.28125 31.265625 
Q 36.765625 34.90625 28.71875 34.90625 
L 20.21875 34.90625 
L 20.21875 43.015625 
L 29.109375 43.015625 
Q 36.375 43.015625 40.234375 45.921875 
Q 44.09375 48.828125 44.09375 54.296875 
Q 44.09375 59.90625 40.109375 62.90625 
Q 36.140625 65.921875 28.71875 65.921875 
Q 24.65625 65.921875 20.015625 65.03125 
Q 15.375 64.15625 9.8125 62.3125 
L 9.8125 71.09375 
Q 15.4375 72.65625 20.34375 73.4375 
Q 25.25 74.21875 29.59375 74.21875 
Q 40.828125 74.21875 47.359375 69.109375 
Q 53.90625 64.015625 53.90625 55.328125 
Q 53.90625 49.265625 50.4375 45.09375 
Q 46.96875 40.921875 40.578125 39.3125 
z
" id="DejaVuSans-33"/>
      </defs>
      <g transform="translate(84.646896 314.275625)rotate(-90)scale(0.1 -0.1)">
       <use xlink:href="#DejaVuSans-41"/>
       <use x="68.408203" xlink:href="#DejaVuSans-33"/>
       <use x="132.03125" xlink:href="#DejaVuSans-31"/>
      </g>
     </g>
    </g>
    <g id="xtick_4">
     <g id="line2d_4">
      <g>
       <use style="stroke:#000000;stroke-width:0.8;" x="98.971282" xlink:href="#mecec141f3b" y="287.71"/>
      </g>
     </g>
     <g id="text_4">
      <!-- A46 -->
      <defs>
       <path d="M 37.796875 64.3125 
L 12.890625 25.390625 
L 37.796875 25.390625 
z
M 35.203125 72.90625 
L 47.609375 72.90625 
L 47.609375 25.390625 
L 58.015625 25.390625 
L 58.015625 17.1875 
L 47.609375 17.1875 
L 47.609375 0 
L 37.796875 0 
L 37.796875 17.1875 
L 4.890625 17.1875 
L 4.890625 26.703125 
z
" id="DejaVuSans-34"/>
      </defs>
      <g transform="translate(101.730657 314.275625)rotate(-90)scale(0.1 -0.1)">
       <use xlink:href="#DejaVuSans-41"/>
       <use x="68.408203" xlink:href="#DejaVuSans-34"/>
       <use x="132.03125" xlink:href="#DejaVuSans-36"/>
      </g>
     </g>
    </g>
    <g id="xtick_5">
     <g id="line2d_5">
      <g>
       <use style="stroke:#000000;stroke-width:0.8;" x="116.055043" xlink:href="#mecec141f3b" y="287.71"/>
      </g>
     </g>
     <g id="text_5">
      <!-- A61 -->
      <g transform="translate(118.814418 314.275625)rotate(-90)scale(0.1 -0.1)">
       <use xlink:href="#DejaVuSans-41"/>
       <use x="68.408203" xlink:href="#DejaVuSans-36"/>
       <use x="132.03125" xlink:href="#DejaVuSans-31"/>
      </g>
     </g>
    </g>
    <g id="xtick_6">
     <g id="line2d_6">
      <g>
       <use style="stroke:#000000;stroke-width:0.8;" x="133.138803" xlink:href="#mecec141f3b" y="287.71"/>
      </g>
     </g>
     <g id="text_6">
      <!-- A76 -->
      <defs>
       <path d="M 8.203125 72.90625 
L 55.078125 72.90625 
L 55.078125 68.703125 
L 28.609375 0 
L 18.3125 0 
L 43.21875 64.59375 
L 8.203125 64.59375 
z
" id="DejaVuSans-37"/>
      </defs>
      <g transform="translate(135.898178 314.275625)rotate(-90)scale(0.1 -0.1)">
       <use xlink:href="#DejaVuSans-41"/>
       <use x="68.408203" xlink:href="#DejaVuSans-37"/>
       <use x="132.03125" xlink:href="#DejaVuSans-36"/>
      </g>
     </g>
    </g>
    <g id="xtick_7">
     <g id="line2d_7">
      <g>
       <use style="stroke:#000000;stroke-width:0.8;" x="150.222564" xlink:href="#mecec141f3b" y="287.71"/>
      </g>
     </g>
     <g id="text_7">
      <!-- A91 -->
      <defs>
       <path d="M 10.984375 1.515625 
L 10.984375 10.5 
Q 14.703125 8.734375 18.5 7.8125 
Q 22.3125 6.890625 25.984375 6.890625 
Q 35.75 6.890625 40.890625 13.453125 
Q 46.046875 20.015625 46.78125 33.40625 
Q 43.953125 29.203125 39.59375 26.953125 
Q 35.25 24.703125 29.984375 24.703125 
Q 19.046875 24.703125 12.671875 31.3125 
Q 6.296875 37.9375 6.296875 49.421875 
Q 6.296875 60.640625 12.9375 67.421875 
Q 19.578125 74.21875 30.609375 74.21875 
Q 43.265625 74.21875 49.921875 64.515625 
Q 56.59375 54.828125 56.59375 36.375 
Q 56.59375 19.140625 48.40625 8.859375 
Q 40.234375 -1.421875 26.421875 -1.421875 
Q 22.703125 -1.421875 18.890625 -0.6875 
Q 15.09375 0.046875 10.984375 1.515625 
z
M 30.609375 32.421875 
Q 37.25 32.421875 41.125 36.953125 
Q 45.015625 41.5 45.015625 49.421875 
Q 45.015625 57.28125 41.125 61.84375 
Q 37.25 66.40625 30.609375 66.40625 
Q 23.96875 66.40625 20.09375 61.84375 
Q 16.21875 57.28125 16.21875 49.421875 
Q 16.21875 41.5 20.09375 36.953125 
Q 23.96875 32.421875 30.609375 32.421875 
z
" id="DejaVuSans-39"/>
      </defs>
      <g transform="translate(152.981939 314.275625)rotate(-90)scale(0.1 -0.1)">
       <use xlink:href="#DejaVuSans-41"/>
       <use x="68.408203" xlink:href="#DejaVuSans-39"/>
       <use x="132.03125" xlink:href="#DejaVuSans-31"/>
      </g>
     </g>
    </g>
    <g id="xtick_8">
     <g id="line2d_8">
      <g>
       <use style="stroke:#000000;stroke-width:0.8;" x="167.306325" xlink:href="#mecec141f3b" y="287.71"/>
      </g>
     </g>
     <g id="text_8">
      <!-- A106 -->
      <defs>
       <path d="M 31.78125 66.40625 
Q 24.171875 66.40625 20.328125 58.90625 
Q 16.5 51.421875 16.5 36.375 
Q 16.5 21.390625 20.328125 13.890625 
Q 24.171875 6.390625 31.78125 6.390625 
Q 39.453125 6.390625 43.28125 13.890625 
Q 47.125 21.390625 47.125 36.375 
Q 47.125 51.421875 43.28125 58.90625 
Q 39.453125 66.40625 31.78125 66.40625 
z
M 31.78125 74.21875 
Q 44.046875 74.21875 50.515625 64.515625 
Q 56.984375 54.828125 56.984375 36.375 
Q 56.984375 17.96875 50.515625 8.265625 
Q 44.046875 -1.421875 31.78125 -1.421875 
Q 19.53125 -1.421875 13.0625 8.265625 
Q 6.59375 17.96875 6.59375 36.375 
Q 6.59375 54.828125 13.0625 64.515625 
Q 19.53125 74.21875 31.78125 74.21875 
z
" id="DejaVuSans-30"/>
      </defs>
      <g transform="translate(170.0657 320.638125)rotate(-90)scale(0.1 -0.1)">
       <use xlink:href="#DejaVuSans-41"/>
       <use x="68.408203" xlink:href="#DejaVuSans-31"/>
       <use x="132.03125" xlink:href="#DejaVuSans-30"/>
       <use x="195.654297" xlink:href="#DejaVuSans-36"/>
      </g>
     </g>
    </g>
    <g id="xtick_9">
     <g id="line2d_9">
      <g>
       <use style="stroke:#000000;stroke-width:0.8;" x="184.390085" xlink:href="#mecec141f3b" y="287.71"/>
      </g>
     </g>
     <g id="text_9">
      <!-- A121 -->
      <defs>
       <path d="M 19.1875 8.296875 
L 53.609375 8.296875 
L 53.609375 0 
L 7.328125 0 
L 7.328125 8.296875 
Q 12.9375 14.109375 22.625 23.890625 
Q 32.328125 33.6875 34.8125 36.53125 
Q 39.546875 41.84375 41.421875 45.53125 
Q 43.3125 49.21875 43.3125 52.78125 
Q 43.3125 58.59375 39.234375 62.25 
Q 35.15625 65.921875 28.609375 65.921875 
Q 23.96875 65.921875 18.8125 64.3125 
Q 13.671875 62.703125 7.8125 59.421875 
L 7.8125 69.390625 
Q 13.765625 71.78125 18.9375 73 
Q 24.125 74.21875 28.421875 74.21875 
Q 39.75 74.21875 46.484375 68.546875 
Q 53.21875 62.890625 53.21875 53.421875 
Q 53.21875 48.921875 51.53125 44.890625 
Q 49.859375 40.875 45.40625 35.40625 
Q 44.1875 33.984375 37.640625 27.21875 
Q 31.109375 20.453125 19.1875 8.296875 
z
" id="DejaVuSans-32"/>
      </defs>
      <g transform="translate(187.14946 320.638125)rotate(-90)scale(0.1 -0.1)">
       <use xlink:href="#DejaVuSans-41"/>
       <use x="68.408203" xlink:href="#DejaVuSans-31"/>
       <use x="132.03125" xlink:href="#DejaVuSans-32"/>
       <use x="195.654297" xlink:href="#DejaVuSans-31"/>
      </g>
     </g>
    </g>
    <g id="xtick_10">
     <g id="line2d_10">
      <g>
       <use style="stroke:#000000;stroke-width:0.8;" x="201.473846" xlink:href="#mecec141f3b" y="287.71"/>
      </g>
     </g>
     <g id="text_10">
      <!-- A136 -->
      <g transform="translate(204.233221 320.638125)rotate(-90)scale(0.1 -0.1)">
       <use xlink:href="#DejaVuSans-41"/>
       <use x="68.408203" xlink:href="#DejaVuSans-31"/>
       <use x="132.03125" xlink:href="#DejaVuSans-33"/>
       <use x="195.654297" xlink:href="#DejaVuSans-36"/>
      </g>
     </g>
    </g>
    <g id="xtick_11">
     <g id="line2d_11">
      <g>
       <use style="stroke:#000000;stroke-width:0.8;" x="218.557607" xlink:href="#mecec141f3b" y="287.71"/>
      </g>
     </g>
     <g id="text_11">
      <!-- A151 -->
      <defs>
       <path d="M 10.796875 72.90625 
L 49.515625 72.90625 
L 49.515625 64.59375 
L 19.828125 64.59375 
L 19.828125 46.734375 
Q 21.96875 47.46875 24.109375 47.828125 
Q 26.265625 48.1875 28.421875 48.1875 
Q 40.625 48.1875 47.75 41.5 
Q 54.890625 34.8125 54.890625 23.390625 
Q 54.890625 11.625 47.5625 5.09375 
Q 40.234375 -1.421875 26.90625 -1.421875 
Q 22.3125 -1.421875 17.546875 -0.640625 
Q 12.796875 0.140625 7.71875 1.703125 
L 7.71875 11.625 
Q 12.109375 9.234375 16.796875 8.0625 
Q 21.484375 6.890625 26.703125 6.890625 
Q 35.15625 6.890625 40.078125 11.328125 
Q 45.015625 15.765625 45.015625 23.390625 
Q 45.015625 31 40.078125 35.4375 
Q 35.15625 39.890625 26.703125 39.890625 
Q 22.75 39.890625 18.8125 39.015625 
Q 14.890625 38.140625 10.796875 36.28125 
z
" id="DejaVuSans-35"/>
      </defs>
      <g transform="translate(221.316982 320.638125)rotate(-90)scale(0.1 -0.1)">
       <use xlink:href="#DejaVuSans-41"/>
       <use x="68.408203" xlink:href="#DejaVuSans-31"/>
       <use x="132.03125" xlink:href="#DejaVuSans-35"/>
       <use x="195.654297" xlink:href="#DejaVuSans-31"/>
      </g>
     </g>
    </g>
    <g id="xtick_12">
     <g id="line2d_12">
      <g>
       <use style="stroke:#000000;stroke-width:0.8;" x="235.641368" xlink:href="#mecec141f3b" y="287.71"/>
      </g>
     </g>
     <g id="text_12">
      <!-- A166 -->
      <g transform="translate(238.400743 320.638125)rotate(-90)scale(0.1 -0.1)">
       <use xlink:href="#DejaVuSans-41"/>
       <use x="68.408203" xlink:href="#DejaVuSans-31"/>
       <use x="132.03125" xlink:href="#DejaVuSans-36"/>
       <use x="195.654297" xlink:href="#DejaVuSans-36"/>
      </g>
     </g>
    </g>
    <g id="xtick_13">
     <g id="line2d_13">
      <g>
       <use style="stroke:#000000;stroke-width:0.8;" x="252.725128" xlink:href="#mecec141f3b" y="287.71"/>
      </g>
     </g>
     <g id="text_13">
      <!-- A181 -->
      <defs>
       <path d="M 31.78125 34.625 
Q 24.75 34.625 20.71875 30.859375 
Q 16.703125 27.09375 16.703125 20.515625 
Q 16.703125 13.921875 20.71875 10.15625 
Q 24.75 6.390625 31.78125 6.390625 
Q 38.8125 6.390625 42.859375 10.171875 
Q 46.921875 13.96875 46.921875 20.515625 
Q 46.921875 27.09375 42.890625 30.859375 
Q 38.875 34.625 31.78125 34.625 
z
M 21.921875 38.8125 
Q 15.578125 40.375 12.03125 44.71875 
Q 8.5 49.078125 8.5 55.328125 
Q 8.5 64.0625 14.71875 69.140625 
Q 20.953125 74.21875 31.78125 74.21875 
Q 42.671875 74.21875 48.875 69.140625 
Q 55.078125 64.0625 55.078125 55.328125 
Q 55.078125 49.078125 51.53125 44.71875 
Q 48 40.375 41.703125 38.8125 
Q 48.828125 37.15625 52.796875 32.3125 
Q 56.78125 27.484375 56.78125 20.515625 
Q 56.78125 9.90625 50.3125 4.234375 
Q 43.84375 -1.421875 31.78125 -1.421875 
Q 19.734375 -1.421875 13.25 4.234375 
Q 6.78125 9.90625 6.78125 20.515625 
Q 6.78125 27.484375 10.78125 32.3125 
Q 14.796875 37.15625 21.921875 38.8125 
z
M 18.3125 54.390625 
Q 18.3125 48.734375 21.84375 45.5625 
Q 25.390625 42.390625 31.78125 42.390625 
Q 38.140625 42.390625 41.71875 45.5625 
Q 45.3125 48.734375 45.3125 54.390625 
Q 45.3125 60.0625 41.71875 63.234375 
Q 38.140625 66.40625 31.78125 66.40625 
Q 25.390625 66.40625 21.84375 63.234375 
Q 18.3125 60.0625 18.3125 54.390625 
z
" id="DejaVuSans-38"/>
      </defs>
      <g transform="translate(255.484503 320.638125)rotate(-90)scale(0.1 -0.1)">
       <use xlink:href="#DejaVuSans-41"/>
       <use x="68.408203" xlink:href="#DejaVuSans-31"/>
       <use x="132.03125" xlink:href="#DejaVuSans-38"/>
       <use x="195.654297" xlink:href="#DejaVuSans-31"/>
      </g>
     </g>
    </g>
    <g id="xtick_14">
     <g id="line2d_14">
      <g>
       <use style="stroke:#000000;stroke-width:0.8;" x="269.808889" xlink:href="#mecec141f3b" y="287.71"/>
      </g>
     </g>
     <g id="text_14">
      <!-- A196 -->
      <g transform="translate(272.568264 320.638125)rotate(-90)scale(0.1 -0.1)">
       <use xlink:href="#DejaVuSans-41"/>
       <use x="68.408203" xlink:href="#DejaVuSans-31"/>
       <use x="132.03125" xlink:href="#DejaVuSans-39"/>
       <use x="195.654297" xlink:href="#DejaVuSans-36"/>
      </g>
     </g>
    </g>
    <g id="xtick_15">
     <g id="line2d_15">
      <g>
       <use style="stroke:#000000;stroke-width:0.8;" x="286.89265" xlink:href="#mecec141f3b" y="287.71"/>
      </g>
     </g>
     <g id="text_15">
      <!-- A211 -->
      <g transform="translate(289.652025 320.638125)rotate(-90)scale(0.1 -0.1)">
       <use xlink:href="#DejaVuSans-41"/>
       <use x="68.408203" xlink:href="#DejaVuSans-32"/>
       <use x="132.03125" xlink:href="#DejaVuSans-31"/>
       <use x="195.654297" xlink:href="#DejaVuSans-31"/>
      </g>
     </g>
    </g>
    <g id="xtick_16">
     <g id="line2d_16">
      <g>
       <use style="stroke:#000000;stroke-width:0.8;" x="303.97641" xlink:href="#mecec141f3b" y="287.71"/>
      </g>
     </g>
     <g id="text_16">
      <!-- A226 -->
      <g transform="translate(306.735785 320.638125)rotate(-90)scale(0.1 -0.1)">
       <use xlink:href="#DejaVuSans-41"/>
       <use x="68.408203" xlink:href="#DejaVuSans-32"/>
       <use x="132.03125" xlink:href="#DejaVuSans-32"/>
       <use x="195.654297" xlink:href="#DejaVuSans-36"/>
      </g>
     </g>
    </g>
    <g id="xtick_17">
     <g id="line2d_17">
      <g>
       <use style="stroke:#000000;stroke-width:0.8;" x="321.060171" xlink:href="#mecec141f3b" y="287.71"/>
      </g>
     </g>
     <g id="text_17">
      <!-- A241 -->
      <g transform="translate(323.819546 320.638125)rotate(-90)scale(0.1 -0.1)">
       <use xlink:href="#DejaVuSans-41"/>
       <use x="68.408203" xlink:href="#DejaVuSans-32"/>
       <use x="132.03125" xlink:href="#DejaVuSans-34"/>
       <use x="195.654297" xlink:href="#DejaVuSans-31"/>
      </g>
     </g>
    </g>
    <g id="xtick_18">
     <g id="line2d_18">
      <g>
       <use style="stroke:#000000;stroke-width:0.8;" x="338.143932" xlink:href="#mecec141f3b" y="287.71"/>
      </g>
     </g>
     <g id="text_18">
      <!-- A256 -->
      <g transform="translate(340.903307 320.638125)rotate(-90)scale(0.1 -0.1)">
       <use xlink:href="#DejaVuSans-41"/>
       <use x="68.408203" xlink:href="#DejaVuSans-32"/>
       <use x="132.03125" xlink:href="#DejaVuSans-35"/>
       <use x="195.654297" xlink:href="#DejaVuSans-36"/>
      </g>
     </g>
    </g>
    <g id="xtick_19">
     <g id="line2d_19">
      <g>
       <use style="stroke:#000000;stroke-width:0.8;" x="355.227692" xlink:href="#mecec141f3b" y="287.71"/>
      </g>
     </g>
     <g id="text_19">
      <!-- A271 -->
      <g transform="translate(357.987067 320.638125)rotate(-90)scale(0.1 -0.1)">
       <use xlink:href="#DejaVuSans-41"/>
       <use x="68.408203" xlink:href="#DejaVuSans-32"/>
       <use x="132.03125" xlink:href="#DejaVuSans-37"/>
       <use x="195.654297" xlink:href="#DejaVuSans-31"/>
      </g>
     </g>
    </g>
    <g id="xtick_20">
     <g id="line2d_20">
      <g>
       <use style="stroke:#000000;stroke-width:0.8;" x="372.311453" xlink:href="#mecec141f3b" y="287.71"/>
      </g>
     </g>
     <g id="text_20">
      <!-- A286 -->
      <g transform="translate(375.070828 320.638125)rotate(-90)scale(0.1 -0.1)">
       <use xlink:href="#DejaVuSans-41"/>
       <use x="68.408203" xlink:href="#DejaVuSans-32"/>
       <use x="132.03125" xlink:href="#DejaVuSans-38"/>
       <use x="195.654297" xlink:href="#DejaVuSans-36"/>
      </g>
     </g>
    </g>
    <g id="xtick_21">
     <g id="line2d_21">
      <g>
       <use style="stroke:#000000;stroke-width:0.8;" x="389.395214" xlink:href="#mecec141f3b" y="287.71"/>
      </g>
     </g>
     <g id="text_21">
      <!-- A301 -->
      <g transform="translate(392.154589 320.638125)rotate(-90)scale(0.1 -0.1)">
       <use xlink:href="#DejaVuSans-41"/>
       <use x="68.408203" xlink:href="#DejaVuSans-33"/>
       <use x="132.03125" xlink:href="#DejaVuSans-30"/>
       <use x="195.654297" xlink:href="#DejaVuSans-31"/>
      </g>
     </g>
    </g>
    <g id="xtick_22">
     <g id="line2d_22">
      <g>
       <use style="stroke:#000000;stroke-width:0.8;" x="406.478974" xlink:href="#mecec141f3b" y="287.71"/>
      </g>
     </g>
     <g id="text_22">
      <!-- A316 -->
      <g transform="translate(409.238349 320.638125)rotate(-90)scale(0.1 -0.1)">
       <use xlink:href="#DejaVuSans-41"/>
       <use x="68.408203" xlink:href="#DejaVuSans-33"/>
       <use x="132.03125" xlink:href="#DejaVuSans-31"/>
       <use x="195.654297" xlink:href="#DejaVuSans-36"/>
      </g>
     </g>
    </g>
    <g id="xtick_23">
     <g id="line2d_23">
      <g>
       <use style="stroke:#000000;stroke-width:0.8;" x="423.562735" xlink:href="#mecec141f3b" y="287.71"/>
      </g>
     </g>
     <g id="text_23">
      <!-- A331 -->
      <g transform="translate(426.32211 320.638125)rotate(-90)scale(0.1 -0.1)">
       <use xlink:href="#DejaVuSans-41"/>
       <use x="68.408203" xlink:href="#DejaVuSans-33"/>
       <use x="132.03125" xlink:href="#DejaVuSans-33"/>
       <use x="195.654297" xlink:href="#DejaVuSans-31"/>
      </g>
     </g>
    </g>
    <g id="xtick_24">
     <g id="line2d_24">
      <g>
       <use style="stroke:#000000;stroke-width:0.8;" x="440.646496" xlink:href="#mecec141f3b" y="287.71"/>
      </g>
     </g>
     <g id="text_24">
      <!-- A346 -->
      <g transform="translate(443.405871 320.638125)rotate(-90)scale(0.1 -0.1)">
       <use xlink:href="#DejaVuSans-41"/>
       <use x="68.408203" xlink:href="#DejaVuSans-33"/>
       <use x="132.03125" xlink:href="#DejaVuSans-34"/>
       <use x="195.654297" xlink:href="#DejaVuSans-36"/>
      </g>
     </g>
    </g>
    <g id="text_25">
     <!-- Residue index -->
     <defs>
      <path d="M 44.390625 34.1875 
Q 47.5625 33.109375 50.5625 29.59375 
Q 53.5625 26.078125 56.59375 19.921875 
L 66.609375 0 
L 56 0 
L 46.6875 18.703125 
Q 43.0625 26.03125 39.671875 28.421875 
Q 36.28125 30.8125 30.421875 30.8125 
L 19.671875 30.8125 
L 19.671875 0 
L 9.8125 0 
L 9.8125 72.90625 
L 32.078125 72.90625 
Q 44.578125 72.90625 50.734375 67.671875 
Q 56.890625 62.453125 56.890625 51.90625 
Q 56.890625 45.015625 53.6875 40.46875 
Q 50.484375 35.9375 44.390625 34.1875 
z
M 19.671875 64.796875 
L 19.671875 38.921875 
L 32.078125 38.921875 
Q 39.203125 38.921875 42.84375 42.21875 
Q 46.484375 45.515625 46.484375 51.90625 
Q 46.484375 58.296875 42.84375 61.546875 
Q 39.203125 64.796875 32.078125 64.796875 
z
" id="DejaVuSans-52"/>
      <path d="M 56.203125 29.59375 
L 56.203125 25.203125 
L 14.890625 25.203125 
Q 15.484375 15.921875 20.484375 11.0625 
Q 25.484375 6.203125 34.421875 6.203125 
Q 39.59375 6.203125 44.453125 7.46875 
Q 49.3125 8.734375 54.109375 11.28125 
L 54.109375 2.78125 
Q 49.265625 0.734375 44.1875 -0.34375 
Q 39.109375 -1.421875 33.890625 -1.421875 
Q 20.796875 -1.421875 13.15625 6.1875 
Q 5.515625 13.8125 5.515625 26.8125 
Q 5.515625 40.234375 12.765625 48.109375 
Q 20.015625 56 32.328125 56 
Q 43.359375 56 49.78125 48.890625 
Q 56.203125 41.796875 56.203125 29.59375 
z
M 47.21875 32.234375 
Q 47.125 39.59375 43.09375 43.984375 
Q 39.0625 48.390625 32.421875 48.390625 
Q 24.90625 48.390625 20.390625 44.140625 
Q 15.875 39.890625 15.1875 32.171875 
z
" id="DejaVuSans-65"/>
      <path d="M 44.28125 53.078125 
L 44.28125 44.578125 
Q 40.484375 46.53125 36.375 47.5 
Q 32.28125 48.484375 27.875 48.484375 
Q 21.1875 48.484375 17.84375 46.4375 
Q 14.5 44.390625 14.5 40.28125 
Q 14.5 37.15625 16.890625 35.375 
Q 19.28125 33.59375 26.515625 31.984375 
L 29.59375 31.296875 
Q 39.15625 29.25 43.1875 25.515625 
Q 47.21875 21.78125 47.21875 15.09375 
Q 47.21875 7.46875 41.1875 3.015625 
Q 35.15625 -1.421875 24.609375 -1.421875 
Q 20.21875 -1.421875 15.453125 -0.5625 
Q 10.6875 0.296875 5.421875 2 
L 5.421875 11.28125 
Q 10.40625 8.6875 15.234375 7.390625 
Q 20.0625 6.109375 24.8125 6.109375 
Q 31.15625 6.109375 34.5625 8.28125 
Q 37.984375 10.453125 37.984375 14.40625 
Q 37.984375 18.0625 35.515625 20.015625 
Q 33.0625 21.96875 24.703125 23.78125 
L 21.578125 24.515625 
Q 13.234375 26.265625 9.515625 29.90625 
Q 5.8125 33.546875 5.8125 39.890625 
Q 5.8125 47.609375 11.28125 51.796875 
Q 16.75 56 26.8125 56 
Q 31.78125 56 36.171875 55.265625 
Q 40.578125 54.546875 44.28125 53.078125 
z
" id="DejaVuSans-73"/>
      <path d="M 9.421875 54.6875 
L 18.40625 54.6875 
L 18.40625 0 
L 9.421875 0 
z
M 9.421875 75.984375 
L 18.40625 75.984375 
L 18.40625 64.59375 
L 9.421875 64.59375 
z
" id="DejaVuSans-69"/>
      <path d="M 45.40625 46.390625 
L 45.40625 75.984375 
L 54.390625 75.984375 
L 54.390625 0 
L 45.40625 0 
L 45.40625 8.203125 
Q 42.578125 3.328125 38.25 0.953125 
Q 33.9375 -1.421875 27.875 -1.421875 
Q 17.96875 -1.421875 11.734375 6.484375 
Q 5.515625 14.40625 5.515625 27.296875 
Q 5.515625 40.1875 11.734375 48.09375 
Q 17.96875 56 27.875 56 
Q 33.9375 56 38.25 53.625 
Q 42.578125 51.265625 45.40625 46.390625 
z
M 14.796875 27.296875 
Q 14.796875 17.390625 18.875 11.75 
Q 22.953125 6.109375 30.078125 6.109375 
Q 37.203125 6.109375 41.296875 11.75 
Q 45.40625 17.390625 45.40625 27.296875 
Q 45.40625 37.203125 41.296875 42.84375 
Q 37.203125 48.484375 30.078125 48.484375 
Q 22.953125 48.484375 18.875 42.84375 
Q 14.796875 37.203125 14.796875 27.296875 
z
" id="DejaVuSans-64"/>
      <path d="M 8.5 21.578125 
L 8.5 54.6875 
L 17.484375 54.6875 
L 17.484375 21.921875 
Q 17.484375 14.15625 20.5 10.265625 
Q 23.53125 6.390625 29.59375 6.390625 
Q 36.859375 6.390625 41.078125 11.03125 
Q 45.3125 15.671875 45.3125 23.6875 
L 45.3125 54.6875 
L 54.296875 54.6875 
L 54.296875 0 
L 45.3125 0 
L 45.3125 8.40625 
Q 42.046875 3.421875 37.71875 1 
Q 33.40625 -1.421875 27.6875 -1.421875 
Q 18.265625 -1.421875 13.375 4.4375 
Q 8.5 10.296875 8.5 21.578125 
z
M 31.109375 56 
z
" id="DejaVuSans-75"/>
      <path id="DejaVuSans-20"/>
      <path d="M 54.890625 33.015625 
L 54.890625 0 
L 45.90625 0 
L 45.90625 32.71875 
Q 45.90625 40.484375 42.875 44.328125 
Q 39.84375 48.1875 33.796875 48.1875 
Q 26.515625 48.1875 22.3125 43.546875 
Q 18.109375 38.921875 18.109375 30.90625 
L 18.109375 0 
L 9.078125 0 
L 9.078125 54.6875 
L 18.109375 54.6875 
L 18.109375 46.1875 
Q 21.34375 51.125 25.703125 53.5625 
Q 30.078125 56 35.796875 56 
Q 45.21875 56 50.046875 50.171875 
Q 54.890625 44.34375 54.890625 33.015625 
z
" id="DejaVuSans-6e"/>
      <path d="M 54.890625 54.6875 
L 35.109375 28.078125 
L 55.90625 0 
L 45.3125 0 
L 29.390625 21.484375 
L 13.484375 0 
L 2.875 0 
L 24.125 28.609375 
L 4.6875 54.6875 
L 15.28125 54.6875 
L 29.78125 35.203125 
L 44.28125 54.6875 
z
" id="DejaVuSans-78"/>
     </defs>
     <g transform="translate(212.282812 332.236562)scale(0.1 -0.1)">
      <use xlink:href="#DejaVuSans-52"/>
      <use x="69.419922" xlink:href="#DejaVuSans-65"/>
      <use x="130.943359" xlink:href="#DejaVuSans-73"/>
      <use x="183.042969" xlink:href="#DejaVuSans-69"/>
      <use x="210.826172" xlink:href="#DejaVuSans-64"/>
      <use x="274.302734" xlink:href="#DejaVuSans-75"/>
      <use x="337.681641" xlink:href="#DejaVuSans-65"/>
      <use x="399.205078" xlink:href="#DejaVuSans-20"/>
      <use x="430.992188" xlink:href="#DejaVuSans-69"/>
      <use x="458.775391" xlink:href="#DejaVuSans-6e"/>
      <use x="522.154297" xlink:href="#DejaVuSans-64"/>
      <use x="585.630859" xlink:href="#DejaVuSans-65"/>
      <use x="647.138672" xlink:href="#DejaVuSans-78"/>
     </g>
    </g>
   </g>
   <g id="matplotlib.axis_2">
    <g id="ytick_1">
     <g id="line2d_25">
      <defs>
       <path d="M 0 0 
L -3.5 0 
" id="m44a0e81391" style="stroke:#000000;stroke-width:0.8;"/>
      </defs>
      <g>
       <use style="stroke:#000000;stroke-width:0.8;" x="47.72" xlink:href="#m44a0e81391" y="284.80867"/>
      </g>
     </g>
     <g id="text_26">
      <!-- 0.0 -->
      <defs>
       <path d="M 10.6875 12.40625 
L 21 12.40625 
L 21 0 
L 10.6875 0 
z
" id="DejaVuSans-2e"/>
      </defs>
      <g transform="translate(24.816875 288.607888)scale(0.1 -0.1)">
       <use xlink:href="#DejaVuSans-30"/>
       <use x="63.623047" xlink:href="#DejaVuSans-2e"/>
       <use x="95.410156" xlink:href="#DejaVuSans-30"/>
      </g>
     </g>
    </g>
    <g id="ytick_2">
     <g id="line2d_26">
      <g>
       <use style="stroke:#000000;stroke-width:0.8;" x="47.72" xlink:href="#m44a0e81391" y="250.754287"/>
      </g>
     </g>
     <g id="text_27">
      <!-- 0.5 -->
      <g transform="translate(24.816875 254.553505)scale(0.1 -0.1)">
       <use xlink:href="#DejaVuSans-30"/>
       <use x="63.623047" xlink:href="#DejaVuSans-2e"/>
       <use x="95.410156" xlink:href="#DejaVuSans-35"/>
      </g>
     </g>
    </g>
    <g id="ytick_3">
     <g id="line2d_27">
      <g>
       <use style="stroke:#000000;stroke-width:0.8;" x="47.72" xlink:href="#m44a0e81391" y="216.699903"/>
      </g>
     </g>
     <g id="text_28">
      <!-- 1.0 -->
      <g transform="translate(24.816875 220.499122)scale(0.1 -0.1)">
       <use xlink:href="#DejaVuSans-31"/>
       <use x="63.623047" xlink:href="#DejaVuSans-2e"/>
       <use x="95.410156" xlink:href="#DejaVuSans-30"/>
      </g>
     </g>
    </g>
    <g id="ytick_4">
     <g id="line2d_28">
      <g>
       <use style="stroke:#000000;stroke-width:0.8;" x="47.72" xlink:href="#m44a0e81391" y="182.64552"/>
      </g>
     </g>
     <g id="text_29">
      <!-- 1.5 -->
      <g transform="translate(24.816875 186.444739)scale(0.1 -0.1)">
       <use xlink:href="#DejaVuSans-31"/>
       <use x="63.623047" xlink:href="#DejaVuSans-2e"/>
       <use x="95.410156" xlink:href="#DejaVuSans-35"/>
      </g>
     </g>
    </g>
    <g id="ytick_5">
     <g id="line2d_29">
      <g>
       <use style="stroke:#000000;stroke-width:0.8;" x="47.72" xlink:href="#m44a0e81391" y="148.591137"/>
      </g>
     </g>
     <g id="text_30">
      <!-- 2.0 -->
      <g transform="translate(24.816875 152.390356)scale(0.1 -0.1)">
       <use xlink:href="#DejaVuSans-32"/>
       <use x="63.623047" xlink:href="#DejaVuSans-2e"/>
       <use x="95.410156" xlink:href="#DejaVuSans-30"/>
      </g>
     </g>
    </g>
    <g id="ytick_6">
     <g id="line2d_30">
      <g>
       <use style="stroke:#000000;stroke-width:0.8;" x="47.72" xlink:href="#m44a0e81391" y="114.536754"/>
      </g>
     </g>
     <g id="text_31">
      <!-- 2.5 -->
      <g transform="translate(24.816875 118.335973)scale(0.1 -0.1)">
       <use xlink:href="#DejaVuSans-32"/>
       <use x="63.623047" xlink:href="#DejaVuSans-2e"/>
       <use x="95.410156" xlink:href="#DejaVuSans-35"/>
      </g>
     </g>
    </g>
    <g id="ytick_7">
     <g id="line2d_31">
      <g>
       <use style="stroke:#000000;stroke-width:0.8;" x="47.72" xlink:href="#m44a0e81391" y="80.482371"/>
      </g>
     </g>
     <g id="text_32">
      <!-- 3.0 -->
      <g transform="translate(24.816875 84.28159)scale(0.1 -0.1)">
       <use xlink:href="#DejaVuSans-33"/>
       <use x="63.623047" xlink:href="#DejaVuSans-2e"/>
       <use x="95.410156" xlink:href="#DejaVuSans-30"/>
      </g>
     </g>
    </g>
    <g id="ytick_8">
     <g id="line2d_32">
      <g>
       <use style="stroke:#000000;stroke-width:0.8;" x="47.72" xlink:href="#m44a0e81391" y="46.427988"/>
      </g>
     </g>
     <g id="text_33">
      <!-- 3.5 -->
      <g transform="translate(24.816875 50.227207)scale(0.1 -0.1)">
       <use xlink:href="#DejaVuSans-33"/>
       <use x="63.623047" xlink:href="#DejaVuSans-2e"/>
       <use x="95.410156" xlink:href="#DejaVuSans-35"/>
      </g>
     </g>
    </g>
    <g id="text_34">
     <!-- RMSF -->
     <defs>
      <path d="M 9.8125 72.90625 
L 24.515625 72.90625 
L 43.109375 23.296875 
L 61.8125 72.90625 
L 76.515625 72.90625 
L 76.515625 0 
L 66.890625 0 
L 66.890625 64.015625 
L 48.09375 14.015625 
L 38.1875 14.015625 
L 19.390625 64.015625 
L 19.390625 0 
L 9.8125 0 
z
" id="DejaVuSans-4d"/>
      <path d="M 53.515625 70.515625 
L 53.515625 60.890625 
Q 47.90625 63.578125 42.921875 64.890625 
Q 37.9375 66.21875 33.296875 66.21875 
Q 25.25 66.21875 20.875 63.09375 
Q 16.5 59.96875 16.5 54.203125 
Q 16.5 49.359375 19.40625 46.890625 
Q 22.3125 44.4375 30.421875 42.921875 
L 36.375 41.703125 
Q 47.40625 39.59375 52.65625 34.296875 
Q 57.90625 29 57.90625 20.125 
Q 57.90625 9.515625 50.796875 4.046875 
Q 43.703125 -1.421875 29.984375 -1.421875 
Q 24.8125 -1.421875 18.96875 -0.25 
Q 13.140625 0.921875 6.890625 3.21875 
L 6.890625 13.375 
Q 12.890625 10.015625 18.65625 8.296875 
Q 24.421875 6.59375 29.984375 6.59375 
Q 38.421875 6.59375 43.015625 9.90625 
Q 47.609375 13.234375 47.609375 19.390625 
Q 47.609375 24.75 44.3125 27.78125 
Q 41.015625 30.8125 33.5 32.328125 
L 27.484375 33.5 
Q 16.453125 35.6875 11.515625 40.375 
Q 6.59375 45.0625 6.59375 53.421875 
Q 6.59375 63.09375 13.40625 68.65625 
Q 20.21875 74.21875 32.171875 74.21875 
Q 37.3125 74.21875 42.625 73.28125 
Q 47.953125 72.359375 53.515625 70.515625 
z
" id="DejaVuSans-53"/>
      <path d="M 9.8125 72.90625 
L 51.703125 72.90625 
L 51.703125 64.59375 
L 19.671875 64.59375 
L 19.671875 43.109375 
L 48.578125 43.109375 
L 48.578125 34.8125 
L 19.671875 34.8125 
L 19.671875 0 
L 9.8125 0 
z
" id="DejaVuSans-46"/>
     </defs>
     <g transform="translate(18.737188 164.353281)rotate(-90)scale(0.1 -0.1)">
      <use xlink:href="#DejaVuSans-52"/>
      <use x="69.482422" xlink:href="#DejaVuSans-4d"/>
      <use x="155.761719" xlink:href="#DejaVuSans-53"/>
      <use x="219.238281" xlink:href="#DejaVuSans-46"/>
     </g>
    </g>
   </g>
   <g id="line2d_33">
    <path clip-path="url(#p6441d26e76)" d="M 47.72 164.514236 
L 48.858917 211.435157 
L 49.997835 218.598574 
L 51.136752 230.110818 
L 52.27567 236.507677 
L 53.414587 233.683125 
L 54.553504 241.1027 
L 55.692422 238.989529 
L 56.831339 233.107057 
L 57.970256 216.929248 
L 59.109174 173.564331 
L 60.248091 188.652995 
L 61.387009 223.074343 
L 62.525926 221.528743 
L 63.664843 239.617866 
L 64.803761 261.792278 
L 65.942678 235.66881 
L 67.081595 214.123279 
L 68.220513 204.27045 
L 69.35943 187.557456 
L 70.498348 212.285793 
L 71.637265 233.146996 
L 72.776182 246.704035 
L 73.9151 262.229064 
L 75.054017 260.237083 
L 76.192934 251.873403 
L 77.331852 254.747825 
L 78.470769 258.033376 
L 79.609687 250.873017 
L 80.748604 237.321524 
L 81.887521 241.761556 
L 83.026439 273.886764 
L 84.165356 274.730772 
L 85.304274 260.322192 
L 86.443191 270.924918 
L 87.582108 257.893328 
L 88.721026 176.710963 
L 89.859943 231.650904 
L 90.99886 212.589751 
L 92.137778 185.255977 
L 93.276695 163.436581 
L 94.415613 157.687017 
L 95.55453 171.563836 
L 96.693447 204.402917 
L 97.832365 173.914444 
L 98.971282 168.49167 
L 100.110199 224.961565 
L 101.249117 247.750153 
L 102.388034 236.558425 
L 103.526952 232.876513 
L 104.665869 230.241872 
L 105.804786 235.388753 
L 106.943704 246.276991 
L 108.082621 236.821455 
L 109.221538 241.174814 
L 110.360456 236.144886 
L 111.499373 235.570256 
L 112.638291 235.731458 
L 113.777208 217.31865 
L 114.916125 218.373226 
L 116.055043 225.392654 
L 117.19396 157.543152 
L 118.332877 217.829292 
L 119.471795 238.334832 
L 120.610712 243.287025 
L 121.74963 266.880085 
L 122.888547 265.280483 
L 124.027464 254.191905 
L 125.166382 256.220661 
L 126.305299 240.907062 
L 127.444217 209.00988 
L 128.583134 193.077593 
L 130.860969 178.335228 
L 131.999886 177.12761 
L 133.138803 180.420956 
L 134.277721 132.51067 
L 135.416638 213.518994 
L 136.555556 184.458426 
L 137.694473 193.161099 
L 138.83339 212.700545 
L 139.972308 203.247886 
L 141.111225 219.898834 
L 142.250142 228.891136 
L 143.38906 241.504656 
L 144.527977 225.872219 
L 145.666895 227.831527 
L 146.805812 250.187517 
L 147.944729 223.527699 
L 149.083647 232.216462 
L 150.222564 209.349272 
L 151.361481 152.112851 
L 152.500399 121.573782 
L 153.639316 196.02654 
L 154.778234 221.121976 
L 155.917151 248.945611 
L 157.056068 252.726052 
L 158.194986 255.752363 
L 159.333903 242.125039 
L 160.472821 274.009741 
L 161.611738 270.314112 
L 162.750655 268.800425 
L 163.889573 266.375537 
L 165.02849 265.496633 
L 166.167407 268.916635 
L 167.306325 259.614828 
L 168.445242 261.980594 
L 169.58416 258.816744 
L 170.723077 261.037463 
L 171.861994 261.222445 
L 173.000912 262.07993 
L 174.139829 261.226894 
L 175.278746 237.139611 
L 176.417664 233.208602 
L 177.556581 202.078032 
L 178.695499 151.20141 
L 179.834416 208.246412 
L 180.973333 241.178024 
L 182.112251 256.372445 
L 183.251168 250.223129 
L 184.390085 259.496722 
L 185.529003 262.623754 
L 186.66792 272.45821 
L 187.806838 252.302559 
L 188.945755 238.328116 
L 190.084672 120.906055 
L 191.22359 135.315948 
L 193.501425 241.894518 
L 194.640342 262.019664 
L 195.779259 264.615997 
L 196.918177 271.929021 
L 198.057094 273.081232 
L 199.196011 264.010368 
L 200.334929 272.958751 
L 201.473846 272.582934 
L 202.612764 271.096126 
L 203.751681 270.634569 
L 204.890598 271.530338 
L 206.029516 271.894332 
L 207.168433 263.998732 
L 208.30735 245.954704 
L 209.446268 221.934767 
L 210.585185 172.290119 
L 211.724103 181.718332 
L 212.86302 246.028655 
L 214.001937 245.657856 
L 215.140855 262.806155 
L 216.279772 251.403082 
L 217.418689 252.106904 
L 218.557607 268.700769 
L 219.696524 264.300291 
L 220.835442 268.224174 
L 221.974359 267.507586 
L 223.113276 269.463098 
L 224.252194 259.396329 
L 225.391111 256.960869 
L 226.530028 261.932595 
L 227.668946 255.20549 
L 228.807863 254.414911 
L 229.946781 246.905381 
L 231.085698 165.399165 
L 232.224615 107.670467 
L 233.363533 97.092756 
L 235.641368 25.792273 
L 236.780285 105.744428 
L 237.919202 205.749612 
L 239.05812 246.680999 
L 240.197037 246.256835 
L 241.335954 259.782962 
L 242.474872 261.802032 
L 243.613789 258.023283 
L 244.752707 258.979309 
L 245.891624 264.177551 
L 247.030541 275.237727 
L 248.169459 274.119322 
L 249.308376 275.198656 
L 250.447293 274.603233 
L 251.586211 266.88279 
L 252.725128 261.434772 
L 253.864046 257.1919 
L 255.002963 251.8549 
L 257.280798 196.816711 
L 258.419715 203.38477 
L 259.558632 180.734183 
L 260.69755 172.112511 
L 261.836467 222.969415 
L 262.975385 213.14838 
L 264.114302 229.46018 
L 265.253219 247.606373 
L 267.531054 266.749991 
L 268.669972 271.317998 
L 269.808889 249.247746 
L 270.947806 252.081572 
L 272.086724 270.481398 
L 273.225641 268.991604 
L 274.364558 251.258146 
L 275.503476 270.55642 
L 276.642393 261.578767 
L 277.781311 264.10318 
L 278.920228 233.684711 
L 280.059145 253.593571 
L 281.198063 226.398768 
L 282.33698 194.842481 
L 283.475897 145.174883 
L 284.614815 112.489098 
L 285.753732 142.554165 
L 286.89265 149.2544 
L 288.031567 227.813787 
L 289.170484 246.135011 
L 290.309402 239.256591 
L 291.448319 247.686758 
L 292.587236 259.041508 
L 293.726154 253.020041 
L 294.865071 266.305657 
L 296.003989 254.10189 
L 297.142906 227.84826 
L 298.281823 185.822693 
L 299.420741 222.826636 
L 300.559658 239.435492 
L 301.698575 266.818599 
L 302.837493 266.827124 
L 303.97641 253.286212 
L 305.115328 176.248683 
L 306.254245 208.027329 
L 307.393162 148.348988 
L 308.53208 98.089071 
L 309.670997 149.337236 
L 310.809915 221.810141 
L 311.948832 235.112368 
L 313.087749 212.22639 
L 314.226667 197.969038 
L 315.365584 161.317575 
L 316.504501 213.322041 
L 317.643419 234.015394 
L 318.782336 252.074953 
L 319.921254 262.686922 
L 321.060171 262.583926 
L 322.199088 244.267531 
L 323.338006 250.232566 
L 324.476923 246.78574 
L 325.61584 182.540103 
L 326.754758 247.863012 
L 327.893675 267.697055 
L 329.032593 249.949827 
L 330.17151 259.838779 
L 331.310427 247.9465 
L 332.449345 233.023 
L 333.588262 253.165795 
L 334.727179 260.525129 
L 335.866097 252.245685 
L 337.005014 263.501982 
L 338.143932 273.51886 
L 339.282849 272.399614 
L 340.421766 257.131593 
L 341.560684 253.818107 
L 342.699601 233.759316 
L 343.838519 218.541276 
L 346.116353 136.552901 
L 347.255271 151.441789 
L 349.533105 227.612955 
L 350.672023 239.929649 
L 351.81094 241.034499 
L 352.949858 245.823376 
L 354.088775 261.325291 
L 355.227692 258.036079 
L 356.36661 257.926579 
L 357.505527 263.795292 
L 358.644444 266.084552 
L 359.783362 254.502073 
L 360.922279 259.294858 
L 362.061197 242.608995 
L 363.200114 228.918198 
L 364.339031 231.003633 
L 365.477949 253.618698 
L 366.616866 246.506485 
L 367.755783 199.926356 
L 368.894701 183.661893 
L 370.033618 121.702033 
L 371.172536 82.302618 
L 372.311453 97.820429 
L 373.45037 85.256753 
L 374.589288 36.251468 
L 375.728205 86.046624 
L 376.867123 60.676878 
L 378.00604 122.764851 
L 379.144957 127.13459 
L 380.283875 143.875785 
L 381.422792 134.935365 
L 382.561709 148.251241 
L 383.700627 158.561087 
L 384.839544 217.294068 
L 385.978462 238.86691 
L 387.117379 242.653253 
L 388.256296 243.006853 
L 389.395214 253.127529 
L 390.534131 255.383873 
L 391.673048 260.634063 
L 392.811966 267.955677 
L 393.950883 252.306203 
L 395.089801 243.400694 
L 396.228718 232.788335 
L 397.367635 218.955278 
L 399.64547 112.649545 
L 400.784387 119.017839 
L 401.923305 143.527527 
L 403.062222 162.160806 
L 404.20114 228.336188 
L 405.340057 237.326286 
L 406.478974 253.138216 
L 407.617892 261.090706 
L 408.756809 270.045498 
L 409.895726 257.413964 
L 411.034644 251.302466 
L 412.173561 251.861486 
L 413.312479 254.090603 
L 414.451396 224.680695 
L 415.590313 242.372223 
L 416.729231 239.700732 
L 417.868148 250.411791 
L 419.007066 216.763778 
L 420.145983 203.221661 
L 421.2849 166.743707 
L 422.423818 173.968938 
L 423.562735 152.553975 
L 424.701652 149.819317 
L 425.84057 102.117044 
L 426.979487 133.971288 
L 429.257322 228.707389 
L 430.396239 194.020974 
L 431.535157 175.27739 
L 432.674074 210.093373 
L 433.812991 254.431304 
L 434.951909 270.044551 
L 436.090826 268.26251 
L 437.229744 260.556126 
L 438.368661 271.180011 
L 439.507578 271.547424 
L 440.646496 260.513553 
L 441.785413 262.662711 
L 442.92433 270.890739 
L 444.063248 251.978137 
L 446.341083 220.947533 
L 447.48 134.352526 
L 447.48 134.352526 
" style="fill:none;stroke:#666666;stroke-dasharray:1,1.65;stroke-dashoffset:0;"/>
    <defs>
     <path d="M 0 0.5 
C 0.132602 0.5 0.25979 0.447317 0.353553 0.353553 
C 0.447317 0.25979 0.5 0.132602 0.5 0 
C 0.5 -0.132602 0.447317 -0.25979 0.353553 -0.353553 
C 0.25979 -0.447317 0.132602 -0.5 0 -0.5 
C -0.132602 -0.5 -0.25979 -0.447317 -0.353553 -0.353553 
C -0.447317 -0.25979 -0.5 -0.132602 -0.5 0 
C -0.5 0.132602 -0.447317 0.25979 -0.353553 0.353553 
C -0.25979 0.447317 -0.132602 0.5 0 0.5 
z
" id="ma4c22a52c7" style="stroke:#666666;"/>
    </defs>
    <g clip-path="url(#p6441d26e76)">
     <use style="fill:#666666;stroke:#666666;" x="47.72" xlink:href="#ma4c22a52c7" y="164.514236"/>
     <use style="fill:#666666;stroke:#666666;" x="48.858917" xlink:href="#ma4c22a52c7" y="211.435157"/>
     <use style="fill:#666666;stroke:#666666;" x="49.997835" xlink:href="#ma4c22a52c7" y="218.598574"/>
     <use style="fill:#666666;stroke:#666666;" x="51.136752" xlink:href="#ma4c22a52c7" y="230.110818"/>
     <use style="fill:#666666;stroke:#666666;" x="52.27567" xlink:href="#ma4c22a52c7" y="236.507677"/>
     <use style="fill:#666666;stroke:#666666;" x="53.414587" xlink:href="#ma4c22a52c7" y="233.683125"/>
     <use style="fill:#666666;stroke:#666666;" x="54.553504" xlink:href="#ma4c22a52c7" y="241.1027"/>
     <use style="fill:#666666;stroke:#666666;" x="55.692422" xlink:href="#ma4c22a52c7" y="238.989529"/>
     <use style="fill:#666666;stroke:#666666;" x="56.831339" xlink:href="#ma4c22a52c7" y="233.107057"/>
     <use style="fill:#666666;stroke:#666666;" x="57.970256" xlink:href="#ma4c22a52c7" y="216.929248"/>
     <use style="fill:#666666;stroke:#666666;" x="59.109174" xlink:href="#ma4c22a52c7" y="173.564331"/>
     <use style="fill:#666666;stroke:#666666;" x="60.248091" xlink:href="#ma4c22a52c7" y="188.652995"/>
     <use style="fill:#666666;stroke:#666666;" x="61.387009" xlink:href="#ma4c22a52c7" y="223.074343"/>
     <use style="fill:#666666;stroke:#666666;" x="62.525926" xlink:href="#ma4c22a52c7" y="221.528743"/>
     <use style="fill:#666666;stroke:#666666;" x="63.664843" xlink:href="#ma4c22a52c7" y="239.617866"/>
     <use style="fill:#666666;stroke:#666666;" x="64.803761" xlink:href="#ma4c22a52c7" y="261.792278"/>
     <use style="fill:#666666;stroke:#666666;" x="65.942678" xlink:href="#ma4c22a52c7" y="235.66881"/>
     <use style="fill:#666666;stroke:#666666;" x="67.081595" xlink:href="#ma4c22a52c7" y="214.123279"/>
     <use style="fill:#666666;stroke:#666666;" x="68.220513" xlink:href="#ma4c22a52c7" y="204.27045"/>
     <use style="fill:#666666;stroke:#666666;" x="69.35943" xlink:href="#ma4c22a52c7" y="187.557456"/>
     <use style="fill:#666666;stroke:#666666;" x="70.498348" xlink:href="#ma4c22a52c7" y="212.285793"/>
     <use style="fill:#666666;stroke:#666666;" x="71.637265" xlink:href="#ma4c22a52c7" y="233.146996"/>
     <use style="fill:#666666;stroke:#666666;" x="72.776182" xlink:href="#ma4c22a52c7" y="246.704035"/>
     <use style="fill:#666666;stroke:#666666;" x="73.9151" xlink:href="#ma4c22a52c7" y="262.229064"/>
     <use style="fill:#666666;stroke:#666666;" x="75.054017" xlink:href="#ma4c22a52c7" y="260.237083"/>
     <use style="fill:#666666;stroke:#666666;" x="76.192934" xlink:href="#ma4c22a52c7" y="251.873403"/>
     <use style="fill:#666666;stroke:#666666;" x="77.331852" xlink:href="#ma4c22a52c7" y="254.747825"/>
     <use style="fill:#666666;stroke:#666666;" x="78.470769" xlink:href="#ma4c22a52c7" y="258.033376"/>
     <use style="fill:#666666;stroke:#666666;" x="79.609687" xlink:href="#ma4c22a52c7" y="250.873017"/>
     <use style="fill:#666666;stroke:#666666;" x="80.748604" xlink:href="#ma4c22a52c7" y="237.321524"/>
     <use style="fill:#666666;stroke:#666666;" x="81.887521" xlink:href="#ma4c22a52c7" y="241.761556"/>
     <use style="fill:#666666;stroke:#666666;" x="83.026439" xlink:href="#ma4c22a52c7" y="273.886764"/>
     <use style="fill:#666666;stroke:#666666;" x="84.165356" xlink:href="#ma4c22a52c7" y="274.730772"/>
     <use style="fill:#666666;stroke:#666666;" x="85.304274" xlink:href="#ma4c22a52c7" y="260.322192"/>
     <use style="fill:#666666;stroke:#666666;" x="86.443191" xlink:href="#ma4c22a52c7" y="270.924918"/>
     <use style="fill:#666666;stroke:#666666;" x="87.582108" xlink:href="#ma4c22a52c7" y="257.893328"/>
     <use style="fill:#666666;stroke:#666666;" x="88.721026" xlink:href="#ma4c22a52c7" y="176.710963"/>
     <use style="fill:#666666;stroke:#666666;" x="89.859943" xlink:href="#ma4c22a52c7" y="231.650904"/>
     <use style="fill:#666666;stroke:#666666;" x="90.99886" xlink:href="#ma4c22a52c7" y="212.589751"/>
     <use style="fill:#666666;stroke:#666666;" x="92.137778" xlink:href="#ma4c22a52c7" y="185.255977"/>
     <use style="fill:#666666;stroke:#666666;" x="93.276695" xlink:href="#ma4c22a52c7" y="163.436581"/>
     <use style="fill:#666666;stroke:#666666;" x="94.415613" xlink:href="#ma4c22a52c7" y="157.687017"/>
     <use style="fill:#666666;stroke:#666666;" x="95.55453" xlink:href="#ma4c22a52c7" y="171.563836"/>
     <use style="fill:#666666;stroke:#666666;" x="96.693447" xlink:href="#ma4c22a52c7" y="204.402917"/>
     <use style="fill:#666666;stroke:#666666;" x="97.832365" xlink:href="#ma4c22a52c7" y="173.914444"/>
     <use style="fill:#666666;stroke:#666666;" x="98.971282" xlink:href="#ma4c22a52c7" y="168.49167"/>
     <use style="fill:#666666;stroke:#666666;" x="100.110199" xlink:href="#ma4c22a52c7" y="224.961565"/>
     <use style="fill:#666666;stroke:#666666;" x="101.249117" xlink:href="#ma4c22a52c7" y="247.750153"/>
     <use style="fill:#666666;stroke:#666666;" x="102.388034" xlink:href="#ma4c22a52c7" y="236.558425"/>
     <use style="fill:#666666;stroke:#666666;" x="103.526952" xlink:href="#ma4c22a52c7" y="232.876513"/>
     <use style="fill:#666666;stroke:#666666;" x="104.665869" xlink:href="#ma4c22a52c7" y="230.241872"/>
     <use style="fill:#666666;stroke:#666666;" x="105.804786" xlink:href="#ma4c22a52c7" y="235.388753"/>
     <use style="fill:#666666;stroke:#666666;" x="106.943704" xlink:href="#ma4c22a52c7" y="246.276991"/>
     <use style="fill:#666666;stroke:#666666;" x="108.082621" xlink:href="#ma4c22a52c7" y="236.821455"/>
     <use style="fill:#666666;stroke:#666666;" x="109.221538" xlink:href="#ma4c22a52c7" y="241.174814"/>
     <use style="fill:#666666;stroke:#666666;" x="110.360456" xlink:href="#ma4c22a52c7" y="236.144886"/>
     <use style="fill:#666666;stroke:#666666;" x="111.499373" xlink:href="#ma4c22a52c7" y="235.570256"/>
     <use style="fill:#666666;stroke:#666666;" x="112.638291" xlink:href="#ma4c22a52c7" y="235.731458"/>
     <use style="fill:#666666;stroke:#666666;" x="113.777208" xlink:href="#ma4c22a52c7" y="217.31865"/>
     <use style="fill:#666666;stroke:#666666;" x="114.916125" xlink:href="#ma4c22a52c7" y="218.373226"/>
     <use style="fill:#666666;stroke:#666666;" x="116.055043" xlink:href="#ma4c22a52c7" y="225.392654"/>
     <use style="fill:#666666;stroke:#666666;" x="117.19396" xlink:href="#ma4c22a52c7" y="157.543152"/>
     <use style="fill:#666666;stroke:#666666;" x="118.332877" xlink:href="#ma4c22a52c7" y="217.829292"/>
     <use style="fill:#666666;stroke:#666666;" x="119.471795" xlink:href="#ma4c22a52c7" y="238.334832"/>
     <use style="fill:#666666;stroke:#666666;" x="120.610712" xlink:href="#ma4c22a52c7" y="243.287025"/>
     <use style="fill:#666666;stroke:#666666;" x="121.74963" xlink:href="#ma4c22a52c7" y="266.880085"/>
     <use style="fill:#666666;stroke:#666666;" x="122.888547" xlink:href="#ma4c22a52c7" y="265.280483"/>
     <use style="fill:#666666;stroke:#666666;" x="124.027464" xlink:href="#ma4c22a52c7" y="254.191905"/>
     <use style="fill:#666666;stroke:#666666;" x="125.166382" xlink:href="#ma4c22a52c7" y="256.220661"/>
     <use style="fill:#666666;stroke:#666666;" x="126.305299" xlink:href="#ma4c22a52c7" y="240.907062"/>
     <use style="fill:#666666;stroke:#666666;" x="127.444217" xlink:href="#ma4c22a52c7" y="209.00988"/>
     <use style="fill:#666666;stroke:#666666;" x="128.583134" xlink:href="#ma4c22a52c7" y="193.077593"/>
     <use style="fill:#666666;stroke:#666666;" x="129.722051" xlink:href="#ma4c22a52c7" y="185.84263"/>
     <use style="fill:#666666;stroke:#666666;" x="130.860969" xlink:href="#ma4c22a52c7" y="178.335228"/>
     <use style="fill:#666666;stroke:#666666;" x="131.999886" xlink:href="#ma4c22a52c7" y="177.12761"/>
     <use style="fill:#666666;stroke:#666666;" x="133.138803" xlink:href="#ma4c22a52c7" y="180.420956"/>
     <use style="fill:#666666;stroke:#666666;" x="134.277721" xlink:href="#ma4c22a52c7" y="132.51067"/>
     <use style="fill:#666666;stroke:#666666;" x="135.416638" xlink:href="#ma4c22a52c7" y="213.518994"/>
     <use style="fill:#666666;stroke:#666666;" x="136.555556" xlink:href="#ma4c22a52c7" y="184.458426"/>
     <use style="fill:#666666;stroke:#666666;" x="137.694473" xlink:href="#ma4c22a52c7" y="193.161099"/>
     <use style="fill:#666666;stroke:#666666;" x="138.83339" xlink:href="#ma4c22a52c7" y="212.700545"/>
     <use style="fill:#666666;stroke:#666666;" x="139.972308" xlink:href="#ma4c22a52c7" y="203.247886"/>
     <use style="fill:#666666;stroke:#666666;" x="141.111225" xlink:href="#ma4c22a52c7" y="219.898834"/>
     <use style="fill:#666666;stroke:#666666;" x="142.250142" xlink:href="#ma4c22a52c7" y="228.891136"/>
     <use style="fill:#666666;stroke:#666666;" x="143.38906" xlink:href="#ma4c22a52c7" y="241.504656"/>
     <use style="fill:#666666;stroke:#666666;" x="144.527977" xlink:href="#ma4c22a52c7" y="225.872219"/>
     <use style="fill:#666666;stroke:#666666;" x="145.666895" xlink:href="#ma4c22a52c7" y="227.831527"/>
     <use style="fill:#666666;stroke:#666666;" x="146.805812" xlink:href="#ma4c22a52c7" y="250.187517"/>
     <use style="fill:#666666;stroke:#666666;" x="147.944729" xlink:href="#ma4c22a52c7" y="223.527699"/>
     <use style="fill:#666666;stroke:#666666;" x="149.083647" xlink:href="#ma4c22a52c7" y="232.216462"/>
     <use style="fill:#666666;stroke:#666666;" x="150.222564" xlink:href="#ma4c22a52c7" y="209.349272"/>
     <use style="fill:#666666;stroke:#666666;" x="151.361481" xlink:href="#ma4c22a52c7" y="152.112851"/>
     <use style="fill:#666666;stroke:#666666;" x="152.500399" xlink:href="#ma4c22a52c7" y="121.573782"/>
     <use style="fill:#666666;stroke:#666666;" x="153.639316" xlink:href="#ma4c22a52c7" y="196.02654"/>
     <use style="fill:#666666;stroke:#666666;" x="154.778234" xlink:href="#ma4c22a52c7" y="221.121976"/>
     <use style="fill:#666666;stroke:#666666;" x="155.917151" xlink:href="#ma4c22a52c7" y="248.945611"/>
     <use style="fill:#666666;stroke:#666666;" x="157.056068" xlink:href="#ma4c22a52c7" y="252.726052"/>
     <use style="fill:#666666;stroke:#666666;" x="158.194986" xlink:href="#ma4c22a52c7" y="255.752363"/>
     <use style="fill:#666666;stroke:#666666;" x="159.333903" xlink:href="#ma4c22a52c7" y="242.125039"/>
     <use style="fill:#666666;stroke:#666666;" x="160.472821" xlink:href="#ma4c22a52c7" y="274.009741"/>
     <use style="fill:#666666;stroke:#666666;" x="161.611738" xlink:href="#ma4c22a52c7" y="270.314112"/>
     <use style="fill:#666666;stroke:#666666;" x="162.750655" xlink:href="#ma4c22a52c7" y="268.800425"/>
     <use style="fill:#666666;stroke:#666666;" x="163.889573" xlink:href="#ma4c22a52c7" y="266.375537"/>
     <use style="fill:#666666;stroke:#666666;" x="165.02849" xlink:href="#ma4c22a52c7" y="265.496633"/>
     <use style="fill:#666666;stroke:#666666;" x="166.167407" xlink:href="#ma4c22a52c7" y="268.916635"/>
     <use style="fill:#666666;stroke:#666666;" x="167.306325" xlink:href="#ma4c22a52c7" y="259.614828"/>
     <use style="fill:#666666;stroke:#666666;" x="168.445242" xlink:href="#ma4c22a52c7" y="261.980594"/>
     <use style="fill:#666666;stroke:#666666;" x="169.58416" xlink:href="#ma4c22a52c7" y="258.816744"/>
     <use style="fill:#666666;stroke:#666666;" x="170.723077" xlink:href="#ma4c22a52c7" y="261.037463"/>
     <use style="fill:#666666;stroke:#666666;" x="171.861994" xlink:href="#ma4c22a52c7" y="261.222445"/>
     <use style="fill:#666666;stroke:#666666;" x="173.000912" xlink:href="#ma4c22a52c7" y="262.07993"/>
     <use style="fill:#666666;stroke:#666666;" x="174.139829" xlink:href="#ma4c22a52c7" y="261.226894"/>
     <use style="fill:#666666;stroke:#666666;" x="175.278746" xlink:href="#ma4c22a52c7" y="237.139611"/>
     <use style="fill:#666666;stroke:#666666;" x="176.417664" xlink:href="#ma4c22a52c7" y="233.208602"/>
     <use style="fill:#666666;stroke:#666666;" x="177.556581" xlink:href="#ma4c22a52c7" y="202.078032"/>
     <use style="fill:#666666;stroke:#666666;" x="178.695499" xlink:href="#ma4c22a52c7" y="151.20141"/>
     <use style="fill:#666666;stroke:#666666;" x="179.834416" xlink:href="#ma4c22a52c7" y="208.246412"/>
     <use style="fill:#666666;stroke:#666666;" x="180.973333" xlink:href="#ma4c22a52c7" y="241.178024"/>
     <use style="fill:#666666;stroke:#666666;" x="182.112251" xlink:href="#ma4c22a52c7" y="256.372445"/>
     <use style="fill:#666666;stroke:#666666;" x="183.251168" xlink:href="#ma4c22a52c7" y="250.223129"/>
     <use style="fill:#666666;stroke:#666666;" x="184.390085" xlink:href="#ma4c22a52c7" y="259.496722"/>
     <use style="fill:#666666;stroke:#666666;" x="185.529003" xlink:href="#ma4c22a52c7" y="262.623754"/>
     <use style="fill:#666666;stroke:#666666;" x="186.66792" xlink:href="#ma4c22a52c7" y="272.45821"/>
     <use style="fill:#666666;stroke:#666666;" x="187.806838" xlink:href="#ma4c22a52c7" y="252.302559"/>
     <use style="fill:#666666;stroke:#666666;" x="188.945755" xlink:href="#ma4c22a52c7" y="238.328116"/>
     <use style="fill:#666666;stroke:#666666;" x="190.084672" xlink:href="#ma4c22a52c7" y="120.906055"/>
     <use style="fill:#666666;stroke:#666666;" x="191.22359" xlink:href="#ma4c22a52c7" y="135.315948"/>
     <use style="fill:#666666;stroke:#666666;" x="192.362507" xlink:href="#ma4c22a52c7" y="186.473382"/>
     <use style="fill:#666666;stroke:#666666;" x="193.501425" xlink:href="#ma4c22a52c7" y="241.894518"/>
     <use style="fill:#666666;stroke:#666666;" x="194.640342" xlink:href="#ma4c22a52c7" y="262.019664"/>
     <use style="fill:#666666;stroke:#666666;" x="195.779259" xlink:href="#ma4c22a52c7" y="264.615997"/>
     <use style="fill:#666666;stroke:#666666;" x="196.918177" xlink:href="#ma4c22a52c7" y="271.929021"/>
     <use style="fill:#666666;stroke:#666666;" x="198.057094" xlink:href="#ma4c22a52c7" y="273.081232"/>
     <use style="fill:#666666;stroke:#666666;" x="199.196011" xlink:href="#ma4c22a52c7" y="264.010368"/>
     <use style="fill:#666666;stroke:#666666;" x="200.334929" xlink:href="#ma4c22a52c7" y="272.958751"/>
     <use style="fill:#666666;stroke:#666666;" x="201.473846" xlink:href="#ma4c22a52c7" y="272.582934"/>
     <use style="fill:#666666;stroke:#666666;" x="202.612764" xlink:href="#ma4c22a52c7" y="271.096126"/>
     <use style="fill:#666666;stroke:#666666;" x="203.751681" xlink:href="#ma4c22a52c7" y="270.634569"/>
     <use style="fill:#666666;stroke:#666666;" x="204.890598" xlink:href="#ma4c22a52c7" y="271.530338"/>
     <use style="fill:#666666;stroke:#666666;" x="206.029516" xlink:href="#ma4c22a52c7" y="271.894332"/>
     <use style="fill:#666666;stroke:#666666;" x="207.168433" xlink:href="#ma4c22a52c7" y="263.998732"/>
     <use style="fill:#666666;stroke:#666666;" x="208.30735" xlink:href="#ma4c22a52c7" y="245.954704"/>
     <use style="fill:#666666;stroke:#666666;" x="209.446268" xlink:href="#ma4c22a52c7" y="221.934767"/>
     <use style="fill:#666666;stroke:#666666;" x="210.585185" xlink:href="#ma4c22a52c7" y="172.290119"/>
     <use style="fill:#666666;stroke:#666666;" x="211.724103" xlink:href="#ma4c22a52c7" y="181.718332"/>
     <use style="fill:#666666;stroke:#666666;" x="212.86302" xlink:href="#ma4c22a52c7" y="246.028655"/>
     <use style="fill:#666666;stroke:#666666;" x="214.001937" xlink:href="#ma4c22a52c7" y="245.657856"/>
     <use style="fill:#666666;stroke:#666666;" x="215.140855" xlink:href="#ma4c22a52c7" y="262.806155"/>
     <use style="fill:#666666;stroke:#666666;" x="216.279772" xlink:href="#ma4c22a52c7" y="251.403082"/>
     <use style="fill:#666666;stroke:#666666;" x="217.418689" xlink:href="#ma4c22a52c7" y="252.106904"/>
     <use style="fill:#666666;stroke:#666666;" x="218.557607" xlink:href="#ma4c22a52c7" y="268.700769"/>
     <use style="fill:#666666;stroke:#666666;" x="219.696524" xlink:href="#ma4c22a52c7" y="264.300291"/>
     <use style="fill:#666666;stroke:#666666;" x="220.835442" xlink:href="#ma4c22a52c7" y="268.224174"/>
     <use style="fill:#666666;stroke:#666666;" x="221.974359" xlink:href="#ma4c22a52c7" y="267.507586"/>
     <use style="fill:#666666;stroke:#666666;" x="223.113276" xlink:href="#ma4c22a52c7" y="269.463098"/>
     <use style="fill:#666666;stroke:#666666;" x="224.252194" xlink:href="#ma4c22a52c7" y="259.396329"/>
     <use style="fill:#666666;stroke:#666666;" x="225.391111" xlink:href="#ma4c22a52c7" y="256.960869"/>
     <use style="fill:#666666;stroke:#666666;" x="226.530028" xlink:href="#ma4c22a52c7" y="261.932595"/>
     <use style="fill:#666666;stroke:#666666;" x="227.668946" xlink:href="#ma4c22a52c7" y="255.20549"/>
     <use style="fill:#666666;stroke:#666666;" x="228.807863" xlink:href="#ma4c22a52c7" y="254.414911"/>
     <use style="fill:#666666;stroke:#666666;" x="229.946781" xlink:href="#ma4c22a52c7" y="246.905381"/>
     <use style="fill:#666666;stroke:#666666;" x="231.085698" xlink:href="#ma4c22a52c7" y="165.399165"/>
     <use style="fill:#666666;stroke:#666666;" x="232.224615" xlink:href="#ma4c22a52c7" y="107.670467"/>
     <use style="fill:#666666;stroke:#666666;" x="233.363533" xlink:href="#ma4c22a52c7" y="97.092756"/>
     <use style="fill:#666666;stroke:#666666;" x="234.50245" xlink:href="#ma4c22a52c7" y="61.208084"/>
     <use style="fill:#666666;stroke:#666666;" x="235.641368" xlink:href="#ma4c22a52c7" y="25.792273"/>
     <use style="fill:#666666;stroke:#666666;" x="236.780285" xlink:href="#ma4c22a52c7" y="105.744428"/>
     <use style="fill:#666666;stroke:#666666;" x="237.919202" xlink:href="#ma4c22a52c7" y="205.749612"/>
     <use style="fill:#666666;stroke:#666666;" x="239.05812" xlink:href="#ma4c22a52c7" y="246.680999"/>
     <use style="fill:#666666;stroke:#666666;" x="240.197037" xlink:href="#ma4c22a52c7" y="246.256835"/>
     <use style="fill:#666666;stroke:#666666;" x="241.335954" xlink:href="#ma4c22a52c7" y="259.782962"/>
     <use style="fill:#666666;stroke:#666666;" x="242.474872" xlink:href="#ma4c22a52c7" y="261.802032"/>
     <use style="fill:#666666;stroke:#666666;" x="243.613789" xlink:href="#ma4c22a52c7" y="258.023283"/>
     <use style="fill:#666666;stroke:#666666;" x="244.752707" xlink:href="#ma4c22a52c7" y="258.979309"/>
     <use style="fill:#666666;stroke:#666666;" x="245.891624" xlink:href="#ma4c22a52c7" y="264.177551"/>
     <use style="fill:#666666;stroke:#666666;" x="247.030541" xlink:href="#ma4c22a52c7" y="275.237727"/>
     <use style="fill:#666666;stroke:#666666;" x="248.169459" xlink:href="#ma4c22a52c7" y="274.119322"/>
     <use style="fill:#666666;stroke:#666666;" x="249.308376" xlink:href="#ma4c22a52c7" y="275.198656"/>
     <use style="fill:#666666;stroke:#666666;" x="250.447293" xlink:href="#ma4c22a52c7" y="274.603233"/>
     <use style="fill:#666666;stroke:#666666;" x="251.586211" xlink:href="#ma4c22a52c7" y="266.88279"/>
     <use style="fill:#666666;stroke:#666666;" x="252.725128" xlink:href="#ma4c22a52c7" y="261.434772"/>
     <use style="fill:#666666;stroke:#666666;" x="253.864046" xlink:href="#ma4c22a52c7" y="257.1919"/>
     <use style="fill:#666666;stroke:#666666;" x="255.002963" xlink:href="#ma4c22a52c7" y="251.8549"/>
     <use style="fill:#666666;stroke:#666666;" x="256.14188" xlink:href="#ma4c22a52c7" y="224.350095"/>
     <use style="fill:#666666;stroke:#666666;" x="257.280798" xlink:href="#ma4c22a52c7" y="196.816711"/>
     <use style="fill:#666666;stroke:#666666;" x="258.419715" xlink:href="#ma4c22a52c7" y="203.38477"/>
     <use style="fill:#666666;stroke:#666666;" x="259.558632" xlink:href="#ma4c22a52c7" y="180.734183"/>
     <use style="fill:#666666;stroke:#666666;" x="260.69755" xlink:href="#ma4c22a52c7" y="172.112511"/>
     <use style="fill:#666666;stroke:#666666;" x="261.836467" xlink:href="#ma4c22a52c7" y="222.969415"/>
     <use style="fill:#666666;stroke:#666666;" x="262.975385" xlink:href="#ma4c22a52c7" y="213.14838"/>
     <use style="fill:#666666;stroke:#666666;" x="264.114302" xlink:href="#ma4c22a52c7" y="229.46018"/>
     <use style="fill:#666666;stroke:#666666;" x="265.253219" xlink:href="#ma4c22a52c7" y="247.606373"/>
     <use style="fill:#666666;stroke:#666666;" x="266.392137" xlink:href="#ma4c22a52c7" y="257.128305"/>
     <use style="fill:#666666;stroke:#666666;" x="267.531054" xlink:href="#ma4c22a52c7" y="266.749991"/>
     <use style="fill:#666666;stroke:#666666;" x="268.669972" xlink:href="#ma4c22a52c7" y="271.317998"/>
     <use style="fill:#666666;stroke:#666666;" x="269.808889" xlink:href="#ma4c22a52c7" y="249.247746"/>
     <use style="fill:#666666;stroke:#666666;" x="270.947806" xlink:href="#ma4c22a52c7" y="252.081572"/>
     <use style="fill:#666666;stroke:#666666;" x="272.086724" xlink:href="#ma4c22a52c7" y="270.481398"/>
     <use style="fill:#666666;stroke:#666666;" x="273.225641" xlink:href="#ma4c22a52c7" y="268.991604"/>
     <use style="fill:#666666;stroke:#666666;" x="274.364558" xlink:href="#ma4c22a52c7" y="251.258146"/>
     <use style="fill:#666666;stroke:#666666;" x="275.503476" xlink:href="#ma4c22a52c7" y="270.55642"/>
     <use style="fill:#666666;stroke:#666666;" x="276.642393" xlink:href="#ma4c22a52c7" y="261.578767"/>
     <use style="fill:#666666;stroke:#666666;" x="277.781311" xlink:href="#ma4c22a52c7" y="264.10318"/>
     <use style="fill:#666666;stroke:#666666;" x="278.920228" xlink:href="#ma4c22a52c7" y="233.684711"/>
     <use style="fill:#666666;stroke:#666666;" x="280.059145" xlink:href="#ma4c22a52c7" y="253.593571"/>
     <use style="fill:#666666;stroke:#666666;" x="281.198063" xlink:href="#ma4c22a52c7" y="226.398768"/>
     <use style="fill:#666666;stroke:#666666;" x="282.33698" xlink:href="#ma4c22a52c7" y="194.842481"/>
     <use style="fill:#666666;stroke:#666666;" x="283.475897" xlink:href="#ma4c22a52c7" y="145.174883"/>
     <use style="fill:#666666;stroke:#666666;" x="284.614815" xlink:href="#ma4c22a52c7" y="112.489098"/>
     <use style="fill:#666666;stroke:#666666;" x="285.753732" xlink:href="#ma4c22a52c7" y="142.554165"/>
     <use style="fill:#666666;stroke:#666666;" x="286.89265" xlink:href="#ma4c22a52c7" y="149.2544"/>
     <use style="fill:#666666;stroke:#666666;" x="288.031567" xlink:href="#ma4c22a52c7" y="227.813787"/>
     <use style="fill:#666666;stroke:#666666;" x="289.170484" xlink:href="#ma4c22a52c7" y="246.135011"/>
     <use style="fill:#666666;stroke:#666666;" x="290.309402" xlink:href="#ma4c22a52c7" y="239.256591"/>
     <use style="fill:#666666;stroke:#666666;" x="291.448319" xlink:href="#ma4c22a52c7" y="247.686758"/>
     <use style="fill:#666666;stroke:#666666;" x="292.587236" xlink:href="#ma4c22a52c7" y="259.041508"/>
     <use style="fill:#666666;stroke:#666666;" x="293.726154" xlink:href="#ma4c22a52c7" y="253.020041"/>
     <use style="fill:#666666;stroke:#666666;" x="294.865071" xlink:href="#ma4c22a52c7" y="266.305657"/>
     <use style="fill:#666666;stroke:#666666;" x="296.003989" xlink:href="#ma4c22a52c7" y="254.10189"/>
     <use style="fill:#666666;stroke:#666666;" x="297.142906" xlink:href="#ma4c22a52c7" y="227.84826"/>
     <use style="fill:#666666;stroke:#666666;" x="298.281823" xlink:href="#ma4c22a52c7" y="185.822693"/>
     <use style="fill:#666666;stroke:#666666;" x="299.420741" xlink:href="#ma4c22a52c7" y="222.826636"/>
     <use style="fill:#666666;stroke:#666666;" x="300.559658" xlink:href="#ma4c22a52c7" y="239.435492"/>
     <use style="fill:#666666;stroke:#666666;" x="301.698575" xlink:href="#ma4c22a52c7" y="266.818599"/>
     <use style="fill:#666666;stroke:#666666;" x="302.837493" xlink:href="#ma4c22a52c7" y="266.827124"/>
     <use style="fill:#666666;stroke:#666666;" x="303.97641" xlink:href="#ma4c22a52c7" y="253.286212"/>
     <use style="fill:#666666;stroke:#666666;" x="305.115328" xlink:href="#ma4c22a52c7" y="176.248683"/>
     <use style="fill:#666666;stroke:#666666;" x="306.254245" xlink:href="#ma4c22a52c7" y="208.027329"/>
     <use style="fill:#666666;stroke:#666666;" x="307.393162" xlink:href="#ma4c22a52c7" y="148.348988"/>
     <use style="fill:#666666;stroke:#666666;" x="308.53208" xlink:href="#ma4c22a52c7" y="98.089071"/>
     <use style="fill:#666666;stroke:#666666;" x="309.670997" xlink:href="#ma4c22a52c7" y="149.337236"/>
     <use style="fill:#666666;stroke:#666666;" x="310.809915" xlink:href="#ma4c22a52c7" y="221.810141"/>
     <use style="fill:#666666;stroke:#666666;" x="311.948832" xlink:href="#ma4c22a52c7" y="235.112368"/>
     <use style="fill:#666666;stroke:#666666;" x="313.087749" xlink:href="#ma4c22a52c7" y="212.22639"/>
     <use style="fill:#666666;stroke:#666666;" x="314.226667" xlink:href="#ma4c22a52c7" y="197.969038"/>
     <use style="fill:#666666;stroke:#666666;" x="315.365584" xlink:href="#ma4c22a52c7" y="161.317575"/>
     <use style="fill:#666666;stroke:#666666;" x="316.504501" xlink:href="#ma4c22a52c7" y="213.322041"/>
     <use style="fill:#666666;stroke:#666666;" x="317.643419" xlink:href="#ma4c22a52c7" y="234.015394"/>
     <use style="fill:#666666;stroke:#666666;" x="318.782336" xlink:href="#ma4c22a52c7" y="252.074953"/>
     <use style="fill:#666666;stroke:#666666;" x="319.921254" xlink:href="#ma4c22a52c7" y="262.686922"/>
     <use style="fill:#666666;stroke:#666666;" x="321.060171" xlink:href="#ma4c22a52c7" y="262.583926"/>
     <use style="fill:#666666;stroke:#666666;" x="322.199088" xlink:href="#ma4c22a52c7" y="244.267531"/>
     <use style="fill:#666666;stroke:#666666;" x="323.338006" xlink:href="#ma4c22a52c7" y="250.232566"/>
     <use style="fill:#666666;stroke:#666666;" x="324.476923" xlink:href="#ma4c22a52c7" y="246.78574"/>
     <use style="fill:#666666;stroke:#666666;" x="325.61584" xlink:href="#ma4c22a52c7" y="182.540103"/>
     <use style="fill:#666666;stroke:#666666;" x="326.754758" xlink:href="#ma4c22a52c7" y="247.863012"/>
     <use style="fill:#666666;stroke:#666666;" x="327.893675" xlink:href="#ma4c22a52c7" y="267.697055"/>
     <use style="fill:#666666;stroke:#666666;" x="329.032593" xlink:href="#ma4c22a52c7" y="249.949827"/>
     <use style="fill:#666666;stroke:#666666;" x="330.17151" xlink:href="#ma4c22a52c7" y="259.838779"/>
     <use style="fill:#666666;stroke:#666666;" x="331.310427" xlink:href="#ma4c22a52c7" y="247.9465"/>
     <use style="fill:#666666;stroke:#666666;" x="332.449345" xlink:href="#ma4c22a52c7" y="233.023"/>
     <use style="fill:#666666;stroke:#666666;" x="333.588262" xlink:href="#ma4c22a52c7" y="253.165795"/>
     <use style="fill:#666666;stroke:#666666;" x="334.727179" xlink:href="#ma4c22a52c7" y="260.525129"/>
     <use style="fill:#666666;stroke:#666666;" x="335.866097" xlink:href="#ma4c22a52c7" y="252.245685"/>
     <use style="fill:#666666;stroke:#666666;" x="337.005014" xlink:href="#ma4c22a52c7" y="263.501982"/>
     <use style="fill:#666666;stroke:#666666;" x="338.143932" xlink:href="#ma4c22a52c7" y="273.51886"/>
     <use style="fill:#666666;stroke:#666666;" x="339.282849" xlink:href="#ma4c22a52c7" y="272.399614"/>
     <use style="fill:#666666;stroke:#666666;" x="340.421766" xlink:href="#ma4c22a52c7" y="257.131593"/>
     <use style="fill:#666666;stroke:#666666;" x="341.560684" xlink:href="#ma4c22a52c7" y="253.818107"/>
     <use style="fill:#666666;stroke:#666666;" x="342.699601" xlink:href="#ma4c22a52c7" y="233.759316"/>
     <use style="fill:#666666;stroke:#666666;" x="343.838519" xlink:href="#ma4c22a52c7" y="218.541276"/>
     <use style="fill:#666666;stroke:#666666;" x="344.977436" xlink:href="#ma4c22a52c7" y="176.512357"/>
     <use style="fill:#666666;stroke:#666666;" x="346.116353" xlink:href="#ma4c22a52c7" y="136.552901"/>
     <use style="fill:#666666;stroke:#666666;" x="347.255271" xlink:href="#ma4c22a52c7" y="151.441789"/>
     <use style="fill:#666666;stroke:#666666;" x="348.394188" xlink:href="#ma4c22a52c7" y="188.170506"/>
     <use style="fill:#666666;stroke:#666666;" x="349.533105" xlink:href="#ma4c22a52c7" y="227.612955"/>
     <use style="fill:#666666;stroke:#666666;" x="350.672023" xlink:href="#ma4c22a52c7" y="239.929649"/>
     <use style="fill:#666666;stroke:#666666;" x="351.81094" xlink:href="#ma4c22a52c7" y="241.034499"/>
     <use style="fill:#666666;stroke:#666666;" x="352.949858" xlink:href="#ma4c22a52c7" y="245.823376"/>
     <use style="fill:#666666;stroke:#666666;" x="354.088775" xlink:href="#ma4c22a52c7" y="261.325291"/>
     <use style="fill:#666666;stroke:#666666;" x="355.227692" xlink:href="#ma4c22a52c7" y="258.036079"/>
     <use style="fill:#666666;stroke:#666666;" x="356.36661" xlink:href="#ma4c22a52c7" y="257.926579"/>
     <use style="fill:#666666;stroke:#666666;" x="357.505527" xlink:href="#ma4c22a52c7" y="263.795292"/>
     <use style="fill:#666666;stroke:#666666;" x="358.644444" xlink:href="#ma4c22a52c7" y="266.084552"/>
     <use style="fill:#666666;stroke:#666666;" x="359.783362" xlink:href="#ma4c22a52c7" y="254.502073"/>
     <use style="fill:#666666;stroke:#666666;" x="360.922279" xlink:href="#ma4c22a52c7" y="259.294858"/>
     <use style="fill:#666666;stroke:#666666;" x="362.061197" xlink:href="#ma4c22a52c7" y="242.608995"/>
     <use style="fill:#666666;stroke:#666666;" x="363.200114" xlink:href="#ma4c22a52c7" y="228.918198"/>
     <use style="fill:#666666;stroke:#666666;" x="364.339031" xlink:href="#ma4c22a52c7" y="231.003633"/>
     <use style="fill:#666666;stroke:#666666;" x="365.477949" xlink:href="#ma4c22a52c7" y="253.618698"/>
     <use style="fill:#666666;stroke:#666666;" x="366.616866" xlink:href="#ma4c22a52c7" y="246.506485"/>
     <use style="fill:#666666;stroke:#666666;" x="367.755783" xlink:href="#ma4c22a52c7" y="199.926356"/>
     <use style="fill:#666666;stroke:#666666;" x="368.894701" xlink:href="#ma4c22a52c7" y="183.661893"/>
     <use style="fill:#666666;stroke:#666666;" x="370.033618" xlink:href="#ma4c22a52c7" y="121.702033"/>
     <use style="fill:#666666;stroke:#666666;" x="371.172536" xlink:href="#ma4c22a52c7" y="82.302618"/>
     <use style="fill:#666666;stroke:#666666;" x="372.311453" xlink:href="#ma4c22a52c7" y="97.820429"/>
     <use style="fill:#666666;stroke:#666666;" x="373.45037" xlink:href="#ma4c22a52c7" y="85.256753"/>
     <use style="fill:#666666;stroke:#666666;" x="374.589288" xlink:href="#ma4c22a52c7" y="36.251468"/>
     <use style="fill:#666666;stroke:#666666;" x="375.728205" xlink:href="#ma4c22a52c7" y="86.046624"/>
     <use style="fill:#666666;stroke:#666666;" x="376.867123" xlink:href="#ma4c22a52c7" y="60.676878"/>
     <use style="fill:#666666;stroke:#666666;" x="378.00604" xlink:href="#ma4c22a52c7" y="122.764851"/>
     <use style="fill:#666666;stroke:#666666;" x="379.144957" xlink:href="#ma4c22a52c7" y="127.13459"/>
     <use style="fill:#666666;stroke:#666666;" x="380.283875" xlink:href="#ma4c22a52c7" y="143.875785"/>
     <use style="fill:#666666;stroke:#666666;" x="381.422792" xlink:href="#ma4c22a52c7" y="134.935365"/>
     <use style="fill:#666666;stroke:#666666;" x="382.561709" xlink:href="#ma4c22a52c7" y="148.251241"/>
     <use style="fill:#666666;stroke:#666666;" x="383.700627" xlink:href="#ma4c22a52c7" y="158.561087"/>
     <use style="fill:#666666;stroke:#666666;" x="384.839544" xlink:href="#ma4c22a52c7" y="217.294068"/>
     <use style="fill:#666666;stroke:#666666;" x="385.978462" xlink:href="#ma4c22a52c7" y="238.86691"/>
     <use style="fill:#666666;stroke:#666666;" x="387.117379" xlink:href="#ma4c22a52c7" y="242.653253"/>
     <use style="fill:#666666;stroke:#666666;" x="388.256296" xlink:href="#ma4c22a52c7" y="243.006853"/>
     <use style="fill:#666666;stroke:#666666;" x="389.395214" xlink:href="#ma4c22a52c7" y="253.127529"/>
     <use style="fill:#666666;stroke:#666666;" x="390.534131" xlink:href="#ma4c22a52c7" y="255.383873"/>
     <use style="fill:#666666;stroke:#666666;" x="391.673048" xlink:href="#ma4c22a52c7" y="260.634063"/>
     <use style="fill:#666666;stroke:#666666;" x="392.811966" xlink:href="#ma4c22a52c7" y="267.955677"/>
     <use style="fill:#666666;stroke:#666666;" x="393.950883" xlink:href="#ma4c22a52c7" y="252.306203"/>
     <use style="fill:#666666;stroke:#666666;" x="395.089801" xlink:href="#ma4c22a52c7" y="243.400694"/>
     <use style="fill:#666666;stroke:#666666;" x="396.228718" xlink:href="#ma4c22a52c7" y="232.788335"/>
     <use style="fill:#666666;stroke:#666666;" x="397.367635" xlink:href="#ma4c22a52c7" y="218.955278"/>
     <use style="fill:#666666;stroke:#666666;" x="398.506553" xlink:href="#ma4c22a52c7" y="164.934863"/>
     <use style="fill:#666666;stroke:#666666;" x="399.64547" xlink:href="#ma4c22a52c7" y="112.649545"/>
     <use style="fill:#666666;stroke:#666666;" x="400.784387" xlink:href="#ma4c22a52c7" y="119.017839"/>
     <use style="fill:#666666;stroke:#666666;" x="401.923305" xlink:href="#ma4c22a52c7" y="143.527527"/>
     <use style="fill:#666666;stroke:#666666;" x="403.062222" xlink:href="#ma4c22a52c7" y="162.160806"/>
     <use style="fill:#666666;stroke:#666666;" x="404.20114" xlink:href="#ma4c22a52c7" y="228.336188"/>
     <use style="fill:#666666;stroke:#666666;" x="405.340057" xlink:href="#ma4c22a52c7" y="237.326286"/>
     <use style="fill:#666666;stroke:#666666;" x="406.478974" xlink:href="#ma4c22a52c7" y="253.138216"/>
     <use style="fill:#666666;stroke:#666666;" x="407.617892" xlink:href="#ma4c22a52c7" y="261.090706"/>
     <use style="fill:#666666;stroke:#666666;" x="408.756809" xlink:href="#ma4c22a52c7" y="270.045498"/>
     <use style="fill:#666666;stroke:#666666;" x="409.895726" xlink:href="#ma4c22a52c7" y="257.413964"/>
     <use style="fill:#666666;stroke:#666666;" x="411.034644" xlink:href="#ma4c22a52c7" y="251.302466"/>
     <use style="fill:#666666;stroke:#666666;" x="412.173561" xlink:href="#ma4c22a52c7" y="251.861486"/>
     <use style="fill:#666666;stroke:#666666;" x="413.312479" xlink:href="#ma4c22a52c7" y="254.090603"/>
     <use style="fill:#666666;stroke:#666666;" x="414.451396" xlink:href="#ma4c22a52c7" y="224.680695"/>
     <use style="fill:#666666;stroke:#666666;" x="415.590313" xlink:href="#ma4c22a52c7" y="242.372223"/>
     <use style="fill:#666666;stroke:#666666;" x="416.729231" xlink:href="#ma4c22a52c7" y="239.700732"/>
     <use style="fill:#666666;stroke:#666666;" x="417.868148" xlink:href="#ma4c22a52c7" y="250.411791"/>
     <use style="fill:#666666;stroke:#666666;" x="419.007066" xlink:href="#ma4c22a52c7" y="216.763778"/>
     <use style="fill:#666666;stroke:#666666;" x="420.145983" xlink:href="#ma4c22a52c7" y="203.221661"/>
     <use style="fill:#666666;stroke:#666666;" x="421.2849" xlink:href="#ma4c22a52c7" y="166.743707"/>
     <use style="fill:#666666;stroke:#666666;" x="422.423818" xlink:href="#ma4c22a52c7" y="173.968938"/>
     <use style="fill:#666666;stroke:#666666;" x="423.562735" xlink:href="#ma4c22a52c7" y="152.553975"/>
     <use style="fill:#666666;stroke:#666666;" x="424.701652" xlink:href="#ma4c22a52c7" y="149.819317"/>
     <use style="fill:#666666;stroke:#666666;" x="425.84057" xlink:href="#ma4c22a52c7" y="102.117044"/>
     <use style="fill:#666666;stroke:#666666;" x="426.979487" xlink:href="#ma4c22a52c7" y="133.971288"/>
     <use style="fill:#666666;stroke:#666666;" x="428.118405" xlink:href="#ma4c22a52c7" y="181.456744"/>
     <use style="fill:#666666;stroke:#666666;" x="429.257322" xlink:href="#ma4c22a52c7" y="228.707389"/>
     <use style="fill:#666666;stroke:#666666;" x="430.396239" xlink:href="#ma4c22a52c7" y="194.020974"/>
     <use style="fill:#666666;stroke:#666666;" x="431.535157" xlink:href="#ma4c22a52c7" y="175.27739"/>
     <use style="fill:#666666;stroke:#666666;" x="432.674074" xlink:href="#ma4c22a52c7" y="210.093373"/>
     <use style="fill:#666666;stroke:#666666;" x="433.812991" xlink:href="#ma4c22a52c7" y="254.431304"/>
     <use style="fill:#666666;stroke:#666666;" x="434.951909" xlink:href="#ma4c22a52c7" y="270.044551"/>
     <use style="fill:#666666;stroke:#666666;" x="436.090826" xlink:href="#ma4c22a52c7" y="268.26251"/>
     <use style="fill:#666666;stroke:#666666;" x="437.229744" xlink:href="#ma4c22a52c7" y="260.556126"/>
     <use style="fill:#666666;stroke:#666666;" x="438.368661" xlink:href="#ma4c22a52c7" y="271.180011"/>
     <use style="fill:#666666;stroke:#666666;" x="439.507578" xlink:href="#ma4c22a52c7" y="271.547424"/>
     <use style="fill:#666666;stroke:#666666;" x="440.646496" xlink:href="#ma4c22a52c7" y="260.513553"/>
     <use style="fill:#666666;stroke:#666666;" x="441.785413" xlink:href="#ma4c22a52c7" y="262.662711"/>
     <use style="fill:#666666;stroke:#666666;" x="442.92433" xlink:href="#ma4c22a52c7" y="270.890739"/>
     <use style="fill:#666666;stroke:#666666;" x="444.063248" xlink:href="#ma4c22a52c7" y="251.978137"/>
     <use style="fill:#666666;stroke:#666666;" x="445.202165" xlink:href="#ma4c22a52c7" y="235.982945"/>
     <use style="fill:#666666;stroke:#666666;" x="446.341083" xlink:href="#ma4c22a52c7" y="220.947533"/>
     <use style="fill:#666666;stroke:#666666;" x="447.48" xlink:href="#ma4c22a52c7" y="134.352526"/>
    </g>
   </g>
   <g id="patch_3">
    <path d="M 47.72 287.71 
L 47.72 13.32 
" style="fill:none;stroke:#000000;stroke-linecap:square;stroke-linejoin:miter;stroke-width:0.8;"/>
   </g>
   <g id="patch_4">
    <path d="M 447.48 287.71 
L 447.48 13.32 
" style="fill:none;stroke:#000000;stroke-linecap:square;stroke-linejoin:miter;stroke-width:0.8;"/>
   </g>
   <g id="patch_5">
    <path d="M 47.72 287.71 
L 447.48 287.71 
" style="fill:none;stroke:#000000;stroke-linecap:square;stroke-linejoin:miter;stroke-width:0.8;"/>
   </g>
   <g id="patch_6">
    <path d="M 47.72 13.32 
L 447.48 13.32 
" style="fill:none;stroke:#000000;stroke-linecap:square;stroke-linejoin:miter;stroke-width:0.8;"/>
   </g>
  </g>
 </g>
 <defs>
  <clipPath id="p6441d26e76">
   <rect height="274.39" width="399.76" x="47.72" y="13.32"/>
  </clipPath>
 </defs>
</svg>
