<?xml version="1.0" encoding="utf-8" standalone="no"?>
<!DOCTYPE svg PUBLIC "-//W3C//DTD SVG 1.1//EN"
  "http://www.w3.org/Graphics/SVG/1.1/DTD/svg11.dtd">
<!-- Created with matplotlib (http://matplotlib.org/) -->
<svg height="345.6pt" version="1.1" viewBox="0 0 460.8 345.6" width="460.8pt" xmlns="http://www.w3.org/2000/svg" xmlns:xlink="http://www.w3.org/1999/xlink">
 <defs>
  <style type="text/css">
*{stroke-linecap:butt;stroke-linejoin:round;}
  </style>
 </defs>
 <g id="figure_1">
  <g id="patch_1">
   <path d="M 0 345.6 
L 460.8 345.6 
L 460.8 0 
L 0 0 
z
" style="fill:#ffffff;"/>
  </g>
  <g id="axes_1">
   <g id="patch_2">
    <path d="M 47.72 287.71 
L 447.48 287.71 
L 447.48 13.32 
L 47.72 13.32 
z
" style="fill:#ffffff;"/>
   </g>
   <g id="matplotlib.axis_1">
    <g id="xtick_1">
     <g id="line2d_1">
      <defs>
       <path d="M 0 0 
L 0 3.5 
" id="mf94f73ccab" style="stroke:#000000;stroke-width:0.8;"/>
      </defs>
      <g>
       <use style="stroke:#000000;stroke-width:0.8;" x="47.72" xlink:href="#mf94f73ccab" y="287.71"/>
      </g>
     </g>
     <g id="text_1">
      <!-- A1 -->
      <defs>
       <path d="M 34.1875 63.1875 
L 20.796875 26.90625 
L 47.609375 26.90625 
z
M 28.609375 72.90625 
L 39.796875 72.90625 
L 67.578125 0 
L 57.328125 0 
L 50.6875 18.703125 
L 17.828125 18.703125 
L 11.1875 0 
L 0.78125 0 
z
" id="DejaVuSans-41"/>
       <path d="M 12.40625 8.296875 
L 28.515625 8.296875 
L 28.515625 63.921875 
L 10.984375 60.40625 
L 10.984375 69.390625 
L 28.421875 72.90625 
L 38.28125 72.90625 
L 38.28125 8.296875 
L 54.390625 8.296875 
L 54.390625 0 
L 12.40625 0 
z
" id="DejaVuSans-31"/>
      </defs>
      <g transform="translate(50.479375 307.913125)rotate(-90)scale(0.1 -0.1)">
       <use xlink:href="#DejaVuSans-41"/>
       <use x="68.408203" xlink:href="#DejaVuSans-31"/>
      </g>
     </g>
    </g>
    <g id="xtick_2">
     <g id="line2d_2">
      <g>
       <use style="stroke:#000000;stroke-width:0.8;" x="64.803761" xlink:href="#mf94f73ccab" y="287.71"/>
      </g>
     </g>
     <g id="text_2">
      <!-- A16 -->
      <defs>
       <path d="M 33.015625 40.375 
Q 26.375 40.375 22.484375 35.828125 
Q 18.609375 31.296875 18.609375 23.390625 
Q 18.609375 15.53125 22.484375 10.953125 
Q 26.375 6.390625 33.015625 6.390625 
Q 39.65625 6.390625 43.53125 10.953125 
Q 47.40625 15.53125 47.40625 23.390625 
Q 47.40625 31.296875 43.53125 35.828125 
Q 39.65625 40.375 33.015625 40.375 
z
M 52.59375 71.296875 
L 52.59375 62.3125 
Q 48.875 64.0625 45.09375 64.984375 
Q 41.3125 65.921875 37.59375 65.921875 
Q 27.828125 65.921875 22.671875 59.328125 
Q 17.53125 52.734375 16.796875 39.40625 
Q 19.671875 43.65625 24.015625 45.921875 
Q 28.375 48.1875 33.59375 48.1875 
Q 44.578125 48.1875 50.953125 41.515625 
Q 57.328125 34.859375 57.328125 23.390625 
Q 57.328125 12.15625 50.6875 5.359375 
Q 44.046875 -1.421875 33.015625 -1.421875 
Q 20.359375 -1.421875 13.671875 8.265625 
Q 6.984375 17.96875 6.984375 36.375 
Q 6.984375 53.65625 15.1875 63.9375 
Q 23.390625 74.21875 37.203125 74.21875 
Q 40.921875 74.21875 44.703125 73.484375 
Q 48.484375 72.75 52.59375 71.296875 
z
" id="DejaVuSans-36"/>
      </defs>
      <g transform="translate(67.563136 314.275625)rotate(-90)scale(0.1 -0.1)">
       <use xlink:href="#DejaVuSans-41"/>
       <use x="68.408203" xlink:href="#DejaVuSans-31"/>
       <use x="132.03125" xlink:href="#DejaVuSans-36"/>
      </g>
     </g>
    </g>
    <g id="xtick_3">
     <g id="line2d_3">
      <g>
       <use style="stroke:#000000;stroke-width:0.8;" x="81.887521" xlink:href="#mf94f73ccab" y="287.71"/>
      </g>
     </g>
     <g id="text_3">
      <!-- A31 -->
      <defs>
       <path d="M 40.578125 39.3125 
Q 47.65625 37.796875 51.625 33 
Q 55.609375 28.21875 55.609375 21.1875 
Q 55.609375 10.40625 48.1875 4.484375 
Q 40.765625 -1.421875 27.09375 -1.421875 
Q 22.515625 -1.421875 17.65625 -0.515625 
Q 12.796875 0.390625 7.625 2.203125 
L 7.625 11.71875 
Q 11.71875 9.328125 16.59375 8.109375 
Q 21.484375 6.890625 26.8125 6.890625 
Q 36.078125 6.890625 40.9375 10.546875 
Q 45.796875 14.203125 45.796875 21.1875 
Q 45.796875 27.640625 41.28125 31.265625 
Q 36.765625 34.90625 28.71875 34.90625 
L 20.21875 34.90625 
L 20.21875 43.015625 
L 29.109375 43.015625 
Q 36.375 43.015625 40.234375 45.921875 
Q 44.09375 48.828125 44.09375 54.296875 
Q 44.09375 59.90625 40.109375 62.90625 
Q 36.140625 65.921875 28.71875 65.921875 
Q 24.65625 65.921875 20.015625 65.03125 
Q 15.375 64.15625 9.8125 62.3125 
L 9.8125 71.09375 
Q 15.4375 72.65625 20.34375 73.4375 
Q 25.25 74.21875 29.59375 74.21875 
Q 40.828125 74.21875 47.359375 69.109375 
Q 53.90625 64.015625 53.90625 55.328125 
Q 53.90625 49.265625 50.4375 45.09375 
Q 46.96875 40.921875 40.578125 39.3125 
z
" id="DejaVuSans-33"/>
      </defs>
      <g transform="translate(84.646896 314.275625)rotate(-90)scale(0.1 -0.1)">
       <use xlink:href="#DejaVuSans-41"/>
       <use x="68.408203" xlink:href="#DejaVuSans-33"/>
       <use x="132.03125" xlink:href="#DejaVuSans-31"/>
      </g>
     </g>
    </g>
    <g id="xtick_4">
     <g id="line2d_4">
      <g>
       <use style="stroke:#000000;stroke-width:0.8;" x="98.971282" xlink:href="#mf94f73ccab" y="287.71"/>
      </g>
     </g>
     <g id="text_4">
      <!-- A46 -->
      <defs>
       <path d="M 37.796875 64.3125 
L 12.890625 25.390625 
L 37.796875 25.390625 
z
M 35.203125 72.90625 
L 47.609375 72.90625 
L 47.609375 25.390625 
L 58.015625 25.390625 
L 58.015625 17.1875 
L 47.609375 17.1875 
L 47.609375 0 
L 37.796875 0 
L 37.796875 17.1875 
L 4.890625 17.1875 
L 4.890625 26.703125 
z
" id="DejaVuSans-34"/>
      </defs>
      <g transform="translate(101.730657 314.275625)rotate(-90)scale(0.1 -0.1)">
       <use xlink:href="#DejaVuSans-41"/>
       <use x="68.408203" xlink:href="#DejaVuSans-34"/>
       <use x="132.03125" xlink:href="#DejaVuSans-36"/>
      </g>
     </g>
    </g>
    <g id="xtick_5">
     <g id="line2d_5">
      <g>
       <use style="stroke:#000000;stroke-width:0.8;" x="116.055043" xlink:href="#mf94f73ccab" y="287.71"/>
      </g>
     </g>
     <g id="text_5">
      <!-- A61 -->
      <g transform="translate(118.814418 314.275625)rotate(-90)scale(0.1 -0.1)">
       <use xlink:href="#DejaVuSans-41"/>
       <use x="68.408203" xlink:href="#DejaVuSans-36"/>
       <use x="132.03125" xlink:href="#DejaVuSans-31"/>
      </g>
     </g>
    </g>
    <g id="xtick_6">
     <g id="line2d_6">
      <g>
       <use style="stroke:#000000;stroke-width:0.8;" x="133.138803" xlink:href="#mf94f73ccab" y="287.71"/>
      </g>
     </g>
     <g id="text_6">
      <!-- A76 -->
      <defs>
       <path d="M 8.203125 72.90625 
L 55.078125 72.90625 
L 55.078125 68.703125 
L 28.609375 0 
L 18.3125 0 
L 43.21875 64.59375 
L 8.203125 64.59375 
z
" id="DejaVuSans-37"/>
      </defs>
      <g transform="translate(135.898178 314.275625)rotate(-90)scale(0.1 -0.1)">
       <use xlink:href="#DejaVuSans-41"/>
       <use x="68.408203" xlink:href="#DejaVuSans-37"/>
       <use x="132.03125" xlink:href="#DejaVuSans-36"/>
      </g>
     </g>
    </g>
    <g id="xtick_7">
     <g id="line2d_7">
      <g>
       <use style="stroke:#000000;stroke-width:0.8;" x="150.222564" xlink:href="#mf94f73ccab" y="287.71"/>
      </g>
     </g>
     <g id="text_7">
      <!-- A91 -->
      <defs>
       <path d="M 10.984375 1.515625 
L 10.984375 10.5 
Q 14.703125 8.734375 18.5 7.8125 
Q 22.3125 6.890625 25.984375 6.890625 
Q 35.75 6.890625 40.890625 13.453125 
Q 46.046875 20.015625 46.78125 33.40625 
Q 43.953125 29.203125 39.59375 26.953125 
Q 35.25 24.703125 29.984375 24.703125 
Q 19.046875 24.703125 12.671875 31.3125 
Q 6.296875 37.9375 6.296875 49.421875 
Q 6.296875 60.640625 12.9375 67.421875 
Q 19.578125 74.21875 30.609375 74.21875 
Q 43.265625 74.21875 49.921875 64.515625 
Q 56.59375 54.828125 56.59375 36.375 
Q 56.59375 19.140625 48.40625 8.859375 
Q 40.234375 -1.421875 26.421875 -1.421875 
Q 22.703125 -1.421875 18.890625 -0.6875 
Q 15.09375 0.046875 10.984375 1.515625 
z
M 30.609375 32.421875 
Q 37.25 32.421875 41.125 36.953125 
Q 45.015625 41.5 45.015625 49.421875 
Q 45.015625 57.28125 41.125 61.84375 
Q 37.25 66.40625 30.609375 66.40625 
Q 23.96875 66.40625 20.09375 61.84375 
Q 16.21875 57.28125 16.21875 49.421875 
Q 16.21875 41.5 20.09375 36.953125 
Q 23.96875 32.421875 30.609375 32.421875 
z
" id="DejaVuSans-39"/>
      </defs>
      <g transform="translate(152.981939 314.275625)rotate(-90)scale(0.1 -0.1)">
       <use xlink:href="#DejaVuSans-41"/>
       <use x="68.408203" xlink:href="#DejaVuSans-39"/>
       <use x="132.03125" xlink:href="#DejaVuSans-31"/>
      </g>
     </g>
    </g>
    <g id="xtick_8">
     <g id="line2d_8">
      <g>
       <use style="stroke:#000000;stroke-width:0.8;" x="167.306325" xlink:href="#mf94f73ccab" y="287.71"/>
      </g>
     </g>
     <g id="text_8">
      <!-- A106 -->
      <defs>
       <path d="M 31.78125 66.40625 
Q 24.171875 66.40625 20.328125 58.90625 
Q 16.5 51.421875 16.5 36.375 
Q 16.5 21.390625 20.328125 13.890625 
Q 24.171875 6.390625 31.78125 6.390625 
Q 39.453125 6.390625 43.28125 13.890625 
Q 47.125 21.390625 47.125 36.375 
Q 47.125 51.421875 43.28125 58.90625 
Q 39.453125 66.40625 31.78125 66.40625 
z
M 31.78125 74.21875 
Q 44.046875 74.21875 50.515625 64.515625 
Q 56.984375 54.828125 56.984375 36.375 
Q 56.984375 17.96875 50.515625 8.265625 
Q 44.046875 -1.421875 31.78125 -1.421875 
Q 19.53125 -1.421875 13.0625 8.265625 
Q 6.59375 17.96875 6.59375 36.375 
Q 6.59375 54.828125 13.0625 64.515625 
Q 19.53125 74.21875 31.78125 74.21875 
z
" id="DejaVuSans-30"/>
      </defs>
      <g transform="translate(170.0657 320.638125)rotate(-90)scale(0.1 -0.1)">
       <use xlink:href="#DejaVuSans-41"/>
       <use x="68.408203" xlink:href="#DejaVuSans-31"/>
       <use x="132.03125" xlink:href="#DejaVuSans-30"/>
       <use x="195.654297" xlink:href="#DejaVuSans-36"/>
      </g>
     </g>
    </g>
    <g id="xtick_9">
     <g id="line2d_9">
      <g>
       <use style="stroke:#000000;stroke-width:0.8;" x="184.390085" xlink:href="#mf94f73ccab" y="287.71"/>
      </g>
     </g>
     <g id="text_9">
      <!-- A121 -->
      <defs>
       <path d="M 19.1875 8.296875 
L 53.609375 8.296875 
L 53.609375 0 
L 7.328125 0 
L 7.328125 8.296875 
Q 12.9375 14.109375 22.625 23.890625 
Q 32.328125 33.6875 34.8125 36.53125 
Q 39.546875 41.84375 41.421875 45.53125 
Q 43.3125 49.21875 43.3125 52.78125 
Q 43.3125 58.59375 39.234375 62.25 
Q 35.15625 65.921875 28.609375 65.921875 
Q 23.96875 65.921875 18.8125 64.3125 
Q 13.671875 62.703125 7.8125 59.421875 
L 7.8125 69.390625 
Q 13.765625 71.78125 18.9375 73 
Q 24.125 74.21875 28.421875 74.21875 
Q 39.75 74.21875 46.484375 68.546875 
Q 53.21875 62.890625 53.21875 53.421875 
Q 53.21875 48.921875 51.53125 44.890625 
Q 49.859375 40.875 45.40625 35.40625 
Q 44.1875 33.984375 37.640625 27.21875 
Q 31.109375 20.453125 19.1875 8.296875 
z
" id="DejaVuSans-32"/>
      </defs>
      <g transform="translate(187.14946 320.638125)rotate(-90)scale(0.1 -0.1)">
       <use xlink:href="#DejaVuSans-41"/>
       <use x="68.408203" xlink:href="#DejaVuSans-31"/>
       <use x="132.03125" xlink:href="#DejaVuSans-32"/>
       <use x="195.654297" xlink:href="#DejaVuSans-31"/>
      </g>
     </g>
    </g>
    <g id="xtick_10">
     <g id="line2d_10">
      <g>
       <use style="stroke:#000000;stroke-width:0.8;" x="201.473846" xlink:href="#mf94f73ccab" y="287.71"/>
      </g>
     </g>
     <g id="text_10">
      <!-- A136 -->
      <g transform="translate(204.233221 320.638125)rotate(-90)scale(0.1 -0.1)">
       <use xlink:href="#DejaVuSans-41"/>
       <use x="68.408203" xlink:href="#DejaVuSans-31"/>
       <use x="132.03125" xlink:href="#DejaVuSans-33"/>
       <use x="195.654297" xlink:href="#DejaVuSans-36"/>
      </g>
     </g>
    </g>
    <g id="xtick_11">
     <g id="line2d_11">
      <g>
       <use style="stroke:#000000;stroke-width:0.8;" x="218.557607" xlink:href="#mf94f73ccab" y="287.71"/>
      </g>
     </g>
     <g id="text_11">
      <!-- A151 -->
      <defs>
       <path d="M 10.796875 72.90625 
L 49.515625 72.90625 
L 49.515625 64.59375 
L 19.828125 64.59375 
L 19.828125 46.734375 
Q 21.96875 47.46875 24.109375 47.828125 
Q 26.265625 48.1875 28.421875 48.1875 
Q 40.625 48.1875 47.75 41.5 
Q 54.890625 34.8125 54.890625 23.390625 
Q 54.890625 11.625 47.5625 5.09375 
Q 40.234375 -1.421875 26.90625 -1.421875 
Q 22.3125 -1.421875 17.546875 -0.640625 
Q 12.796875 0.140625 7.71875 1.703125 
L 7.71875 11.625 
Q 12.109375 9.234375 16.796875 8.0625 
Q 21.484375 6.890625 26.703125 6.890625 
Q 35.15625 6.890625 40.078125 11.328125 
Q 45.015625 15.765625 45.015625 23.390625 
Q 45.015625 31 40.078125 35.4375 
Q 35.15625 39.890625 26.703125 39.890625 
Q 22.75 39.890625 18.8125 39.015625 
Q 14.890625 38.140625 10.796875 36.28125 
z
" id="DejaVuSans-35"/>
      </defs>
      <g transform="translate(221.316982 320.638125)rotate(-90)scale(0.1 -0.1)">
       <use xlink:href="#DejaVuSans-41"/>
       <use x="68.408203" xlink:href="#DejaVuSans-31"/>
       <use x="132.03125" xlink:href="#DejaVuSans-35"/>
       <use x="195.654297" xlink:href="#DejaVuSans-31"/>
      </g>
     </g>
    </g>
    <g id="xtick_12">
     <g id="line2d_12">
      <g>
       <use style="stroke:#000000;stroke-width:0.8;" x="235.641368" xlink:href="#mf94f73ccab" y="287.71"/>
      </g>
     </g>
     <g id="text_12">
      <!-- A166 -->
      <g transform="translate(238.400743 320.638125)rotate(-90)scale(0.1 -0.1)">
       <use xlink:href="#DejaVuSans-41"/>
       <use x="68.408203" xlink:href="#DejaVuSans-31"/>
       <use x="132.03125" xlink:href="#DejaVuSans-36"/>
       <use x="195.654297" xlink:href="#DejaVuSans-36"/>
      </g>
     </g>
    </g>
    <g id="xtick_13">
     <g id="line2d_13">
      <g>
       <use style="stroke:#000000;stroke-width:0.8;" x="252.725128" xlink:href="#mf94f73ccab" y="287.71"/>
      </g>
     </g>
     <g id="text_13">
      <!-- A181 -->
      <defs>
       <path d="M 31.78125 34.625 
Q 24.75 34.625 20.71875 30.859375 
Q 16.703125 27.09375 16.703125 20.515625 
Q 16.703125 13.921875 20.71875 10.15625 
Q 24.75 6.390625 31.78125 6.390625 
Q 38.8125 6.390625 42.859375 10.171875 
Q 46.921875 13.96875 46.921875 20.515625 
Q 46.921875 27.09375 42.890625 30.859375 
Q 38.875 34.625 31.78125 34.625 
z
M 21.921875 38.8125 
Q 15.578125 40.375 12.03125 44.71875 
Q 8.5 49.078125 8.5 55.328125 
Q 8.5 64.0625 14.71875 69.140625 
Q 20.953125 74.21875 31.78125 74.21875 
Q 42.671875 74.21875 48.875 69.140625 
Q 55.078125 64.0625 55.078125 55.328125 
Q 55.078125 49.078125 51.53125 44.71875 
Q 48 40.375 41.703125 38.8125 
Q 48.828125 37.15625 52.796875 32.3125 
Q 56.78125 27.484375 56.78125 20.515625 
Q 56.78125 9.90625 50.3125 4.234375 
Q 43.84375 -1.421875 31.78125 -1.421875 
Q 19.734375 -1.421875 13.25 4.234375 
Q 6.78125 9.90625 6.78125 20.515625 
Q 6.78125 27.484375 10.78125 32.3125 
Q 14.796875 37.15625 21.921875 38.8125 
z
M 18.3125 54.390625 
Q 18.3125 48.734375 21.84375 45.5625 
Q 25.390625 42.390625 31.78125 42.390625 
Q 38.140625 42.390625 41.71875 45.5625 
Q 45.3125 48.734375 45.3125 54.390625 
Q 45.3125 60.0625 41.71875 63.234375 
Q 38.140625 66.40625 31.78125 66.40625 
Q 25.390625 66.40625 21.84375 63.234375 
Q 18.3125 60.0625 18.3125 54.390625 
z
" id="DejaVuSans-38"/>
      </defs>
      <g transform="translate(255.484503 320.638125)rotate(-90)scale(0.1 -0.1)">
       <use xlink:href="#DejaVuSans-41"/>
       <use x="68.408203" xlink:href="#DejaVuSans-31"/>
       <use x="132.03125" xlink:href="#DejaVuSans-38"/>
       <use x="195.654297" xlink:href="#DejaVuSans-31"/>
      </g>
     </g>
    </g>
    <g id="xtick_14">
     <g id="line2d_14">
      <g>
       <use style="stroke:#000000;stroke-width:0.8;" x="269.808889" xlink:href="#mf94f73ccab" y="287.71"/>
      </g>
     </g>
     <g id="text_14">
      <!-- A196 -->
      <g transform="translate(272.568264 320.638125)rotate(-90)scale(0.1 -0.1)">
       <use xlink:href="#DejaVuSans-41"/>
       <use x="68.408203" xlink:href="#DejaVuSans-31"/>
       <use x="132.03125" xlink:href="#DejaVuSans-39"/>
       <use x="195.654297" xlink:href="#DejaVuSans-36"/>
      </g>
     </g>
    </g>
    <g id="xtick_15">
     <g id="line2d_15">
      <g>
       <use style="stroke:#000000;stroke-width:0.8;" x="286.89265" xlink:href="#mf94f73ccab" y="287.71"/>
      </g>
     </g>
     <g id="text_15">
      <!-- A211 -->
      <g transform="translate(289.652025 320.638125)rotate(-90)scale(0.1 -0.1)">
       <use xlink:href="#DejaVuSans-41"/>
       <use x="68.408203" xlink:href="#DejaVuSans-32"/>
       <use x="132.03125" xlink:href="#DejaVuSans-31"/>
       <use x="195.654297" xlink:href="#DejaVuSans-31"/>
      </g>
     </g>
    </g>
    <g id="xtick_16">
     <g id="line2d_16">
      <g>
       <use style="stroke:#000000;stroke-width:0.8;" x="303.97641" xlink:href="#mf94f73ccab" y="287.71"/>
      </g>
     </g>
     <g id="text_16">
      <!-- A226 -->
      <g transform="translate(306.735785 320.638125)rotate(-90)scale(0.1 -0.1)">
       <use xlink:href="#DejaVuSans-41"/>
       <use x="68.408203" xlink:href="#DejaVuSans-32"/>
       <use x="132.03125" xlink:href="#DejaVuSans-32"/>
       <use x="195.654297" xlink:href="#DejaVuSans-36"/>
      </g>
     </g>
    </g>
    <g id="xtick_17">
     <g id="line2d_17">
      <g>
       <use style="stroke:#000000;stroke-width:0.8;" x="321.060171" xlink:href="#mf94f73ccab" y="287.71"/>
      </g>
     </g>
     <g id="text_17">
      <!-- A241 -->
      <g transform="translate(323.819546 320.638125)rotate(-90)scale(0.1 -0.1)">
       <use xlink:href="#DejaVuSans-41"/>
       <use x="68.408203" xlink:href="#DejaVuSans-32"/>
       <use x="132.03125" xlink:href="#DejaVuSans-34"/>
       <use x="195.654297" xlink:href="#DejaVuSans-31"/>
      </g>
     </g>
    </g>
    <g id="xtick_18">
     <g id="line2d_18">
      <g>
       <use style="stroke:#000000;stroke-width:0.8;" x="338.143932" xlink:href="#mf94f73ccab" y="287.71"/>
      </g>
     </g>
     <g id="text_18">
      <!-- A256 -->
      <g transform="translate(340.903307 320.638125)rotate(-90)scale(0.1 -0.1)">
       <use xlink:href="#DejaVuSans-41"/>
       <use x="68.408203" xlink:href="#DejaVuSans-32"/>
       <use x="132.03125" xlink:href="#DejaVuSans-35"/>
       <use x="195.654297" xlink:href="#DejaVuSans-36"/>
      </g>
     </g>
    </g>
    <g id="xtick_19">
     <g id="line2d_19">
      <g>
       <use style="stroke:#000000;stroke-width:0.8;" x="355.227692" xlink:href="#mf94f73ccab" y="287.71"/>
      </g>
     </g>
     <g id="text_19">
      <!-- A271 -->
      <g transform="translate(357.987067 320.638125)rotate(-90)scale(0.1 -0.1)">
       <use xlink:href="#DejaVuSans-41"/>
       <use x="68.408203" xlink:href="#DejaVuSans-32"/>
       <use x="132.03125" xlink:href="#DejaVuSans-37"/>
       <use x="195.654297" xlink:href="#DejaVuSans-31"/>
      </g>
     </g>
    </g>
    <g id="xtick_20">
     <g id="line2d_20">
      <g>
       <use style="stroke:#000000;stroke-width:0.8;" x="372.311453" xlink:href="#mf94f73ccab" y="287.71"/>
      </g>
     </g>
     <g id="text_20">
      <!-- A286 -->
      <g transform="translate(375.070828 320.638125)rotate(-90)scale(0.1 -0.1)">
       <use xlink:href="#DejaVuSans-41"/>
       <use x="68.408203" xlink:href="#DejaVuSans-32"/>
       <use x="132.03125" xlink:href="#DejaVuSans-38"/>
       <use x="195.654297" xlink:href="#DejaVuSans-36"/>
      </g>
     </g>
    </g>
    <g id="xtick_21">
     <g id="line2d_21">
      <g>
       <use style="stroke:#000000;stroke-width:0.8;" x="389.395214" xlink:href="#mf94f73ccab" y="287.71"/>
      </g>
     </g>
     <g id="text_21">
      <!-- A301 -->
      <g transform="translate(392.154589 320.638125)rotate(-90)scale(0.1 -0.1)">
       <use xlink:href="#DejaVuSans-41"/>
       <use x="68.408203" xlink:href="#DejaVuSans-33"/>
       <use x="132.03125" xlink:href="#DejaVuSans-30"/>
       <use x="195.654297" xlink:href="#DejaVuSans-31"/>
      </g>
     </g>
    </g>
    <g id="xtick_22">
     <g id="line2d_22">
      <g>
       <use style="stroke:#000000;stroke-width:0.8;" x="406.478974" xlink:href="#mf94f73ccab" y="287.71"/>
      </g>
     </g>
     <g id="text_22">
      <!-- A316 -->
      <g transform="translate(409.238349 320.638125)rotate(-90)scale(0.1 -0.1)">
       <use xlink:href="#DejaVuSans-41"/>
       <use x="68.408203" xlink:href="#DejaVuSans-33"/>
       <use x="132.03125" xlink:href="#DejaVuSans-31"/>
       <use x="195.654297" xlink:href="#DejaVuSans-36"/>
      </g>
     </g>
    </g>
    <g id="xtick_23">
     <g id="line2d_23">
      <g>
       <use style="stroke:#000000;stroke-width:0.8;" x="423.562735" xlink:href="#mf94f73ccab" y="287.71"/>
      </g>
     </g>
     <g id="text_23">
      <!-- A331 -->
      <g transform="translate(426.32211 320.638125)rotate(-90)scale(0.1 -0.1)">
       <use xlink:href="#DejaVuSans-41"/>
       <use x="68.408203" xlink:href="#DejaVuSans-33"/>
       <use x="132.03125" xlink:href="#DejaVuSans-33"/>
       <use x="195.654297" xlink:href="#DejaVuSans-31"/>
      </g>
     </g>
    </g>
    <g id="xtick_24">
     <g id="line2d_24">
      <g>
       <use style="stroke:#000000;stroke-width:0.8;" x="440.646496" xlink:href="#mf94f73ccab" y="287.71"/>
      </g>
     </g>
     <g id="text_24">
      <!-- A346 -->
      <g transform="translate(443.405871 320.638125)rotate(-90)scale(0.1 -0.1)">
       <use xlink:href="#DejaVuSans-41"/>
       <use x="68.408203" xlink:href="#DejaVuSans-33"/>
       <use x="132.03125" xlink:href="#DejaVuSans-34"/>
       <use x="195.654297" xlink:href="#DejaVuSans-36"/>
      </g>
     </g>
    </g>
    <g id="text_25">
     <!-- Residue index -->
     <defs>
      <path d="M 44.390625 34.1875 
Q 47.5625 33.109375 50.5625 29.59375 
Q 53.5625 26.078125 56.59375 19.921875 
L 66.609375 0 
L 56 0 
L 46.6875 18.703125 
Q 43.0625 26.03125 39.671875 28.421875 
Q 36.28125 30.8125 30.421875 30.8125 
L 19.671875 30.8125 
L 19.671875 0 
L 9.8125 0 
L 9.8125 72.90625 
L 32.078125 72.90625 
Q 44.578125 72.90625 50.734375 67.671875 
Q 56.890625 62.453125 56.890625 51.90625 
Q 56.890625 45.015625 53.6875 40.46875 
Q 50.484375 35.9375 44.390625 34.1875 
z
M 19.671875 64.796875 
L 19.671875 38.921875 
L 32.078125 38.921875 
Q 39.203125 38.921875 42.84375 42.21875 
Q 46.484375 45.515625 46.484375 51.90625 
Q 46.484375 58.296875 42.84375 61.546875 
Q 39.203125 64.796875 32.078125 64.796875 
z
" id="DejaVuSans-52"/>
      <path d="M 56.203125 29.59375 
L 56.203125 25.203125 
L 14.890625 25.203125 
Q 15.484375 15.921875 20.484375 11.0625 
Q 25.484375 6.203125 34.421875 6.203125 
Q 39.59375 6.203125 44.453125 7.46875 
Q 49.3125 8.734375 54.109375 11.28125 
L 54.109375 2.78125 
Q 49.265625 0.734375 44.1875 -0.34375 
Q 39.109375 -1.421875 33.890625 -1.421875 
Q 20.796875 -1.421875 13.15625 6.1875 
Q 5.515625 13.8125 5.515625 26.8125 
Q 5.515625 40.234375 12.765625 48.109375 
Q 20.015625 56 32.328125 56 
Q 43.359375 56 49.78125 48.890625 
Q 56.203125 41.796875 56.203125 29.59375 
z
M 47.21875 32.234375 
Q 47.125 39.59375 43.09375 43.984375 
Q 39.0625 48.390625 32.421875 48.390625 
Q 24.90625 48.390625 20.390625 44.140625 
Q 15.875 39.890625 15.1875 32.171875 
z
" id="DejaVuSans-65"/>
      <path d="M 44.28125 53.078125 
L 44.28125 44.578125 
Q 40.484375 46.53125 36.375 47.5 
Q 32.28125 48.484375 27.875 48.484375 
Q 21.1875 48.484375 17.84375 46.4375 
Q 14.5 44.390625 14.5 40.28125 
Q 14.5 37.15625 16.890625 35.375 
Q 19.28125 33.59375 26.515625 31.984375 
L 29.59375 31.296875 
Q 39.15625 29.25 43.1875 25.515625 
Q 47.21875 21.78125 47.21875 15.09375 
Q 47.21875 7.46875 41.1875 3.015625 
Q 35.15625 -1.421875 24.609375 -1.421875 
Q 20.21875 -1.421875 15.453125 -0.5625 
Q 10.6875 0.296875 5.421875 2 
L 5.421875 11.28125 
Q 10.40625 8.6875 15.234375 7.390625 
Q 20.0625 6.109375 24.8125 6.109375 
Q 31.15625 6.109375 34.5625 8.28125 
Q 37.984375 10.453125 37.984375 14.40625 
Q 37.984375 18.0625 35.515625 20.015625 
Q 33.0625 21.96875 24.703125 23.78125 
L 21.578125 24.515625 
Q 13.234375 26.265625 9.515625 29.90625 
Q 5.8125 33.546875 5.8125 39.890625 
Q 5.8125 47.609375 11.28125 51.796875 
Q 16.75 56 26.8125 56 
Q 31.78125 56 36.171875 55.265625 
Q 40.578125 54.546875 44.28125 53.078125 
z
" id="DejaVuSans-73"/>
      <path d="M 9.421875 54.6875 
L 18.40625 54.6875 
L 18.40625 0 
L 9.421875 0 
z
M 9.421875 75.984375 
L 18.40625 75.984375 
L 18.40625 64.59375 
L 9.421875 64.59375 
z
" id="DejaVuSans-69"/>
      <path d="M 45.40625 46.390625 
L 45.40625 75.984375 
L 54.390625 75.984375 
L 54.390625 0 
L 45.40625 0 
L 45.40625 8.203125 
Q 42.578125 3.328125 38.25 0.953125 
Q 33.9375 -1.421875 27.875 -1.421875 
Q 17.96875 -1.421875 11.734375 6.484375 
Q 5.515625 14.40625 5.515625 27.296875 
Q 5.515625 40.1875 11.734375 48.09375 
Q 17.96875 56 27.875 56 
Q 33.9375 56 38.25 53.625 
Q 42.578125 51.265625 45.40625 46.390625 
z
M 14.796875 27.296875 
Q 14.796875 17.390625 18.875 11.75 
Q 22.953125 6.109375 30.078125 6.109375 
Q 37.203125 6.109375 41.296875 11.75 
Q 45.40625 17.390625 45.40625 27.296875 
Q 45.40625 37.203125 41.296875 42.84375 
Q 37.203125 48.484375 30.078125 48.484375 
Q 22.953125 48.484375 18.875 42.84375 
Q 14.796875 37.203125 14.796875 27.296875 
z
" id="DejaVuSans-64"/>
      <path d="M 8.5 21.578125 
L 8.5 54.6875 
L 17.484375 54.6875 
L 17.484375 21.921875 
Q 17.484375 14.15625 20.5 10.265625 
Q 23.53125 6.390625 29.59375 6.390625 
Q 36.859375 6.390625 41.078125 11.03125 
Q 45.3125 15.671875 45.3125 23.6875 
L 45.3125 54.6875 
L 54.296875 54.6875 
L 54.296875 0 
L 45.3125 0 
L 45.3125 8.40625 
Q 42.046875 3.421875 37.71875 1 
Q 33.40625 -1.421875 27.6875 -1.421875 
Q 18.265625 -1.421875 13.375 4.4375 
Q 8.5 10.296875 8.5 21.578125 
z
M 31.109375 56 
z
" id="DejaVuSans-75"/>
      <path id="DejaVuSans-20"/>
      <path d="M 54.890625 33.015625 
L 54.890625 0 
L 45.90625 0 
L 45.90625 32.71875 
Q 45.90625 40.484375 42.875 44.328125 
Q 39.84375 48.1875 33.796875 48.1875 
Q 26.515625 48.1875 22.3125 43.546875 
Q 18.109375 38.921875 18.109375 30.90625 
L 18.109375 0 
L 9.078125 0 
L 9.078125 54.6875 
L 18.109375 54.6875 
L 18.109375 46.1875 
Q 21.34375 51.125 25.703125 53.5625 
Q 30.078125 56 35.796875 56 
Q 45.21875 56 50.046875 50.171875 
Q 54.890625 44.34375 54.890625 33.015625 
z
" id="DejaVuSans-6e"/>
      <path d="M 54.890625 54.6875 
L 35.109375 28.078125 
L 55.90625 0 
L 45.3125 0 
L 29.390625 21.484375 
L 13.484375 0 
L 2.875 0 
L 24.125 28.609375 
L 4.6875 54.6875 
L 15.28125 54.6875 
L 29.78125 35.203125 
L 44.28125 54.6875 
z
" id="DejaVuSans-78"/>
     </defs>
     <g transform="translate(212.282812 332.236562)scale(0.1 -0.1)">
      <use xlink:href="#DejaVuSans-52"/>
      <use x="69.419922" xlink:href="#DejaVuSans-65"/>
      <use x="130.943359" xlink:href="#DejaVuSans-73"/>
      <use x="183.042969" xlink:href="#DejaVuSans-69"/>
      <use x="210.826172" xlink:href="#DejaVuSans-64"/>
      <use x="274.302734" xlink:href="#DejaVuSans-75"/>
      <use x="337.681641" xlink:href="#DejaVuSans-65"/>
      <use x="399.205078" xlink:href="#DejaVuSans-20"/>
      <use x="430.992188" xlink:href="#DejaVuSans-69"/>
      <use x="458.775391" xlink:href="#DejaVuSans-6e"/>
      <use x="522.154297" xlink:href="#DejaVuSans-64"/>
      <use x="585.630859" xlink:href="#DejaVuSans-65"/>
      <use x="647.138672" xlink:href="#DejaVuSans-78"/>
     </g>
    </g>
   </g>
   <g id="matplotlib.axis_2">
    <g id="ytick_1">
     <g id="line2d_25">
      <defs>
       <path d="M 0 0 
L -3.5 0 
" id="m817f0264ea" style="stroke:#000000;stroke-width:0.8;"/>
      </defs>
      <g>
       <use style="stroke:#000000;stroke-width:0.8;" x="47.72" xlink:href="#m817f0264ea" y="284.155715"/>
      </g>
     </g>
     <g id="text_26">
      <!-- 0.0 -->
      <defs>
       <path d="M 10.6875 12.40625 
L 21 12.40625 
L 21 0 
L 10.6875 0 
z
" id="DejaVuSans-2e"/>
      </defs>
      <g transform="translate(24.816875 287.954934)scale(0.1 -0.1)">
       <use xlink:href="#DejaVuSans-30"/>
       <use x="63.623047" xlink:href="#DejaVuSans-2e"/>
       <use x="95.410156" xlink:href="#DejaVuSans-30"/>
      </g>
     </g>
    </g>
    <g id="ytick_2">
     <g id="line2d_26">
      <g>
       <use style="stroke:#000000;stroke-width:0.8;" x="47.72" xlink:href="#m817f0264ea" y="247.783854"/>
      </g>
     </g>
     <g id="text_27">
      <!-- 0.5 -->
      <g transform="translate(24.816875 251.583072)scale(0.1 -0.1)">
       <use xlink:href="#DejaVuSans-30"/>
       <use x="63.623047" xlink:href="#DejaVuSans-2e"/>
       <use x="95.410156" xlink:href="#DejaVuSans-35"/>
      </g>
     </g>
    </g>
    <g id="ytick_3">
     <g id="line2d_27">
      <g>
       <use style="stroke:#000000;stroke-width:0.8;" x="47.72" xlink:href="#m817f0264ea" y="211.411992"/>
      </g>
     </g>
     <g id="text_28">
      <!-- 1.0 -->
      <g transform="translate(24.816875 215.211211)scale(0.1 -0.1)">
       <use xlink:href="#DejaVuSans-31"/>
       <use x="63.623047" xlink:href="#DejaVuSans-2e"/>
       <use x="95.410156" xlink:href="#DejaVuSans-30"/>
      </g>
     </g>
    </g>
    <g id="ytick_4">
     <g id="line2d_28">
      <g>
       <use style="stroke:#000000;stroke-width:0.8;" x="47.72" xlink:href="#m817f0264ea" y="175.040131"/>
      </g>
     </g>
     <g id="text_29">
      <!-- 1.5 -->
      <g transform="translate(24.816875 178.83935)scale(0.1 -0.1)">
       <use xlink:href="#DejaVuSans-31"/>
       <use x="63.623047" xlink:href="#DejaVuSans-2e"/>
       <use x="95.410156" xlink:href="#DejaVuSans-35"/>
      </g>
     </g>
    </g>
    <g id="ytick_5">
     <g id="line2d_29">
      <g>
       <use style="stroke:#000000;stroke-width:0.8;" x="47.72" xlink:href="#m817f0264ea" y="138.66827"/>
      </g>
     </g>
     <g id="text_30">
      <!-- 2.0 -->
      <g transform="translate(24.816875 142.467489)scale(0.1 -0.1)">
       <use xlink:href="#DejaVuSans-32"/>
       <use x="63.623047" xlink:href="#DejaVuSans-2e"/>
       <use x="95.410156" xlink:href="#DejaVuSans-30"/>
      </g>
     </g>
    </g>
    <g id="ytick_6">
     <g id="line2d_30">
      <g>
       <use style="stroke:#000000;stroke-width:0.8;" x="47.72" xlink:href="#m817f0264ea" y="102.296408"/>
      </g>
     </g>
     <g id="text_31">
      <!-- 2.5 -->
      <g transform="translate(24.816875 106.095627)scale(0.1 -0.1)">
       <use xlink:href="#DejaVuSans-32"/>
       <use x="63.623047" xlink:href="#DejaVuSans-2e"/>
       <use x="95.410156" xlink:href="#DejaVuSans-35"/>
      </g>
     </g>
    </g>
    <g id="ytick_7">
     <g id="line2d_31">
      <g>
       <use style="stroke:#000000;stroke-width:0.8;" x="47.72" xlink:href="#m817f0264ea" y="65.924547"/>
      </g>
     </g>
     <g id="text_32">
      <!-- 3.0 -->
      <g transform="translate(24.816875 69.723766)scale(0.1 -0.1)">
       <use xlink:href="#DejaVuSans-33"/>
       <use x="63.623047" xlink:href="#DejaVuSans-2e"/>
       <use x="95.410156" xlink:href="#DejaVuSans-30"/>
      </g>
     </g>
    </g>
    <g id="ytick_8">
     <g id="line2d_32">
      <g>
       <use style="stroke:#000000;stroke-width:0.8;" x="47.72" xlink:href="#m817f0264ea" y="29.552686"/>
      </g>
     </g>
     <g id="text_33">
      <!-- 3.5 -->
      <g transform="translate(24.816875 33.351905)scale(0.1 -0.1)">
       <use xlink:href="#DejaVuSans-33"/>
       <use x="63.623047" xlink:href="#DejaVuSans-2e"/>
       <use x="95.410156" xlink:href="#DejaVuSans-35"/>
      </g>
     </g>
    </g>
    <g id="text_34">
     <!-- RMSF -->
     <defs>
      <path d="M 9.8125 72.90625 
L 24.515625 72.90625 
L 43.109375 23.296875 
L 61.8125 72.90625 
L 76.515625 72.90625 
L 76.515625 0 
L 66.890625 0 
L 66.890625 64.015625 
L 48.09375 14.015625 
L 38.1875 14.015625 
L 19.390625 64.015625 
L 19.390625 0 
L 9.8125 0 
z
" id="DejaVuSans-4d"/>
      <path d="M 53.515625 70.515625 
L 53.515625 60.890625 
Q 47.90625 63.578125 42.921875 64.890625 
Q 37.9375 66.21875 33.296875 66.21875 
Q 25.25 66.21875 20.875 63.09375 
Q 16.5 59.96875 16.5 54.203125 
Q 16.5 49.359375 19.40625 46.890625 
Q 22.3125 44.4375 30.421875 42.921875 
L 36.375 41.703125 
Q 47.40625 39.59375 52.65625 34.296875 
Q 57.90625 29 57.90625 20.125 
Q 57.90625 9.515625 50.796875 4.046875 
Q 43.703125 -1.421875 29.984375 -1.421875 
Q 24.8125 -1.421875 18.96875 -0.25 
Q 13.140625 0.921875 6.890625 3.21875 
L 6.890625 13.375 
Q 12.890625 10.015625 18.65625 8.296875 
Q 24.421875 6.59375 29.984375 6.59375 
Q 38.421875 6.59375 43.015625 9.90625 
Q 47.609375 13.234375 47.609375 19.390625 
Q 47.609375 24.75 44.3125 27.78125 
Q 41.015625 30.8125 33.5 32.328125 
L 27.484375 33.5 
Q 16.453125 35.6875 11.515625 40.375 
Q 6.59375 45.0625 6.59375 53.421875 
Q 6.59375 63.09375 13.40625 68.65625 
Q 20.21875 74.21875 32.171875 74.21875 
Q 37.3125 74.21875 42.625 73.28125 
Q 47.953125 72.359375 53.515625 70.515625 
z
" id="DejaVuSans-53"/>
      <path d="M 9.8125 72.90625 
L 51.703125 72.90625 
L 51.703125 64.59375 
L 19.671875 64.59375 
L 19.671875 43.109375 
L 48.578125 43.109375 
L 48.578125 34.8125 
L 19.671875 34.8125 
L 19.671875 0 
L 9.8125 0 
z
" id="DejaVuSans-46"/>
     </defs>
     <g transform="translate(18.737188 164.353281)rotate(-90)scale(0.1 -0.1)">
      <use xlink:href="#DejaVuSans-52"/>
      <use x="69.482422" xlink:href="#DejaVuSans-4d"/>
      <use x="155.761719" xlink:href="#DejaVuSans-53"/>
      <use x="219.238281" xlink:href="#DejaVuSans-46"/>
     </g>
    </g>
   </g>
   <g id="line2d_33">
    <path clip-path="url(#pe098c7d07a)" d="M 47.72 220.957373 
L 48.858917 252.398011 
L 49.997835 263.861418 
L 51.136752 256.418903 
L 52.27567 266.338078 
L 53.414587 266.908764 
L 54.553504 267.080317 
L 55.692422 265.72326 
L 56.831339 266.782745 
L 57.970256 244.128005 
L 59.109174 216.712477 
L 60.248091 172.465819 
L 61.387009 211.879285 
L 62.525926 229.037172 
L 63.664843 233.665601 
L 64.803761 230.342129 
L 65.942678 200.501941 
L 67.081595 181.48872 
L 68.220513 154.674993 
L 69.35943 131.305886 
L 70.498348 212.014382 
L 71.637265 223.436316 
L 72.776182 242.480289 
L 73.9151 240.457504 
L 75.054017 263.800398 
L 76.192934 245.348732 
L 77.331852 263.011038 
L 78.470769 248.658116 
L 79.609687 246.67258 
L 80.748604 181.273043 
L 81.887521 227.362212 
L 83.026439 253.319138 
L 84.165356 273.296702 
L 85.304274 275.237727 
L 86.443191 274.261266 
L 87.582108 270.006977 
L 88.721026 254.707074 
L 89.859943 236.446286 
L 90.99886 235.273956 
L 92.137778 173.957487 
L 93.276695 183.645875 
L 94.415613 188.948955 
L 95.55453 224.923372 
L 96.693447 231.392762 
L 97.832365 255.130234 
L 98.971282 247.671142 
L 100.110199 251.592048 
L 101.249117 232.779051 
L 102.388034 243.295425 
L 103.526952 249.767204 
L 104.665869 226.888158 
L 105.804786 231.649178 
L 106.943704 256.328617 
L 108.082621 231.926058 
L 109.221538 219.585236 
L 110.360456 256.950496 
L 111.499373 252.232984 
L 112.638291 249.52615 
L 113.777208 242.333065 
L 114.916125 243.293221 
L 116.055043 233.05912 
L 117.19396 104.95348 
L 118.332877 178.711539 
L 119.471795 200.06133 
L 120.610712 224.08311 
L 121.74963 272.663597 
L 122.888547 273.446189 
L 124.027464 253.480623 
L 125.166382 263.598023 
L 126.305299 241.182457 
L 127.444217 260.583301 
L 128.583134 218.223117 
L 129.722051 193.085832 
L 130.860969 215.949082 
L 131.999886 146.901632 
L 133.138803 194.037497 
L 134.277721 158.82017 
L 135.416638 201.244517 
L 136.555556 166.040399 
L 137.694473 185.012161 
L 138.83339 184.212621 
L 139.972308 182.555465 
L 141.111225 218.257826 
L 143.38906 246.048592 
L 144.527977 240.393461 
L 145.666895 251.213907 
L 146.805812 260.352889 
L 147.944729 241.860532 
L 149.083647 240.261679 
L 150.222564 229.855431 
L 151.361481 214.914578 
L 152.500399 208.819947 
L 153.639316 216.909209 
L 154.778234 215.186658 
L 155.917151 223.931007 
L 157.056068 226.822851 
L 158.194986 249.606065 
L 159.333903 250.831989 
L 160.472821 259.53792 
L 161.611738 263.44368 
L 162.750655 255.279446 
L 163.889573 264.19999 
L 165.02849 264.035841 
L 166.167407 253.49481 
L 167.306325 249.30564 
L 168.445242 248.679219 
L 169.58416 253.011833 
L 170.723077 250.370794 
L 171.861994 249.981856 
L 173.000912 248.456319 
L 174.139829 233.774982 
L 175.278746 222.182032 
L 176.417664 214.715422 
L 177.556581 197.626344 
L 178.695499 122.960819 
L 179.834416 189.275714 
L 180.973333 223.399296 
L 182.112251 241.017076 
L 183.251168 262.828006 
L 184.390085 266.041204 
L 185.529003 274.913439 
L 186.66792 274.895149 
L 187.806838 274.43972 
L 188.945755 270.187043 
L 190.084672 94.477317 
L 191.22359 159.219486 
L 192.362507 189.794098 
L 193.501425 227.557247 
L 194.640342 239.03511 
L 196.918177 254.962322 
L 198.057094 265.880646 
L 199.196011 268.204944 
L 200.334929 261.289744 
L 201.473846 258.393811 
L 202.612764 256.659837 
L 203.751681 273.993179 
L 204.890598 254.128695 
L 206.029516 255.603618 
L 207.168433 268.90714 
L 208.30735 253.596114 
L 209.446268 234.252941 
L 210.585185 172.121732 
L 211.724103 211.905077 
L 212.86302 219.727225 
L 214.001937 230.339869 
L 215.140855 253.935174 
L 216.279772 270.174527 
L 217.418689 260.886508 
L 218.557607 269.444803 
L 219.696524 270.892489 
L 220.835442 269.735502 
L 221.974359 270.708344 
L 223.113276 272.059143 
L 224.252194 249.49541 
L 225.391111 244.286949 
L 226.530028 240.712575 
L 227.668946 256.37927 
L 228.807863 234.336878 
L 229.946781 192.174667 
L 231.085698 144.494134 
L 232.224615 139.404603 
L 233.363533 166.606834 
L 234.50245 100.653796 
L 235.641368 120.736564 
L 236.780285 162.640032 
L 237.919202 224.778997 
L 239.05812 255.227414 
L 240.197037 248.237598 
L 241.335954 268.81557 
L 242.474872 260.139456 
L 243.613789 257.077545 
L 244.752707 254.759048 
L 245.891624 262.50757 
L 247.030541 252.585623 
L 248.169459 273.034344 
L 249.308376 273.394891 
L 250.447293 272.222326 
L 251.586211 264.082893 
L 252.725128 256.851802 
L 253.864046 247.236999 
L 255.002963 240.929422 
L 256.14188 206.886132 
L 257.280798 201.078341 
L 258.419715 213.453759 
L 259.558632 207.693557 
L 260.69755 235.831854 
L 261.836467 234.149102 
L 262.975385 235.545776 
L 264.114302 230.913166 
L 265.253219 247.549984 
L 266.392137 246.885365 
L 267.531054 256.697035 
L 268.669972 269.819463 
L 269.808889 264.341302 
L 270.947806 263.684844 
L 272.086724 269.454206 
L 273.225641 268.683362 
L 274.364558 268.811465 
L 275.503476 266.322102 
L 276.642393 251.863579 
L 277.781311 240.166439 
L 278.920228 234.861034 
L 280.059145 238.690198 
L 281.198063 241.651467 
L 282.33698 226.47923 
L 283.475897 99.768705 
L 284.614815 72.265767 
L 285.753732 193.31757 
L 286.89265 227.830933 
L 288.031567 242.30158 
L 289.170484 252.539584 
L 290.309402 258.277748 
L 291.448319 267.384985 
L 292.587236 269.481691 
L 293.726154 270.755346 
L 294.865071 263.936423 
L 296.003989 266.788422 
L 297.142906 257.236757 
L 298.281823 231.330401 
L 299.420741 247.659156 
L 300.559658 254.259504 
L 301.698575 242.059595 
L 302.837493 244.569699 
L 303.97641 233.471252 
L 305.115328 201.305304 
L 306.254245 163.285943 
L 307.393162 171.915268 
L 308.53208 94.712251 
L 309.670997 137.474743 
L 310.809915 194.272506 
L 311.948832 214.776879 
L 313.087749 225.062945 
L 314.226667 210.907864 
L 315.365584 190.56341 
L 316.504501 211.234348 
L 317.643419 260.96643 
L 318.782336 263.769507 
L 319.921254 266.12808 
L 321.060171 261.869678 
L 322.199088 253.37567 
L 323.338006 241.368393 
L 324.476923 218.18765 
L 325.61584 200.938773 
L 326.754758 223.001603 
L 327.893675 228.489163 
L 329.032593 242.069248 
L 330.17151 228.508661 
L 331.310427 236.000744 
L 332.449345 233.591061 
L 333.588262 244.417743 
L 334.727179 270.254033 
L 335.866097 256.210195 
L 337.005014 267.155743 
L 338.143932 271.163902 
L 339.282849 270.106951 
L 340.421766 252.275723 
L 341.560684 247.398983 
L 342.699601 239.821437 
L 343.838519 226.061247 
L 344.977436 180.220022 
L 346.116353 98.863741 
L 347.255271 82.977968 
L 348.394188 169.422609 
L 349.533105 214.664081 
L 350.672023 237.364041 
L 351.81094 256.113258 
L 352.949858 258.210956 
L 354.088775 247.969693 
L 355.227692 269.40844 
L 356.36661 256.452546 
L 357.505527 249.920858 
L 358.644444 248.41708 
L 359.783362 264.532533 
L 360.922279 254.050897 
L 362.061197 246.967683 
L 363.200114 232.293518 
L 364.339031 242.46028 
L 365.477949 214.44115 
L 366.616866 124.236297 
L 367.755783 115.81691 
L 368.894701 198.130162 
L 370.033618 109.243777 
L 371.172536 58.555124 
L 372.311453 47.28203 
L 374.589288 156.108728 
L 375.728205 150.114181 
L 376.867123 142.807592 
L 378.00604 154.324935 
L 379.144957 137.309513 
L 380.283875 133.97474 
L 381.422792 26.227167 
L 382.561709 43.138796 
L 383.700627 197.291694 
L 384.839544 204.395687 
L 385.978462 171.78693 
L 387.117379 185.883949 
L 388.256296 196.567101 
L 389.395214 186.077036 
L 390.534131 181.103768 
L 392.811966 224.559856 
L 393.950883 221.786581 
L 395.089801 214.193099 
L 396.228718 217.441572 
L 397.367635 175.338234 
L 399.64547 45.805092 
L 400.784387 25.792273 
L 401.923305 81.393739 
L 403.062222 154.627095 
L 404.20114 218.214585 
L 405.340057 224.065753 
L 406.478974 239.526857 
L 407.617892 250.287854 
L 408.756809 245.121333 
L 409.895726 253.646987 
L 411.034644 248.845699 
L 412.173561 253.729705 
L 413.312479 243.620237 
L 414.451396 214.972665 
L 416.729231 255.695834 
L 417.868148 255.56785 
L 419.007066 247.125056 
L 420.145983 242.007066 
L 421.2849 218.746981 
L 422.423818 100.931695 
L 423.562735 94.078585 
L 424.701652 85.22658 
L 425.84057 115.56123 
L 426.979487 200.508976 
L 428.118405 227.329612 
L 429.257322 240.225804 
L 430.396239 232.644676 
L 431.535157 196.748767 
L 432.674074 203.704303 
L 433.812991 222.262879 
L 434.951909 250.536293 
L 436.090826 267.677654 
L 437.229744 269.89212 
L 438.368661 269.649831 
L 439.507578 256.929412 
L 440.646496 262.53245 
L 441.785413 258.771405 
L 442.92433 264.873979 
L 444.063248 248.58505 
L 445.202165 213.480668 
L 446.341083 158.37423 
L 447.48 62.69636 
L 447.48 62.69636 
" style="fill:none;stroke:#666666;stroke-dasharray:1,1.65;stroke-dashoffset:0;"/>
    <defs>
     <path d="M 0 0.5 
C 0.132602 0.5 0.25979 0.447317 0.353553 0.353553 
C 0.447317 0.25979 0.5 0.132602 0.5 0 
C 0.5 -0.132602 0.447317 -0.25979 0.353553 -0.353553 
C 0.25979 -0.447317 0.132602 -0.5 0 -0.5 
C -0.132602 -0.5 -0.25979 -0.447317 -0.353553 -0.353553 
C -0.447317 -0.25979 -0.5 -0.132602 -0.5 0 
C -0.5 0.132602 -0.447317 0.25979 -0.353553 0.353553 
C -0.25979 0.447317 -0.132602 0.5 0 0.5 
z
" id="mb198551929" style="stroke:#666666;"/>
    </defs>
    <g clip-path="url(#pe098c7d07a)">
     <use style="fill:#666666;stroke:#666666;" x="47.72" xlink:href="#mb198551929" y="220.957373"/>
     <use style="fill:#666666;stroke:#666666;" x="48.858917" xlink:href="#mb198551929" y="252.398011"/>
     <use style="fill:#666666;stroke:#666666;" x="49.997835" xlink:href="#mb198551929" y="263.861418"/>
     <use style="fill:#666666;stroke:#666666;" x="51.136752" xlink:href="#mb198551929" y="256.418903"/>
     <use style="fill:#666666;stroke:#666666;" x="52.27567" xlink:href="#mb198551929" y="266.338078"/>
     <use style="fill:#666666;stroke:#666666;" x="53.414587" xlink:href="#mb198551929" y="266.908764"/>
     <use style="fill:#666666;stroke:#666666;" x="54.553504" xlink:href="#mb198551929" y="267.080317"/>
     <use style="fill:#666666;stroke:#666666;" x="55.692422" xlink:href="#mb198551929" y="265.72326"/>
     <use style="fill:#666666;stroke:#666666;" x="56.831339" xlink:href="#mb198551929" y="266.782745"/>
     <use style="fill:#666666;stroke:#666666;" x="57.970256" xlink:href="#mb198551929" y="244.128005"/>
     <use style="fill:#666666;stroke:#666666;" x="59.109174" xlink:href="#mb198551929" y="216.712477"/>
     <use style="fill:#666666;stroke:#666666;" x="60.248091" xlink:href="#mb198551929" y="172.465819"/>
     <use style="fill:#666666;stroke:#666666;" x="61.387009" xlink:href="#mb198551929" y="211.879285"/>
     <use style="fill:#666666;stroke:#666666;" x="62.525926" xlink:href="#mb198551929" y="229.037172"/>
     <use style="fill:#666666;stroke:#666666;" x="63.664843" xlink:href="#mb198551929" y="233.665601"/>
     <use style="fill:#666666;stroke:#666666;" x="64.803761" xlink:href="#mb198551929" y="230.342129"/>
     <use style="fill:#666666;stroke:#666666;" x="65.942678" xlink:href="#mb198551929" y="200.501941"/>
     <use style="fill:#666666;stroke:#666666;" x="67.081595" xlink:href="#mb198551929" y="181.48872"/>
     <use style="fill:#666666;stroke:#666666;" x="68.220513" xlink:href="#mb198551929" y="154.674993"/>
     <use style="fill:#666666;stroke:#666666;" x="69.35943" xlink:href="#mb198551929" y="131.305886"/>
     <use style="fill:#666666;stroke:#666666;" x="70.498348" xlink:href="#mb198551929" y="212.014382"/>
     <use style="fill:#666666;stroke:#666666;" x="71.637265" xlink:href="#mb198551929" y="223.436316"/>
     <use style="fill:#666666;stroke:#666666;" x="72.776182" xlink:href="#mb198551929" y="242.480289"/>
     <use style="fill:#666666;stroke:#666666;" x="73.9151" xlink:href="#mb198551929" y="240.457504"/>
     <use style="fill:#666666;stroke:#666666;" x="75.054017" xlink:href="#mb198551929" y="263.800398"/>
     <use style="fill:#666666;stroke:#666666;" x="76.192934" xlink:href="#mb198551929" y="245.348732"/>
     <use style="fill:#666666;stroke:#666666;" x="77.331852" xlink:href="#mb198551929" y="263.011038"/>
     <use style="fill:#666666;stroke:#666666;" x="78.470769" xlink:href="#mb198551929" y="248.658116"/>
     <use style="fill:#666666;stroke:#666666;" x="79.609687" xlink:href="#mb198551929" y="246.67258"/>
     <use style="fill:#666666;stroke:#666666;" x="80.748604" xlink:href="#mb198551929" y="181.273043"/>
     <use style="fill:#666666;stroke:#666666;" x="81.887521" xlink:href="#mb198551929" y="227.362212"/>
     <use style="fill:#666666;stroke:#666666;" x="83.026439" xlink:href="#mb198551929" y="253.319138"/>
     <use style="fill:#666666;stroke:#666666;" x="84.165356" xlink:href="#mb198551929" y="273.296702"/>
     <use style="fill:#666666;stroke:#666666;" x="85.304274" xlink:href="#mb198551929" y="275.237727"/>
     <use style="fill:#666666;stroke:#666666;" x="86.443191" xlink:href="#mb198551929" y="274.261266"/>
     <use style="fill:#666666;stroke:#666666;" x="87.582108" xlink:href="#mb198551929" y="270.006977"/>
     <use style="fill:#666666;stroke:#666666;" x="88.721026" xlink:href="#mb198551929" y="254.707074"/>
     <use style="fill:#666666;stroke:#666666;" x="89.859943" xlink:href="#mb198551929" y="236.446286"/>
     <use style="fill:#666666;stroke:#666666;" x="90.99886" xlink:href="#mb198551929" y="235.273956"/>
     <use style="fill:#666666;stroke:#666666;" x="92.137778" xlink:href="#mb198551929" y="173.957487"/>
     <use style="fill:#666666;stroke:#666666;" x="93.276695" xlink:href="#mb198551929" y="183.645875"/>
     <use style="fill:#666666;stroke:#666666;" x="94.415613" xlink:href="#mb198551929" y="188.948955"/>
     <use style="fill:#666666;stroke:#666666;" x="95.55453" xlink:href="#mb198551929" y="224.923372"/>
     <use style="fill:#666666;stroke:#666666;" x="96.693447" xlink:href="#mb198551929" y="231.392762"/>
     <use style="fill:#666666;stroke:#666666;" x="97.832365" xlink:href="#mb198551929" y="255.130234"/>
     <use style="fill:#666666;stroke:#666666;" x="98.971282" xlink:href="#mb198551929" y="247.671142"/>
     <use style="fill:#666666;stroke:#666666;" x="100.110199" xlink:href="#mb198551929" y="251.592048"/>
     <use style="fill:#666666;stroke:#666666;" x="101.249117" xlink:href="#mb198551929" y="232.779051"/>
     <use style="fill:#666666;stroke:#666666;" x="102.388034" xlink:href="#mb198551929" y="243.295425"/>
     <use style="fill:#666666;stroke:#666666;" x="103.526952" xlink:href="#mb198551929" y="249.767204"/>
     <use style="fill:#666666;stroke:#666666;" x="104.665869" xlink:href="#mb198551929" y="226.888158"/>
     <use style="fill:#666666;stroke:#666666;" x="105.804786" xlink:href="#mb198551929" y="231.649178"/>
     <use style="fill:#666666;stroke:#666666;" x="106.943704" xlink:href="#mb198551929" y="256.328617"/>
     <use style="fill:#666666;stroke:#666666;" x="108.082621" xlink:href="#mb198551929" y="231.926058"/>
     <use style="fill:#666666;stroke:#666666;" x="109.221538" xlink:href="#mb198551929" y="219.585236"/>
     <use style="fill:#666666;stroke:#666666;" x="110.360456" xlink:href="#mb198551929" y="256.950496"/>
     <use style="fill:#666666;stroke:#666666;" x="111.499373" xlink:href="#mb198551929" y="252.232984"/>
     <use style="fill:#666666;stroke:#666666;" x="112.638291" xlink:href="#mb198551929" y="249.52615"/>
     <use style="fill:#666666;stroke:#666666;" x="113.777208" xlink:href="#mb198551929" y="242.333065"/>
     <use style="fill:#666666;stroke:#666666;" x="114.916125" xlink:href="#mb198551929" y="243.293221"/>
     <use style="fill:#666666;stroke:#666666;" x="116.055043" xlink:href="#mb198551929" y="233.05912"/>
     <use style="fill:#666666;stroke:#666666;" x="117.19396" xlink:href="#mb198551929" y="104.95348"/>
     <use style="fill:#666666;stroke:#666666;" x="118.332877" xlink:href="#mb198551929" y="178.711539"/>
     <use style="fill:#666666;stroke:#666666;" x="119.471795" xlink:href="#mb198551929" y="200.06133"/>
     <use style="fill:#666666;stroke:#666666;" x="120.610712" xlink:href="#mb198551929" y="224.08311"/>
     <use style="fill:#666666;stroke:#666666;" x="121.74963" xlink:href="#mb198551929" y="272.663597"/>
     <use style="fill:#666666;stroke:#666666;" x="122.888547" xlink:href="#mb198551929" y="273.446189"/>
     <use style="fill:#666666;stroke:#666666;" x="124.027464" xlink:href="#mb198551929" y="253.480623"/>
     <use style="fill:#666666;stroke:#666666;" x="125.166382" xlink:href="#mb198551929" y="263.598023"/>
     <use style="fill:#666666;stroke:#666666;" x="126.305299" xlink:href="#mb198551929" y="241.182457"/>
     <use style="fill:#666666;stroke:#666666;" x="127.444217" xlink:href="#mb198551929" y="260.583301"/>
     <use style="fill:#666666;stroke:#666666;" x="128.583134" xlink:href="#mb198551929" y="218.223117"/>
     <use style="fill:#666666;stroke:#666666;" x="129.722051" xlink:href="#mb198551929" y="193.085832"/>
     <use style="fill:#666666;stroke:#666666;" x="130.860969" xlink:href="#mb198551929" y="215.949082"/>
     <use style="fill:#666666;stroke:#666666;" x="131.999886" xlink:href="#mb198551929" y="146.901632"/>
     <use style="fill:#666666;stroke:#666666;" x="133.138803" xlink:href="#mb198551929" y="194.037497"/>
     <use style="fill:#666666;stroke:#666666;" x="134.277721" xlink:href="#mb198551929" y="158.82017"/>
     <use style="fill:#666666;stroke:#666666;" x="135.416638" xlink:href="#mb198551929" y="201.244517"/>
     <use style="fill:#666666;stroke:#666666;" x="136.555556" xlink:href="#mb198551929" y="166.040399"/>
     <use style="fill:#666666;stroke:#666666;" x="137.694473" xlink:href="#mb198551929" y="185.012161"/>
     <use style="fill:#666666;stroke:#666666;" x="138.83339" xlink:href="#mb198551929" y="184.212621"/>
     <use style="fill:#666666;stroke:#666666;" x="139.972308" xlink:href="#mb198551929" y="182.555465"/>
     <use style="fill:#666666;stroke:#666666;" x="141.111225" xlink:href="#mb198551929" y="218.257826"/>
     <use style="fill:#666666;stroke:#666666;" x="142.250142" xlink:href="#mb198551929" y="232.288789"/>
     <use style="fill:#666666;stroke:#666666;" x="143.38906" xlink:href="#mb198551929" y="246.048592"/>
     <use style="fill:#666666;stroke:#666666;" x="144.527977" xlink:href="#mb198551929" y="240.393461"/>
     <use style="fill:#666666;stroke:#666666;" x="145.666895" xlink:href="#mb198551929" y="251.213907"/>
     <use style="fill:#666666;stroke:#666666;" x="146.805812" xlink:href="#mb198551929" y="260.352889"/>
     <use style="fill:#666666;stroke:#666666;" x="147.944729" xlink:href="#mb198551929" y="241.860532"/>
     <use style="fill:#666666;stroke:#666666;" x="149.083647" xlink:href="#mb198551929" y="240.261679"/>
     <use style="fill:#666666;stroke:#666666;" x="150.222564" xlink:href="#mb198551929" y="229.855431"/>
     <use style="fill:#666666;stroke:#666666;" x="151.361481" xlink:href="#mb198551929" y="214.914578"/>
     <use style="fill:#666666;stroke:#666666;" x="152.500399" xlink:href="#mb198551929" y="208.819947"/>
     <use style="fill:#666666;stroke:#666666;" x="153.639316" xlink:href="#mb198551929" y="216.909209"/>
     <use style="fill:#666666;stroke:#666666;" x="154.778234" xlink:href="#mb198551929" y="215.186658"/>
     <use style="fill:#666666;stroke:#666666;" x="155.917151" xlink:href="#mb198551929" y="223.931007"/>
     <use style="fill:#666666;stroke:#666666;" x="157.056068" xlink:href="#mb198551929" y="226.822851"/>
     <use style="fill:#666666;stroke:#666666;" x="158.194986" xlink:href="#mb198551929" y="249.606065"/>
     <use style="fill:#666666;stroke:#666666;" x="159.333903" xlink:href="#mb198551929" y="250.831989"/>
     <use style="fill:#666666;stroke:#666666;" x="160.472821" xlink:href="#mb198551929" y="259.53792"/>
     <use style="fill:#666666;stroke:#666666;" x="161.611738" xlink:href="#mb198551929" y="263.44368"/>
     <use style="fill:#666666;stroke:#666666;" x="162.750655" xlink:href="#mb198551929" y="255.279446"/>
     <use style="fill:#666666;stroke:#666666;" x="163.889573" xlink:href="#mb198551929" y="264.19999"/>
     <use style="fill:#666666;stroke:#666666;" x="165.02849" xlink:href="#mb198551929" y="264.035841"/>
     <use style="fill:#666666;stroke:#666666;" x="166.167407" xlink:href="#mb198551929" y="253.49481"/>
     <use style="fill:#666666;stroke:#666666;" x="167.306325" xlink:href="#mb198551929" y="249.30564"/>
     <use style="fill:#666666;stroke:#666666;" x="168.445242" xlink:href="#mb198551929" y="248.679219"/>
     <use style="fill:#666666;stroke:#666666;" x="169.58416" xlink:href="#mb198551929" y="253.011833"/>
     <use style="fill:#666666;stroke:#666666;" x="170.723077" xlink:href="#mb198551929" y="250.370794"/>
     <use style="fill:#666666;stroke:#666666;" x="171.861994" xlink:href="#mb198551929" y="249.981856"/>
     <use style="fill:#666666;stroke:#666666;" x="173.000912" xlink:href="#mb198551929" y="248.456319"/>
     <use style="fill:#666666;stroke:#666666;" x="174.139829" xlink:href="#mb198551929" y="233.774982"/>
     <use style="fill:#666666;stroke:#666666;" x="175.278746" xlink:href="#mb198551929" y="222.182032"/>
     <use style="fill:#666666;stroke:#666666;" x="176.417664" xlink:href="#mb198551929" y="214.715422"/>
     <use style="fill:#666666;stroke:#666666;" x="177.556581" xlink:href="#mb198551929" y="197.626344"/>
     <use style="fill:#666666;stroke:#666666;" x="178.695499" xlink:href="#mb198551929" y="122.960819"/>
     <use style="fill:#666666;stroke:#666666;" x="179.834416" xlink:href="#mb198551929" y="189.275714"/>
     <use style="fill:#666666;stroke:#666666;" x="180.973333" xlink:href="#mb198551929" y="223.399296"/>
     <use style="fill:#666666;stroke:#666666;" x="182.112251" xlink:href="#mb198551929" y="241.017076"/>
     <use style="fill:#666666;stroke:#666666;" x="183.251168" xlink:href="#mb198551929" y="262.828006"/>
     <use style="fill:#666666;stroke:#666666;" x="184.390085" xlink:href="#mb198551929" y="266.041204"/>
     <use style="fill:#666666;stroke:#666666;" x="185.529003" xlink:href="#mb198551929" y="274.913439"/>
     <use style="fill:#666666;stroke:#666666;" x="186.66792" xlink:href="#mb198551929" y="274.895149"/>
     <use style="fill:#666666;stroke:#666666;" x="187.806838" xlink:href="#mb198551929" y="274.43972"/>
     <use style="fill:#666666;stroke:#666666;" x="188.945755" xlink:href="#mb198551929" y="270.187043"/>
     <use style="fill:#666666;stroke:#666666;" x="190.084672" xlink:href="#mb198551929" y="94.477317"/>
     <use style="fill:#666666;stroke:#666666;" x="191.22359" xlink:href="#mb198551929" y="159.219486"/>
     <use style="fill:#666666;stroke:#666666;" x="192.362507" xlink:href="#mb198551929" y="189.794098"/>
     <use style="fill:#666666;stroke:#666666;" x="193.501425" xlink:href="#mb198551929" y="227.557247"/>
     <use style="fill:#666666;stroke:#666666;" x="194.640342" xlink:href="#mb198551929" y="239.03511"/>
     <use style="fill:#666666;stroke:#666666;" x="195.779259" xlink:href="#mb198551929" y="246.695101"/>
     <use style="fill:#666666;stroke:#666666;" x="196.918177" xlink:href="#mb198551929" y="254.962322"/>
     <use style="fill:#666666;stroke:#666666;" x="198.057094" xlink:href="#mb198551929" y="265.880646"/>
     <use style="fill:#666666;stroke:#666666;" x="199.196011" xlink:href="#mb198551929" y="268.204944"/>
     <use style="fill:#666666;stroke:#666666;" x="200.334929" xlink:href="#mb198551929" y="261.289744"/>
     <use style="fill:#666666;stroke:#666666;" x="201.473846" xlink:href="#mb198551929" y="258.393811"/>
     <use style="fill:#666666;stroke:#666666;" x="202.612764" xlink:href="#mb198551929" y="256.659837"/>
     <use style="fill:#666666;stroke:#666666;" x="203.751681" xlink:href="#mb198551929" y="273.993179"/>
     <use style="fill:#666666;stroke:#666666;" x="204.890598" xlink:href="#mb198551929" y="254.128695"/>
     <use style="fill:#666666;stroke:#666666;" x="206.029516" xlink:href="#mb198551929" y="255.603618"/>
     <use style="fill:#666666;stroke:#666666;" x="207.168433" xlink:href="#mb198551929" y="268.90714"/>
     <use style="fill:#666666;stroke:#666666;" x="208.30735" xlink:href="#mb198551929" y="253.596114"/>
     <use style="fill:#666666;stroke:#666666;" x="209.446268" xlink:href="#mb198551929" y="234.252941"/>
     <use style="fill:#666666;stroke:#666666;" x="210.585185" xlink:href="#mb198551929" y="172.121732"/>
     <use style="fill:#666666;stroke:#666666;" x="211.724103" xlink:href="#mb198551929" y="211.905077"/>
     <use style="fill:#666666;stroke:#666666;" x="212.86302" xlink:href="#mb198551929" y="219.727225"/>
     <use style="fill:#666666;stroke:#666666;" x="214.001937" xlink:href="#mb198551929" y="230.339869"/>
     <use style="fill:#666666;stroke:#666666;" x="215.140855" xlink:href="#mb198551929" y="253.935174"/>
     <use style="fill:#666666;stroke:#666666;" x="216.279772" xlink:href="#mb198551929" y="270.174527"/>
     <use style="fill:#666666;stroke:#666666;" x="217.418689" xlink:href="#mb198551929" y="260.886508"/>
     <use style="fill:#666666;stroke:#666666;" x="218.557607" xlink:href="#mb198551929" y="269.444803"/>
     <use style="fill:#666666;stroke:#666666;" x="219.696524" xlink:href="#mb198551929" y="270.892489"/>
     <use style="fill:#666666;stroke:#666666;" x="220.835442" xlink:href="#mb198551929" y="269.735502"/>
     <use style="fill:#666666;stroke:#666666;" x="221.974359" xlink:href="#mb198551929" y="270.708344"/>
     <use style="fill:#666666;stroke:#666666;" x="223.113276" xlink:href="#mb198551929" y="272.059143"/>
     <use style="fill:#666666;stroke:#666666;" x="224.252194" xlink:href="#mb198551929" y="249.49541"/>
     <use style="fill:#666666;stroke:#666666;" x="225.391111" xlink:href="#mb198551929" y="244.286949"/>
     <use style="fill:#666666;stroke:#666666;" x="226.530028" xlink:href="#mb198551929" y="240.712575"/>
     <use style="fill:#666666;stroke:#666666;" x="227.668946" xlink:href="#mb198551929" y="256.37927"/>
     <use style="fill:#666666;stroke:#666666;" x="228.807863" xlink:href="#mb198551929" y="234.336878"/>
     <use style="fill:#666666;stroke:#666666;" x="229.946781" xlink:href="#mb198551929" y="192.174667"/>
     <use style="fill:#666666;stroke:#666666;" x="231.085698" xlink:href="#mb198551929" y="144.494134"/>
     <use style="fill:#666666;stroke:#666666;" x="232.224615" xlink:href="#mb198551929" y="139.404603"/>
     <use style="fill:#666666;stroke:#666666;" x="233.363533" xlink:href="#mb198551929" y="166.606834"/>
     <use style="fill:#666666;stroke:#666666;" x="234.50245" xlink:href="#mb198551929" y="100.653796"/>
     <use style="fill:#666666;stroke:#666666;" x="235.641368" xlink:href="#mb198551929" y="120.736564"/>
     <use style="fill:#666666;stroke:#666666;" x="236.780285" xlink:href="#mb198551929" y="162.640032"/>
     <use style="fill:#666666;stroke:#666666;" x="237.919202" xlink:href="#mb198551929" y="224.778997"/>
     <use style="fill:#666666;stroke:#666666;" x="239.05812" xlink:href="#mb198551929" y="255.227414"/>
     <use style="fill:#666666;stroke:#666666;" x="240.197037" xlink:href="#mb198551929" y="248.237598"/>
     <use style="fill:#666666;stroke:#666666;" x="241.335954" xlink:href="#mb198551929" y="268.81557"/>
     <use style="fill:#666666;stroke:#666666;" x="242.474872" xlink:href="#mb198551929" y="260.139456"/>
     <use style="fill:#666666;stroke:#666666;" x="243.613789" xlink:href="#mb198551929" y="257.077545"/>
     <use style="fill:#666666;stroke:#666666;" x="244.752707" xlink:href="#mb198551929" y="254.759048"/>
     <use style="fill:#666666;stroke:#666666;" x="245.891624" xlink:href="#mb198551929" y="262.50757"/>
     <use style="fill:#666666;stroke:#666666;" x="247.030541" xlink:href="#mb198551929" y="252.585623"/>
     <use style="fill:#666666;stroke:#666666;" x="248.169459" xlink:href="#mb198551929" y="273.034344"/>
     <use style="fill:#666666;stroke:#666666;" x="249.308376" xlink:href="#mb198551929" y="273.394891"/>
     <use style="fill:#666666;stroke:#666666;" x="250.447293" xlink:href="#mb198551929" y="272.222326"/>
     <use style="fill:#666666;stroke:#666666;" x="251.586211" xlink:href="#mb198551929" y="264.082893"/>
     <use style="fill:#666666;stroke:#666666;" x="252.725128" xlink:href="#mb198551929" y="256.851802"/>
     <use style="fill:#666666;stroke:#666666;" x="253.864046" xlink:href="#mb198551929" y="247.236999"/>
     <use style="fill:#666666;stroke:#666666;" x="255.002963" xlink:href="#mb198551929" y="240.929422"/>
     <use style="fill:#666666;stroke:#666666;" x="256.14188" xlink:href="#mb198551929" y="206.886132"/>
     <use style="fill:#666666;stroke:#666666;" x="257.280798" xlink:href="#mb198551929" y="201.078341"/>
     <use style="fill:#666666;stroke:#666666;" x="258.419715" xlink:href="#mb198551929" y="213.453759"/>
     <use style="fill:#666666;stroke:#666666;" x="259.558632" xlink:href="#mb198551929" y="207.693557"/>
     <use style="fill:#666666;stroke:#666666;" x="260.69755" xlink:href="#mb198551929" y="235.831854"/>
     <use style="fill:#666666;stroke:#666666;" x="261.836467" xlink:href="#mb198551929" y="234.149102"/>
     <use style="fill:#666666;stroke:#666666;" x="262.975385" xlink:href="#mb198551929" y="235.545776"/>
     <use style="fill:#666666;stroke:#666666;" x="264.114302" xlink:href="#mb198551929" y="230.913166"/>
     <use style="fill:#666666;stroke:#666666;" x="265.253219" xlink:href="#mb198551929" y="247.549984"/>
     <use style="fill:#666666;stroke:#666666;" x="266.392137" xlink:href="#mb198551929" y="246.885365"/>
     <use style="fill:#666666;stroke:#666666;" x="267.531054" xlink:href="#mb198551929" y="256.697035"/>
     <use style="fill:#666666;stroke:#666666;" x="268.669972" xlink:href="#mb198551929" y="269.819463"/>
     <use style="fill:#666666;stroke:#666666;" x="269.808889" xlink:href="#mb198551929" y="264.341302"/>
     <use style="fill:#666666;stroke:#666666;" x="270.947806" xlink:href="#mb198551929" y="263.684844"/>
     <use style="fill:#666666;stroke:#666666;" x="272.086724" xlink:href="#mb198551929" y="269.454206"/>
     <use style="fill:#666666;stroke:#666666;" x="273.225641" xlink:href="#mb198551929" y="268.683362"/>
     <use style="fill:#666666;stroke:#666666;" x="274.364558" xlink:href="#mb198551929" y="268.811465"/>
     <use style="fill:#666666;stroke:#666666;" x="275.503476" xlink:href="#mb198551929" y="266.322102"/>
     <use style="fill:#666666;stroke:#666666;" x="276.642393" xlink:href="#mb198551929" y="251.863579"/>
     <use style="fill:#666666;stroke:#666666;" x="277.781311" xlink:href="#mb198551929" y="240.166439"/>
     <use style="fill:#666666;stroke:#666666;" x="278.920228" xlink:href="#mb198551929" y="234.861034"/>
     <use style="fill:#666666;stroke:#666666;" x="280.059145" xlink:href="#mb198551929" y="238.690198"/>
     <use style="fill:#666666;stroke:#666666;" x="281.198063" xlink:href="#mb198551929" y="241.651467"/>
     <use style="fill:#666666;stroke:#666666;" x="282.33698" xlink:href="#mb198551929" y="226.47923"/>
     <use style="fill:#666666;stroke:#666666;" x="283.475897" xlink:href="#mb198551929" y="99.768705"/>
     <use style="fill:#666666;stroke:#666666;" x="284.614815" xlink:href="#mb198551929" y="72.265767"/>
     <use style="fill:#666666;stroke:#666666;" x="285.753732" xlink:href="#mb198551929" y="193.31757"/>
     <use style="fill:#666666;stroke:#666666;" x="286.89265" xlink:href="#mb198551929" y="227.830933"/>
     <use style="fill:#666666;stroke:#666666;" x="288.031567" xlink:href="#mb198551929" y="242.30158"/>
     <use style="fill:#666666;stroke:#666666;" x="289.170484" xlink:href="#mb198551929" y="252.539584"/>
     <use style="fill:#666666;stroke:#666666;" x="290.309402" xlink:href="#mb198551929" y="258.277748"/>
     <use style="fill:#666666;stroke:#666666;" x="291.448319" xlink:href="#mb198551929" y="267.384985"/>
     <use style="fill:#666666;stroke:#666666;" x="292.587236" xlink:href="#mb198551929" y="269.481691"/>
     <use style="fill:#666666;stroke:#666666;" x="293.726154" xlink:href="#mb198551929" y="270.755346"/>
     <use style="fill:#666666;stroke:#666666;" x="294.865071" xlink:href="#mb198551929" y="263.936423"/>
     <use style="fill:#666666;stroke:#666666;" x="296.003989" xlink:href="#mb198551929" y="266.788422"/>
     <use style="fill:#666666;stroke:#666666;" x="297.142906" xlink:href="#mb198551929" y="257.236757"/>
     <use style="fill:#666666;stroke:#666666;" x="298.281823" xlink:href="#mb198551929" y="231.330401"/>
     <use style="fill:#666666;stroke:#666666;" x="299.420741" xlink:href="#mb198551929" y="247.659156"/>
     <use style="fill:#666666;stroke:#666666;" x="300.559658" xlink:href="#mb198551929" y="254.259504"/>
     <use style="fill:#666666;stroke:#666666;" x="301.698575" xlink:href="#mb198551929" y="242.059595"/>
     <use style="fill:#666666;stroke:#666666;" x="302.837493" xlink:href="#mb198551929" y="244.569699"/>
     <use style="fill:#666666;stroke:#666666;" x="303.97641" xlink:href="#mb198551929" y="233.471252"/>
     <use style="fill:#666666;stroke:#666666;" x="305.115328" xlink:href="#mb198551929" y="201.305304"/>
     <use style="fill:#666666;stroke:#666666;" x="306.254245" xlink:href="#mb198551929" y="163.285943"/>
     <use style="fill:#666666;stroke:#666666;" x="307.393162" xlink:href="#mb198551929" y="171.915268"/>
     <use style="fill:#666666;stroke:#666666;" x="308.53208" xlink:href="#mb198551929" y="94.712251"/>
     <use style="fill:#666666;stroke:#666666;" x="309.670997" xlink:href="#mb198551929" y="137.474743"/>
     <use style="fill:#666666;stroke:#666666;" x="310.809915" xlink:href="#mb198551929" y="194.272506"/>
     <use style="fill:#666666;stroke:#666666;" x="311.948832" xlink:href="#mb198551929" y="214.776879"/>
     <use style="fill:#666666;stroke:#666666;" x="313.087749" xlink:href="#mb198551929" y="225.062945"/>
     <use style="fill:#666666;stroke:#666666;" x="314.226667" xlink:href="#mb198551929" y="210.907864"/>
     <use style="fill:#666666;stroke:#666666;" x="315.365584" xlink:href="#mb198551929" y="190.56341"/>
     <use style="fill:#666666;stroke:#666666;" x="316.504501" xlink:href="#mb198551929" y="211.234348"/>
     <use style="fill:#666666;stroke:#666666;" x="317.643419" xlink:href="#mb198551929" y="260.96643"/>
     <use style="fill:#666666;stroke:#666666;" x="318.782336" xlink:href="#mb198551929" y="263.769507"/>
     <use style="fill:#666666;stroke:#666666;" x="319.921254" xlink:href="#mb198551929" y="266.12808"/>
     <use style="fill:#666666;stroke:#666666;" x="321.060171" xlink:href="#mb198551929" y="261.869678"/>
     <use style="fill:#666666;stroke:#666666;" x="322.199088" xlink:href="#mb198551929" y="253.37567"/>
     <use style="fill:#666666;stroke:#666666;" x="323.338006" xlink:href="#mb198551929" y="241.368393"/>
     <use style="fill:#666666;stroke:#666666;" x="324.476923" xlink:href="#mb198551929" y="218.18765"/>
     <use style="fill:#666666;stroke:#666666;" x="325.61584" xlink:href="#mb198551929" y="200.938773"/>
     <use style="fill:#666666;stroke:#666666;" x="326.754758" xlink:href="#mb198551929" y="223.001603"/>
     <use style="fill:#666666;stroke:#666666;" x="327.893675" xlink:href="#mb198551929" y="228.489163"/>
     <use style="fill:#666666;stroke:#666666;" x="329.032593" xlink:href="#mb198551929" y="242.069248"/>
     <use style="fill:#666666;stroke:#666666;" x="330.17151" xlink:href="#mb198551929" y="228.508661"/>
     <use style="fill:#666666;stroke:#666666;" x="331.310427" xlink:href="#mb198551929" y="236.000744"/>
     <use style="fill:#666666;stroke:#666666;" x="332.449345" xlink:href="#mb198551929" y="233.591061"/>
     <use style="fill:#666666;stroke:#666666;" x="333.588262" xlink:href="#mb198551929" y="244.417743"/>
     <use style="fill:#666666;stroke:#666666;" x="334.727179" xlink:href="#mb198551929" y="270.254033"/>
     <use style="fill:#666666;stroke:#666666;" x="335.866097" xlink:href="#mb198551929" y="256.210195"/>
     <use style="fill:#666666;stroke:#666666;" x="337.005014" xlink:href="#mb198551929" y="267.155743"/>
     <use style="fill:#666666;stroke:#666666;" x="338.143932" xlink:href="#mb198551929" y="271.163902"/>
     <use style="fill:#666666;stroke:#666666;" x="339.282849" xlink:href="#mb198551929" y="270.106951"/>
     <use style="fill:#666666;stroke:#666666;" x="340.421766" xlink:href="#mb198551929" y="252.275723"/>
     <use style="fill:#666666;stroke:#666666;" x="341.560684" xlink:href="#mb198551929" y="247.398983"/>
     <use style="fill:#666666;stroke:#666666;" x="342.699601" xlink:href="#mb198551929" y="239.821437"/>
     <use style="fill:#666666;stroke:#666666;" x="343.838519" xlink:href="#mb198551929" y="226.061247"/>
     <use style="fill:#666666;stroke:#666666;" x="344.977436" xlink:href="#mb198551929" y="180.220022"/>
     <use style="fill:#666666;stroke:#666666;" x="346.116353" xlink:href="#mb198551929" y="98.863741"/>
     <use style="fill:#666666;stroke:#666666;" x="347.255271" xlink:href="#mb198551929" y="82.977968"/>
     <use style="fill:#666666;stroke:#666666;" x="348.394188" xlink:href="#mb198551929" y="169.422609"/>
     <use style="fill:#666666;stroke:#666666;" x="349.533105" xlink:href="#mb198551929" y="214.664081"/>
     <use style="fill:#666666;stroke:#666666;" x="350.672023" xlink:href="#mb198551929" y="237.364041"/>
     <use style="fill:#666666;stroke:#666666;" x="351.81094" xlink:href="#mb198551929" y="256.113258"/>
     <use style="fill:#666666;stroke:#666666;" x="352.949858" xlink:href="#mb198551929" y="258.210956"/>
     <use style="fill:#666666;stroke:#666666;" x="354.088775" xlink:href="#mb198551929" y="247.969693"/>
     <use style="fill:#666666;stroke:#666666;" x="355.227692" xlink:href="#mb198551929" y="269.40844"/>
     <use style="fill:#666666;stroke:#666666;" x="356.36661" xlink:href="#mb198551929" y="256.452546"/>
     <use style="fill:#666666;stroke:#666666;" x="357.505527" xlink:href="#mb198551929" y="249.920858"/>
     <use style="fill:#666666;stroke:#666666;" x="358.644444" xlink:href="#mb198551929" y="248.41708"/>
     <use style="fill:#666666;stroke:#666666;" x="359.783362" xlink:href="#mb198551929" y="264.532533"/>
     <use style="fill:#666666;stroke:#666666;" x="360.922279" xlink:href="#mb198551929" y="254.050897"/>
     <use style="fill:#666666;stroke:#666666;" x="362.061197" xlink:href="#mb198551929" y="246.967683"/>
     <use style="fill:#666666;stroke:#666666;" x="363.200114" xlink:href="#mb198551929" y="232.293518"/>
     <use style="fill:#666666;stroke:#666666;" x="364.339031" xlink:href="#mb198551929" y="242.46028"/>
     <use style="fill:#666666;stroke:#666666;" x="365.477949" xlink:href="#mb198551929" y="214.44115"/>
     <use style="fill:#666666;stroke:#666666;" x="366.616866" xlink:href="#mb198551929" y="124.236297"/>
     <use style="fill:#666666;stroke:#666666;" x="367.755783" xlink:href="#mb198551929" y="115.81691"/>
     <use style="fill:#666666;stroke:#666666;" x="368.894701" xlink:href="#mb198551929" y="198.130162"/>
     <use style="fill:#666666;stroke:#666666;" x="370.033618" xlink:href="#mb198551929" y="109.243777"/>
     <use style="fill:#666666;stroke:#666666;" x="371.172536" xlink:href="#mb198551929" y="58.555124"/>
     <use style="fill:#666666;stroke:#666666;" x="372.311453" xlink:href="#mb198551929" y="47.28203"/>
     <use style="fill:#666666;stroke:#666666;" x="373.45037" xlink:href="#mb198551929" y="103.473308"/>
     <use style="fill:#666666;stroke:#666666;" x="374.589288" xlink:href="#mb198551929" y="156.108728"/>
     <use style="fill:#666666;stroke:#666666;" x="375.728205" xlink:href="#mb198551929" y="150.114181"/>
     <use style="fill:#666666;stroke:#666666;" x="376.867123" xlink:href="#mb198551929" y="142.807592"/>
     <use style="fill:#666666;stroke:#666666;" x="378.00604" xlink:href="#mb198551929" y="154.324935"/>
     <use style="fill:#666666;stroke:#666666;" x="379.144957" xlink:href="#mb198551929" y="137.309513"/>
     <use style="fill:#666666;stroke:#666666;" x="380.283875" xlink:href="#mb198551929" y="133.97474"/>
     <use style="fill:#666666;stroke:#666666;" x="381.422792" xlink:href="#mb198551929" y="26.227167"/>
     <use style="fill:#666666;stroke:#666666;" x="382.561709" xlink:href="#mb198551929" y="43.138796"/>
     <use style="fill:#666666;stroke:#666666;" x="383.700627" xlink:href="#mb198551929" y="197.291694"/>
     <use style="fill:#666666;stroke:#666666;" x="384.839544" xlink:href="#mb198551929" y="204.395687"/>
     <use style="fill:#666666;stroke:#666666;" x="385.978462" xlink:href="#mb198551929" y="171.78693"/>
     <use style="fill:#666666;stroke:#666666;" x="387.117379" xlink:href="#mb198551929" y="185.883949"/>
     <use style="fill:#666666;stroke:#666666;" x="388.256296" xlink:href="#mb198551929" y="196.567101"/>
     <use style="fill:#666666;stroke:#666666;" x="389.395214" xlink:href="#mb198551929" y="186.077036"/>
     <use style="fill:#666666;stroke:#666666;" x="390.534131" xlink:href="#mb198551929" y="181.103768"/>
     <use style="fill:#666666;stroke:#666666;" x="391.673048" xlink:href="#mb198551929" y="203.556085"/>
     <use style="fill:#666666;stroke:#666666;" x="392.811966" xlink:href="#mb198551929" y="224.559856"/>
     <use style="fill:#666666;stroke:#666666;" x="393.950883" xlink:href="#mb198551929" y="221.786581"/>
     <use style="fill:#666666;stroke:#666666;" x="395.089801" xlink:href="#mb198551929" y="214.193099"/>
     <use style="fill:#666666;stroke:#666666;" x="396.228718" xlink:href="#mb198551929" y="217.441572"/>
     <use style="fill:#666666;stroke:#666666;" x="397.367635" xlink:href="#mb198551929" y="175.338234"/>
     <use style="fill:#666666;stroke:#666666;" x="398.506553" xlink:href="#mb198551929" y="109.976239"/>
     <use style="fill:#666666;stroke:#666666;" x="399.64547" xlink:href="#mb198551929" y="45.805092"/>
     <use style="fill:#666666;stroke:#666666;" x="400.784387" xlink:href="#mb198551929" y="25.792273"/>
     <use style="fill:#666666;stroke:#666666;" x="401.923305" xlink:href="#mb198551929" y="81.393739"/>
     <use style="fill:#666666;stroke:#666666;" x="403.062222" xlink:href="#mb198551929" y="154.627095"/>
     <use style="fill:#666666;stroke:#666666;" x="404.20114" xlink:href="#mb198551929" y="218.214585"/>
     <use style="fill:#666666;stroke:#666666;" x="405.340057" xlink:href="#mb198551929" y="224.065753"/>
     <use style="fill:#666666;stroke:#666666;" x="406.478974" xlink:href="#mb198551929" y="239.526857"/>
     <use style="fill:#666666;stroke:#666666;" x="407.617892" xlink:href="#mb198551929" y="250.287854"/>
     <use style="fill:#666666;stroke:#666666;" x="408.756809" xlink:href="#mb198551929" y="245.121333"/>
     <use style="fill:#666666;stroke:#666666;" x="409.895726" xlink:href="#mb198551929" y="253.646987"/>
     <use style="fill:#666666;stroke:#666666;" x="411.034644" xlink:href="#mb198551929" y="248.845699"/>
     <use style="fill:#666666;stroke:#666666;" x="412.173561" xlink:href="#mb198551929" y="253.729705"/>
     <use style="fill:#666666;stroke:#666666;" x="413.312479" xlink:href="#mb198551929" y="243.620237"/>
     <use style="fill:#666666;stroke:#666666;" x="414.451396" xlink:href="#mb198551929" y="214.972665"/>
     <use style="fill:#666666;stroke:#666666;" x="415.590313" xlink:href="#mb198551929" y="236.051229"/>
     <use style="fill:#666666;stroke:#666666;" x="416.729231" xlink:href="#mb198551929" y="255.695834"/>
     <use style="fill:#666666;stroke:#666666;" x="417.868148" xlink:href="#mb198551929" y="255.56785"/>
     <use style="fill:#666666;stroke:#666666;" x="419.007066" xlink:href="#mb198551929" y="247.125056"/>
     <use style="fill:#666666;stroke:#666666;" x="420.145983" xlink:href="#mb198551929" y="242.007066"/>
     <use style="fill:#666666;stroke:#666666;" x="421.2849" xlink:href="#mb198551929" y="218.746981"/>
     <use style="fill:#666666;stroke:#666666;" x="422.423818" xlink:href="#mb198551929" y="100.931695"/>
     <use style="fill:#666666;stroke:#666666;" x="423.562735" xlink:href="#mb198551929" y="94.078585"/>
     <use style="fill:#666666;stroke:#666666;" x="424.701652" xlink:href="#mb198551929" y="85.22658"/>
     <use style="fill:#666666;stroke:#666666;" x="425.84057" xlink:href="#mb198551929" y="115.56123"/>
     <use style="fill:#666666;stroke:#666666;" x="426.979487" xlink:href="#mb198551929" y="200.508976"/>
     <use style="fill:#666666;stroke:#666666;" x="428.118405" xlink:href="#mb198551929" y="227.329612"/>
     <use style="fill:#666666;stroke:#666666;" x="429.257322" xlink:href="#mb198551929" y="240.225804"/>
     <use style="fill:#666666;stroke:#666666;" x="430.396239" xlink:href="#mb198551929" y="232.644676"/>
     <use style="fill:#666666;stroke:#666666;" x="431.535157" xlink:href="#mb198551929" y="196.748767"/>
     <use style="fill:#666666;stroke:#666666;" x="432.674074" xlink:href="#mb198551929" y="203.704303"/>
     <use style="fill:#666666;stroke:#666666;" x="433.812991" xlink:href="#mb198551929" y="222.262879"/>
     <use style="fill:#666666;stroke:#666666;" x="434.951909" xlink:href="#mb198551929" y="250.536293"/>
     <use style="fill:#666666;stroke:#666666;" x="436.090826" xlink:href="#mb198551929" y="267.677654"/>
     <use style="fill:#666666;stroke:#666666;" x="437.229744" xlink:href="#mb198551929" y="269.89212"/>
     <use style="fill:#666666;stroke:#666666;" x="438.368661" xlink:href="#mb198551929" y="269.649831"/>
     <use style="fill:#666666;stroke:#666666;" x="439.507578" xlink:href="#mb198551929" y="256.929412"/>
     <use style="fill:#666666;stroke:#666666;" x="440.646496" xlink:href="#mb198551929" y="262.53245"/>
     <use style="fill:#666666;stroke:#666666;" x="441.785413" xlink:href="#mb198551929" y="258.771405"/>
     <use style="fill:#666666;stroke:#666666;" x="442.92433" xlink:href="#mb198551929" y="264.873979"/>
     <use style="fill:#666666;stroke:#666666;" x="444.063248" xlink:href="#mb198551929" y="248.58505"/>
     <use style="fill:#666666;stroke:#666666;" x="445.202165" xlink:href="#mb198551929" y="213.480668"/>
     <use style="fill:#666666;stroke:#666666;" x="446.341083" xlink:href="#mb198551929" y="158.37423"/>
     <use style="fill:#666666;stroke:#666666;" x="447.48" xlink:href="#mb198551929" y="62.69636"/>
    </g>
   </g>
   <g id="patch_3">
    <path d="M 47.72 287.71 
L 47.72 13.32 
" style="fill:none;stroke:#000000;stroke-linecap:square;stroke-linejoin:miter;stroke-width:0.8;"/>
   </g>
   <g id="patch_4">
    <path d="M 447.48 287.71 
L 447.48 13.32 
" style="fill:none;stroke:#000000;stroke-linecap:square;stroke-linejoin:miter;stroke-width:0.8;"/>
   </g>
   <g id="patch_5">
    <path d="M 47.72 287.71 
L 447.48 287.71 
" style="fill:none;stroke:#000000;stroke-linecap:square;stroke-linejoin:miter;stroke-width:0.8;"/>
   </g>
   <g id="patch_6">
    <path d="M 47.72 13.32 
L 447.48 13.32 
" style="fill:none;stroke:#000000;stroke-linecap:square;stroke-linejoin:miter;stroke-width:0.8;"/>
   </g>
  </g>
 </g>
 <defs>
  <clipPath id="pe098c7d07a">
   <rect height="274.39" width="399.76" x="47.72" y="13.32"/>
  </clipPath>
 </defs>
</svg>
