<?xml version="1.0" encoding="utf-8" standalone="no"?>
<!DOCTYPE svg PUBLIC "-//W3C//DTD SVG 1.1//EN"
  "http://www.w3.org/Graphics/SVG/1.1/DTD/svg11.dtd">
<!-- Created with matplotlib (http://matplotlib.org/) -->
<svg height="345.6pt" version="1.1" viewBox="0 0 460.8 345.6" width="460.8pt" xmlns="http://www.w3.org/2000/svg" xmlns:xlink="http://www.w3.org/1999/xlink">
 <defs>
  <style type="text/css">
*{stroke-linecap:butt;stroke-linejoin:round;}
  </style>
 </defs>
 <g id="figure_1">
  <g id="patch_1">
   <path d="M 0 345.6 
L 460.8 345.6 
L 460.8 0 
L 0 0 
z
" style="fill:#ffffff;"/>
  </g>
  <g id="axes_1">
   <g id="patch_2">
    <path d="M 57.6 307.584 
L 414.72 307.584 
L 414.72 41.472 
L 57.6 41.472 
z
" style="fill:#ffffff;"/>
   </g>
   <g id="matplotlib.axis_1">
    <g id="xtick_1">
     <g id="line2d_1">
      <defs>
       <path d="M 0 0 
L 0 3.5 
" id="m597e857d2e" style="stroke:#000000;stroke-width:0.8;"/>
      </defs>
      <g>
       <use style="stroke:#000000;stroke-width:0.8;" x="73.832727" xlink:href="#m597e857d2e" y="307.584"/>
      </g>
     </g>
     <g id="text_1">
      <!-- 0 -->
      <defs>
       <path d="M 31.78125 66.40625 
Q 24.171875 66.40625 20.328125 58.90625 
Q 16.5 51.421875 16.5 36.375 
Q 16.5 21.390625 20.328125 13.890625 
Q 24.171875 6.390625 31.78125 6.390625 
Q 39.453125 6.390625 43.28125 13.890625 
Q 47.125 21.390625 47.125 36.375 
Q 47.125 51.421875 43.28125 58.90625 
Q 39.453125 66.40625 31.78125 66.40625 
z
M 31.78125 74.21875 
Q 44.046875 74.21875 50.515625 64.515625 
Q 56.984375 54.828125 56.984375 36.375 
Q 56.984375 17.96875 50.515625 8.265625 
Q 44.046875 -1.421875 31.78125 -1.421875 
Q 19.53125 -1.421875 13.0625 8.265625 
Q 6.59375 17.96875 6.59375 36.375 
Q 6.59375 54.828125 13.0625 64.515625 
Q 19.53125 74.21875 31.78125 74.21875 
z
" id="DejaVuSans-30"/>
      </defs>
      <g transform="translate(70.651477 322.182437)scale(0.1 -0.1)">
       <use xlink:href="#DejaVuSans-30"/>
      </g>
     </g>
    </g>
    <g id="xtick_2">
     <g id="line2d_2">
      <g>
       <use style="stroke:#000000;stroke-width:0.8;" x="128.122785" xlink:href="#m597e857d2e" y="307.584"/>
      </g>
     </g>
     <g id="text_2">
      <!-- 50 -->
      <defs>
       <path d="M 10.796875 72.90625 
L 49.515625 72.90625 
L 49.515625 64.59375 
L 19.828125 64.59375 
L 19.828125 46.734375 
Q 21.96875 47.46875 24.109375 47.828125 
Q 26.265625 48.1875 28.421875 48.1875 
Q 40.625 48.1875 47.75 41.5 
Q 54.890625 34.8125 54.890625 23.390625 
Q 54.890625 11.625 47.5625 5.09375 
Q 40.234375 -1.421875 26.90625 -1.421875 
Q 22.3125 -1.421875 17.546875 -0.640625 
Q 12.796875 0.140625 7.71875 1.703125 
L 7.71875 11.625 
Q 12.109375 9.234375 16.796875 8.0625 
Q 21.484375 6.890625 26.703125 6.890625 
Q 35.15625 6.890625 40.078125 11.328125 
Q 45.015625 15.765625 45.015625 23.390625 
Q 45.015625 31 40.078125 35.4375 
Q 35.15625 39.890625 26.703125 39.890625 
Q 22.75 39.890625 18.8125 39.015625 
Q 14.890625 38.140625 10.796875 36.28125 
z
" id="DejaVuSans-35"/>
      </defs>
      <g transform="translate(121.760285 322.182437)scale(0.1 -0.1)">
       <use xlink:href="#DejaVuSans-35"/>
       <use x="63.623047" xlink:href="#DejaVuSans-30"/>
      </g>
     </g>
    </g>
    <g id="xtick_3">
     <g id="line2d_3">
      <g>
       <use style="stroke:#000000;stroke-width:0.8;" x="182.412843" xlink:href="#m597e857d2e" y="307.584"/>
      </g>
     </g>
     <g id="text_3">
      <!-- 100 -->
      <defs>
       <path d="M 12.40625 8.296875 
L 28.515625 8.296875 
L 28.515625 63.921875 
L 10.984375 60.40625 
L 10.984375 69.390625 
L 28.421875 72.90625 
L 38.28125 72.90625 
L 38.28125 8.296875 
L 54.390625 8.296875 
L 54.390625 0 
L 12.40625 0 
z
" id="DejaVuSans-31"/>
      </defs>
      <g transform="translate(172.869093 322.182437)scale(0.1 -0.1)">
       <use xlink:href="#DejaVuSans-31"/>
       <use x="63.623047" xlink:href="#DejaVuSans-30"/>
       <use x="127.246094" xlink:href="#DejaVuSans-30"/>
      </g>
     </g>
    </g>
    <g id="xtick_4">
     <g id="line2d_4">
      <g>
       <use style="stroke:#000000;stroke-width:0.8;" x="236.702901" xlink:href="#m597e857d2e" y="307.584"/>
      </g>
     </g>
     <g id="text_4">
      <!-- 150 -->
      <g transform="translate(227.159151 322.182437)scale(0.1 -0.1)">
       <use xlink:href="#DejaVuSans-31"/>
       <use x="63.623047" xlink:href="#DejaVuSans-35"/>
       <use x="127.246094" xlink:href="#DejaVuSans-30"/>
      </g>
     </g>
    </g>
    <g id="xtick_5">
     <g id="line2d_5">
      <g>
       <use style="stroke:#000000;stroke-width:0.8;" x="290.992958" xlink:href="#m597e857d2e" y="307.584"/>
      </g>
     </g>
     <g id="text_5">
      <!-- 200 -->
      <defs>
       <path d="M 19.1875 8.296875 
L 53.609375 8.296875 
L 53.609375 0 
L 7.328125 0 
L 7.328125 8.296875 
Q 12.9375 14.109375 22.625 23.890625 
Q 32.328125 33.6875 34.8125 36.53125 
Q 39.546875 41.84375 41.421875 45.53125 
Q 43.3125 49.21875 43.3125 52.78125 
Q 43.3125 58.59375 39.234375 62.25 
Q 35.15625 65.921875 28.609375 65.921875 
Q 23.96875 65.921875 18.8125 64.3125 
Q 13.671875 62.703125 7.8125 59.421875 
L 7.8125 69.390625 
Q 13.765625 71.78125 18.9375 73 
Q 24.125 74.21875 28.421875 74.21875 
Q 39.75 74.21875 46.484375 68.546875 
Q 53.21875 62.890625 53.21875 53.421875 
Q 53.21875 48.921875 51.53125 44.890625 
Q 49.859375 40.875 45.40625 35.40625 
Q 44.1875 33.984375 37.640625 27.21875 
Q 31.109375 20.453125 19.1875 8.296875 
z
" id="DejaVuSans-32"/>
      </defs>
      <g transform="translate(281.449208 322.182437)scale(0.1 -0.1)">
       <use xlink:href="#DejaVuSans-32"/>
       <use x="63.623047" xlink:href="#DejaVuSans-30"/>
       <use x="127.246094" xlink:href="#DejaVuSans-30"/>
      </g>
     </g>
    </g>
    <g id="xtick_6">
     <g id="line2d_6">
      <g>
       <use style="stroke:#000000;stroke-width:0.8;" x="345.283016" xlink:href="#m597e857d2e" y="307.584"/>
      </g>
     </g>
     <g id="text_6">
      <!-- 250 -->
      <g transform="translate(335.739266 322.182437)scale(0.1 -0.1)">
       <use xlink:href="#DejaVuSans-32"/>
       <use x="63.623047" xlink:href="#DejaVuSans-35"/>
       <use x="127.246094" xlink:href="#DejaVuSans-30"/>
      </g>
     </g>
    </g>
    <g id="xtick_7">
     <g id="line2d_7">
      <g>
       <use style="stroke:#000000;stroke-width:0.8;" x="399.573074" xlink:href="#m597e857d2e" y="307.584"/>
      </g>
     </g>
    </g>
    <g id="text_7">
     <!-- Frame index -->
     <defs>
      <path d="M 9.8125 72.90625 
L 51.703125 72.90625 
L 51.703125 64.59375 
L 19.671875 64.59375 
L 19.671875 43.109375 
L 48.578125 43.109375 
L 48.578125 34.8125 
L 19.671875 34.8125 
L 19.671875 0 
L 9.8125 0 
z
" id="DejaVuSans-46"/>
      <path d="M 41.109375 46.296875 
Q 39.59375 47.171875 37.8125 47.578125 
Q 36.03125 48 33.890625 48 
Q 26.265625 48 22.1875 43.046875 
Q 18.109375 38.09375 18.109375 28.8125 
L 18.109375 0 
L 9.078125 0 
L 9.078125 54.6875 
L 18.109375 54.6875 
L 18.109375 46.1875 
Q 20.953125 51.171875 25.484375 53.578125 
Q 30.03125 56 36.53125 56 
Q 37.453125 56 38.578125 55.875 
Q 39.703125 55.765625 41.0625 55.515625 
z
" id="DejaVuSans-72"/>
      <path d="M 34.28125 27.484375 
Q 23.390625 27.484375 19.1875 25 
Q 14.984375 22.515625 14.984375 16.5 
Q 14.984375 11.71875 18.140625 8.90625 
Q 21.296875 6.109375 26.703125 6.109375 
Q 34.1875 6.109375 38.703125 11.40625 
Q 43.21875 16.703125 43.21875 25.484375 
L 43.21875 27.484375 
z
M 52.203125 31.203125 
L 52.203125 0 
L 43.21875 0 
L 43.21875 8.296875 
Q 40.140625 3.328125 35.546875 0.953125 
Q 30.953125 -1.421875 24.3125 -1.421875 
Q 15.921875 -1.421875 10.953125 3.296875 
Q 6 8.015625 6 15.921875 
Q 6 25.140625 12.171875 29.828125 
Q 18.359375 34.515625 30.609375 34.515625 
L 43.21875 34.515625 
L 43.21875 35.40625 
Q 43.21875 41.609375 39.140625 45 
Q 35.0625 48.390625 27.6875 48.390625 
Q 23 48.390625 18.546875 47.265625 
Q 14.109375 46.140625 10.015625 43.890625 
L 10.015625 52.203125 
Q 14.9375 54.109375 19.578125 55.046875 
Q 24.21875 56 28.609375 56 
Q 40.484375 56 46.34375 49.84375 
Q 52.203125 43.703125 52.203125 31.203125 
z
" id="DejaVuSans-61"/>
      <path d="M 52 44.1875 
Q 55.375 50.25 60.0625 53.125 
Q 64.75 56 71.09375 56 
Q 79.640625 56 84.28125 50.015625 
Q 88.921875 44.046875 88.921875 33.015625 
L 88.921875 0 
L 79.890625 0 
L 79.890625 32.71875 
Q 79.890625 40.578125 77.09375 44.375 
Q 74.3125 48.1875 68.609375 48.1875 
Q 61.625 48.1875 57.5625 43.546875 
Q 53.515625 38.921875 53.515625 30.90625 
L 53.515625 0 
L 44.484375 0 
L 44.484375 32.71875 
Q 44.484375 40.625 41.703125 44.40625 
Q 38.921875 48.1875 33.109375 48.1875 
Q 26.21875 48.1875 22.15625 43.53125 
Q 18.109375 38.875 18.109375 30.90625 
L 18.109375 0 
L 9.078125 0 
L 9.078125 54.6875 
L 18.109375 54.6875 
L 18.109375 46.1875 
Q 21.1875 51.21875 25.484375 53.609375 
Q 29.78125 56 35.6875 56 
Q 41.65625 56 45.828125 52.96875 
Q 50 49.953125 52 44.1875 
z
" id="DejaVuSans-6d"/>
      <path d="M 56.203125 29.59375 
L 56.203125 25.203125 
L 14.890625 25.203125 
Q 15.484375 15.921875 20.484375 11.0625 
Q 25.484375 6.203125 34.421875 6.203125 
Q 39.59375 6.203125 44.453125 7.46875 
Q 49.3125 8.734375 54.109375 11.28125 
L 54.109375 2.78125 
Q 49.265625 0.734375 44.1875 -0.34375 
Q 39.109375 -1.421875 33.890625 -1.421875 
Q 20.796875 -1.421875 13.15625 6.1875 
Q 5.515625 13.8125 5.515625 26.8125 
Q 5.515625 40.234375 12.765625 48.109375 
Q 20.015625 56 32.328125 56 
Q 43.359375 56 49.78125 48.890625 
Q 56.203125 41.796875 56.203125 29.59375 
z
M 47.21875 32.234375 
Q 47.125 39.59375 43.09375 43.984375 
Q 39.0625 48.390625 32.421875 48.390625 
Q 24.90625 48.390625 20.390625 44.140625 
Q 15.875 39.890625 15.1875 32.171875 
z
" id="DejaVuSans-65"/>
      <path id="DejaVuSans-20"/>
      <path d="M 9.421875 54.6875 
L 18.40625 54.6875 
L 18.40625 0 
L 9.421875 0 
z
M 9.421875 75.984375 
L 18.40625 75.984375 
L 18.40625 64.59375 
L 9.421875 64.59375 
z
" id="DejaVuSans-69"/>
      <path d="M 54.890625 33.015625 
L 54.890625 0 
L 45.90625 0 
L 45.90625 32.71875 
Q 45.90625 40.484375 42.875 44.328125 
Q 39.84375 48.1875 33.796875 48.1875 
Q 26.515625 48.1875 22.3125 43.546875 
Q 18.109375 38.921875 18.109375 30.90625 
L 18.109375 0 
L 9.078125 0 
L 9.078125 54.6875 
L 18.109375 54.6875 
L 18.109375 46.1875 
Q 21.34375 51.125 25.703125 53.5625 
Q 30.078125 56 35.796875 56 
Q 45.21875 56 50.046875 50.171875 
Q 54.890625 44.34375 54.890625 33.015625 
z
" id="DejaVuSans-6e"/>
      <path d="M 45.40625 46.390625 
L 45.40625 75.984375 
L 54.390625 75.984375 
L 54.390625 0 
L 45.40625 0 
L 45.40625 8.203125 
Q 42.578125 3.328125 38.25 0.953125 
Q 33.9375 -1.421875 27.875 -1.421875 
Q 17.96875 -1.421875 11.734375 6.484375 
Q 5.515625 14.40625 5.515625 27.296875 
Q 5.515625 40.1875 11.734375 48.09375 
Q 17.96875 56 27.875 56 
Q 33.9375 56 38.25 53.625 
Q 42.578125 51.265625 45.40625 46.390625 
z
M 14.796875 27.296875 
Q 14.796875 17.390625 18.875 11.75 
Q 22.953125 6.109375 30.078125 6.109375 
Q 37.203125 6.109375 41.296875 11.75 
Q 45.40625 17.390625 45.40625 27.296875 
Q 45.40625 37.203125 41.296875 42.84375 
Q 37.203125 48.484375 30.078125 48.484375 
Q 22.953125 48.484375 18.875 42.84375 
Q 14.796875 37.203125 14.796875 27.296875 
z
" id="DejaVuSans-64"/>
      <path d="M 54.890625 54.6875 
L 35.109375 28.078125 
L 55.90625 0 
L 45.3125 0 
L 29.390625 21.484375 
L 13.484375 0 
L 2.875 0 
L 24.125 28.609375 
L 4.6875 54.6875 
L 15.28125 54.6875 
L 29.78125 35.203125 
L 44.28125 54.6875 
z
" id="DejaVuSans-78"/>
     </defs>
     <g transform="translate(204.867031 335.860562)scale(0.1 -0.1)">
      <use xlink:href="#DejaVuSans-46"/>
      <use x="57.410156" xlink:href="#DejaVuSans-72"/>
      <use x="98.523438" xlink:href="#DejaVuSans-61"/>
      <use x="159.802734" xlink:href="#DejaVuSans-6d"/>
      <use x="257.214844" xlink:href="#DejaVuSans-65"/>
      <use x="318.738281" xlink:href="#DejaVuSans-20"/>
      <use x="350.525391" xlink:href="#DejaVuSans-69"/>
      <use x="378.308594" xlink:href="#DejaVuSans-6e"/>
      <use x="441.6875" xlink:href="#DejaVuSans-64"/>
      <use x="505.164062" xlink:href="#DejaVuSans-65"/>
      <use x="566.671875" xlink:href="#DejaVuSans-78"/>
     </g>
    </g>
   </g>
   <g id="matplotlib.axis_2">
    <g id="ytick_1">
     <g id="line2d_8">
      <defs>
       <path d="M 0 0 
L -3.5 0 
" id="mb3faa7f8ee" style="stroke:#000000;stroke-width:0.8;"/>
      </defs>
      <g>
       <use style="stroke:#000000;stroke-width:0.8;" x="57.6" xlink:href="#mb3faa7f8ee" y="306.344904"/>
      </g>
     </g>
     <g id="text_8">
      <!-- 1.75 -->
      <defs>
       <path d="M 10.6875 12.40625 
L 21 12.40625 
L 21 0 
L 10.6875 0 
z
" id="DejaVuSans-2e"/>
       <path d="M 8.203125 72.90625 
L 55.078125 72.90625 
L 55.078125 68.703125 
L 28.609375 0 
L 18.3125 0 
L 43.21875 64.59375 
L 8.203125 64.59375 
z
" id="DejaVuSans-37"/>
      </defs>
      <g transform="translate(28.334375 310.144123)scale(0.1 -0.1)">
       <use xlink:href="#DejaVuSans-31"/>
       <use x="63.623047" xlink:href="#DejaVuSans-2e"/>
       <use x="95.410156" xlink:href="#DejaVuSans-37"/>
       <use x="159.033203" xlink:href="#DejaVuSans-35"/>
      </g>
     </g>
    </g>
    <g id="ytick_2">
     <g id="line2d_9">
      <g>
       <use style="stroke:#000000;stroke-width:0.8;" x="57.6" xlink:href="#mb3faa7f8ee" y="270.548252"/>
      </g>
     </g>
     <g id="text_9">
      <!-- 2.00 -->
      <g transform="translate(28.334375 274.347471)scale(0.1 -0.1)">
       <use xlink:href="#DejaVuSans-32"/>
       <use x="63.623047" xlink:href="#DejaVuSans-2e"/>
       <use x="95.410156" xlink:href="#DejaVuSans-30"/>
       <use x="159.033203" xlink:href="#DejaVuSans-30"/>
      </g>
     </g>
    </g>
    <g id="ytick_3">
     <g id="line2d_10">
      <g>
       <use style="stroke:#000000;stroke-width:0.8;" x="57.6" xlink:href="#mb3faa7f8ee" y="234.7516"/>
      </g>
     </g>
     <g id="text_10">
      <!-- 2.25 -->
      <g transform="translate(28.334375 238.550819)scale(0.1 -0.1)">
       <use xlink:href="#DejaVuSans-32"/>
       <use x="63.623047" xlink:href="#DejaVuSans-2e"/>
       <use x="95.410156" xlink:href="#DejaVuSans-32"/>
       <use x="159.033203" xlink:href="#DejaVuSans-35"/>
      </g>
     </g>
    </g>
    <g id="ytick_4">
     <g id="line2d_11">
      <g>
       <use style="stroke:#000000;stroke-width:0.8;" x="57.6" xlink:href="#mb3faa7f8ee" y="198.954948"/>
      </g>
     </g>
     <g id="text_11">
      <!-- 2.50 -->
      <g transform="translate(28.334375 202.754166)scale(0.1 -0.1)">
       <use xlink:href="#DejaVuSans-32"/>
       <use x="63.623047" xlink:href="#DejaVuSans-2e"/>
       <use x="95.410156" xlink:href="#DejaVuSans-35"/>
       <use x="159.033203" xlink:href="#DejaVuSans-30"/>
      </g>
     </g>
    </g>
    <g id="ytick_5">
     <g id="line2d_12">
      <g>
       <use style="stroke:#000000;stroke-width:0.8;" x="57.6" xlink:href="#mb3faa7f8ee" y="163.158295"/>
      </g>
     </g>
     <g id="text_12">
      <!-- 2.75 -->
      <g transform="translate(28.334375 166.957514)scale(0.1 -0.1)">
       <use xlink:href="#DejaVuSans-32"/>
       <use x="63.623047" xlink:href="#DejaVuSans-2e"/>
       <use x="95.410156" xlink:href="#DejaVuSans-37"/>
       <use x="159.033203" xlink:href="#DejaVuSans-35"/>
      </g>
     </g>
    </g>
    <g id="ytick_6">
     <g id="line2d_13">
      <g>
       <use style="stroke:#000000;stroke-width:0.8;" x="57.6" xlink:href="#mb3faa7f8ee" y="127.361643"/>
      </g>
     </g>
     <g id="text_13">
      <!-- 3.00 -->
      <defs>
       <path d="M 40.578125 39.3125 
Q 47.65625 37.796875 51.625 33 
Q 55.609375 28.21875 55.609375 21.1875 
Q 55.609375 10.40625 48.1875 4.484375 
Q 40.765625 -1.421875 27.09375 -1.421875 
Q 22.515625 -1.421875 17.65625 -0.515625 
Q 12.796875 0.390625 7.625 2.203125 
L 7.625 11.71875 
Q 11.71875 9.328125 16.59375 8.109375 
Q 21.484375 6.890625 26.8125 6.890625 
Q 36.078125 6.890625 40.9375 10.546875 
Q 45.796875 14.203125 45.796875 21.1875 
Q 45.796875 27.640625 41.28125 31.265625 
Q 36.765625 34.90625 28.71875 34.90625 
L 20.21875 34.90625 
L 20.21875 43.015625 
L 29.109375 43.015625 
Q 36.375 43.015625 40.234375 45.921875 
Q 44.09375 48.828125 44.09375 54.296875 
Q 44.09375 59.90625 40.109375 62.90625 
Q 36.140625 65.921875 28.71875 65.921875 
Q 24.65625 65.921875 20.015625 65.03125 
Q 15.375 64.15625 9.8125 62.3125 
L 9.8125 71.09375 
Q 15.4375 72.65625 20.34375 73.4375 
Q 25.25 74.21875 29.59375 74.21875 
Q 40.828125 74.21875 47.359375 69.109375 
Q 53.90625 64.015625 53.90625 55.328125 
Q 53.90625 49.265625 50.4375 45.09375 
Q 46.96875 40.921875 40.578125 39.3125 
z
" id="DejaVuSans-33"/>
      </defs>
      <g transform="translate(28.334375 131.160862)scale(0.1 -0.1)">
       <use xlink:href="#DejaVuSans-33"/>
       <use x="63.623047" xlink:href="#DejaVuSans-2e"/>
       <use x="95.410156" xlink:href="#DejaVuSans-30"/>
       <use x="159.033203" xlink:href="#DejaVuSans-30"/>
      </g>
     </g>
    </g>
    <g id="ytick_7">
     <g id="line2d_14">
      <g>
       <use style="stroke:#000000;stroke-width:0.8;" x="57.6" xlink:href="#mb3faa7f8ee" y="91.564991"/>
      </g>
     </g>
     <g id="text_14">
      <!-- 3.25 -->
      <g transform="translate(28.334375 95.36421)scale(0.1 -0.1)">
       <use xlink:href="#DejaVuSans-33"/>
       <use x="63.623047" xlink:href="#DejaVuSans-2e"/>
       <use x="95.410156" xlink:href="#DejaVuSans-32"/>
       <use x="159.033203" xlink:href="#DejaVuSans-35"/>
      </g>
     </g>
    </g>
    <g id="ytick_8">
     <g id="line2d_15">
      <g>
       <use style="stroke:#000000;stroke-width:0.8;" x="57.6" xlink:href="#mb3faa7f8ee" y="55.768339"/>
      </g>
     </g>
     <g id="text_15">
      <!-- 3.50 -->
      <g transform="translate(28.334375 59.567557)scale(0.1 -0.1)">
       <use xlink:href="#DejaVuSans-33"/>
       <use x="63.623047" xlink:href="#DejaVuSans-2e"/>
       <use x="95.410156" xlink:href="#DejaVuSans-35"/>
       <use x="159.033203" xlink:href="#DejaVuSans-30"/>
      </g>
     </g>
    </g>
    <g id="text_16">
     <!-- RMSD -->
     <defs>
      <path d="M 44.390625 34.1875 
Q 47.5625 33.109375 50.5625 29.59375 
Q 53.5625 26.078125 56.59375 19.921875 
L 66.609375 0 
L 56 0 
L 46.6875 18.703125 
Q 43.0625 26.03125 39.671875 28.421875 
Q 36.28125 30.8125 30.421875 30.8125 
L 19.671875 30.8125 
L 19.671875 0 
L 9.8125 0 
L 9.8125 72.90625 
L 32.078125 72.90625 
Q 44.578125 72.90625 50.734375 67.671875 
Q 56.890625 62.453125 56.890625 51.90625 
Q 56.890625 45.015625 53.6875 40.46875 
Q 50.484375 35.9375 44.390625 34.1875 
z
M 19.671875 64.796875 
L 19.671875 38.921875 
L 32.078125 38.921875 
Q 39.203125 38.921875 42.84375 42.21875 
Q 46.484375 45.515625 46.484375 51.90625 
Q 46.484375 58.296875 42.84375 61.546875 
Q 39.203125 64.796875 32.078125 64.796875 
z
" id="DejaVuSans-52"/>
      <path d="M 9.8125 72.90625 
L 24.515625 72.90625 
L 43.109375 23.296875 
L 61.8125 72.90625 
L 76.515625 72.90625 
L 76.515625 0 
L 66.890625 0 
L 66.890625 64.015625 
L 48.09375 14.015625 
L 38.1875 14.015625 
L 19.390625 64.015625 
L 19.390625 0 
L 9.8125 0 
z
" id="DejaVuSans-4d"/>
      <path d="M 53.515625 70.515625 
L 53.515625 60.890625 
Q 47.90625 63.578125 42.921875 64.890625 
Q 37.9375 66.21875 33.296875 66.21875 
Q 25.25 66.21875 20.875 63.09375 
Q 16.5 59.96875 16.5 54.203125 
Q 16.5 49.359375 19.40625 46.890625 
Q 22.3125 44.4375 30.421875 42.921875 
L 36.375 41.703125 
Q 47.40625 39.59375 52.65625 34.296875 
Q 57.90625 29 57.90625 20.125 
Q 57.90625 9.515625 50.796875 4.046875 
Q 43.703125 -1.421875 29.984375 -1.421875 
Q 24.8125 -1.421875 18.96875 -0.25 
Q 13.140625 0.921875 6.890625 3.21875 
L 6.890625 13.375 
Q 12.890625 10.015625 18.65625 8.296875 
Q 24.421875 6.59375 29.984375 6.59375 
Q 38.421875 6.59375 43.015625 9.90625 
Q 47.609375 13.234375 47.609375 19.390625 
Q 47.609375 24.75 44.3125 27.78125 
Q 41.015625 30.8125 33.5 32.328125 
L 27.484375 33.5 
Q 16.453125 35.6875 11.515625 40.375 
Q 6.59375 45.0625 6.59375 53.421875 
Q 6.59375 63.09375 13.40625 68.65625 
Q 20.21875 74.21875 32.171875 74.21875 
Q 37.3125 74.21875 42.625 73.28125 
Q 47.953125 72.359375 53.515625 70.515625 
z
" id="DejaVuSans-53"/>
      <path d="M 19.671875 64.796875 
L 19.671875 8.109375 
L 31.59375 8.109375 
Q 46.6875 8.109375 53.6875 14.9375 
Q 60.6875 21.78125 60.6875 36.53125 
Q 60.6875 51.171875 53.6875 57.984375 
Q 46.6875 64.796875 31.59375 64.796875 
z
M 9.8125 72.90625 
L 30.078125 72.90625 
Q 51.265625 72.90625 61.171875 64.09375 
Q 71.09375 55.28125 71.09375 36.53125 
Q 71.09375 17.671875 61.125 8.828125 
Q 51.171875 0 30.078125 0 
L 9.8125 0 
z
" id="DejaVuSans-44"/>
     </defs>
     <g transform="translate(22.254687 189.3405)rotate(-90)scale(0.1 -0.1)">
      <use xlink:href="#DejaVuSans-52"/>
      <use x="69.482422" xlink:href="#DejaVuSans-4d"/>
      <use x="155.761719" xlink:href="#DejaVuSans-53"/>
      <use x="219.238281" xlink:href="#DejaVuSans-44"/>
     </g>
    </g>
   </g>
   <g id="line2d_16">
    <path clip-path="url(#pa18a452cf7)" d="M 73.832727 295.488 
L 74.918528 266.807872 
L 76.00433 259.328019 
L 77.090131 225.918808 
L 78.175932 202.361133 
L 79.261733 212.391684 
L 81.433335 206.914134 
L 82.519137 209.756616 
L 83.604938 201.19905 
L 84.690739 200.039742 
L 85.77654 200.476488 
L 86.862341 210.103644 
L 87.948142 199.218394 
L 89.033943 200.733896 
L 90.119745 192.89134 
L 91.205546 189.782004 
L 92.291347 194.200508 
L 93.377148 199.351043 
L 94.462949 188.01822 
L 95.54875 187.151242 
L 96.634552 192.493969 
L 97.720353 195.131079 
L 98.806154 188.311832 
L 99.891955 197.955793 
L 100.977756 193.261878 
L 102.063557 184.070988 
L 103.149358 189.824184 
L 104.23516 186.156471 
L 105.320961 193.628521 
L 106.406762 188.506997 
L 107.492563 193.442106 
L 108.578364 177.113211 
L 109.664165 180.908828 
L 110.749967 170.160862 
L 111.835768 171.630239 
L 112.921569 170.65262 
L 114.00737 164.068847 
L 115.093171 167.581642 
L 116.178972 169.860572 
L 118.350575 159.063805 
L 119.436376 160.254319 
L 120.522177 159.347141 
L 121.607978 158.149787 
L 122.693779 153.097979 
L 123.77958 161.976158 
L 124.865382 147.552385 
L 125.951183 157.617389 
L 127.036984 155.177799 
L 128.122785 155.805312 
L 129.208586 138.352645 
L 130.294387 153.267722 
L 131.380189 145.477463 
L 132.46599 147.965074 
L 133.551791 146.964984 
L 134.637592 149.36079 
L 135.723393 153.953905 
L 136.809194 161.206031 
L 137.894995 149.641361 
L 138.980797 148.637342 
L 140.066598 157.628793 
L 141.152399 155.324186 
L 142.2382 149.777378 
L 143.324001 143.116757 
L 144.409802 147.038774 
L 145.495604 144.399628 
L 146.581405 148.487115 
L 147.667206 146.344493 
L 148.753007 147.691541 
L 149.838808 135.094634 
L 150.924609 133.065633 
L 152.01041 119.045571 
L 153.096212 114.710078 
L 154.182013 122.985891 
L 155.267814 120.797218 
L 156.353615 116.359951 
L 157.439416 124.311534 
L 158.525217 109.575297 
L 159.611019 120.473608 
L 160.69682 106.909066 
L 161.782621 107.799791 
L 162.868422 94.51311 
L 165.040024 84.86028 
L 166.125825 98.931018 
L 167.211627 85.735222 
L 168.297428 93.083164 
L 169.383229 98.369805 
L 170.46903 97.284478 
L 171.554831 93.269852 
L 172.640632 90.000212 
L 173.726434 84.089242 
L 174.812235 90.168596 
L 175.898036 82.511325 
L 176.983837 81.599123 
L 179.155439 74.828997 
L 180.24124 94.205623 
L 181.327042 100.813922 
L 182.412843 89.275336 
L 183.498644 90.615811 
L 184.584445 82.306938 
L 185.670246 81.441325 
L 186.756047 88.994924 
L 187.841849 79.698237 
L 188.92765 78.418326 
L 190.013451 70.98703 
L 191.099252 58.69759 
L 192.185053 78.972074 
L 193.270854 78.068178 
L 194.356656 85.344109 
L 195.442457 83.974381 
L 196.528258 68.653109 
L 197.614059 82.869004 
L 198.69986 85.505053 
L 199.785661 67.777524 
L 200.871462 82.110614 
L 201.957264 80.489565 
L 203.043065 77.152228 
L 204.128866 80.332764 
L 206.300468 78.359846 
L 207.386269 83.383555 
L 208.472071 62.921802 
L 209.557872 63.70654 
L 210.643673 59.233544 
L 211.729474 71.237231 
L 212.815275 70.874208 
L 213.901076 73.964696 
L 214.986877 74.835758 
L 216.072679 64.473874 
L 217.15848 69.140742 
L 218.244281 66.173247 
L 219.330082 71.898012 
L 220.415883 69.300127 
L 221.501684 68.365837 
L 222.587486 76.184952 
L 223.673287 62.98323 
L 224.759088 80.651569 
L 225.844889 71.674798 
L 226.93069 71.187252 
L 228.016491 53.568833 
L 229.102292 81.95117 
L 230.188094 87.731507 
L 231.273895 71.226251 
L 232.359696 68.436084 
L 233.445497 69.37102 
L 234.531298 74.164424 
L 235.617099 72.828791 
L 236.702901 69.305741 
L 237.788702 72.777123 
L 238.874503 86.41462 
L 239.960304 89.206686 
L 241.046105 74.153849 
L 242.131906 89.38584 
L 243.217708 87.561072 
L 244.303509 92.311512 
L 245.38931 73.604898 
L 246.475111 82.018463 
L 247.560912 72.175347 
L 248.646713 75.963123 
L 249.732514 62.830894 
L 250.818316 57.894372 
L 251.904117 60.703116 
L 252.989918 53.568 
L 254.075719 74.063528 
L 255.16152 80.397577 
L 256.247321 76.943444 
L 257.333123 73.921857 
L 258.418924 71.30105 
L 259.504725 71.535289 
L 260.590526 85.223436 
L 261.676327 77.380749 
L 262.762128 76.644633 
L 263.847929 76.413565 
L 264.933731 80.070703 
L 266.019532 84.701441 
L 267.105333 83.79974 
L 268.191134 80.998202 
L 269.276935 71.799793 
L 270.362736 70.123914 
L 271.448538 73.158475 
L 272.534339 84.135858 
L 273.62014 87.109402 
L 275.791742 103.264639 
L 276.877543 101.620473 
L 277.963344 104.307079 
L 279.049146 113.981974 
L 280.134947 105.478082 
L 281.220748 113.595333 
L 282.306549 93.608076 
L 283.39235 97.380928 
L 284.478151 82.086387 
L 285.563953 82.555046 
L 286.649754 81.128761 
L 287.735555 78.295027 
L 288.821356 99.265253 
L 289.907157 100.000446 
L 290.992958 106.332538 
L 292.07876 108.774266 
L 293.164561 106.562582 
L 294.250362 107.615053 
L 295.336163 105.009 
L 296.421964 98.026019 
L 297.507765 96.051796 
L 298.593566 100.886312 
L 299.679368 91.558982 
L 300.765169 97.584149 
L 301.85097 108.46316 
L 302.936771 98.75444 
L 304.022572 83.864514 
L 305.108373 93.702648 
L 306.194175 97.401855 
L 307.279976 99.945921 
L 308.365777 98.652083 
L 309.451578 92.720537 
L 310.537379 90.799852 
L 311.62318 92.013685 
L 312.708981 91.908002 
L 313.794783 90.163204 
L 314.880584 93.4839 
L 315.966385 89.023771 
L 317.052186 90.837743 
L 318.137987 81.615791 
L 319.223788 87.27035 
L 320.30959 60.256932 
L 321.395391 72.795271 
L 322.481192 83.886334 
L 323.566993 84.656523 
L 324.652794 76.801652 
L 325.738595 97.999257 
L 326.824396 92.172385 
L 327.910198 107.61745 
L 328.995999 97.778298 
L 330.0818 102.971803 
L 331.167601 93.054823 
L 332.253402 88.551388 
L 333.339203 88.841019 
L 334.425005 93.877559 
L 335.510806 97.668441 
L 336.596607 83.544522 
L 337.682408 92.192297 
L 338.768209 80.751944 
L 339.85401 95.440594 
L 340.939811 84.178366 
L 342.025613 98.621097 
L 343.111414 101.982087 
L 344.197215 106.219189 
L 345.283016 111.381161 
L 346.368817 117.782364 
L 347.454618 115.969111 
L 348.54042 103.42503 
L 349.626221 98.143979 
L 350.712022 98.736123 
L 351.797823 96.674606 
L 352.883624 98.030905 
L 353.969425 85.800068 
L 355.055227 90.81426 
L 356.141028 79.903774 
L 357.226829 85.507938 
L 358.31263 96.283914 
L 359.398431 95.551639 
L 360.484232 92.379892 
L 361.570033 91.871163 
L 362.655835 98.080988 
L 363.741636 99.136327 
L 364.827437 95.617604 
L 365.913238 96.800096 
L 366.999039 91.048538 
L 368.08484 96.310028 
L 369.170642 93.813064 
L 370.256443 85.370174 
L 371.342244 90.522661 
L 372.428045 99.527451 
L 373.513846 91.363023 
L 374.599647 91.157664 
L 376.77125 101.944231 
L 377.857051 101.334218 
L 378.942852 101.932223 
L 380.028653 101.353172 
L 381.114454 96.629966 
L 382.200255 91.136039 
L 383.286057 90.319185 
L 384.371858 80.282767 
L 385.457659 98.018565 
L 386.54346 93.955652 
L 387.629261 89.287917 
L 389.800863 85.794225 
L 390.886665 89.939466 
L 391.972466 99.129365 
L 393.058267 91.662939 
L 394.144068 81.625088 
L 395.229869 78.982579 
L 396.31567 89.840568 
L 397.401472 93.030271 
L 398.487273 86.9103 
L 398.487273 86.9103 
" style="fill:none;stroke:#666666;stroke-dasharray:1,1.65;stroke-dashoffset:0;"/>
    <defs>
     <path d="M 0 0.5 
C 0.132602 0.5 0.25979 0.447317 0.353553 0.353553 
C 0.447317 0.25979 0.5 0.132602 0.5 0 
C 0.5 -0.132602 0.447317 -0.25979 0.353553 -0.353553 
C 0.25979 -0.447317 0.132602 -0.5 0 -0.5 
C -0.132602 -0.5 -0.25979 -0.447317 -0.353553 -0.353553 
C -0.447317 -0.25979 -0.5 -0.132602 -0.5 0 
C -0.5 0.132602 -0.447317 0.25979 -0.353553 0.353553 
C -0.25979 0.447317 -0.132602 0.5 0 0.5 
z
" id="mddf0a599a2" style="stroke:#666666;"/>
    </defs>
    <g clip-path="url(#pa18a452cf7)">
     <use style="fill:#666666;stroke:#666666;" x="73.832727" xlink:href="#mddf0a599a2" y="295.488"/>
     <use style="fill:#666666;stroke:#666666;" x="74.918528" xlink:href="#mddf0a599a2" y="266.807872"/>
     <use style="fill:#666666;stroke:#666666;" x="76.00433" xlink:href="#mddf0a599a2" y="259.328019"/>
     <use style="fill:#666666;stroke:#666666;" x="77.090131" xlink:href="#mddf0a599a2" y="225.918808"/>
     <use style="fill:#666666;stroke:#666666;" x="78.175932" xlink:href="#mddf0a599a2" y="202.361133"/>
     <use style="fill:#666666;stroke:#666666;" x="79.261733" xlink:href="#mddf0a599a2" y="212.391684"/>
     <use style="fill:#666666;stroke:#666666;" x="80.347534" xlink:href="#mddf0a599a2" y="209.74858"/>
     <use style="fill:#666666;stroke:#666666;" x="81.433335" xlink:href="#mddf0a599a2" y="206.914134"/>
     <use style="fill:#666666;stroke:#666666;" x="82.519137" xlink:href="#mddf0a599a2" y="209.756616"/>
     <use style="fill:#666666;stroke:#666666;" x="83.604938" xlink:href="#mddf0a599a2" y="201.19905"/>
     <use style="fill:#666666;stroke:#666666;" x="84.690739" xlink:href="#mddf0a599a2" y="200.039742"/>
     <use style="fill:#666666;stroke:#666666;" x="85.77654" xlink:href="#mddf0a599a2" y="200.476488"/>
     <use style="fill:#666666;stroke:#666666;" x="86.862341" xlink:href="#mddf0a599a2" y="210.103644"/>
     <use style="fill:#666666;stroke:#666666;" x="87.948142" xlink:href="#mddf0a599a2" y="199.218394"/>
     <use style="fill:#666666;stroke:#666666;" x="89.033943" xlink:href="#mddf0a599a2" y="200.733896"/>
     <use style="fill:#666666;stroke:#666666;" x="90.119745" xlink:href="#mddf0a599a2" y="192.89134"/>
     <use style="fill:#666666;stroke:#666666;" x="91.205546" xlink:href="#mddf0a599a2" y="189.782004"/>
     <use style="fill:#666666;stroke:#666666;" x="92.291347" xlink:href="#mddf0a599a2" y="194.200508"/>
     <use style="fill:#666666;stroke:#666666;" x="93.377148" xlink:href="#mddf0a599a2" y="199.351043"/>
     <use style="fill:#666666;stroke:#666666;" x="94.462949" xlink:href="#mddf0a599a2" y="188.01822"/>
     <use style="fill:#666666;stroke:#666666;" x="95.54875" xlink:href="#mddf0a599a2" y="187.151242"/>
     <use style="fill:#666666;stroke:#666666;" x="96.634552" xlink:href="#mddf0a599a2" y="192.493969"/>
     <use style="fill:#666666;stroke:#666666;" x="97.720353" xlink:href="#mddf0a599a2" y="195.131079"/>
     <use style="fill:#666666;stroke:#666666;" x="98.806154" xlink:href="#mddf0a599a2" y="188.311832"/>
     <use style="fill:#666666;stroke:#666666;" x="99.891955" xlink:href="#mddf0a599a2" y="197.955793"/>
     <use style="fill:#666666;stroke:#666666;" x="100.977756" xlink:href="#mddf0a599a2" y="193.261878"/>
     <use style="fill:#666666;stroke:#666666;" x="102.063557" xlink:href="#mddf0a599a2" y="184.070988"/>
     <use style="fill:#666666;stroke:#666666;" x="103.149358" xlink:href="#mddf0a599a2" y="189.824184"/>
     <use style="fill:#666666;stroke:#666666;" x="104.23516" xlink:href="#mddf0a599a2" y="186.156471"/>
     <use style="fill:#666666;stroke:#666666;" x="105.320961" xlink:href="#mddf0a599a2" y="193.628521"/>
     <use style="fill:#666666;stroke:#666666;" x="106.406762" xlink:href="#mddf0a599a2" y="188.506997"/>
     <use style="fill:#666666;stroke:#666666;" x="107.492563" xlink:href="#mddf0a599a2" y="193.442106"/>
     <use style="fill:#666666;stroke:#666666;" x="108.578364" xlink:href="#mddf0a599a2" y="177.113211"/>
     <use style="fill:#666666;stroke:#666666;" x="109.664165" xlink:href="#mddf0a599a2" y="180.908828"/>
     <use style="fill:#666666;stroke:#666666;" x="110.749967" xlink:href="#mddf0a599a2" y="170.160862"/>
     <use style="fill:#666666;stroke:#666666;" x="111.835768" xlink:href="#mddf0a599a2" y="171.630239"/>
     <use style="fill:#666666;stroke:#666666;" x="112.921569" xlink:href="#mddf0a599a2" y="170.65262"/>
     <use style="fill:#666666;stroke:#666666;" x="114.00737" xlink:href="#mddf0a599a2" y="164.068847"/>
     <use style="fill:#666666;stroke:#666666;" x="115.093171" xlink:href="#mddf0a599a2" y="167.581642"/>
     <use style="fill:#666666;stroke:#666666;" x="116.178972" xlink:href="#mddf0a599a2" y="169.860572"/>
     <use style="fill:#666666;stroke:#666666;" x="117.264773" xlink:href="#mddf0a599a2" y="164.475736"/>
     <use style="fill:#666666;stroke:#666666;" x="118.350575" xlink:href="#mddf0a599a2" y="159.063805"/>
     <use style="fill:#666666;stroke:#666666;" x="119.436376" xlink:href="#mddf0a599a2" y="160.254319"/>
     <use style="fill:#666666;stroke:#666666;" x="120.522177" xlink:href="#mddf0a599a2" y="159.347141"/>
     <use style="fill:#666666;stroke:#666666;" x="121.607978" xlink:href="#mddf0a599a2" y="158.149787"/>
     <use style="fill:#666666;stroke:#666666;" x="122.693779" xlink:href="#mddf0a599a2" y="153.097979"/>
     <use style="fill:#666666;stroke:#666666;" x="123.77958" xlink:href="#mddf0a599a2" y="161.976158"/>
     <use style="fill:#666666;stroke:#666666;" x="124.865382" xlink:href="#mddf0a599a2" y="147.552385"/>
     <use style="fill:#666666;stroke:#666666;" x="125.951183" xlink:href="#mddf0a599a2" y="157.617389"/>
     <use style="fill:#666666;stroke:#666666;" x="127.036984" xlink:href="#mddf0a599a2" y="155.177799"/>
     <use style="fill:#666666;stroke:#666666;" x="128.122785" xlink:href="#mddf0a599a2" y="155.805312"/>
     <use style="fill:#666666;stroke:#666666;" x="129.208586" xlink:href="#mddf0a599a2" y="138.352645"/>
     <use style="fill:#666666;stroke:#666666;" x="130.294387" xlink:href="#mddf0a599a2" y="153.267722"/>
     <use style="fill:#666666;stroke:#666666;" x="131.380189" xlink:href="#mddf0a599a2" y="145.477463"/>
     <use style="fill:#666666;stroke:#666666;" x="132.46599" xlink:href="#mddf0a599a2" y="147.965074"/>
     <use style="fill:#666666;stroke:#666666;" x="133.551791" xlink:href="#mddf0a599a2" y="146.964984"/>
     <use style="fill:#666666;stroke:#666666;" x="134.637592" xlink:href="#mddf0a599a2" y="149.36079"/>
     <use style="fill:#666666;stroke:#666666;" x="135.723393" xlink:href="#mddf0a599a2" y="153.953905"/>
     <use style="fill:#666666;stroke:#666666;" x="136.809194" xlink:href="#mddf0a599a2" y="161.206031"/>
     <use style="fill:#666666;stroke:#666666;" x="137.894995" xlink:href="#mddf0a599a2" y="149.641361"/>
     <use style="fill:#666666;stroke:#666666;" x="138.980797" xlink:href="#mddf0a599a2" y="148.637342"/>
     <use style="fill:#666666;stroke:#666666;" x="140.066598" xlink:href="#mddf0a599a2" y="157.628793"/>
     <use style="fill:#666666;stroke:#666666;" x="141.152399" xlink:href="#mddf0a599a2" y="155.324186"/>
     <use style="fill:#666666;stroke:#666666;" x="142.2382" xlink:href="#mddf0a599a2" y="149.777378"/>
     <use style="fill:#666666;stroke:#666666;" x="143.324001" xlink:href="#mddf0a599a2" y="143.116757"/>
     <use style="fill:#666666;stroke:#666666;" x="144.409802" xlink:href="#mddf0a599a2" y="147.038774"/>
     <use style="fill:#666666;stroke:#666666;" x="145.495604" xlink:href="#mddf0a599a2" y="144.399628"/>
     <use style="fill:#666666;stroke:#666666;" x="146.581405" xlink:href="#mddf0a599a2" y="148.487115"/>
     <use style="fill:#666666;stroke:#666666;" x="147.667206" xlink:href="#mddf0a599a2" y="146.344493"/>
     <use style="fill:#666666;stroke:#666666;" x="148.753007" xlink:href="#mddf0a599a2" y="147.691541"/>
     <use style="fill:#666666;stroke:#666666;" x="149.838808" xlink:href="#mddf0a599a2" y="135.094634"/>
     <use style="fill:#666666;stroke:#666666;" x="150.924609" xlink:href="#mddf0a599a2" y="133.065633"/>
     <use style="fill:#666666;stroke:#666666;" x="152.01041" xlink:href="#mddf0a599a2" y="119.045571"/>
     <use style="fill:#666666;stroke:#666666;" x="153.096212" xlink:href="#mddf0a599a2" y="114.710078"/>
     <use style="fill:#666666;stroke:#666666;" x="154.182013" xlink:href="#mddf0a599a2" y="122.985891"/>
     <use style="fill:#666666;stroke:#666666;" x="155.267814" xlink:href="#mddf0a599a2" y="120.797218"/>
     <use style="fill:#666666;stroke:#666666;" x="156.353615" xlink:href="#mddf0a599a2" y="116.359951"/>
     <use style="fill:#666666;stroke:#666666;" x="157.439416" xlink:href="#mddf0a599a2" y="124.311534"/>
     <use style="fill:#666666;stroke:#666666;" x="158.525217" xlink:href="#mddf0a599a2" y="109.575297"/>
     <use style="fill:#666666;stroke:#666666;" x="159.611019" xlink:href="#mddf0a599a2" y="120.473608"/>
     <use style="fill:#666666;stroke:#666666;" x="160.69682" xlink:href="#mddf0a599a2" y="106.909066"/>
     <use style="fill:#666666;stroke:#666666;" x="161.782621" xlink:href="#mddf0a599a2" y="107.799791"/>
     <use style="fill:#666666;stroke:#666666;" x="162.868422" xlink:href="#mddf0a599a2" y="94.51311"/>
     <use style="fill:#666666;stroke:#666666;" x="163.954223" xlink:href="#mddf0a599a2" y="89.903966"/>
     <use style="fill:#666666;stroke:#666666;" x="165.040024" xlink:href="#mddf0a599a2" y="84.86028"/>
     <use style="fill:#666666;stroke:#666666;" x="166.125825" xlink:href="#mddf0a599a2" y="98.931018"/>
     <use style="fill:#666666;stroke:#666666;" x="167.211627" xlink:href="#mddf0a599a2" y="85.735222"/>
     <use style="fill:#666666;stroke:#666666;" x="168.297428" xlink:href="#mddf0a599a2" y="93.083164"/>
     <use style="fill:#666666;stroke:#666666;" x="169.383229" xlink:href="#mddf0a599a2" y="98.369805"/>
     <use style="fill:#666666;stroke:#666666;" x="170.46903" xlink:href="#mddf0a599a2" y="97.284478"/>
     <use style="fill:#666666;stroke:#666666;" x="171.554831" xlink:href="#mddf0a599a2" y="93.269852"/>
     <use style="fill:#666666;stroke:#666666;" x="172.640632" xlink:href="#mddf0a599a2" y="90.000212"/>
     <use style="fill:#666666;stroke:#666666;" x="173.726434" xlink:href="#mddf0a599a2" y="84.089242"/>
     <use style="fill:#666666;stroke:#666666;" x="174.812235" xlink:href="#mddf0a599a2" y="90.168596"/>
     <use style="fill:#666666;stroke:#666666;" x="175.898036" xlink:href="#mddf0a599a2" y="82.511325"/>
     <use style="fill:#666666;stroke:#666666;" x="176.983837" xlink:href="#mddf0a599a2" y="81.599123"/>
     <use style="fill:#666666;stroke:#666666;" x="178.069638" xlink:href="#mddf0a599a2" y="78.118852"/>
     <use style="fill:#666666;stroke:#666666;" x="179.155439" xlink:href="#mddf0a599a2" y="74.828997"/>
     <use style="fill:#666666;stroke:#666666;" x="180.24124" xlink:href="#mddf0a599a2" y="94.205623"/>
     <use style="fill:#666666;stroke:#666666;" x="181.327042" xlink:href="#mddf0a599a2" y="100.813922"/>
     <use style="fill:#666666;stroke:#666666;" x="182.412843" xlink:href="#mddf0a599a2" y="89.275336"/>
     <use style="fill:#666666;stroke:#666666;" x="183.498644" xlink:href="#mddf0a599a2" y="90.615811"/>
     <use style="fill:#666666;stroke:#666666;" x="184.584445" xlink:href="#mddf0a599a2" y="82.306938"/>
     <use style="fill:#666666;stroke:#666666;" x="185.670246" xlink:href="#mddf0a599a2" y="81.441325"/>
     <use style="fill:#666666;stroke:#666666;" x="186.756047" xlink:href="#mddf0a599a2" y="88.994924"/>
     <use style="fill:#666666;stroke:#666666;" x="187.841849" xlink:href="#mddf0a599a2" y="79.698237"/>
     <use style="fill:#666666;stroke:#666666;" x="188.92765" xlink:href="#mddf0a599a2" y="78.418326"/>
     <use style="fill:#666666;stroke:#666666;" x="190.013451" xlink:href="#mddf0a599a2" y="70.98703"/>
     <use style="fill:#666666;stroke:#666666;" x="191.099252" xlink:href="#mddf0a599a2" y="58.69759"/>
     <use style="fill:#666666;stroke:#666666;" x="192.185053" xlink:href="#mddf0a599a2" y="78.972074"/>
     <use style="fill:#666666;stroke:#666666;" x="193.270854" xlink:href="#mddf0a599a2" y="78.068178"/>
     <use style="fill:#666666;stroke:#666666;" x="194.356656" xlink:href="#mddf0a599a2" y="85.344109"/>
     <use style="fill:#666666;stroke:#666666;" x="195.442457" xlink:href="#mddf0a599a2" y="83.974381"/>
     <use style="fill:#666666;stroke:#666666;" x="196.528258" xlink:href="#mddf0a599a2" y="68.653109"/>
     <use style="fill:#666666;stroke:#666666;" x="197.614059" xlink:href="#mddf0a599a2" y="82.869004"/>
     <use style="fill:#666666;stroke:#666666;" x="198.69986" xlink:href="#mddf0a599a2" y="85.505053"/>
     <use style="fill:#666666;stroke:#666666;" x="199.785661" xlink:href="#mddf0a599a2" y="67.777524"/>
     <use style="fill:#666666;stroke:#666666;" x="200.871462" xlink:href="#mddf0a599a2" y="82.110614"/>
     <use style="fill:#666666;stroke:#666666;" x="201.957264" xlink:href="#mddf0a599a2" y="80.489565"/>
     <use style="fill:#666666;stroke:#666666;" x="203.043065" xlink:href="#mddf0a599a2" y="77.152228"/>
     <use style="fill:#666666;stroke:#666666;" x="204.128866" xlink:href="#mddf0a599a2" y="80.332764"/>
     <use style="fill:#666666;stroke:#666666;" x="205.214667" xlink:href="#mddf0a599a2" y="79.329862"/>
     <use style="fill:#666666;stroke:#666666;" x="206.300468" xlink:href="#mddf0a599a2" y="78.359846"/>
     <use style="fill:#666666;stroke:#666666;" x="207.386269" xlink:href="#mddf0a599a2" y="83.383555"/>
     <use style="fill:#666666;stroke:#666666;" x="208.472071" xlink:href="#mddf0a599a2" y="62.921802"/>
     <use style="fill:#666666;stroke:#666666;" x="209.557872" xlink:href="#mddf0a599a2" y="63.70654"/>
     <use style="fill:#666666;stroke:#666666;" x="210.643673" xlink:href="#mddf0a599a2" y="59.233544"/>
     <use style="fill:#666666;stroke:#666666;" x="211.729474" xlink:href="#mddf0a599a2" y="71.237231"/>
     <use style="fill:#666666;stroke:#666666;" x="212.815275" xlink:href="#mddf0a599a2" y="70.874208"/>
     <use style="fill:#666666;stroke:#666666;" x="213.901076" xlink:href="#mddf0a599a2" y="73.964696"/>
     <use style="fill:#666666;stroke:#666666;" x="214.986877" xlink:href="#mddf0a599a2" y="74.835758"/>
     <use style="fill:#666666;stroke:#666666;" x="216.072679" xlink:href="#mddf0a599a2" y="64.473874"/>
     <use style="fill:#666666;stroke:#666666;" x="217.15848" xlink:href="#mddf0a599a2" y="69.140742"/>
     <use style="fill:#666666;stroke:#666666;" x="218.244281" xlink:href="#mddf0a599a2" y="66.173247"/>
     <use style="fill:#666666;stroke:#666666;" x="219.330082" xlink:href="#mddf0a599a2" y="71.898012"/>
     <use style="fill:#666666;stroke:#666666;" x="220.415883" xlink:href="#mddf0a599a2" y="69.300127"/>
     <use style="fill:#666666;stroke:#666666;" x="221.501684" xlink:href="#mddf0a599a2" y="68.365837"/>
     <use style="fill:#666666;stroke:#666666;" x="222.587486" xlink:href="#mddf0a599a2" y="76.184952"/>
     <use style="fill:#666666;stroke:#666666;" x="223.673287" xlink:href="#mddf0a599a2" y="62.98323"/>
     <use style="fill:#666666;stroke:#666666;" x="224.759088" xlink:href="#mddf0a599a2" y="80.651569"/>
     <use style="fill:#666666;stroke:#666666;" x="225.844889" xlink:href="#mddf0a599a2" y="71.674798"/>
     <use style="fill:#666666;stroke:#666666;" x="226.93069" xlink:href="#mddf0a599a2" y="71.187252"/>
     <use style="fill:#666666;stroke:#666666;" x="228.016491" xlink:href="#mddf0a599a2" y="53.568833"/>
     <use style="fill:#666666;stroke:#666666;" x="229.102292" xlink:href="#mddf0a599a2" y="81.95117"/>
     <use style="fill:#666666;stroke:#666666;" x="230.188094" xlink:href="#mddf0a599a2" y="87.731507"/>
     <use style="fill:#666666;stroke:#666666;" x="231.273895" xlink:href="#mddf0a599a2" y="71.226251"/>
     <use style="fill:#666666;stroke:#666666;" x="232.359696" xlink:href="#mddf0a599a2" y="68.436084"/>
     <use style="fill:#666666;stroke:#666666;" x="233.445497" xlink:href="#mddf0a599a2" y="69.37102"/>
     <use style="fill:#666666;stroke:#666666;" x="234.531298" xlink:href="#mddf0a599a2" y="74.164424"/>
     <use style="fill:#666666;stroke:#666666;" x="235.617099" xlink:href="#mddf0a599a2" y="72.828791"/>
     <use style="fill:#666666;stroke:#666666;" x="236.702901" xlink:href="#mddf0a599a2" y="69.305741"/>
     <use style="fill:#666666;stroke:#666666;" x="237.788702" xlink:href="#mddf0a599a2" y="72.777123"/>
     <use style="fill:#666666;stroke:#666666;" x="238.874503" xlink:href="#mddf0a599a2" y="86.41462"/>
     <use style="fill:#666666;stroke:#666666;" x="239.960304" xlink:href="#mddf0a599a2" y="89.206686"/>
     <use style="fill:#666666;stroke:#666666;" x="241.046105" xlink:href="#mddf0a599a2" y="74.153849"/>
     <use style="fill:#666666;stroke:#666666;" x="242.131906" xlink:href="#mddf0a599a2" y="89.38584"/>
     <use style="fill:#666666;stroke:#666666;" x="243.217708" xlink:href="#mddf0a599a2" y="87.561072"/>
     <use style="fill:#666666;stroke:#666666;" x="244.303509" xlink:href="#mddf0a599a2" y="92.311512"/>
     <use style="fill:#666666;stroke:#666666;" x="245.38931" xlink:href="#mddf0a599a2" y="73.604898"/>
     <use style="fill:#666666;stroke:#666666;" x="246.475111" xlink:href="#mddf0a599a2" y="82.018463"/>
     <use style="fill:#666666;stroke:#666666;" x="247.560912" xlink:href="#mddf0a599a2" y="72.175347"/>
     <use style="fill:#666666;stroke:#666666;" x="248.646713" xlink:href="#mddf0a599a2" y="75.963123"/>
     <use style="fill:#666666;stroke:#666666;" x="249.732514" xlink:href="#mddf0a599a2" y="62.830894"/>
     <use style="fill:#666666;stroke:#666666;" x="250.818316" xlink:href="#mddf0a599a2" y="57.894372"/>
     <use style="fill:#666666;stroke:#666666;" x="251.904117" xlink:href="#mddf0a599a2" y="60.703116"/>
     <use style="fill:#666666;stroke:#666666;" x="252.989918" xlink:href="#mddf0a599a2" y="53.568"/>
     <use style="fill:#666666;stroke:#666666;" x="254.075719" xlink:href="#mddf0a599a2" y="74.063528"/>
     <use style="fill:#666666;stroke:#666666;" x="255.16152" xlink:href="#mddf0a599a2" y="80.397577"/>
     <use style="fill:#666666;stroke:#666666;" x="256.247321" xlink:href="#mddf0a599a2" y="76.943444"/>
     <use style="fill:#666666;stroke:#666666;" x="257.333123" xlink:href="#mddf0a599a2" y="73.921857"/>
     <use style="fill:#666666;stroke:#666666;" x="258.418924" xlink:href="#mddf0a599a2" y="71.30105"/>
     <use style="fill:#666666;stroke:#666666;" x="259.504725" xlink:href="#mddf0a599a2" y="71.535289"/>
     <use style="fill:#666666;stroke:#666666;" x="260.590526" xlink:href="#mddf0a599a2" y="85.223436"/>
     <use style="fill:#666666;stroke:#666666;" x="261.676327" xlink:href="#mddf0a599a2" y="77.380749"/>
     <use style="fill:#666666;stroke:#666666;" x="262.762128" xlink:href="#mddf0a599a2" y="76.644633"/>
     <use style="fill:#666666;stroke:#666666;" x="263.847929" xlink:href="#mddf0a599a2" y="76.413565"/>
     <use style="fill:#666666;stroke:#666666;" x="264.933731" xlink:href="#mddf0a599a2" y="80.070703"/>
     <use style="fill:#666666;stroke:#666666;" x="266.019532" xlink:href="#mddf0a599a2" y="84.701441"/>
     <use style="fill:#666666;stroke:#666666;" x="267.105333" xlink:href="#mddf0a599a2" y="83.79974"/>
     <use style="fill:#666666;stroke:#666666;" x="268.191134" xlink:href="#mddf0a599a2" y="80.998202"/>
     <use style="fill:#666666;stroke:#666666;" x="269.276935" xlink:href="#mddf0a599a2" y="71.799793"/>
     <use style="fill:#666666;stroke:#666666;" x="270.362736" xlink:href="#mddf0a599a2" y="70.123914"/>
     <use style="fill:#666666;stroke:#666666;" x="271.448538" xlink:href="#mddf0a599a2" y="73.158475"/>
     <use style="fill:#666666;stroke:#666666;" x="272.534339" xlink:href="#mddf0a599a2" y="84.135858"/>
     <use style="fill:#666666;stroke:#666666;" x="273.62014" xlink:href="#mddf0a599a2" y="87.109402"/>
     <use style="fill:#666666;stroke:#666666;" x="274.705941" xlink:href="#mddf0a599a2" y="95.006257"/>
     <use style="fill:#666666;stroke:#666666;" x="275.791742" xlink:href="#mddf0a599a2" y="103.264639"/>
     <use style="fill:#666666;stroke:#666666;" x="276.877543" xlink:href="#mddf0a599a2" y="101.620473"/>
     <use style="fill:#666666;stroke:#666666;" x="277.963344" xlink:href="#mddf0a599a2" y="104.307079"/>
     <use style="fill:#666666;stroke:#666666;" x="279.049146" xlink:href="#mddf0a599a2" y="113.981974"/>
     <use style="fill:#666666;stroke:#666666;" x="280.134947" xlink:href="#mddf0a599a2" y="105.478082"/>
     <use style="fill:#666666;stroke:#666666;" x="281.220748" xlink:href="#mddf0a599a2" y="113.595333"/>
     <use style="fill:#666666;stroke:#666666;" x="282.306549" xlink:href="#mddf0a599a2" y="93.608076"/>
     <use style="fill:#666666;stroke:#666666;" x="283.39235" xlink:href="#mddf0a599a2" y="97.380928"/>
     <use style="fill:#666666;stroke:#666666;" x="284.478151" xlink:href="#mddf0a599a2" y="82.086387"/>
     <use style="fill:#666666;stroke:#666666;" x="285.563953" xlink:href="#mddf0a599a2" y="82.555046"/>
     <use style="fill:#666666;stroke:#666666;" x="286.649754" xlink:href="#mddf0a599a2" y="81.128761"/>
     <use style="fill:#666666;stroke:#666666;" x="287.735555" xlink:href="#mddf0a599a2" y="78.295027"/>
     <use style="fill:#666666;stroke:#666666;" x="288.821356" xlink:href="#mddf0a599a2" y="99.265253"/>
     <use style="fill:#666666;stroke:#666666;" x="289.907157" xlink:href="#mddf0a599a2" y="100.000446"/>
     <use style="fill:#666666;stroke:#666666;" x="290.992958" xlink:href="#mddf0a599a2" y="106.332538"/>
     <use style="fill:#666666;stroke:#666666;" x="292.07876" xlink:href="#mddf0a599a2" y="108.774266"/>
     <use style="fill:#666666;stroke:#666666;" x="293.164561" xlink:href="#mddf0a599a2" y="106.562582"/>
     <use style="fill:#666666;stroke:#666666;" x="294.250362" xlink:href="#mddf0a599a2" y="107.615053"/>
     <use style="fill:#666666;stroke:#666666;" x="295.336163" xlink:href="#mddf0a599a2" y="105.009"/>
     <use style="fill:#666666;stroke:#666666;" x="296.421964" xlink:href="#mddf0a599a2" y="98.026019"/>
     <use style="fill:#666666;stroke:#666666;" x="297.507765" xlink:href="#mddf0a599a2" y="96.051796"/>
     <use style="fill:#666666;stroke:#666666;" x="298.593566" xlink:href="#mddf0a599a2" y="100.886312"/>
     <use style="fill:#666666;stroke:#666666;" x="299.679368" xlink:href="#mddf0a599a2" y="91.558982"/>
     <use style="fill:#666666;stroke:#666666;" x="300.765169" xlink:href="#mddf0a599a2" y="97.584149"/>
     <use style="fill:#666666;stroke:#666666;" x="301.85097" xlink:href="#mddf0a599a2" y="108.46316"/>
     <use style="fill:#666666;stroke:#666666;" x="302.936771" xlink:href="#mddf0a599a2" y="98.75444"/>
     <use style="fill:#666666;stroke:#666666;" x="304.022572" xlink:href="#mddf0a599a2" y="83.864514"/>
     <use style="fill:#666666;stroke:#666666;" x="305.108373" xlink:href="#mddf0a599a2" y="93.702648"/>
     <use style="fill:#666666;stroke:#666666;" x="306.194175" xlink:href="#mddf0a599a2" y="97.401855"/>
     <use style="fill:#666666;stroke:#666666;" x="307.279976" xlink:href="#mddf0a599a2" y="99.945921"/>
     <use style="fill:#666666;stroke:#666666;" x="308.365777" xlink:href="#mddf0a599a2" y="98.652083"/>
     <use style="fill:#666666;stroke:#666666;" x="309.451578" xlink:href="#mddf0a599a2" y="92.720537"/>
     <use style="fill:#666666;stroke:#666666;" x="310.537379" xlink:href="#mddf0a599a2" y="90.799852"/>
     <use style="fill:#666666;stroke:#666666;" x="311.62318" xlink:href="#mddf0a599a2" y="92.013685"/>
     <use style="fill:#666666;stroke:#666666;" x="312.708981" xlink:href="#mddf0a599a2" y="91.908002"/>
     <use style="fill:#666666;stroke:#666666;" x="313.794783" xlink:href="#mddf0a599a2" y="90.163204"/>
     <use style="fill:#666666;stroke:#666666;" x="314.880584" xlink:href="#mddf0a599a2" y="93.4839"/>
     <use style="fill:#666666;stroke:#666666;" x="315.966385" xlink:href="#mddf0a599a2" y="89.023771"/>
     <use style="fill:#666666;stroke:#666666;" x="317.052186" xlink:href="#mddf0a599a2" y="90.837743"/>
     <use style="fill:#666666;stroke:#666666;" x="318.137987" xlink:href="#mddf0a599a2" y="81.615791"/>
     <use style="fill:#666666;stroke:#666666;" x="319.223788" xlink:href="#mddf0a599a2" y="87.27035"/>
     <use style="fill:#666666;stroke:#666666;" x="320.30959" xlink:href="#mddf0a599a2" y="60.256932"/>
     <use style="fill:#666666;stroke:#666666;" x="321.395391" xlink:href="#mddf0a599a2" y="72.795271"/>
     <use style="fill:#666666;stroke:#666666;" x="322.481192" xlink:href="#mddf0a599a2" y="83.886334"/>
     <use style="fill:#666666;stroke:#666666;" x="323.566993" xlink:href="#mddf0a599a2" y="84.656523"/>
     <use style="fill:#666666;stroke:#666666;" x="324.652794" xlink:href="#mddf0a599a2" y="76.801652"/>
     <use style="fill:#666666;stroke:#666666;" x="325.738595" xlink:href="#mddf0a599a2" y="97.999257"/>
     <use style="fill:#666666;stroke:#666666;" x="326.824396" xlink:href="#mddf0a599a2" y="92.172385"/>
     <use style="fill:#666666;stroke:#666666;" x="327.910198" xlink:href="#mddf0a599a2" y="107.61745"/>
     <use style="fill:#666666;stroke:#666666;" x="328.995999" xlink:href="#mddf0a599a2" y="97.778298"/>
     <use style="fill:#666666;stroke:#666666;" x="330.0818" xlink:href="#mddf0a599a2" y="102.971803"/>
     <use style="fill:#666666;stroke:#666666;" x="331.167601" xlink:href="#mddf0a599a2" y="93.054823"/>
     <use style="fill:#666666;stroke:#666666;" x="332.253402" xlink:href="#mddf0a599a2" y="88.551388"/>
     <use style="fill:#666666;stroke:#666666;" x="333.339203" xlink:href="#mddf0a599a2" y="88.841019"/>
     <use style="fill:#666666;stroke:#666666;" x="334.425005" xlink:href="#mddf0a599a2" y="93.877559"/>
     <use style="fill:#666666;stroke:#666666;" x="335.510806" xlink:href="#mddf0a599a2" y="97.668441"/>
     <use style="fill:#666666;stroke:#666666;" x="336.596607" xlink:href="#mddf0a599a2" y="83.544522"/>
     <use style="fill:#666666;stroke:#666666;" x="337.682408" xlink:href="#mddf0a599a2" y="92.192297"/>
     <use style="fill:#666666;stroke:#666666;" x="338.768209" xlink:href="#mddf0a599a2" y="80.751944"/>
     <use style="fill:#666666;stroke:#666666;" x="339.85401" xlink:href="#mddf0a599a2" y="95.440594"/>
     <use style="fill:#666666;stroke:#666666;" x="340.939811" xlink:href="#mddf0a599a2" y="84.178366"/>
     <use style="fill:#666666;stroke:#666666;" x="342.025613" xlink:href="#mddf0a599a2" y="98.621097"/>
     <use style="fill:#666666;stroke:#666666;" x="343.111414" xlink:href="#mddf0a599a2" y="101.982087"/>
     <use style="fill:#666666;stroke:#666666;" x="344.197215" xlink:href="#mddf0a599a2" y="106.219189"/>
     <use style="fill:#666666;stroke:#666666;" x="345.283016" xlink:href="#mddf0a599a2" y="111.381161"/>
     <use style="fill:#666666;stroke:#666666;" x="346.368817" xlink:href="#mddf0a599a2" y="117.782364"/>
     <use style="fill:#666666;stroke:#666666;" x="347.454618" xlink:href="#mddf0a599a2" y="115.969111"/>
     <use style="fill:#666666;stroke:#666666;" x="348.54042" xlink:href="#mddf0a599a2" y="103.42503"/>
     <use style="fill:#666666;stroke:#666666;" x="349.626221" xlink:href="#mddf0a599a2" y="98.143979"/>
     <use style="fill:#666666;stroke:#666666;" x="350.712022" xlink:href="#mddf0a599a2" y="98.736123"/>
     <use style="fill:#666666;stroke:#666666;" x="351.797823" xlink:href="#mddf0a599a2" y="96.674606"/>
     <use style="fill:#666666;stroke:#666666;" x="352.883624" xlink:href="#mddf0a599a2" y="98.030905"/>
     <use style="fill:#666666;stroke:#666666;" x="353.969425" xlink:href="#mddf0a599a2" y="85.800068"/>
     <use style="fill:#666666;stroke:#666666;" x="355.055227" xlink:href="#mddf0a599a2" y="90.81426"/>
     <use style="fill:#666666;stroke:#666666;" x="356.141028" xlink:href="#mddf0a599a2" y="79.903774"/>
     <use style="fill:#666666;stroke:#666666;" x="357.226829" xlink:href="#mddf0a599a2" y="85.507938"/>
     <use style="fill:#666666;stroke:#666666;" x="358.31263" xlink:href="#mddf0a599a2" y="96.283914"/>
     <use style="fill:#666666;stroke:#666666;" x="359.398431" xlink:href="#mddf0a599a2" y="95.551639"/>
     <use style="fill:#666666;stroke:#666666;" x="360.484232" xlink:href="#mddf0a599a2" y="92.379892"/>
     <use style="fill:#666666;stroke:#666666;" x="361.570033" xlink:href="#mddf0a599a2" y="91.871163"/>
     <use style="fill:#666666;stroke:#666666;" x="362.655835" xlink:href="#mddf0a599a2" y="98.080988"/>
     <use style="fill:#666666;stroke:#666666;" x="363.741636" xlink:href="#mddf0a599a2" y="99.136327"/>
     <use style="fill:#666666;stroke:#666666;" x="364.827437" xlink:href="#mddf0a599a2" y="95.617604"/>
     <use style="fill:#666666;stroke:#666666;" x="365.913238" xlink:href="#mddf0a599a2" y="96.800096"/>
     <use style="fill:#666666;stroke:#666666;" x="366.999039" xlink:href="#mddf0a599a2" y="91.048538"/>
     <use style="fill:#666666;stroke:#666666;" x="368.08484" xlink:href="#mddf0a599a2" y="96.310028"/>
     <use style="fill:#666666;stroke:#666666;" x="369.170642" xlink:href="#mddf0a599a2" y="93.813064"/>
     <use style="fill:#666666;stroke:#666666;" x="370.256443" xlink:href="#mddf0a599a2" y="85.370174"/>
     <use style="fill:#666666;stroke:#666666;" x="371.342244" xlink:href="#mddf0a599a2" y="90.522661"/>
     <use style="fill:#666666;stroke:#666666;" x="372.428045" xlink:href="#mddf0a599a2" y="99.527451"/>
     <use style="fill:#666666;stroke:#666666;" x="373.513846" xlink:href="#mddf0a599a2" y="91.363023"/>
     <use style="fill:#666666;stroke:#666666;" x="374.599647" xlink:href="#mddf0a599a2" y="91.157664"/>
     <use style="fill:#666666;stroke:#666666;" x="375.685448" xlink:href="#mddf0a599a2" y="96.568824"/>
     <use style="fill:#666666;stroke:#666666;" x="376.77125" xlink:href="#mddf0a599a2" y="101.944231"/>
     <use style="fill:#666666;stroke:#666666;" x="377.857051" xlink:href="#mddf0a599a2" y="101.334218"/>
     <use style="fill:#666666;stroke:#666666;" x="378.942852" xlink:href="#mddf0a599a2" y="101.932223"/>
     <use style="fill:#666666;stroke:#666666;" x="380.028653" xlink:href="#mddf0a599a2" y="101.353172"/>
     <use style="fill:#666666;stroke:#666666;" x="381.114454" xlink:href="#mddf0a599a2" y="96.629966"/>
     <use style="fill:#666666;stroke:#666666;" x="382.200255" xlink:href="#mddf0a599a2" y="91.136039"/>
     <use style="fill:#666666;stroke:#666666;" x="383.286057" xlink:href="#mddf0a599a2" y="90.319185"/>
     <use style="fill:#666666;stroke:#666666;" x="384.371858" xlink:href="#mddf0a599a2" y="80.282767"/>
     <use style="fill:#666666;stroke:#666666;" x="385.457659" xlink:href="#mddf0a599a2" y="98.018565"/>
     <use style="fill:#666666;stroke:#666666;" x="386.54346" xlink:href="#mddf0a599a2" y="93.955652"/>
     <use style="fill:#666666;stroke:#666666;" x="387.629261" xlink:href="#mddf0a599a2" y="89.287917"/>
     <use style="fill:#666666;stroke:#666666;" x="388.715062" xlink:href="#mddf0a599a2" y="87.598263"/>
     <use style="fill:#666666;stroke:#666666;" x="389.800863" xlink:href="#mddf0a599a2" y="85.794225"/>
     <use style="fill:#666666;stroke:#666666;" x="390.886665" xlink:href="#mddf0a599a2" y="89.939466"/>
     <use style="fill:#666666;stroke:#666666;" x="391.972466" xlink:href="#mddf0a599a2" y="99.129365"/>
     <use style="fill:#666666;stroke:#666666;" x="393.058267" xlink:href="#mddf0a599a2" y="91.662939"/>
     <use style="fill:#666666;stroke:#666666;" x="394.144068" xlink:href="#mddf0a599a2" y="81.625088"/>
     <use style="fill:#666666;stroke:#666666;" x="395.229869" xlink:href="#mddf0a599a2" y="78.982579"/>
     <use style="fill:#666666;stroke:#666666;" x="396.31567" xlink:href="#mddf0a599a2" y="89.840568"/>
     <use style="fill:#666666;stroke:#666666;" x="397.401472" xlink:href="#mddf0a599a2" y="93.030271"/>
     <use style="fill:#666666;stroke:#666666;" x="398.487273" xlink:href="#mddf0a599a2" y="86.9103"/>
    </g>
   </g>
   <g id="patch_3">
    <path d="M 57.6 307.584 
L 57.6 41.472 
" style="fill:none;stroke:#000000;stroke-linecap:square;stroke-linejoin:miter;stroke-width:0.8;"/>
   </g>
   <g id="patch_4">
    <path d="M 414.72 307.584 
L 414.72 41.472 
" style="fill:none;stroke:#000000;stroke-linecap:square;stroke-linejoin:miter;stroke-width:0.8;"/>
   </g>
   <g id="patch_5">
    <path d="M 57.6 307.584 
L 414.72 307.584 
" style="fill:none;stroke:#000000;stroke-linecap:square;stroke-linejoin:miter;stroke-width:0.8;"/>
   </g>
   <g id="patch_6">
    <path d="M 57.6 41.472 
L 414.72 41.472 
" style="fill:none;stroke:#000000;stroke-linecap:square;stroke-linejoin:miter;stroke-width:0.8;"/>
   </g>
  </g>
 </g>
 <defs>
  <clipPath id="pa18a452cf7">
   <rect height="266.112" width="357.12" x="57.6" y="41.472"/>
  </clipPath>
 </defs>
</svg>
