<?xml version="1.0" encoding="utf-8" standalone="no"?>
<!DOCTYPE svg PUBLIC "-//W3C//DTD SVG 1.1//EN"
  "http://www.w3.org/Graphics/SVG/1.1/DTD/svg11.dtd">
<!-- Created with matplotlib (http://matplotlib.org/) -->
<svg height="345.6pt" version="1.1" viewBox="0 0 460.8 345.6" width="460.8pt" xmlns="http://www.w3.org/2000/svg" xmlns:xlink="http://www.w3.org/1999/xlink">
 <defs>
  <style type="text/css">
*{stroke-linecap:butt;stroke-linejoin:round;}
  </style>
 </defs>
 <g id="figure_1">
  <g id="patch_1">
   <path d="M 0 345.6 
L 460.8 345.6 
L 460.8 0 
L 0 0 
z
" style="fill:#ffffff;"/>
  </g>
  <g id="axes_1">
   <g id="patch_2">
    <path d="M 38.27 287.71 
L 447.48 287.71 
L 447.48 13.32 
L 38.27 13.32 
z
" style="fill:#ffffff;"/>
   </g>
   <g id="matplotlib.axis_1">
    <g id="xtick_1">
     <g id="line2d_1">
      <defs>
       <path d="M 0 0 
L 0 3.5 
" id="m9a9a5e8cf2" style="stroke:#000000;stroke-width:0.8;"/>
      </defs>
      <g>
       <use style="stroke:#000000;stroke-width:0.8;" x="38.27" xlink:href="#m9a9a5e8cf2" y="287.71"/>
      </g>
     </g>
     <g id="text_1">
      <!-- A1 -->
      <defs>
       <path d="M 34.1875 63.1875 
L 20.796875 26.90625 
L 47.609375 26.90625 
z
M 28.609375 72.90625 
L 39.796875 72.90625 
L 67.578125 0 
L 57.328125 0 
L 50.6875 18.703125 
L 17.828125 18.703125 
L 11.1875 0 
L 0.78125 0 
z
" id="DejaVuSans-41"/>
       <path d="M 12.40625 8.296875 
L 28.515625 8.296875 
L 28.515625 63.921875 
L 10.984375 60.40625 
L 10.984375 69.390625 
L 28.421875 72.90625 
L 38.28125 72.90625 
L 38.28125 8.296875 
L 54.390625 8.296875 
L 54.390625 0 
L 12.40625 0 
z
" id="DejaVuSans-31"/>
      </defs>
      <g transform="translate(41.029375 307.913125)rotate(-90)scale(0.1 -0.1)">
       <use xlink:href="#DejaVuSans-41"/>
       <use x="68.408203" xlink:href="#DejaVuSans-31"/>
      </g>
     </g>
    </g>
    <g id="xtick_2">
     <g id="line2d_2">
      <g>
       <use style="stroke:#000000;stroke-width:0.8;" x="55.757607" xlink:href="#m9a9a5e8cf2" y="287.71"/>
      </g>
     </g>
     <g id="text_2">
      <!-- A16 -->
      <defs>
       <path d="M 33.015625 40.375 
Q 26.375 40.375 22.484375 35.828125 
Q 18.609375 31.296875 18.609375 23.390625 
Q 18.609375 15.53125 22.484375 10.953125 
Q 26.375 6.390625 33.015625 6.390625 
Q 39.65625 6.390625 43.53125 10.953125 
Q 47.40625 15.53125 47.40625 23.390625 
Q 47.40625 31.296875 43.53125 35.828125 
Q 39.65625 40.375 33.015625 40.375 
z
M 52.59375 71.296875 
L 52.59375 62.3125 
Q 48.875 64.0625 45.09375 64.984375 
Q 41.3125 65.921875 37.59375 65.921875 
Q 27.828125 65.921875 22.671875 59.328125 
Q 17.53125 52.734375 16.796875 39.40625 
Q 19.671875 43.65625 24.015625 45.921875 
Q 28.375 48.1875 33.59375 48.1875 
Q 44.578125 48.1875 50.953125 41.515625 
Q 57.328125 34.859375 57.328125 23.390625 
Q 57.328125 12.15625 50.6875 5.359375 
Q 44.046875 -1.421875 33.015625 -1.421875 
Q 20.359375 -1.421875 13.671875 8.265625 
Q 6.984375 17.96875 6.984375 36.375 
Q 6.984375 53.65625 15.1875 63.9375 
Q 23.390625 74.21875 37.203125 74.21875 
Q 40.921875 74.21875 44.703125 73.484375 
Q 48.484375 72.75 52.59375 71.296875 
z
" id="DejaVuSans-36"/>
      </defs>
      <g transform="translate(58.516982 314.275625)rotate(-90)scale(0.1 -0.1)">
       <use xlink:href="#DejaVuSans-41"/>
       <use x="68.408203" xlink:href="#DejaVuSans-31"/>
       <use x="132.03125" xlink:href="#DejaVuSans-36"/>
      </g>
     </g>
    </g>
    <g id="xtick_3">
     <g id="line2d_3">
      <g>
       <use style="stroke:#000000;stroke-width:0.8;" x="73.245214" xlink:href="#m9a9a5e8cf2" y="287.71"/>
      </g>
     </g>
     <g id="text_3">
      <!-- A31 -->
      <defs>
       <path d="M 40.578125 39.3125 
Q 47.65625 37.796875 51.625 33 
Q 55.609375 28.21875 55.609375 21.1875 
Q 55.609375 10.40625 48.1875 4.484375 
Q 40.765625 -1.421875 27.09375 -1.421875 
Q 22.515625 -1.421875 17.65625 -0.515625 
Q 12.796875 0.390625 7.625 2.203125 
L 7.625 11.71875 
Q 11.71875 9.328125 16.59375 8.109375 
Q 21.484375 6.890625 26.8125 6.890625 
Q 36.078125 6.890625 40.9375 10.546875 
Q 45.796875 14.203125 45.796875 21.1875 
Q 45.796875 27.640625 41.28125 31.265625 
Q 36.765625 34.90625 28.71875 34.90625 
L 20.21875 34.90625 
L 20.21875 43.015625 
L 29.109375 43.015625 
Q 36.375 43.015625 40.234375 45.921875 
Q 44.09375 48.828125 44.09375 54.296875 
Q 44.09375 59.90625 40.109375 62.90625 
Q 36.140625 65.921875 28.71875 65.921875 
Q 24.65625 65.921875 20.015625 65.03125 
Q 15.375 64.15625 9.8125 62.3125 
L 9.8125 71.09375 
Q 15.4375 72.65625 20.34375 73.4375 
Q 25.25 74.21875 29.59375 74.21875 
Q 40.828125 74.21875 47.359375 69.109375 
Q 53.90625 64.015625 53.90625 55.328125 
Q 53.90625 49.265625 50.4375 45.09375 
Q 46.96875 40.921875 40.578125 39.3125 
z
" id="DejaVuSans-33"/>
      </defs>
      <g transform="translate(76.004589 314.275625)rotate(-90)scale(0.1 -0.1)">
       <use xlink:href="#DejaVuSans-41"/>
       <use x="68.408203" xlink:href="#DejaVuSans-33"/>
       <use x="132.03125" xlink:href="#DejaVuSans-31"/>
      </g>
     </g>
    </g>
    <g id="xtick_4">
     <g id="line2d_4">
      <g>
       <use style="stroke:#000000;stroke-width:0.8;" x="90.732821" xlink:href="#m9a9a5e8cf2" y="287.71"/>
      </g>
     </g>
     <g id="text_4">
      <!-- A46 -->
      <defs>
       <path d="M 37.796875 64.3125 
L 12.890625 25.390625 
L 37.796875 25.390625 
z
M 35.203125 72.90625 
L 47.609375 72.90625 
L 47.609375 25.390625 
L 58.015625 25.390625 
L 58.015625 17.1875 
L 47.609375 17.1875 
L 47.609375 0 
L 37.796875 0 
L 37.796875 17.1875 
L 4.890625 17.1875 
L 4.890625 26.703125 
z
" id="DejaVuSans-34"/>
      </defs>
      <g transform="translate(93.492196 314.275625)rotate(-90)scale(0.1 -0.1)">
       <use xlink:href="#DejaVuSans-41"/>
       <use x="68.408203" xlink:href="#DejaVuSans-34"/>
       <use x="132.03125" xlink:href="#DejaVuSans-36"/>
      </g>
     </g>
    </g>
    <g id="xtick_5">
     <g id="line2d_5">
      <g>
       <use style="stroke:#000000;stroke-width:0.8;" x="108.220427" xlink:href="#m9a9a5e8cf2" y="287.71"/>
      </g>
     </g>
     <g id="text_5">
      <!-- A61 -->
      <g transform="translate(110.979802 314.275625)rotate(-90)scale(0.1 -0.1)">
       <use xlink:href="#DejaVuSans-41"/>
       <use x="68.408203" xlink:href="#DejaVuSans-36"/>
       <use x="132.03125" xlink:href="#DejaVuSans-31"/>
      </g>
     </g>
    </g>
    <g id="xtick_6">
     <g id="line2d_6">
      <g>
       <use style="stroke:#000000;stroke-width:0.8;" x="125.708034" xlink:href="#m9a9a5e8cf2" y="287.71"/>
      </g>
     </g>
     <g id="text_6">
      <!-- A76 -->
      <defs>
       <path d="M 8.203125 72.90625 
L 55.078125 72.90625 
L 55.078125 68.703125 
L 28.609375 0 
L 18.3125 0 
L 43.21875 64.59375 
L 8.203125 64.59375 
z
" id="DejaVuSans-37"/>
      </defs>
      <g transform="translate(128.467409 314.275625)rotate(-90)scale(0.1 -0.1)">
       <use xlink:href="#DejaVuSans-41"/>
       <use x="68.408203" xlink:href="#DejaVuSans-37"/>
       <use x="132.03125" xlink:href="#DejaVuSans-36"/>
      </g>
     </g>
    </g>
    <g id="xtick_7">
     <g id="line2d_7">
      <g>
       <use style="stroke:#000000;stroke-width:0.8;" x="143.195641" xlink:href="#m9a9a5e8cf2" y="287.71"/>
      </g>
     </g>
     <g id="text_7">
      <!-- A91 -->
      <defs>
       <path d="M 10.984375 1.515625 
L 10.984375 10.5 
Q 14.703125 8.734375 18.5 7.8125 
Q 22.3125 6.890625 25.984375 6.890625 
Q 35.75 6.890625 40.890625 13.453125 
Q 46.046875 20.015625 46.78125 33.40625 
Q 43.953125 29.203125 39.59375 26.953125 
Q 35.25 24.703125 29.984375 24.703125 
Q 19.046875 24.703125 12.671875 31.3125 
Q 6.296875 37.9375 6.296875 49.421875 
Q 6.296875 60.640625 12.9375 67.421875 
Q 19.578125 74.21875 30.609375 74.21875 
Q 43.265625 74.21875 49.921875 64.515625 
Q 56.59375 54.828125 56.59375 36.375 
Q 56.59375 19.140625 48.40625 8.859375 
Q 40.234375 -1.421875 26.421875 -1.421875 
Q 22.703125 -1.421875 18.890625 -0.6875 
Q 15.09375 0.046875 10.984375 1.515625 
z
M 30.609375 32.421875 
Q 37.25 32.421875 41.125 36.953125 
Q 45.015625 41.5 45.015625 49.421875 
Q 45.015625 57.28125 41.125 61.84375 
Q 37.25 66.40625 30.609375 66.40625 
Q 23.96875 66.40625 20.09375 61.84375 
Q 16.21875 57.28125 16.21875 49.421875 
Q 16.21875 41.5 20.09375 36.953125 
Q 23.96875 32.421875 30.609375 32.421875 
z
" id="DejaVuSans-39"/>
      </defs>
      <g transform="translate(145.955016 314.275625)rotate(-90)scale(0.1 -0.1)">
       <use xlink:href="#DejaVuSans-41"/>
       <use x="68.408203" xlink:href="#DejaVuSans-39"/>
       <use x="132.03125" xlink:href="#DejaVuSans-31"/>
      </g>
     </g>
    </g>
    <g id="xtick_8">
     <g id="line2d_8">
      <g>
       <use style="stroke:#000000;stroke-width:0.8;" x="160.683248" xlink:href="#m9a9a5e8cf2" y="287.71"/>
      </g>
     </g>
     <g id="text_8">
      <!-- A106 -->
      <defs>
       <path d="M 31.78125 66.40625 
Q 24.171875 66.40625 20.328125 58.90625 
Q 16.5 51.421875 16.5 36.375 
Q 16.5 21.390625 20.328125 13.890625 
Q 24.171875 6.390625 31.78125 6.390625 
Q 39.453125 6.390625 43.28125 13.890625 
Q 47.125 21.390625 47.125 36.375 
Q 47.125 51.421875 43.28125 58.90625 
Q 39.453125 66.40625 31.78125 66.40625 
z
M 31.78125 74.21875 
Q 44.046875 74.21875 50.515625 64.515625 
Q 56.984375 54.828125 56.984375 36.375 
Q 56.984375 17.96875 50.515625 8.265625 
Q 44.046875 -1.421875 31.78125 -1.421875 
Q 19.53125 -1.421875 13.0625 8.265625 
Q 6.59375 17.96875 6.59375 36.375 
Q 6.59375 54.828125 13.0625 64.515625 
Q 19.53125 74.21875 31.78125 74.21875 
z
" id="DejaVuSans-30"/>
      </defs>
      <g transform="translate(163.442623 320.638125)rotate(-90)scale(0.1 -0.1)">
       <use xlink:href="#DejaVuSans-41"/>
       <use x="68.408203" xlink:href="#DejaVuSans-31"/>
       <use x="132.03125" xlink:href="#DejaVuSans-30"/>
       <use x="195.654297" xlink:href="#DejaVuSans-36"/>
      </g>
     </g>
    </g>
    <g id="xtick_9">
     <g id="line2d_9">
      <g>
       <use style="stroke:#000000;stroke-width:0.8;" x="178.170855" xlink:href="#m9a9a5e8cf2" y="287.71"/>
      </g>
     </g>
     <g id="text_9">
      <!-- A121 -->
      <defs>
       <path d="M 19.1875 8.296875 
L 53.609375 8.296875 
L 53.609375 0 
L 7.328125 0 
L 7.328125 8.296875 
Q 12.9375 14.109375 22.625 23.890625 
Q 32.328125 33.6875 34.8125 36.53125 
Q 39.546875 41.84375 41.421875 45.53125 
Q 43.3125 49.21875 43.3125 52.78125 
Q 43.3125 58.59375 39.234375 62.25 
Q 35.15625 65.921875 28.609375 65.921875 
Q 23.96875 65.921875 18.8125 64.3125 
Q 13.671875 62.703125 7.8125 59.421875 
L 7.8125 69.390625 
Q 13.765625 71.78125 18.9375 73 
Q 24.125 74.21875 28.421875 74.21875 
Q 39.75 74.21875 46.484375 68.546875 
Q 53.21875 62.890625 53.21875 53.421875 
Q 53.21875 48.921875 51.53125 44.890625 
Q 49.859375 40.875 45.40625 35.40625 
Q 44.1875 33.984375 37.640625 27.21875 
Q 31.109375 20.453125 19.1875 8.296875 
z
" id="DejaVuSans-32"/>
      </defs>
      <g transform="translate(180.93023 320.638125)rotate(-90)scale(0.1 -0.1)">
       <use xlink:href="#DejaVuSans-41"/>
       <use x="68.408203" xlink:href="#DejaVuSans-31"/>
       <use x="132.03125" xlink:href="#DejaVuSans-32"/>
       <use x="195.654297" xlink:href="#DejaVuSans-31"/>
      </g>
     </g>
    </g>
    <g id="xtick_10">
     <g id="line2d_10">
      <g>
       <use style="stroke:#000000;stroke-width:0.8;" x="195.658462" xlink:href="#m9a9a5e8cf2" y="287.71"/>
      </g>
     </g>
     <g id="text_10">
      <!-- A136 -->
      <g transform="translate(198.417837 320.638125)rotate(-90)scale(0.1 -0.1)">
       <use xlink:href="#DejaVuSans-41"/>
       <use x="68.408203" xlink:href="#DejaVuSans-31"/>
       <use x="132.03125" xlink:href="#DejaVuSans-33"/>
       <use x="195.654297" xlink:href="#DejaVuSans-36"/>
      </g>
     </g>
    </g>
    <g id="xtick_11">
     <g id="line2d_11">
      <g>
       <use style="stroke:#000000;stroke-width:0.8;" x="213.146068" xlink:href="#m9a9a5e8cf2" y="287.71"/>
      </g>
     </g>
     <g id="text_11">
      <!-- A151 -->
      <defs>
       <path d="M 10.796875 72.90625 
L 49.515625 72.90625 
L 49.515625 64.59375 
L 19.828125 64.59375 
L 19.828125 46.734375 
Q 21.96875 47.46875 24.109375 47.828125 
Q 26.265625 48.1875 28.421875 48.1875 
Q 40.625 48.1875 47.75 41.5 
Q 54.890625 34.8125 54.890625 23.390625 
Q 54.890625 11.625 47.5625 5.09375 
Q 40.234375 -1.421875 26.90625 -1.421875 
Q 22.3125 -1.421875 17.546875 -0.640625 
Q 12.796875 0.140625 7.71875 1.703125 
L 7.71875 11.625 
Q 12.109375 9.234375 16.796875 8.0625 
Q 21.484375 6.890625 26.703125 6.890625 
Q 35.15625 6.890625 40.078125 11.328125 
Q 45.015625 15.765625 45.015625 23.390625 
Q 45.015625 31 40.078125 35.4375 
Q 35.15625 39.890625 26.703125 39.890625 
Q 22.75 39.890625 18.8125 39.015625 
Q 14.890625 38.140625 10.796875 36.28125 
z
" id="DejaVuSans-35"/>
      </defs>
      <g transform="translate(215.905443 320.638125)rotate(-90)scale(0.1 -0.1)">
       <use xlink:href="#DejaVuSans-41"/>
       <use x="68.408203" xlink:href="#DejaVuSans-31"/>
       <use x="132.03125" xlink:href="#DejaVuSans-35"/>
       <use x="195.654297" xlink:href="#DejaVuSans-31"/>
      </g>
     </g>
    </g>
    <g id="xtick_12">
     <g id="line2d_12">
      <g>
       <use style="stroke:#000000;stroke-width:0.8;" x="230.633675" xlink:href="#m9a9a5e8cf2" y="287.71"/>
      </g>
     </g>
     <g id="text_12">
      <!-- A166 -->
      <g transform="translate(233.39305 320.638125)rotate(-90)scale(0.1 -0.1)">
       <use xlink:href="#DejaVuSans-41"/>
       <use x="68.408203" xlink:href="#DejaVuSans-31"/>
       <use x="132.03125" xlink:href="#DejaVuSans-36"/>
       <use x="195.654297" xlink:href="#DejaVuSans-36"/>
      </g>
     </g>
    </g>
    <g id="xtick_13">
     <g id="line2d_13">
      <g>
       <use style="stroke:#000000;stroke-width:0.8;" x="248.121282" xlink:href="#m9a9a5e8cf2" y="287.71"/>
      </g>
     </g>
     <g id="text_13">
      <!-- A181 -->
      <defs>
       <path d="M 31.78125 34.625 
Q 24.75 34.625 20.71875 30.859375 
Q 16.703125 27.09375 16.703125 20.515625 
Q 16.703125 13.921875 20.71875 10.15625 
Q 24.75 6.390625 31.78125 6.390625 
Q 38.8125 6.390625 42.859375 10.171875 
Q 46.921875 13.96875 46.921875 20.515625 
Q 46.921875 27.09375 42.890625 30.859375 
Q 38.875 34.625 31.78125 34.625 
z
M 21.921875 38.8125 
Q 15.578125 40.375 12.03125 44.71875 
Q 8.5 49.078125 8.5 55.328125 
Q 8.5 64.0625 14.71875 69.140625 
Q 20.953125 74.21875 31.78125 74.21875 
Q 42.671875 74.21875 48.875 69.140625 
Q 55.078125 64.0625 55.078125 55.328125 
Q 55.078125 49.078125 51.53125 44.71875 
Q 48 40.375 41.703125 38.8125 
Q 48.828125 37.15625 52.796875 32.3125 
Q 56.78125 27.484375 56.78125 20.515625 
Q 56.78125 9.90625 50.3125 4.234375 
Q 43.84375 -1.421875 31.78125 -1.421875 
Q 19.734375 -1.421875 13.25 4.234375 
Q 6.78125 9.90625 6.78125 20.515625 
Q 6.78125 27.484375 10.78125 32.3125 
Q 14.796875 37.15625 21.921875 38.8125 
z
M 18.3125 54.390625 
Q 18.3125 48.734375 21.84375 45.5625 
Q 25.390625 42.390625 31.78125 42.390625 
Q 38.140625 42.390625 41.71875 45.5625 
Q 45.3125 48.734375 45.3125 54.390625 
Q 45.3125 60.0625 41.71875 63.234375 
Q 38.140625 66.40625 31.78125 66.40625 
Q 25.390625 66.40625 21.84375 63.234375 
Q 18.3125 60.0625 18.3125 54.390625 
z
" id="DejaVuSans-38"/>
      </defs>
      <g transform="translate(250.880657 320.638125)rotate(-90)scale(0.1 -0.1)">
       <use xlink:href="#DejaVuSans-41"/>
       <use x="68.408203" xlink:href="#DejaVuSans-31"/>
       <use x="132.03125" xlink:href="#DejaVuSans-38"/>
       <use x="195.654297" xlink:href="#DejaVuSans-31"/>
      </g>
     </g>
    </g>
    <g id="xtick_14">
     <g id="line2d_14">
      <g>
       <use style="stroke:#000000;stroke-width:0.8;" x="265.608889" xlink:href="#m9a9a5e8cf2" y="287.71"/>
      </g>
     </g>
     <g id="text_14">
      <!-- A196 -->
      <g transform="translate(268.368264 320.638125)rotate(-90)scale(0.1 -0.1)">
       <use xlink:href="#DejaVuSans-41"/>
       <use x="68.408203" xlink:href="#DejaVuSans-31"/>
       <use x="132.03125" xlink:href="#DejaVuSans-39"/>
       <use x="195.654297" xlink:href="#DejaVuSans-36"/>
      </g>
     </g>
    </g>
    <g id="xtick_15">
     <g id="line2d_15">
      <g>
       <use style="stroke:#000000;stroke-width:0.8;" x="283.096496" xlink:href="#m9a9a5e8cf2" y="287.71"/>
      </g>
     </g>
     <g id="text_15">
      <!-- A211 -->
      <g transform="translate(285.855871 320.638125)rotate(-90)scale(0.1 -0.1)">
       <use xlink:href="#DejaVuSans-41"/>
       <use x="68.408203" xlink:href="#DejaVuSans-32"/>
       <use x="132.03125" xlink:href="#DejaVuSans-31"/>
       <use x="195.654297" xlink:href="#DejaVuSans-31"/>
      </g>
     </g>
    </g>
    <g id="xtick_16">
     <g id="line2d_16">
      <g>
       <use style="stroke:#000000;stroke-width:0.8;" x="300.584103" xlink:href="#m9a9a5e8cf2" y="287.71"/>
      </g>
     </g>
     <g id="text_16">
      <!-- A226 -->
      <g transform="translate(303.343478 320.638125)rotate(-90)scale(0.1 -0.1)">
       <use xlink:href="#DejaVuSans-41"/>
       <use x="68.408203" xlink:href="#DejaVuSans-32"/>
       <use x="132.03125" xlink:href="#DejaVuSans-32"/>
       <use x="195.654297" xlink:href="#DejaVuSans-36"/>
      </g>
     </g>
    </g>
    <g id="xtick_17">
     <g id="line2d_17">
      <g>
       <use style="stroke:#000000;stroke-width:0.8;" x="318.071709" xlink:href="#m9a9a5e8cf2" y="287.71"/>
      </g>
     </g>
     <g id="text_17">
      <!-- A241 -->
      <g transform="translate(320.831084 320.638125)rotate(-90)scale(0.1 -0.1)">
       <use xlink:href="#DejaVuSans-41"/>
       <use x="68.408203" xlink:href="#DejaVuSans-32"/>
       <use x="132.03125" xlink:href="#DejaVuSans-34"/>
       <use x="195.654297" xlink:href="#DejaVuSans-31"/>
      </g>
     </g>
    </g>
    <g id="xtick_18">
     <g id="line2d_18">
      <g>
       <use style="stroke:#000000;stroke-width:0.8;" x="335.559316" xlink:href="#m9a9a5e8cf2" y="287.71"/>
      </g>
     </g>
     <g id="text_18">
      <!-- A256 -->
      <g transform="translate(338.318691 320.638125)rotate(-90)scale(0.1 -0.1)">
       <use xlink:href="#DejaVuSans-41"/>
       <use x="68.408203" xlink:href="#DejaVuSans-32"/>
       <use x="132.03125" xlink:href="#DejaVuSans-35"/>
       <use x="195.654297" xlink:href="#DejaVuSans-36"/>
      </g>
     </g>
    </g>
    <g id="xtick_19">
     <g id="line2d_19">
      <g>
       <use style="stroke:#000000;stroke-width:0.8;" x="353.046923" xlink:href="#m9a9a5e8cf2" y="287.71"/>
      </g>
     </g>
     <g id="text_19">
      <!-- A271 -->
      <g transform="translate(355.806298 320.638125)rotate(-90)scale(0.1 -0.1)">
       <use xlink:href="#DejaVuSans-41"/>
       <use x="68.408203" xlink:href="#DejaVuSans-32"/>
       <use x="132.03125" xlink:href="#DejaVuSans-37"/>
       <use x="195.654297" xlink:href="#DejaVuSans-31"/>
      </g>
     </g>
    </g>
    <g id="xtick_20">
     <g id="line2d_20">
      <g>
       <use style="stroke:#000000;stroke-width:0.8;" x="370.53453" xlink:href="#m9a9a5e8cf2" y="287.71"/>
      </g>
     </g>
     <g id="text_20">
      <!-- A286 -->
      <g transform="translate(373.293905 320.638125)rotate(-90)scale(0.1 -0.1)">
       <use xlink:href="#DejaVuSans-41"/>
       <use x="68.408203" xlink:href="#DejaVuSans-32"/>
       <use x="132.03125" xlink:href="#DejaVuSans-38"/>
       <use x="195.654297" xlink:href="#DejaVuSans-36"/>
      </g>
     </g>
    </g>
    <g id="xtick_21">
     <g id="line2d_21">
      <g>
       <use style="stroke:#000000;stroke-width:0.8;" x="388.022137" xlink:href="#m9a9a5e8cf2" y="287.71"/>
      </g>
     </g>
     <g id="text_21">
      <!-- A301 -->
      <g transform="translate(390.781512 320.638125)rotate(-90)scale(0.1 -0.1)">
       <use xlink:href="#DejaVuSans-41"/>
       <use x="68.408203" xlink:href="#DejaVuSans-33"/>
       <use x="132.03125" xlink:href="#DejaVuSans-30"/>
       <use x="195.654297" xlink:href="#DejaVuSans-31"/>
      </g>
     </g>
    </g>
    <g id="xtick_22">
     <g id="line2d_22">
      <g>
       <use style="stroke:#000000;stroke-width:0.8;" x="405.509744" xlink:href="#m9a9a5e8cf2" y="287.71"/>
      </g>
     </g>
     <g id="text_22">
      <!-- A316 -->
      <g transform="translate(408.269119 320.638125)rotate(-90)scale(0.1 -0.1)">
       <use xlink:href="#DejaVuSans-41"/>
       <use x="68.408203" xlink:href="#DejaVuSans-33"/>
       <use x="132.03125" xlink:href="#DejaVuSans-31"/>
       <use x="195.654297" xlink:href="#DejaVuSans-36"/>
      </g>
     </g>
    </g>
    <g id="xtick_23">
     <g id="line2d_23">
      <g>
       <use style="stroke:#000000;stroke-width:0.8;" x="422.99735" xlink:href="#m9a9a5e8cf2" y="287.71"/>
      </g>
     </g>
     <g id="text_23">
      <!-- A331 -->
      <g transform="translate(425.756725 320.638125)rotate(-90)scale(0.1 -0.1)">
       <use xlink:href="#DejaVuSans-41"/>
       <use x="68.408203" xlink:href="#DejaVuSans-33"/>
       <use x="132.03125" xlink:href="#DejaVuSans-33"/>
       <use x="195.654297" xlink:href="#DejaVuSans-31"/>
      </g>
     </g>
    </g>
    <g id="xtick_24">
     <g id="line2d_24">
      <g>
       <use style="stroke:#000000;stroke-width:0.8;" x="440.484957" xlink:href="#m9a9a5e8cf2" y="287.71"/>
      </g>
     </g>
     <g id="text_24">
      <!-- A346 -->
      <g transform="translate(443.244332 320.638125)rotate(-90)scale(0.1 -0.1)">
       <use xlink:href="#DejaVuSans-41"/>
       <use x="68.408203" xlink:href="#DejaVuSans-33"/>
       <use x="132.03125" xlink:href="#DejaVuSans-34"/>
       <use x="195.654297" xlink:href="#DejaVuSans-36"/>
      </g>
     </g>
    </g>
    <g id="text_25">
     <!-- Residue index -->
     <defs>
      <path d="M 44.390625 34.1875 
Q 47.5625 33.109375 50.5625 29.59375 
Q 53.5625 26.078125 56.59375 19.921875 
L 66.609375 0 
L 56 0 
L 46.6875 18.703125 
Q 43.0625 26.03125 39.671875 28.421875 
Q 36.28125 30.8125 30.421875 30.8125 
L 19.671875 30.8125 
L 19.671875 0 
L 9.8125 0 
L 9.8125 72.90625 
L 32.078125 72.90625 
Q 44.578125 72.90625 50.734375 67.671875 
Q 56.890625 62.453125 56.890625 51.90625 
Q 56.890625 45.015625 53.6875 40.46875 
Q 50.484375 35.9375 44.390625 34.1875 
z
M 19.671875 64.796875 
L 19.671875 38.921875 
L 32.078125 38.921875 
Q 39.203125 38.921875 42.84375 42.21875 
Q 46.484375 45.515625 46.484375 51.90625 
Q 46.484375 58.296875 42.84375 61.546875 
Q 39.203125 64.796875 32.078125 64.796875 
z
" id="DejaVuSans-52"/>
      <path d="M 56.203125 29.59375 
L 56.203125 25.203125 
L 14.890625 25.203125 
Q 15.484375 15.921875 20.484375 11.0625 
Q 25.484375 6.203125 34.421875 6.203125 
Q 39.59375 6.203125 44.453125 7.46875 
Q 49.3125 8.734375 54.109375 11.28125 
L 54.109375 2.78125 
Q 49.265625 0.734375 44.1875 -0.34375 
Q 39.109375 -1.421875 33.890625 -1.421875 
Q 20.796875 -1.421875 13.15625 6.1875 
Q 5.515625 13.8125 5.515625 26.8125 
Q 5.515625 40.234375 12.765625 48.109375 
Q 20.015625 56 32.328125 56 
Q 43.359375 56 49.78125 48.890625 
Q 56.203125 41.796875 56.203125 29.59375 
z
M 47.21875 32.234375 
Q 47.125 39.59375 43.09375 43.984375 
Q 39.0625 48.390625 32.421875 48.390625 
Q 24.90625 48.390625 20.390625 44.140625 
Q 15.875 39.890625 15.1875 32.171875 
z
" id="DejaVuSans-65"/>
      <path d="M 44.28125 53.078125 
L 44.28125 44.578125 
Q 40.484375 46.53125 36.375 47.5 
Q 32.28125 48.484375 27.875 48.484375 
Q 21.1875 48.484375 17.84375 46.4375 
Q 14.5 44.390625 14.5 40.28125 
Q 14.5 37.15625 16.890625 35.375 
Q 19.28125 33.59375 26.515625 31.984375 
L 29.59375 31.296875 
Q 39.15625 29.25 43.1875 25.515625 
Q 47.21875 21.78125 47.21875 15.09375 
Q 47.21875 7.46875 41.1875 3.015625 
Q 35.15625 -1.421875 24.609375 -1.421875 
Q 20.21875 -1.421875 15.453125 -0.5625 
Q 10.6875 0.296875 5.421875 2 
L 5.421875 11.28125 
Q 10.40625 8.6875 15.234375 7.390625 
Q 20.0625 6.109375 24.8125 6.109375 
Q 31.15625 6.109375 34.5625 8.28125 
Q 37.984375 10.453125 37.984375 14.40625 
Q 37.984375 18.0625 35.515625 20.015625 
Q 33.0625 21.96875 24.703125 23.78125 
L 21.578125 24.515625 
Q 13.234375 26.265625 9.515625 29.90625 
Q 5.8125 33.546875 5.8125 39.890625 
Q 5.8125 47.609375 11.28125 51.796875 
Q 16.75 56 26.8125 56 
Q 31.78125 56 36.171875 55.265625 
Q 40.578125 54.546875 44.28125 53.078125 
z
" id="DejaVuSans-73"/>
      <path d="M 9.421875 54.6875 
L 18.40625 54.6875 
L 18.40625 0 
L 9.421875 0 
z
M 9.421875 75.984375 
L 18.40625 75.984375 
L 18.40625 64.59375 
L 9.421875 64.59375 
z
" id="DejaVuSans-69"/>
      <path d="M 45.40625 46.390625 
L 45.40625 75.984375 
L 54.390625 75.984375 
L 54.390625 0 
L 45.40625 0 
L 45.40625 8.203125 
Q 42.578125 3.328125 38.25 0.953125 
Q 33.9375 -1.421875 27.875 -1.421875 
Q 17.96875 -1.421875 11.734375 6.484375 
Q 5.515625 14.40625 5.515625 27.296875 
Q 5.515625 40.1875 11.734375 48.09375 
Q 17.96875 56 27.875 56 
Q 33.9375 56 38.25 53.625 
Q 42.578125 51.265625 45.40625 46.390625 
z
M 14.796875 27.296875 
Q 14.796875 17.390625 18.875 11.75 
Q 22.953125 6.109375 30.078125 6.109375 
Q 37.203125 6.109375 41.296875 11.75 
Q 45.40625 17.390625 45.40625 27.296875 
Q 45.40625 37.203125 41.296875 42.84375 
Q 37.203125 48.484375 30.078125 48.484375 
Q 22.953125 48.484375 18.875 42.84375 
Q 14.796875 37.203125 14.796875 27.296875 
z
" id="DejaVuSans-64"/>
      <path d="M 8.5 21.578125 
L 8.5 54.6875 
L 17.484375 54.6875 
L 17.484375 21.921875 
Q 17.484375 14.15625 20.5 10.265625 
Q 23.53125 6.390625 29.59375 6.390625 
Q 36.859375 6.390625 41.078125 11.03125 
Q 45.3125 15.671875 45.3125 23.6875 
L 45.3125 54.6875 
L 54.296875 54.6875 
L 54.296875 0 
L 45.3125 0 
L 45.3125 8.40625 
Q 42.046875 3.421875 37.71875 1 
Q 33.40625 -1.421875 27.6875 -1.421875 
Q 18.265625 -1.421875 13.375 4.4375 
Q 8.5 10.296875 8.5 21.578125 
z
M 31.109375 56 
z
" id="DejaVuSans-75"/>
      <path id="DejaVuSans-20"/>
      <path d="M 54.890625 33.015625 
L 54.890625 0 
L 45.90625 0 
L 45.90625 32.71875 
Q 45.90625 40.484375 42.875 44.328125 
Q 39.84375 48.1875 33.796875 48.1875 
Q 26.515625 48.1875 22.3125 43.546875 
Q 18.109375 38.921875 18.109375 30.90625 
L 18.109375 0 
L 9.078125 0 
L 9.078125 54.6875 
L 18.109375 54.6875 
L 18.109375 46.1875 
Q 21.34375 51.125 25.703125 53.5625 
Q 30.078125 56 35.796875 56 
Q 45.21875 56 50.046875 50.171875 
Q 54.890625 44.34375 54.890625 33.015625 
z
" id="DejaVuSans-6e"/>
      <path d="M 54.890625 54.6875 
L 35.109375 28.078125 
L 55.90625 0 
L 45.3125 0 
L 29.390625 21.484375 
L 13.484375 0 
L 2.875 0 
L 24.125 28.609375 
L 4.6875 54.6875 
L 15.28125 54.6875 
L 29.78125 35.203125 
L 44.28125 54.6875 
z
" id="DejaVuSans-78"/>
     </defs>
     <g transform="translate(207.557813 332.236562)scale(0.1 -0.1)">
      <use xlink:href="#DejaVuSans-52"/>
      <use x="69.419922" xlink:href="#DejaVuSans-65"/>
      <use x="130.943359" xlink:href="#DejaVuSans-73"/>
      <use x="183.042969" xlink:href="#DejaVuSans-69"/>
      <use x="210.826172" xlink:href="#DejaVuSans-64"/>
      <use x="274.302734" xlink:href="#DejaVuSans-75"/>
      <use x="337.681641" xlink:href="#DejaVuSans-65"/>
      <use x="399.205078" xlink:href="#DejaVuSans-20"/>
      <use x="430.992188" xlink:href="#DejaVuSans-69"/>
      <use x="458.775391" xlink:href="#DejaVuSans-6e"/>
      <use x="522.154297" xlink:href="#DejaVuSans-64"/>
      <use x="585.630859" xlink:href="#DejaVuSans-65"/>
      <use x="647.138672" xlink:href="#DejaVuSans-78"/>
     </g>
    </g>
   </g>
   <g id="matplotlib.axis_2">
    <g id="ytick_1">
     <g id="line2d_25">
      <defs>
       <path d="M 0 0 
L -3.5 0 
" id="md5321ef388" style="stroke:#000000;stroke-width:0.8;"/>
      </defs>
      <g>
       <use style="stroke:#000000;stroke-width:0.8;" x="38.27" xlink:href="#md5321ef388" y="284.042063"/>
      </g>
     </g>
     <g id="text_26">
      <!-- 0 -->
      <g transform="translate(24.9075 287.841282)scale(0.1 -0.1)">
       <use xlink:href="#DejaVuSans-30"/>
      </g>
     </g>
    </g>
    <g id="ytick_2">
     <g id="line2d_26">
      <g>
       <use style="stroke:#000000;stroke-width:0.8;" x="38.27" xlink:href="#md5321ef388" y="225.711943"/>
      </g>
     </g>
     <g id="text_27">
      <!-- 1 -->
      <g transform="translate(24.9075 229.511162)scale(0.1 -0.1)">
       <use xlink:href="#DejaVuSans-31"/>
      </g>
     </g>
    </g>
    <g id="ytick_3">
     <g id="line2d_27">
      <g>
       <use style="stroke:#000000;stroke-width:0.8;" x="38.27" xlink:href="#md5321ef388" y="167.381823"/>
      </g>
     </g>
     <g id="text_28">
      <!-- 2 -->
      <g transform="translate(24.9075 171.181042)scale(0.1 -0.1)">
       <use xlink:href="#DejaVuSans-32"/>
      </g>
     </g>
    </g>
    <g id="ytick_4">
     <g id="line2d_28">
      <g>
       <use style="stroke:#000000;stroke-width:0.8;" x="38.27" xlink:href="#md5321ef388" y="109.051703"/>
      </g>
     </g>
     <g id="text_29">
      <!-- 3 -->
      <g transform="translate(24.9075 112.850922)scale(0.1 -0.1)">
       <use xlink:href="#DejaVuSans-33"/>
      </g>
     </g>
    </g>
    <g id="ytick_5">
     <g id="line2d_29">
      <g>
       <use style="stroke:#000000;stroke-width:0.8;" x="38.27" xlink:href="#md5321ef388" y="50.721583"/>
      </g>
     </g>
     <g id="text_30">
      <!-- 4 -->
      <g transform="translate(24.9075 54.520802)scale(0.1 -0.1)">
       <use xlink:href="#DejaVuSans-34"/>
      </g>
     </g>
    </g>
    <g id="text_31">
     <!-- RMSF -->
     <defs>
      <path d="M 9.8125 72.90625 
L 24.515625 72.90625 
L 43.109375 23.296875 
L 61.8125 72.90625 
L 76.515625 72.90625 
L 76.515625 0 
L 66.890625 0 
L 66.890625 64.015625 
L 48.09375 14.015625 
L 38.1875 14.015625 
L 19.390625 64.015625 
L 19.390625 0 
L 9.8125 0 
z
" id="DejaVuSans-4d"/>
      <path d="M 53.515625 70.515625 
L 53.515625 60.890625 
Q 47.90625 63.578125 42.921875 64.890625 
Q 37.9375 66.21875 33.296875 66.21875 
Q 25.25 66.21875 20.875 63.09375 
Q 16.5 59.96875 16.5 54.203125 
Q 16.5 49.359375 19.40625 46.890625 
Q 22.3125 44.4375 30.421875 42.921875 
L 36.375 41.703125 
Q 47.40625 39.59375 52.65625 34.296875 
Q 57.90625 29 57.90625 20.125 
Q 57.90625 9.515625 50.796875 4.046875 
Q 43.703125 -1.421875 29.984375 -1.421875 
Q 24.8125 -1.421875 18.96875 -0.25 
Q 13.140625 0.921875 6.890625 3.21875 
L 6.890625 13.375 
Q 12.890625 10.015625 18.65625 8.296875 
Q 24.421875 6.59375 29.984375 6.59375 
Q 38.421875 6.59375 43.015625 9.90625 
Q 47.609375 13.234375 47.609375 19.390625 
Q 47.609375 24.75 44.3125 27.78125 
Q 41.015625 30.8125 33.5 32.328125 
L 27.484375 33.5 
Q 16.453125 35.6875 11.515625 40.375 
Q 6.59375 45.0625 6.59375 53.421875 
Q 6.59375 63.09375 13.40625 68.65625 
Q 20.21875 74.21875 32.171875 74.21875 
Q 37.3125 74.21875 42.625 73.28125 
Q 47.953125 72.359375 53.515625 70.515625 
z
" id="DejaVuSans-53"/>
      <path d="M 9.8125 72.90625 
L 51.703125 72.90625 
L 51.703125 64.59375 
L 19.671875 64.59375 
L 19.671875 43.109375 
L 48.578125 43.109375 
L 48.578125 34.8125 
L 19.671875 34.8125 
L 19.671875 0 
L 9.8125 0 
z
" id="DejaVuSans-46"/>
     </defs>
     <g transform="translate(18.827813 164.353281)rotate(-90)scale(0.1 -0.1)">
      <use xlink:href="#DejaVuSans-52"/>
      <use x="69.482422" xlink:href="#DejaVuSans-4d"/>
      <use x="155.761719" xlink:href="#DejaVuSans-53"/>
      <use x="219.238281" xlink:href="#DejaVuSans-46"/>
     </g>
    </g>
   </g>
   <g id="line2d_30">
    <path clip-path="url(#pf2334e9031)" d="M 38.27 202.929722 
L 39.43584 225.060367 
L 40.601681 218.881347 
L 41.767521 223.572823 
L 42.933362 242.301118 
L 44.099202 223.3085 
L 45.265043 218.414974 
L 46.430883 227.35716 
L 47.596724 224.244939 
L 48.762564 206.246529 
L 49.928405 168.227236 
L 51.094245 205.569418 
L 52.260085 235.400471 
L 53.425926 241.606939 
L 54.591766 231.555271 
L 55.757607 235.905502 
L 56.923447 203.17928 
L 58.089288 187.925628 
L 59.255128 120.969687 
L 60.420969 127.973392 
L 61.586809 151.102697 
L 62.75265 211.2694 
L 63.91849 238.741734 
L 65.08433 252.282438 
L 66.250171 260.528319 
L 67.416011 258.915157 
L 68.581852 264.965805 
L 69.747692 255.903386 
L 70.913533 191.864384 
L 72.079373 143.058759 
L 73.245214 219.397684 
L 74.411054 264.101619 
L 75.576895 268.774219 
L 76.742735 263.938399 
L 77.908575 260.459409 
L 79.074416 251.709028 
L 80.240256 223.553196 
L 81.406097 238.832874 
L 82.571937 246.410863 
L 83.737778 187.29153 
L 84.903618 147.220584 
L 86.069459 175.502044 
L 87.235299 216.599319 
L 88.40114 232.722126 
L 89.56698 218.816935 
L 90.732821 225.4636 
L 91.898661 235.8368 
L 93.064501 250.801577 
L 94.230342 249.273168 
L 95.396182 245.494568 
L 96.562023 243.295611 
L 97.727863 251.960308 
L 98.893704 250.983813 
L 100.059544 245.716095 
L 101.225385 239.335808 
L 102.391225 235.423308 
L 103.557066 244.175602 
L 104.722906 232.582288 
L 105.888746 206.447212 
L 107.054587 207.295519 
L 108.220427 200.873048 
L 109.386268 143.041758 
L 110.552108 175.426819 
L 111.717949 242.332414 
L 112.883789 265.224398 
L 114.04963 268.312214 
L 115.21547 248.620677 
L 116.381311 255.436847 
L 117.547151 267.203373 
L 119.878832 245.909533 
L 121.044672 211.789387 
L 122.210513 207.879577 
L 123.376353 200.326234 
L 124.542194 226.078905 
L 125.708034 209.225618 
L 126.873875 203.254973 
L 128.039715 217.339532 
L 129.205556 156.710141 
L 130.371396 171.940511 
L 131.537236 200.413712 
L 132.703077 207.067925 
L 133.868917 225.15125 
L 135.034758 236.629515 
L 136.200598 234.459692 
L 137.366439 230.505971 
L 138.532279 241.695263 
L 139.69812 248.296058 
L 140.86396 247.00127 
L 142.029801 237.614308 
L 143.195641 230.518535 
L 144.361481 174.830595 
L 145.527322 168.444803 
L 146.693162 198.281288 
L 147.859003 168.000194 
L 149.024843 213.026872 
L 150.190684 240.681264 
L 151.356524 261.9458 
L 152.522365 267.376959 
L 153.688205 266.913627 
L 154.854046 260.477231 
L 156.019886 270.031506 
L 157.185726 263.518699 
L 158.351567 270.596052 
L 159.517407 269.51202 
L 160.683248 259.791905 
L 161.849088 258.201305 
L 163.014929 259.018231 
L 164.180769 256.998794 
L 165.34661 262.601872 
L 166.51245 267.482946 
L 167.678291 260.946678 
L 168.844131 247.006166 
L 170.009972 237.920532 
L 171.175812 216.471711 
L 172.341652 206.873066 
L 173.507493 240.699912 
L 174.673333 261.329333 
L 175.839174 252.324865 
L 177.005014 264.733509 
L 178.170855 262.912518 
L 179.336695 266.790198 
L 180.502536 259.663401 
L 181.668376 255.251567 
L 182.834217 209.671303 
L 184.000057 151.151788 
L 185.165897 131.102667 
L 186.331738 186.248216 
L 187.497578 230.88623 
L 188.663419 255.179204 
L 189.829259 262.034207 
L 190.9951 244.046094 
L 192.16094 251.106003 
L 193.326781 264.08995 
L 194.492621 268.725999 
L 195.658462 268.714024 
L 196.824302 264.398261 
L 197.990142 262.044244 
L 199.155983 261.526433 
L 200.321823 245.933589 
L 201.487664 248.314071 
L 202.653504 244.175522 
L 203.819345 226.890747 
L 204.985185 222.938952 
L 206.151026 188.012118 
L 207.316866 142.718542 
L 208.482707 208.092564 
L 209.648547 257.59914 
L 210.814387 264.246132 
L 211.980228 262.850693 
L 213.146068 265.37901 
L 214.311909 271.197077 
L 215.477749 269.947769 
L 217.80943 268.055513 
L 218.975271 271.428353 
L 220.141111 258.763014 
L 221.306952 250.44784 
L 222.472792 258.551748 
L 223.638632 250.794437 
L 224.804473 228.706414 
L 225.970313 197.190535 
L 227.136154 169.477505 
L 228.301994 209.404594 
L 229.467835 168.613962 
L 230.633675 231.760621 
L 231.799516 246.235404 
L 232.965356 258.14386 
L 234.131197 261.581744 
L 235.297037 269.278266 
L 236.462877 261.735247 
L 237.628718 267.715947 
L 238.794558 271.048617 
L 239.960399 273.720926 
L 241.126239 270.689385 
L 242.29208 259.238676 
L 243.45792 261.046093 
L 244.623761 260.310871 
L 245.789601 258.44591 
L 246.955442 258.148481 
L 248.121282 255.429284 
L 249.287123 245.402742 
L 250.452963 248.78982 
L 251.618803 195.145918 
L 252.784644 102.707563 
L 253.950484 80.22122 
L 255.116325 128.668185 
L 256.282165 131.008059 
L 258.613846 208.366894 
L 259.779687 213.551642 
L 260.945527 251.218039 
L 262.111368 260.66726 
L 263.277208 268.556266 
L 264.443048 259.916918 
L 265.608889 257.364912 
L 266.774729 263.474177 
L 267.94057 248.50903 
L 269.10641 267.12254 
L 270.272251 270.014235 
L 271.438091 269.293127 
L 272.603932 253.976652 
L 273.769772 243.968146 
L 274.935613 248.797751 
L 276.101453 252.974957 
L 277.267293 240.047082 
L 278.433134 224.959675 
L 279.598974 157.866666 
L 280.764815 154.439543 
L 281.930655 181.264227 
L 283.096496 229.238242 
L 284.262336 248.159133 
L 285.428177 250.141514 
L 286.594017 239.712009 
L 287.759858 265.17079 
L 288.925698 266.759863 
L 290.091538 263.116772 
L 291.257379 256.859994 
L 292.423219 249.30508 
L 293.58906 221.46189 
L 294.7549 186.665667 
L 295.920741 214.609076 
L 297.086581 227.63142 
L 298.252422 237.616012 
L 299.418262 242.73192 
L 300.584103 245.397249 
L 301.749943 222.172757 
L 302.915783 135.664921 
L 304.081624 25.792273 
L 305.247464 38.388825 
L 306.413305 123.128904 
L 307.579145 232.847993 
L 308.744986 228.604162 
L 309.910826 223.607527 
L 311.076667 197.952942 
L 312.242507 162.581733 
L 313.408348 237.749147 
L 314.574188 253.65393 
L 315.740028 266.704455 
L 316.905869 262.473017 
L 318.071709 257.114083 
L 319.23755 256.227902 
L 320.40339 255.627669 
L 321.569231 239.582545 
L 322.735071 205.942061 
L 323.900912 244.617408 
L 325.066752 255.562396 
L 326.232593 253.565308 
L 327.398433 259.361704 
L 328.564274 248.612106 
L 329.730114 236.13778 
L 332.061795 264.561661 
L 333.227635 257.521417 
L 334.393476 266.857198 
L 335.559316 272.409744 
L 336.725157 264.203331 
L 337.890997 238.506088 
L 339.056838 269.81344 
L 340.222678 249.947843 
L 342.554359 177.438789 
L 343.720199 164.486098 
L 346.05188 192.331708 
L 347.217721 215.047387 
L 349.549402 254.913037 
L 350.715242 250.360895 
L 351.881083 254.057889 
L 353.046923 273.897181 
L 354.212764 275.237727 
L 355.378604 265.039998 
L 356.544444 259.371317 
L 357.710285 258.175792 
L 358.876125 254.049136 
L 360.041966 257.287021 
L 361.207806 231.469351 
L 362.373647 239.73755 
L 363.539487 236.737898 
L 365.871168 163.337747 
L 367.037009 192.915319 
L 368.202849 161.932258 
L 369.368689 107.367369 
L 370.53453 109.95434 
L 371.70037 136.799346 
L 372.866211 126.754795 
L 374.032051 147.44987 
L 375.197892 122.555839 
L 376.363732 157.559507 
L 377.529573 180.897759 
L 378.695413 132.719197 
L 379.861254 120.83883 
L 381.027094 153.659808 
L 382.192934 140.23831 
L 383.358775 198.21023 
L 384.524615 217.440131 
L 385.690456 211.507661 
L 386.856296 219.387166 
L 388.022137 215.190244 
L 389.187977 205.249048 
L 391.519658 239.561456 
L 392.685499 246.428223 
L 393.851339 240.858293 
L 395.017179 232.46798 
L 396.18302 214.04105 
L 397.34886 190.437546 
L 399.680541 35.470286 
L 400.846382 83.855793 
L 402.012222 179.526994 
L 403.178063 221.191657 
L 404.343903 253.192779 
L 405.509744 255.49683 
L 406.675584 262.121844 
L 407.841425 262.727409 
L 409.007265 259.574441 
L 410.173105 259.458984 
L 411.338946 267.446799 
L 412.504786 268.143901 
L 413.670627 265.027896 
L 414.836467 260.718555 
L 416.002308 268.135596 
L 417.168148 271.205712 
L 418.333989 237.112668 
L 419.499829 244.443624 
L 420.66567 237.802385 
L 421.83151 213.603368 
L 422.99735 165.021443 
L 424.163191 172.652547 
L 425.329031 123.972385 
L 426.494872 134.4291 
L 427.660712 223.207267 
L 428.826553 243.703604 
L 429.992393 243.175324 
L 431.158234 234.506772 
L 432.324074 243.245647 
L 433.489915 259.868849 
L 434.655755 266.802152 
L 435.821595 265.10429 
L 436.987436 264.227583 
L 438.153276 264.315067 
L 439.319117 260.206905 
L 440.484957 267.981005 
L 441.650798 262.0864 
L 442.816638 258.789955 
L 443.982479 249.315246 
L 445.148319 230.742658 
L 446.31416 190.218532 
L 447.48 76.441964 
L 447.48 76.441964 
" style="fill:none;stroke:#666666;stroke-dasharray:1,1.65;stroke-dashoffset:0;"/>
    <defs>
     <path d="M 0 0.5 
C 0.132602 0.5 0.25979 0.447317 0.353553 0.353553 
C 0.447317 0.25979 0.5 0.132602 0.5 0 
C 0.5 -0.132602 0.447317 -0.25979 0.353553 -0.353553 
C 0.25979 -0.447317 0.132602 -0.5 0 -0.5 
C -0.132602 -0.5 -0.25979 -0.447317 -0.353553 -0.353553 
C -0.447317 -0.25979 -0.5 -0.132602 -0.5 0 
C -0.5 0.132602 -0.447317 0.25979 -0.353553 0.353553 
C -0.25979 0.447317 -0.132602 0.5 0 0.5 
z
" id="m3418880a84" style="stroke:#666666;"/>
    </defs>
    <g clip-path="url(#pf2334e9031)">
     <use style="fill:#666666;stroke:#666666;" x="38.27" xlink:href="#m3418880a84" y="202.929722"/>
     <use style="fill:#666666;stroke:#666666;" x="39.43584" xlink:href="#m3418880a84" y="225.060367"/>
     <use style="fill:#666666;stroke:#666666;" x="40.601681" xlink:href="#m3418880a84" y="218.881347"/>
     <use style="fill:#666666;stroke:#666666;" x="41.767521" xlink:href="#m3418880a84" y="223.572823"/>
     <use style="fill:#666666;stroke:#666666;" x="42.933362" xlink:href="#m3418880a84" y="242.301118"/>
     <use style="fill:#666666;stroke:#666666;" x="44.099202" xlink:href="#m3418880a84" y="223.3085"/>
     <use style="fill:#666666;stroke:#666666;" x="45.265043" xlink:href="#m3418880a84" y="218.414974"/>
     <use style="fill:#666666;stroke:#666666;" x="46.430883" xlink:href="#m3418880a84" y="227.35716"/>
     <use style="fill:#666666;stroke:#666666;" x="47.596724" xlink:href="#m3418880a84" y="224.244939"/>
     <use style="fill:#666666;stroke:#666666;" x="48.762564" xlink:href="#m3418880a84" y="206.246529"/>
     <use style="fill:#666666;stroke:#666666;" x="49.928405" xlink:href="#m3418880a84" y="168.227236"/>
     <use style="fill:#666666;stroke:#666666;" x="51.094245" xlink:href="#m3418880a84" y="205.569418"/>
     <use style="fill:#666666;stroke:#666666;" x="52.260085" xlink:href="#m3418880a84" y="235.400471"/>
     <use style="fill:#666666;stroke:#666666;" x="53.425926" xlink:href="#m3418880a84" y="241.606939"/>
     <use style="fill:#666666;stroke:#666666;" x="54.591766" xlink:href="#m3418880a84" y="231.555271"/>
     <use style="fill:#666666;stroke:#666666;" x="55.757607" xlink:href="#m3418880a84" y="235.905502"/>
     <use style="fill:#666666;stroke:#666666;" x="56.923447" xlink:href="#m3418880a84" y="203.17928"/>
     <use style="fill:#666666;stroke:#666666;" x="58.089288" xlink:href="#m3418880a84" y="187.925628"/>
     <use style="fill:#666666;stroke:#666666;" x="59.255128" xlink:href="#m3418880a84" y="120.969687"/>
     <use style="fill:#666666;stroke:#666666;" x="60.420969" xlink:href="#m3418880a84" y="127.973392"/>
     <use style="fill:#666666;stroke:#666666;" x="61.586809" xlink:href="#m3418880a84" y="151.102697"/>
     <use style="fill:#666666;stroke:#666666;" x="62.75265" xlink:href="#m3418880a84" y="211.2694"/>
     <use style="fill:#666666;stroke:#666666;" x="63.91849" xlink:href="#m3418880a84" y="238.741734"/>
     <use style="fill:#666666;stroke:#666666;" x="65.08433" xlink:href="#m3418880a84" y="252.282438"/>
     <use style="fill:#666666;stroke:#666666;" x="66.250171" xlink:href="#m3418880a84" y="260.528319"/>
     <use style="fill:#666666;stroke:#666666;" x="67.416011" xlink:href="#m3418880a84" y="258.915157"/>
     <use style="fill:#666666;stroke:#666666;" x="68.581852" xlink:href="#m3418880a84" y="264.965805"/>
     <use style="fill:#666666;stroke:#666666;" x="69.747692" xlink:href="#m3418880a84" y="255.903386"/>
     <use style="fill:#666666;stroke:#666666;" x="70.913533" xlink:href="#m3418880a84" y="191.864384"/>
     <use style="fill:#666666;stroke:#666666;" x="72.079373" xlink:href="#m3418880a84" y="143.058759"/>
     <use style="fill:#666666;stroke:#666666;" x="73.245214" xlink:href="#m3418880a84" y="219.397684"/>
     <use style="fill:#666666;stroke:#666666;" x="74.411054" xlink:href="#m3418880a84" y="264.101619"/>
     <use style="fill:#666666;stroke:#666666;" x="75.576895" xlink:href="#m3418880a84" y="268.774219"/>
     <use style="fill:#666666;stroke:#666666;" x="76.742735" xlink:href="#m3418880a84" y="263.938399"/>
     <use style="fill:#666666;stroke:#666666;" x="77.908575" xlink:href="#m3418880a84" y="260.459409"/>
     <use style="fill:#666666;stroke:#666666;" x="79.074416" xlink:href="#m3418880a84" y="251.709028"/>
     <use style="fill:#666666;stroke:#666666;" x="80.240256" xlink:href="#m3418880a84" y="223.553196"/>
     <use style="fill:#666666;stroke:#666666;" x="81.406097" xlink:href="#m3418880a84" y="238.832874"/>
     <use style="fill:#666666;stroke:#666666;" x="82.571937" xlink:href="#m3418880a84" y="246.410863"/>
     <use style="fill:#666666;stroke:#666666;" x="83.737778" xlink:href="#m3418880a84" y="187.29153"/>
     <use style="fill:#666666;stroke:#666666;" x="84.903618" xlink:href="#m3418880a84" y="147.220584"/>
     <use style="fill:#666666;stroke:#666666;" x="86.069459" xlink:href="#m3418880a84" y="175.502044"/>
     <use style="fill:#666666;stroke:#666666;" x="87.235299" xlink:href="#m3418880a84" y="216.599319"/>
     <use style="fill:#666666;stroke:#666666;" x="88.40114" xlink:href="#m3418880a84" y="232.722126"/>
     <use style="fill:#666666;stroke:#666666;" x="89.56698" xlink:href="#m3418880a84" y="218.816935"/>
     <use style="fill:#666666;stroke:#666666;" x="90.732821" xlink:href="#m3418880a84" y="225.4636"/>
     <use style="fill:#666666;stroke:#666666;" x="91.898661" xlink:href="#m3418880a84" y="235.8368"/>
     <use style="fill:#666666;stroke:#666666;" x="93.064501" xlink:href="#m3418880a84" y="250.801577"/>
     <use style="fill:#666666;stroke:#666666;" x="94.230342" xlink:href="#m3418880a84" y="249.273168"/>
     <use style="fill:#666666;stroke:#666666;" x="95.396182" xlink:href="#m3418880a84" y="245.494568"/>
     <use style="fill:#666666;stroke:#666666;" x="96.562023" xlink:href="#m3418880a84" y="243.295611"/>
     <use style="fill:#666666;stroke:#666666;" x="97.727863" xlink:href="#m3418880a84" y="251.960308"/>
     <use style="fill:#666666;stroke:#666666;" x="98.893704" xlink:href="#m3418880a84" y="250.983813"/>
     <use style="fill:#666666;stroke:#666666;" x="100.059544" xlink:href="#m3418880a84" y="245.716095"/>
     <use style="fill:#666666;stroke:#666666;" x="101.225385" xlink:href="#m3418880a84" y="239.335808"/>
     <use style="fill:#666666;stroke:#666666;" x="102.391225" xlink:href="#m3418880a84" y="235.423308"/>
     <use style="fill:#666666;stroke:#666666;" x="103.557066" xlink:href="#m3418880a84" y="244.175602"/>
     <use style="fill:#666666;stroke:#666666;" x="104.722906" xlink:href="#m3418880a84" y="232.582288"/>
     <use style="fill:#666666;stroke:#666666;" x="105.888746" xlink:href="#m3418880a84" y="206.447212"/>
     <use style="fill:#666666;stroke:#666666;" x="107.054587" xlink:href="#m3418880a84" y="207.295519"/>
     <use style="fill:#666666;stroke:#666666;" x="108.220427" xlink:href="#m3418880a84" y="200.873048"/>
     <use style="fill:#666666;stroke:#666666;" x="109.386268" xlink:href="#m3418880a84" y="143.041758"/>
     <use style="fill:#666666;stroke:#666666;" x="110.552108" xlink:href="#m3418880a84" y="175.426819"/>
     <use style="fill:#666666;stroke:#666666;" x="111.717949" xlink:href="#m3418880a84" y="242.332414"/>
     <use style="fill:#666666;stroke:#666666;" x="112.883789" xlink:href="#m3418880a84" y="265.224398"/>
     <use style="fill:#666666;stroke:#666666;" x="114.04963" xlink:href="#m3418880a84" y="268.312214"/>
     <use style="fill:#666666;stroke:#666666;" x="115.21547" xlink:href="#m3418880a84" y="248.620677"/>
     <use style="fill:#666666;stroke:#666666;" x="116.381311" xlink:href="#m3418880a84" y="255.436847"/>
     <use style="fill:#666666;stroke:#666666;" x="117.547151" xlink:href="#m3418880a84" y="267.203373"/>
     <use style="fill:#666666;stroke:#666666;" x="118.712991" xlink:href="#m3418880a84" y="256.516088"/>
     <use style="fill:#666666;stroke:#666666;" x="119.878832" xlink:href="#m3418880a84" y="245.909533"/>
     <use style="fill:#666666;stroke:#666666;" x="121.044672" xlink:href="#m3418880a84" y="211.789387"/>
     <use style="fill:#666666;stroke:#666666;" x="122.210513" xlink:href="#m3418880a84" y="207.879577"/>
     <use style="fill:#666666;stroke:#666666;" x="123.376353" xlink:href="#m3418880a84" y="200.326234"/>
     <use style="fill:#666666;stroke:#666666;" x="124.542194" xlink:href="#m3418880a84" y="226.078905"/>
     <use style="fill:#666666;stroke:#666666;" x="125.708034" xlink:href="#m3418880a84" y="209.225618"/>
     <use style="fill:#666666;stroke:#666666;" x="126.873875" xlink:href="#m3418880a84" y="203.254973"/>
     <use style="fill:#666666;stroke:#666666;" x="128.039715" xlink:href="#m3418880a84" y="217.339532"/>
     <use style="fill:#666666;stroke:#666666;" x="129.205556" xlink:href="#m3418880a84" y="156.710141"/>
     <use style="fill:#666666;stroke:#666666;" x="130.371396" xlink:href="#m3418880a84" y="171.940511"/>
     <use style="fill:#666666;stroke:#666666;" x="131.537236" xlink:href="#m3418880a84" y="200.413712"/>
     <use style="fill:#666666;stroke:#666666;" x="132.703077" xlink:href="#m3418880a84" y="207.067925"/>
     <use style="fill:#666666;stroke:#666666;" x="133.868917" xlink:href="#m3418880a84" y="225.15125"/>
     <use style="fill:#666666;stroke:#666666;" x="135.034758" xlink:href="#m3418880a84" y="236.629515"/>
     <use style="fill:#666666;stroke:#666666;" x="136.200598" xlink:href="#m3418880a84" y="234.459692"/>
     <use style="fill:#666666;stroke:#666666;" x="137.366439" xlink:href="#m3418880a84" y="230.505971"/>
     <use style="fill:#666666;stroke:#666666;" x="138.532279" xlink:href="#m3418880a84" y="241.695263"/>
     <use style="fill:#666666;stroke:#666666;" x="139.69812" xlink:href="#m3418880a84" y="248.296058"/>
     <use style="fill:#666666;stroke:#666666;" x="140.86396" xlink:href="#m3418880a84" y="247.00127"/>
     <use style="fill:#666666;stroke:#666666;" x="142.029801" xlink:href="#m3418880a84" y="237.614308"/>
     <use style="fill:#666666;stroke:#666666;" x="143.195641" xlink:href="#m3418880a84" y="230.518535"/>
     <use style="fill:#666666;stroke:#666666;" x="144.361481" xlink:href="#m3418880a84" y="174.830595"/>
     <use style="fill:#666666;stroke:#666666;" x="145.527322" xlink:href="#m3418880a84" y="168.444803"/>
     <use style="fill:#666666;stroke:#666666;" x="146.693162" xlink:href="#m3418880a84" y="198.281288"/>
     <use style="fill:#666666;stroke:#666666;" x="147.859003" xlink:href="#m3418880a84" y="168.000194"/>
     <use style="fill:#666666;stroke:#666666;" x="149.024843" xlink:href="#m3418880a84" y="213.026872"/>
     <use style="fill:#666666;stroke:#666666;" x="150.190684" xlink:href="#m3418880a84" y="240.681264"/>
     <use style="fill:#666666;stroke:#666666;" x="151.356524" xlink:href="#m3418880a84" y="261.9458"/>
     <use style="fill:#666666;stroke:#666666;" x="152.522365" xlink:href="#m3418880a84" y="267.376959"/>
     <use style="fill:#666666;stroke:#666666;" x="153.688205" xlink:href="#m3418880a84" y="266.913627"/>
     <use style="fill:#666666;stroke:#666666;" x="154.854046" xlink:href="#m3418880a84" y="260.477231"/>
     <use style="fill:#666666;stroke:#666666;" x="156.019886" xlink:href="#m3418880a84" y="270.031506"/>
     <use style="fill:#666666;stroke:#666666;" x="157.185726" xlink:href="#m3418880a84" y="263.518699"/>
     <use style="fill:#666666;stroke:#666666;" x="158.351567" xlink:href="#m3418880a84" y="270.596052"/>
     <use style="fill:#666666;stroke:#666666;" x="159.517407" xlink:href="#m3418880a84" y="269.51202"/>
     <use style="fill:#666666;stroke:#666666;" x="160.683248" xlink:href="#m3418880a84" y="259.791905"/>
     <use style="fill:#666666;stroke:#666666;" x="161.849088" xlink:href="#m3418880a84" y="258.201305"/>
     <use style="fill:#666666;stroke:#666666;" x="163.014929" xlink:href="#m3418880a84" y="259.018231"/>
     <use style="fill:#666666;stroke:#666666;" x="164.180769" xlink:href="#m3418880a84" y="256.998794"/>
     <use style="fill:#666666;stroke:#666666;" x="165.34661" xlink:href="#m3418880a84" y="262.601872"/>
     <use style="fill:#666666;stroke:#666666;" x="166.51245" xlink:href="#m3418880a84" y="267.482946"/>
     <use style="fill:#666666;stroke:#666666;" x="167.678291" xlink:href="#m3418880a84" y="260.946678"/>
     <use style="fill:#666666;stroke:#666666;" x="168.844131" xlink:href="#m3418880a84" y="247.006166"/>
     <use style="fill:#666666;stroke:#666666;" x="170.009972" xlink:href="#m3418880a84" y="237.920532"/>
     <use style="fill:#666666;stroke:#666666;" x="171.175812" xlink:href="#m3418880a84" y="216.471711"/>
     <use style="fill:#666666;stroke:#666666;" x="172.341652" xlink:href="#m3418880a84" y="206.873066"/>
     <use style="fill:#666666;stroke:#666666;" x="173.507493" xlink:href="#m3418880a84" y="240.699912"/>
     <use style="fill:#666666;stroke:#666666;" x="174.673333" xlink:href="#m3418880a84" y="261.329333"/>
     <use style="fill:#666666;stroke:#666666;" x="175.839174" xlink:href="#m3418880a84" y="252.324865"/>
     <use style="fill:#666666;stroke:#666666;" x="177.005014" xlink:href="#m3418880a84" y="264.733509"/>
     <use style="fill:#666666;stroke:#666666;" x="178.170855" xlink:href="#m3418880a84" y="262.912518"/>
     <use style="fill:#666666;stroke:#666666;" x="179.336695" xlink:href="#m3418880a84" y="266.790198"/>
     <use style="fill:#666666;stroke:#666666;" x="180.502536" xlink:href="#m3418880a84" y="259.663401"/>
     <use style="fill:#666666;stroke:#666666;" x="181.668376" xlink:href="#m3418880a84" y="255.251567"/>
     <use style="fill:#666666;stroke:#666666;" x="182.834217" xlink:href="#m3418880a84" y="209.671303"/>
     <use style="fill:#666666;stroke:#666666;" x="184.000057" xlink:href="#m3418880a84" y="151.151788"/>
     <use style="fill:#666666;stroke:#666666;" x="185.165897" xlink:href="#m3418880a84" y="131.102667"/>
     <use style="fill:#666666;stroke:#666666;" x="186.331738" xlink:href="#m3418880a84" y="186.248216"/>
     <use style="fill:#666666;stroke:#666666;" x="187.497578" xlink:href="#m3418880a84" y="230.88623"/>
     <use style="fill:#666666;stroke:#666666;" x="188.663419" xlink:href="#m3418880a84" y="255.179204"/>
     <use style="fill:#666666;stroke:#666666;" x="189.829259" xlink:href="#m3418880a84" y="262.034207"/>
     <use style="fill:#666666;stroke:#666666;" x="190.9951" xlink:href="#m3418880a84" y="244.046094"/>
     <use style="fill:#666666;stroke:#666666;" x="192.16094" xlink:href="#m3418880a84" y="251.106003"/>
     <use style="fill:#666666;stroke:#666666;" x="193.326781" xlink:href="#m3418880a84" y="264.08995"/>
     <use style="fill:#666666;stroke:#666666;" x="194.492621" xlink:href="#m3418880a84" y="268.725999"/>
     <use style="fill:#666666;stroke:#666666;" x="195.658462" xlink:href="#m3418880a84" y="268.714024"/>
     <use style="fill:#666666;stroke:#666666;" x="196.824302" xlink:href="#m3418880a84" y="264.398261"/>
     <use style="fill:#666666;stroke:#666666;" x="197.990142" xlink:href="#m3418880a84" y="262.044244"/>
     <use style="fill:#666666;stroke:#666666;" x="199.155983" xlink:href="#m3418880a84" y="261.526433"/>
     <use style="fill:#666666;stroke:#666666;" x="200.321823" xlink:href="#m3418880a84" y="245.933589"/>
     <use style="fill:#666666;stroke:#666666;" x="201.487664" xlink:href="#m3418880a84" y="248.314071"/>
     <use style="fill:#666666;stroke:#666666;" x="202.653504" xlink:href="#m3418880a84" y="244.175522"/>
     <use style="fill:#666666;stroke:#666666;" x="203.819345" xlink:href="#m3418880a84" y="226.890747"/>
     <use style="fill:#666666;stroke:#666666;" x="204.985185" xlink:href="#m3418880a84" y="222.938952"/>
     <use style="fill:#666666;stroke:#666666;" x="206.151026" xlink:href="#m3418880a84" y="188.012118"/>
     <use style="fill:#666666;stroke:#666666;" x="207.316866" xlink:href="#m3418880a84" y="142.718542"/>
     <use style="fill:#666666;stroke:#666666;" x="208.482707" xlink:href="#m3418880a84" y="208.092564"/>
     <use style="fill:#666666;stroke:#666666;" x="209.648547" xlink:href="#m3418880a84" y="257.59914"/>
     <use style="fill:#666666;stroke:#666666;" x="210.814387" xlink:href="#m3418880a84" y="264.246132"/>
     <use style="fill:#666666;stroke:#666666;" x="211.980228" xlink:href="#m3418880a84" y="262.850693"/>
     <use style="fill:#666666;stroke:#666666;" x="213.146068" xlink:href="#m3418880a84" y="265.37901"/>
     <use style="fill:#666666;stroke:#666666;" x="214.311909" xlink:href="#m3418880a84" y="271.197077"/>
     <use style="fill:#666666;stroke:#666666;" x="215.477749" xlink:href="#m3418880a84" y="269.947769"/>
     <use style="fill:#666666;stroke:#666666;" x="216.64359" xlink:href="#m3418880a84" y="269.054584"/>
     <use style="fill:#666666;stroke:#666666;" x="217.80943" xlink:href="#m3418880a84" y="268.055513"/>
     <use style="fill:#666666;stroke:#666666;" x="218.975271" xlink:href="#m3418880a84" y="271.428353"/>
     <use style="fill:#666666;stroke:#666666;" x="220.141111" xlink:href="#m3418880a84" y="258.763014"/>
     <use style="fill:#666666;stroke:#666666;" x="221.306952" xlink:href="#m3418880a84" y="250.44784"/>
     <use style="fill:#666666;stroke:#666666;" x="222.472792" xlink:href="#m3418880a84" y="258.551748"/>
     <use style="fill:#666666;stroke:#666666;" x="223.638632" xlink:href="#m3418880a84" y="250.794437"/>
     <use style="fill:#666666;stroke:#666666;" x="224.804473" xlink:href="#m3418880a84" y="228.706414"/>
     <use style="fill:#666666;stroke:#666666;" x="225.970313" xlink:href="#m3418880a84" y="197.190535"/>
     <use style="fill:#666666;stroke:#666666;" x="227.136154" xlink:href="#m3418880a84" y="169.477505"/>
     <use style="fill:#666666;stroke:#666666;" x="228.301994" xlink:href="#m3418880a84" y="209.404594"/>
     <use style="fill:#666666;stroke:#666666;" x="229.467835" xlink:href="#m3418880a84" y="168.613962"/>
     <use style="fill:#666666;stroke:#666666;" x="230.633675" xlink:href="#m3418880a84" y="231.760621"/>
     <use style="fill:#666666;stroke:#666666;" x="231.799516" xlink:href="#m3418880a84" y="246.235404"/>
     <use style="fill:#666666;stroke:#666666;" x="232.965356" xlink:href="#m3418880a84" y="258.14386"/>
     <use style="fill:#666666;stroke:#666666;" x="234.131197" xlink:href="#m3418880a84" y="261.581744"/>
     <use style="fill:#666666;stroke:#666666;" x="235.297037" xlink:href="#m3418880a84" y="269.278266"/>
     <use style="fill:#666666;stroke:#666666;" x="236.462877" xlink:href="#m3418880a84" y="261.735247"/>
     <use style="fill:#666666;stroke:#666666;" x="237.628718" xlink:href="#m3418880a84" y="267.715947"/>
     <use style="fill:#666666;stroke:#666666;" x="238.794558" xlink:href="#m3418880a84" y="271.048617"/>
     <use style="fill:#666666;stroke:#666666;" x="239.960399" xlink:href="#m3418880a84" y="273.720926"/>
     <use style="fill:#666666;stroke:#666666;" x="241.126239" xlink:href="#m3418880a84" y="270.689385"/>
     <use style="fill:#666666;stroke:#666666;" x="242.29208" xlink:href="#m3418880a84" y="259.238676"/>
     <use style="fill:#666666;stroke:#666666;" x="243.45792" xlink:href="#m3418880a84" y="261.046093"/>
     <use style="fill:#666666;stroke:#666666;" x="244.623761" xlink:href="#m3418880a84" y="260.310871"/>
     <use style="fill:#666666;stroke:#666666;" x="245.789601" xlink:href="#m3418880a84" y="258.44591"/>
     <use style="fill:#666666;stroke:#666666;" x="246.955442" xlink:href="#m3418880a84" y="258.148481"/>
     <use style="fill:#666666;stroke:#666666;" x="248.121282" xlink:href="#m3418880a84" y="255.429284"/>
     <use style="fill:#666666;stroke:#666666;" x="249.287123" xlink:href="#m3418880a84" y="245.402742"/>
     <use style="fill:#666666;stroke:#666666;" x="250.452963" xlink:href="#m3418880a84" y="248.78982"/>
     <use style="fill:#666666;stroke:#666666;" x="251.618803" xlink:href="#m3418880a84" y="195.145918"/>
     <use style="fill:#666666;stroke:#666666;" x="252.784644" xlink:href="#m3418880a84" y="102.707563"/>
     <use style="fill:#666666;stroke:#666666;" x="253.950484" xlink:href="#m3418880a84" y="80.22122"/>
     <use style="fill:#666666;stroke:#666666;" x="255.116325" xlink:href="#m3418880a84" y="128.668185"/>
     <use style="fill:#666666;stroke:#666666;" x="256.282165" xlink:href="#m3418880a84" y="131.008059"/>
     <use style="fill:#666666;stroke:#666666;" x="257.448006" xlink:href="#m3418880a84" y="170.725496"/>
     <use style="fill:#666666;stroke:#666666;" x="258.613846" xlink:href="#m3418880a84" y="208.366894"/>
     <use style="fill:#666666;stroke:#666666;" x="259.779687" xlink:href="#m3418880a84" y="213.551642"/>
     <use style="fill:#666666;stroke:#666666;" x="260.945527" xlink:href="#m3418880a84" y="251.218039"/>
     <use style="fill:#666666;stroke:#666666;" x="262.111368" xlink:href="#m3418880a84" y="260.66726"/>
     <use style="fill:#666666;stroke:#666666;" x="263.277208" xlink:href="#m3418880a84" y="268.556266"/>
     <use style="fill:#666666;stroke:#666666;" x="264.443048" xlink:href="#m3418880a84" y="259.916918"/>
     <use style="fill:#666666;stroke:#666666;" x="265.608889" xlink:href="#m3418880a84" y="257.364912"/>
     <use style="fill:#666666;stroke:#666666;" x="266.774729" xlink:href="#m3418880a84" y="263.474177"/>
     <use style="fill:#666666;stroke:#666666;" x="267.94057" xlink:href="#m3418880a84" y="248.50903"/>
     <use style="fill:#666666;stroke:#666666;" x="269.10641" xlink:href="#m3418880a84" y="267.12254"/>
     <use style="fill:#666666;stroke:#666666;" x="270.272251" xlink:href="#m3418880a84" y="270.014235"/>
     <use style="fill:#666666;stroke:#666666;" x="271.438091" xlink:href="#m3418880a84" y="269.293127"/>
     <use style="fill:#666666;stroke:#666666;" x="272.603932" xlink:href="#m3418880a84" y="253.976652"/>
     <use style="fill:#666666;stroke:#666666;" x="273.769772" xlink:href="#m3418880a84" y="243.968146"/>
     <use style="fill:#666666;stroke:#666666;" x="274.935613" xlink:href="#m3418880a84" y="248.797751"/>
     <use style="fill:#666666;stroke:#666666;" x="276.101453" xlink:href="#m3418880a84" y="252.974957"/>
     <use style="fill:#666666;stroke:#666666;" x="277.267293" xlink:href="#m3418880a84" y="240.047082"/>
     <use style="fill:#666666;stroke:#666666;" x="278.433134" xlink:href="#m3418880a84" y="224.959675"/>
     <use style="fill:#666666;stroke:#666666;" x="279.598974" xlink:href="#m3418880a84" y="157.866666"/>
     <use style="fill:#666666;stroke:#666666;" x="280.764815" xlink:href="#m3418880a84" y="154.439543"/>
     <use style="fill:#666666;stroke:#666666;" x="281.930655" xlink:href="#m3418880a84" y="181.264227"/>
     <use style="fill:#666666;stroke:#666666;" x="283.096496" xlink:href="#m3418880a84" y="229.238242"/>
     <use style="fill:#666666;stroke:#666666;" x="284.262336" xlink:href="#m3418880a84" y="248.159133"/>
     <use style="fill:#666666;stroke:#666666;" x="285.428177" xlink:href="#m3418880a84" y="250.141514"/>
     <use style="fill:#666666;stroke:#666666;" x="286.594017" xlink:href="#m3418880a84" y="239.712009"/>
     <use style="fill:#666666;stroke:#666666;" x="287.759858" xlink:href="#m3418880a84" y="265.17079"/>
     <use style="fill:#666666;stroke:#666666;" x="288.925698" xlink:href="#m3418880a84" y="266.759863"/>
     <use style="fill:#666666;stroke:#666666;" x="290.091538" xlink:href="#m3418880a84" y="263.116772"/>
     <use style="fill:#666666;stroke:#666666;" x="291.257379" xlink:href="#m3418880a84" y="256.859994"/>
     <use style="fill:#666666;stroke:#666666;" x="292.423219" xlink:href="#m3418880a84" y="249.30508"/>
     <use style="fill:#666666;stroke:#666666;" x="293.58906" xlink:href="#m3418880a84" y="221.46189"/>
     <use style="fill:#666666;stroke:#666666;" x="294.7549" xlink:href="#m3418880a84" y="186.665667"/>
     <use style="fill:#666666;stroke:#666666;" x="295.920741" xlink:href="#m3418880a84" y="214.609076"/>
     <use style="fill:#666666;stroke:#666666;" x="297.086581" xlink:href="#m3418880a84" y="227.63142"/>
     <use style="fill:#666666;stroke:#666666;" x="298.252422" xlink:href="#m3418880a84" y="237.616012"/>
     <use style="fill:#666666;stroke:#666666;" x="299.418262" xlink:href="#m3418880a84" y="242.73192"/>
     <use style="fill:#666666;stroke:#666666;" x="300.584103" xlink:href="#m3418880a84" y="245.397249"/>
     <use style="fill:#666666;stroke:#666666;" x="301.749943" xlink:href="#m3418880a84" y="222.172757"/>
     <use style="fill:#666666;stroke:#666666;" x="302.915783" xlink:href="#m3418880a84" y="135.664921"/>
     <use style="fill:#666666;stroke:#666666;" x="304.081624" xlink:href="#m3418880a84" y="25.792273"/>
     <use style="fill:#666666;stroke:#666666;" x="305.247464" xlink:href="#m3418880a84" y="38.388825"/>
     <use style="fill:#666666;stroke:#666666;" x="306.413305" xlink:href="#m3418880a84" y="123.128904"/>
     <use style="fill:#666666;stroke:#666666;" x="307.579145" xlink:href="#m3418880a84" y="232.847993"/>
     <use style="fill:#666666;stroke:#666666;" x="308.744986" xlink:href="#m3418880a84" y="228.604162"/>
     <use style="fill:#666666;stroke:#666666;" x="309.910826" xlink:href="#m3418880a84" y="223.607527"/>
     <use style="fill:#666666;stroke:#666666;" x="311.076667" xlink:href="#m3418880a84" y="197.952942"/>
     <use style="fill:#666666;stroke:#666666;" x="312.242507" xlink:href="#m3418880a84" y="162.581733"/>
     <use style="fill:#666666;stroke:#666666;" x="313.408348" xlink:href="#m3418880a84" y="237.749147"/>
     <use style="fill:#666666;stroke:#666666;" x="314.574188" xlink:href="#m3418880a84" y="253.65393"/>
     <use style="fill:#666666;stroke:#666666;" x="315.740028" xlink:href="#m3418880a84" y="266.704455"/>
     <use style="fill:#666666;stroke:#666666;" x="316.905869" xlink:href="#m3418880a84" y="262.473017"/>
     <use style="fill:#666666;stroke:#666666;" x="318.071709" xlink:href="#m3418880a84" y="257.114083"/>
     <use style="fill:#666666;stroke:#666666;" x="319.23755" xlink:href="#m3418880a84" y="256.227902"/>
     <use style="fill:#666666;stroke:#666666;" x="320.40339" xlink:href="#m3418880a84" y="255.627669"/>
     <use style="fill:#666666;stroke:#666666;" x="321.569231" xlink:href="#m3418880a84" y="239.582545"/>
     <use style="fill:#666666;stroke:#666666;" x="322.735071" xlink:href="#m3418880a84" y="205.942061"/>
     <use style="fill:#666666;stroke:#666666;" x="323.900912" xlink:href="#m3418880a84" y="244.617408"/>
     <use style="fill:#666666;stroke:#666666;" x="325.066752" xlink:href="#m3418880a84" y="255.562396"/>
     <use style="fill:#666666;stroke:#666666;" x="326.232593" xlink:href="#m3418880a84" y="253.565308"/>
     <use style="fill:#666666;stroke:#666666;" x="327.398433" xlink:href="#m3418880a84" y="259.361704"/>
     <use style="fill:#666666;stroke:#666666;" x="328.564274" xlink:href="#m3418880a84" y="248.612106"/>
     <use style="fill:#666666;stroke:#666666;" x="329.730114" xlink:href="#m3418880a84" y="236.13778"/>
     <use style="fill:#666666;stroke:#666666;" x="330.895954" xlink:href="#m3418880a84" y="250.350282"/>
     <use style="fill:#666666;stroke:#666666;" x="332.061795" xlink:href="#m3418880a84" y="264.561661"/>
     <use style="fill:#666666;stroke:#666666;" x="333.227635" xlink:href="#m3418880a84" y="257.521417"/>
     <use style="fill:#666666;stroke:#666666;" x="334.393476" xlink:href="#m3418880a84" y="266.857198"/>
     <use style="fill:#666666;stroke:#666666;" x="335.559316" xlink:href="#m3418880a84" y="272.409744"/>
     <use style="fill:#666666;stroke:#666666;" x="336.725157" xlink:href="#m3418880a84" y="264.203331"/>
     <use style="fill:#666666;stroke:#666666;" x="337.890997" xlink:href="#m3418880a84" y="238.506088"/>
     <use style="fill:#666666;stroke:#666666;" x="339.056838" xlink:href="#m3418880a84" y="269.81344"/>
     <use style="fill:#666666;stroke:#666666;" x="340.222678" xlink:href="#m3418880a84" y="249.947843"/>
     <use style="fill:#666666;stroke:#666666;" x="341.388519" xlink:href="#m3418880a84" y="215.2616"/>
     <use style="fill:#666666;stroke:#666666;" x="342.554359" xlink:href="#m3418880a84" y="177.438789"/>
     <use style="fill:#666666;stroke:#666666;" x="343.720199" xlink:href="#m3418880a84" y="164.486098"/>
     <use style="fill:#666666;stroke:#666666;" x="344.88604" xlink:href="#m3418880a84" y="178.600387"/>
     <use style="fill:#666666;stroke:#666666;" x="346.05188" xlink:href="#m3418880a84" y="192.331708"/>
     <use style="fill:#666666;stroke:#666666;" x="347.217721" xlink:href="#m3418880a84" y="215.047387"/>
     <use style="fill:#666666;stroke:#666666;" x="348.383561" xlink:href="#m3418880a84" y="235.58532"/>
     <use style="fill:#666666;stroke:#666666;" x="349.549402" xlink:href="#m3418880a84" y="254.913037"/>
     <use style="fill:#666666;stroke:#666666;" x="350.715242" xlink:href="#m3418880a84" y="250.360895"/>
     <use style="fill:#666666;stroke:#666666;" x="351.881083" xlink:href="#m3418880a84" y="254.057889"/>
     <use style="fill:#666666;stroke:#666666;" x="353.046923" xlink:href="#m3418880a84" y="273.897181"/>
     <use style="fill:#666666;stroke:#666666;" x="354.212764" xlink:href="#m3418880a84" y="275.237727"/>
     <use style="fill:#666666;stroke:#666666;" x="355.378604" xlink:href="#m3418880a84" y="265.039998"/>
     <use style="fill:#666666;stroke:#666666;" x="356.544444" xlink:href="#m3418880a84" y="259.371317"/>
     <use style="fill:#666666;stroke:#666666;" x="357.710285" xlink:href="#m3418880a84" y="258.175792"/>
     <use style="fill:#666666;stroke:#666666;" x="358.876125" xlink:href="#m3418880a84" y="254.049136"/>
     <use style="fill:#666666;stroke:#666666;" x="360.041966" xlink:href="#m3418880a84" y="257.287021"/>
     <use style="fill:#666666;stroke:#666666;" x="361.207806" xlink:href="#m3418880a84" y="231.469351"/>
     <use style="fill:#666666;stroke:#666666;" x="362.373647" xlink:href="#m3418880a84" y="239.73755"/>
     <use style="fill:#666666;stroke:#666666;" x="363.539487" xlink:href="#m3418880a84" y="236.737898"/>
     <use style="fill:#666666;stroke:#666666;" x="364.705328" xlink:href="#m3418880a84" y="201.681718"/>
     <use style="fill:#666666;stroke:#666666;" x="365.871168" xlink:href="#m3418880a84" y="163.337747"/>
     <use style="fill:#666666;stroke:#666666;" x="367.037009" xlink:href="#m3418880a84" y="192.915319"/>
     <use style="fill:#666666;stroke:#666666;" x="368.202849" xlink:href="#m3418880a84" y="161.932258"/>
     <use style="fill:#666666;stroke:#666666;" x="369.368689" xlink:href="#m3418880a84" y="107.367369"/>
     <use style="fill:#666666;stroke:#666666;" x="370.53453" xlink:href="#m3418880a84" y="109.95434"/>
     <use style="fill:#666666;stroke:#666666;" x="371.70037" xlink:href="#m3418880a84" y="136.799346"/>
     <use style="fill:#666666;stroke:#666666;" x="372.866211" xlink:href="#m3418880a84" y="126.754795"/>
     <use style="fill:#666666;stroke:#666666;" x="374.032051" xlink:href="#m3418880a84" y="147.44987"/>
     <use style="fill:#666666;stroke:#666666;" x="375.197892" xlink:href="#m3418880a84" y="122.555839"/>
     <use style="fill:#666666;stroke:#666666;" x="376.363732" xlink:href="#m3418880a84" y="157.559507"/>
     <use style="fill:#666666;stroke:#666666;" x="377.529573" xlink:href="#m3418880a84" y="180.897759"/>
     <use style="fill:#666666;stroke:#666666;" x="378.695413" xlink:href="#m3418880a84" y="132.719197"/>
     <use style="fill:#666666;stroke:#666666;" x="379.861254" xlink:href="#m3418880a84" y="120.83883"/>
     <use style="fill:#666666;stroke:#666666;" x="381.027094" xlink:href="#m3418880a84" y="153.659808"/>
     <use style="fill:#666666;stroke:#666666;" x="382.192934" xlink:href="#m3418880a84" y="140.23831"/>
     <use style="fill:#666666;stroke:#666666;" x="383.358775" xlink:href="#m3418880a84" y="198.21023"/>
     <use style="fill:#666666;stroke:#666666;" x="384.524615" xlink:href="#m3418880a84" y="217.440131"/>
     <use style="fill:#666666;stroke:#666666;" x="385.690456" xlink:href="#m3418880a84" y="211.507661"/>
     <use style="fill:#666666;stroke:#666666;" x="386.856296" xlink:href="#m3418880a84" y="219.387166"/>
     <use style="fill:#666666;stroke:#666666;" x="388.022137" xlink:href="#m3418880a84" y="215.190244"/>
     <use style="fill:#666666;stroke:#666666;" x="389.187977" xlink:href="#m3418880a84" y="205.249048"/>
     <use style="fill:#666666;stroke:#666666;" x="390.353818" xlink:href="#m3418880a84" y="221.821896"/>
     <use style="fill:#666666;stroke:#666666;" x="391.519658" xlink:href="#m3418880a84" y="239.561456"/>
     <use style="fill:#666666;stroke:#666666;" x="392.685499" xlink:href="#m3418880a84" y="246.428223"/>
     <use style="fill:#666666;stroke:#666666;" x="393.851339" xlink:href="#m3418880a84" y="240.858293"/>
     <use style="fill:#666666;stroke:#666666;" x="395.017179" xlink:href="#m3418880a84" y="232.46798"/>
     <use style="fill:#666666;stroke:#666666;" x="396.18302" xlink:href="#m3418880a84" y="214.04105"/>
     <use style="fill:#666666;stroke:#666666;" x="397.34886" xlink:href="#m3418880a84" y="190.437546"/>
     <use style="fill:#666666;stroke:#666666;" x="398.514701" xlink:href="#m3418880a84" y="110.361768"/>
     <use style="fill:#666666;stroke:#666666;" x="399.680541" xlink:href="#m3418880a84" y="35.470286"/>
     <use style="fill:#666666;stroke:#666666;" x="400.846382" xlink:href="#m3418880a84" y="83.855793"/>
     <use style="fill:#666666;stroke:#666666;" x="402.012222" xlink:href="#m3418880a84" y="179.526994"/>
     <use style="fill:#666666;stroke:#666666;" x="403.178063" xlink:href="#m3418880a84" y="221.191657"/>
     <use style="fill:#666666;stroke:#666666;" x="404.343903" xlink:href="#m3418880a84" y="253.192779"/>
     <use style="fill:#666666;stroke:#666666;" x="405.509744" xlink:href="#m3418880a84" y="255.49683"/>
     <use style="fill:#666666;stroke:#666666;" x="406.675584" xlink:href="#m3418880a84" y="262.121844"/>
     <use style="fill:#666666;stroke:#666666;" x="407.841425" xlink:href="#m3418880a84" y="262.727409"/>
     <use style="fill:#666666;stroke:#666666;" x="409.007265" xlink:href="#m3418880a84" y="259.574441"/>
     <use style="fill:#666666;stroke:#666666;" x="410.173105" xlink:href="#m3418880a84" y="259.458984"/>
     <use style="fill:#666666;stroke:#666666;" x="411.338946" xlink:href="#m3418880a84" y="267.446799"/>
     <use style="fill:#666666;stroke:#666666;" x="412.504786" xlink:href="#m3418880a84" y="268.143901"/>
     <use style="fill:#666666;stroke:#666666;" x="413.670627" xlink:href="#m3418880a84" y="265.027896"/>
     <use style="fill:#666666;stroke:#666666;" x="414.836467" xlink:href="#m3418880a84" y="260.718555"/>
     <use style="fill:#666666;stroke:#666666;" x="416.002308" xlink:href="#m3418880a84" y="268.135596"/>
     <use style="fill:#666666;stroke:#666666;" x="417.168148" xlink:href="#m3418880a84" y="271.205712"/>
     <use style="fill:#666666;stroke:#666666;" x="418.333989" xlink:href="#m3418880a84" y="237.112668"/>
     <use style="fill:#666666;stroke:#666666;" x="419.499829" xlink:href="#m3418880a84" y="244.443624"/>
     <use style="fill:#666666;stroke:#666666;" x="420.66567" xlink:href="#m3418880a84" y="237.802385"/>
     <use style="fill:#666666;stroke:#666666;" x="421.83151" xlink:href="#m3418880a84" y="213.603368"/>
     <use style="fill:#666666;stroke:#666666;" x="422.99735" xlink:href="#m3418880a84" y="165.021443"/>
     <use style="fill:#666666;stroke:#666666;" x="424.163191" xlink:href="#m3418880a84" y="172.652547"/>
     <use style="fill:#666666;stroke:#666666;" x="425.329031" xlink:href="#m3418880a84" y="123.972385"/>
     <use style="fill:#666666;stroke:#666666;" x="426.494872" xlink:href="#m3418880a84" y="134.4291"/>
     <use style="fill:#666666;stroke:#666666;" x="427.660712" xlink:href="#m3418880a84" y="223.207267"/>
     <use style="fill:#666666;stroke:#666666;" x="428.826553" xlink:href="#m3418880a84" y="243.703604"/>
     <use style="fill:#666666;stroke:#666666;" x="429.992393" xlink:href="#m3418880a84" y="243.175324"/>
     <use style="fill:#666666;stroke:#666666;" x="431.158234" xlink:href="#m3418880a84" y="234.506772"/>
     <use style="fill:#666666;stroke:#666666;" x="432.324074" xlink:href="#m3418880a84" y="243.245647"/>
     <use style="fill:#666666;stroke:#666666;" x="433.489915" xlink:href="#m3418880a84" y="259.868849"/>
     <use style="fill:#666666;stroke:#666666;" x="434.655755" xlink:href="#m3418880a84" y="266.802152"/>
     <use style="fill:#666666;stroke:#666666;" x="435.821595" xlink:href="#m3418880a84" y="265.10429"/>
     <use style="fill:#666666;stroke:#666666;" x="436.987436" xlink:href="#m3418880a84" y="264.227583"/>
     <use style="fill:#666666;stroke:#666666;" x="438.153276" xlink:href="#m3418880a84" y="264.315067"/>
     <use style="fill:#666666;stroke:#666666;" x="439.319117" xlink:href="#m3418880a84" y="260.206905"/>
     <use style="fill:#666666;stroke:#666666;" x="440.484957" xlink:href="#m3418880a84" y="267.981005"/>
     <use style="fill:#666666;stroke:#666666;" x="441.650798" xlink:href="#m3418880a84" y="262.0864"/>
     <use style="fill:#666666;stroke:#666666;" x="442.816638" xlink:href="#m3418880a84" y="258.789955"/>
     <use style="fill:#666666;stroke:#666666;" x="443.982479" xlink:href="#m3418880a84" y="249.315246"/>
     <use style="fill:#666666;stroke:#666666;" x="445.148319" xlink:href="#m3418880a84" y="230.742658"/>
     <use style="fill:#666666;stroke:#666666;" x="446.31416" xlink:href="#m3418880a84" y="190.218532"/>
     <use style="fill:#666666;stroke:#666666;" x="447.48" xlink:href="#m3418880a84" y="76.441964"/>
    </g>
   </g>
   <g id="patch_3">
    <path d="M 38.27 287.71 
L 38.27 13.32 
" style="fill:none;stroke:#000000;stroke-linecap:square;stroke-linejoin:miter;stroke-width:0.8;"/>
   </g>
   <g id="patch_4">
    <path d="M 447.48 287.71 
L 447.48 13.32 
" style="fill:none;stroke:#000000;stroke-linecap:square;stroke-linejoin:miter;stroke-width:0.8;"/>
   </g>
   <g id="patch_5">
    <path d="M 38.27 287.71 
L 447.48 287.71 
" style="fill:none;stroke:#000000;stroke-linecap:square;stroke-linejoin:miter;stroke-width:0.8;"/>
   </g>
   <g id="patch_6">
    <path d="M 38.27 13.32 
L 447.48 13.32 
" style="fill:none;stroke:#000000;stroke-linecap:square;stroke-linejoin:miter;stroke-width:0.8;"/>
   </g>
  </g>
 </g>
 <defs>
  <clipPath id="pf2334e9031">
   <rect height="274.39" width="409.21" x="38.27" y="13.32"/>
  </clipPath>
 </defs>
</svg>
